<svg xmlns="http://www.w3.org/2000/svg" xmlns:xlink="http://www.w3.org/1999/xlink" contentStyleType="text/css" data-diagram-type="DESCRIPTION" height="790px" preserveAspectRatio="none" style="width:1165px;height:790px;background:#FFFFFF;" version="1.1" viewBox="0 0 1165 790" width="1165px" zoomAndPan="magnify"><?plantuml $version$?><defs/><g><g class="title" data-source-line="1"><text fill="#000000" font-family="sans-serif" font-size="14" font-weight="700" lengthAdjust="spacing" textLength="143.917" x="507.0415" y="26.0439">Component Overview</text></g><!--cluster Frontend--><g class="cluster" data-qualified-name="Frontend" data-source-line="5" id="ent0001"><path d="M8.5,46.1201 L70.1553,46.1201 A3.75,3.75 0 0 1 72.6553,48.6201 L79.6553,71.2402 L340.5,71.2402 A2.5,2.5 0 0 1 343,73.7402 L343,388.1201 A2.5,2.5 0 0 1 340.5,390.6201 L8.5,390.6201 A2.5,2.5 0 0 1 6,388.1201 L6,48.6201 A2.5,2.5 0 0 1 8.5,46.1201" fill="none" style="stroke:#000000;stroke-width:1.5;"/><line style="stroke:#000000;stroke-width:1.5;" x1="6" x2="79.6553" y1="71.2402" y2="71.2402"/><text fill="#000000" font-family="sans-serif" font-size="14" font-weight="700" lengthAdjust="spacing" textLength="60.6553" x="10" y="64.1641">Frontend</text></g><!--cluster Backend--><g class="cluster" data-qualified-name="Backend" data-source-line="14" id="ent0008"><path d="M369.5,288.1201 L428.8584,288.1201 A3.75,3.75 0 0 1 431.3584,290.6201 L438.3584,313.2402 L1147.5,313.2402 A2.5,2.5 0 0 1 1150,315.7402 L1150,772.6201 A2.5,2.5 0 0 1 1147.5,775.1201 L369.5,775.1201 A2.5,2.5 0 0 1 367,772.6201 L367,290.6201 A2.5,2.5 0 0 1 369.5,288.1201" fill="none" style="stroke:#000000;stroke-width:1.5;"/><line style="stroke:#000000;stroke-width:1.5;" x1="367" x2="438.3584" y1="313.2402" y2="313.2402"/><text fill="#000000" font-family="sans-serif" font-size="14" font-weight="700" lengthAdjust="spacing" textLength="58.3584" x="371" y="306.1641">Backend</text></g><!--entity App--><g class="entity" data-qualified-name="Frontend.App" data-source-line="6" id="ent0002"><rect fill="#F1F1F1" height="39.1201" rx="2.5" ry="2.5" style="stroke:#181818;stroke-width:0.5;" width="66.6895" x="156.5" y="84.1201"/><text fill="#000000" font-family="sans-serif" font-size="14" lengthAdjust="spacing" textLength="46.6895" x="166.5" y="110.1641">App.tsx</text></g><!--entity Queue--><g class="entity" data-qualified-name="Frontend.Queue" data-source-line="7" id="ent0003"><rect fill="#F1F1F1" height="39.1201" rx="2.5" ry="2.5" style="stroke:#181818;stroke-width:0.5;" width="106.3857" x="22" y="184.1201"/><text fill="#000000" font-family="sans-serif" font-size="14" lengthAdjust="spacing" textLength="86.3857" x="32" y="210.1641">JobQueue.tsx</text></g><!--entity ApiClient--><g class="entity" data-qualified-name="Frontend.ApiClient" data-source-line="8" id="ent0004"><rect fill="#F1F1F1" height="39.1201" rx="2.5" ry="2.5" style="stroke:#181818;stroke-width:0.5;" width="53.4619" x="163.5" y="184.1201"/><text fill="#000000" font-family="sans-serif" font-size="14" lengthAdjust="spacing" textLength="33.4619" x="173.5" y="210.1641">api.ts</text></g><!--entity Types--><g class="entity" data-qualified-name="Frontend.Types" data-source-line="9" id="ent0005"><rect fill="#F1F1F1" height="39.1201" rx="2.5" ry="2.5" style="stroke:#181818;stroke-width:0.5;" width="68.2412" x="157" y="335.6201"/><text fill="#000000" font-family="sans-serif" font-size="14" lengthAdjust="spacing" textLength="48.2412" x="167" y="361.6641">types.ts</text></g><!--entity Quality--><g class="entity" data-qualified-name="Frontend.Quality" data-source-line="10" id="ent0006"><rect fill="#F1F1F1" height="39.1201" rx="2.5" ry="2.5" style="stroke:#181818;stroke-width:0.5;" width="75.248" x="251.5" y="184.1201"/><text fill="#000000" font-family="sans-serif" font-size="14" lengthAdjust="spacing" textLength="55.248" x="261.5" y="210.1641">quality.ts</text></g><!--entity Formatting--><g class="entity" data-qualified-name="Frontend.Formatting" data-source-line="11" id="ent0007"><rect fill="#F1F1F1" height="39.1201" rx="2.5" ry="2.5" style="stroke:#181818;stroke-width:0.5;" width="97.0273" x="24.5" y="335.6201"/><text fill="#000000" font-family="sans-serif" font-size="14" lengthAdjust="spacing" textLength="77.0273" x="34.5" y="361.6641">formatting.ts</text></g><!--entity Main--><g class="entity" data-qualified-name="Backend.Main" data-source-line="15" id="ent0009"><rect fill="#F1F1F1" height="58.2402" rx="2.5" ry="2.5" style="stroke:#181818;stroke-width:0.5;" width="112.5928" x="739.5" y="326.1201"/><text fill="#000000" font-family="sans-serif" font-size="14" lengthAdjust="spacing" textLength="49.0205" x="749.5" y="352.1641">main.py</text><text fill="#000000" font-family="sans-serif" font-size="14" lengthAdjust="spacing" textLength="92.5928" x="749.5" y="371.2842">FastAPI routes</text></g><!--entity Manager--><g class="entity" data-qualified-name="Backend.Manager" data-source-line="16" id="ent0010"><rect fill="#F1F1F1" height="58.2402" rx="2.5" ry="2.5" style="stroke:#181818;stroke-width:0.5;" width="120.3994" x="736" y="445.1201"/><text fill="#000000" font-family="sans-serif" font-size="14" lengthAdjust="spacing" textLength="100.3994" x="746" y="471.1641">job_manager.py</text><text fill="#000000" font-family="sans-serif" font-size="14" lengthAdjust="spacing" textLength="91.8271" x="746" y="490.2842">queue/workers</text></g><!--entity ReadModel--><g class="entity" data-qualified-name="Backend.ReadModel" data-source-line="17" id="ent0011"><rect fill="#F1F1F1" height="58.2402" rx="2.5" ry="2.5" style="stroke:#181818;stroke-width:0.5;" width="139.082" x="925.5" y="445.1201"/><text fill="#000000" font-family="sans-serif" font-size="14" lengthAdjust="spacing" textLength="119.082" x="935.5" y="471.1641">job_read_model.py</text><text fill="#000000" font-family="sans-serif" font-size="14" lengthAdjust="spacing" textLength="87.1582" x="935.5" y="490.2842">API projection</text></g><!--entity Service--><g class="entity" data-qualified-name="Backend.Service" data-source-line="18" id="ent0012"><rect fill="#F1F1F1" height="58.2402" rx="2.5" ry="2.5" style="stroke:#181818;stroke-width:0.5;" width="120.3789" x="383" y="564.1201"/><text fill="#000000" font-family="sans-serif" font-size="14" lengthAdjust="spacing" textLength="100.3789" x="393" y="590.1641">ytdlp_service.py</text><text fill="#000000" font-family="sans-serif" font-size="14" lengthAdjust="spacing" textLength="96.5029" x="393" y="609.2842">yt-dlp boundary</text></g><!--entity Cookies--><g class="entity" data-qualified-name="Backend.Cookies" data-source-line="19" id="ent0013"><rect fill="#F1F1F1" height="58.2402" rx="2.5" ry="2.5" style="stroke:#181818;stroke-width:0.5;" width="143.7236" x="383" y="701.1201"/><text fill="#000000" font-family="sans-serif" font-size="14" lengthAdjust="spacing" textLength="123.7236" x="393" y="727.1641">browser_cookies.py</text><text fill="#000000" font-family="sans-serif" font-size="14" lengthAdjust="spacing" textLength="83.2549" x="393" y="746.2842">cookie import</text></g><!--entity Formats--><g class="entity" data-qualified-name="Backend.Formats" data-source-line="20" id="ent0014"><rect fill="#F1F1F1" height="58.2402" rx="2.5" ry="2.5" style="stroke:#181818;stroke-width:0.5;" width="122.71" x="562.5" y="701.1201"/><text fill="#000000" font-family="sans-serif" font-size="14" lengthAdjust="spacing" textLength="102.71" x="572.5" y="727.1641">ytdlp_formats.py</text><text fill="#000000" font-family="sans-serif" font-size="14" lengthAdjust="spacing" textLength="56.0205" x="572.5" y="746.2842">selectors</text></g><!--entity Fallback--><g class="entity" data-qualified-name="Backend.Fallback" data-source-line="21" id="ent0015"><rect fill="#F1F1F1" height="58.2402" rx="2.5" ry="2.5" style="stroke:#181818;stroke-width:0.5;" width="129.7236" x="930" y="564.1201"/><text fill="#000000" font-family="sans-serif" font-size="14" lengthAdjust="spacing" textLength="109.7236" x="940" y="590.1641">fallback_policy.py</text><text fill="#000000" font-family="sans-serif" font-size="14" lengthAdjust="spacing" textLength="63.8066" x="940" y="609.2842">messages</text></g><!--entity Progress--><g class="entity" data-qualified-name="Backend.Progress" data-source-line="22" id="ent0016"><rect fill="#F1F1F1" height="58.2402" rx="2.5" ry="2.5" style="stroke:#181818;stroke-width:0.5;" width="160.8682" x="538.5" y="564.1201"/><text fill="#000000" font-family="sans-serif" font-size="14" lengthAdjust="spacing" textLength="140.8682" x="548.5" y="590.1641">download_progress.py</text><text fill="#000000" font-family="sans-serif" font-size="14" lengthAdjust="spacing" textLength="120.627" x="548.5" y="609.2842">stream aggregation</text></g><!--entity Stats--><g class="entity" data-qualified-name="Backend.Stats" data-source-line="23" id="ent0017"><rect fill="#F1F1F1" height="58.2402" rx="2.5" ry="2.5" style="stroke:#181818;stroke-width:0.5;" width="123.4893" x="734.5" y="564.1201"/><text fill="#000000" font-family="sans-serif" font-size="14" lengthAdjust="spacing" textLength="103.4893" x="744.5" y="590.1641">transfer_stats.py</text><text fill="#000000" font-family="sans-serif" font-size="14" lengthAdjust="spacing" textLength="92.627" x="744.5" y="609.2842">average speed</text></g><!--entity Data--><g class="entity" data-qualified-name="Backend.Data" data-source-line="24" id="ent0018"><rect fill="#F1F1F1" height="58.2402" rx="2.5" ry="2.5" style="stroke:#181818;stroke-width:0.5;" width="134.0098" x="914" y="701.1201"/><text fill="#000000" font-family="sans-serif" font-size="14" lengthAdjust="spacing" textLength="114.0098" x="924" y="727.1641">db.py + models.py</text><text fill="#000000" font-family="sans-serif" font-size="14" lengthAdjust="spacing" textLength="42.7998" x="924" y="746.2842">SQLite</text></g><!--link App to Queue--><g class="link" data-entity-1="ent0002" data-entity-2="ent0003" data-link-type="dependency" data-source-line="27" id="lnk19"><path d="M168.1,123.2801 C147.64,140.7201 121.0655,163.3669 100.6255,180.7869" fill="none" id="App-to-Queue" style="stroke:#181818;stroke-width:1;"/><polygon fill="#181818" points="96.82,184.0301,106.2644,181.2367,100.6255,180.7869,101.0753,175.148,96.82,184.0301" style="stroke:#181818;stroke-width:1;stroke-linejoin:miter;stroke-miterlimit:10;"/></g><!--link App to ApiClient--><g class="link" data-entity-1="ent0002" data-entity-2="ent0004" data-link-type="dependency" data-source-line="28" id="lnk20"><path d="M190,123.5201 C190,140.9801 190,161.7801 190,179.1101" fill="none" id="App-to-ApiClient" style="stroke:#181818;stroke-width:1;"/><polygon fill="#181818" points="190,184.1101,194,175.1101,190,179.1101,186,175.1101,190,184.1101" style="stroke:#181818;stroke-width:1;stroke-linejoin:miter;stroke-miterlimit:10;"/></g><!--link App to Quality--><g class="link" data-entity-1="ent0002" data-entity-2="ent0006" data-link-type="dependency" data-source-line="29" id="lnk21"><path d="M209.09,123.5201 C226.73,140.9801 249.2352,163.2639 266.7552,180.5939" fill="none" id="App-to-Quality" style="stroke:#181818;stroke-width:1;"/><polygon fill="#181818" points="270.31,184.1101,266.7244,174.9371,266.7552,180.5939,261.0985,180.6248,270.31,184.1101" style="stroke:#181818;stroke-width:1;stroke-linejoin:miter;stroke-miterlimit:10;"/></g><!--link Queue to Formatting--><g class="link" data-entity-1="ent0003" data-entity-2="ent0007" data-link-type="dependency" data-source-line="30" id="lnk22"><path d="M74.75,223.2501 C74.37,251.9001 73.7077,301.4606 73.3177,330.2506" fill="none" id="Queue-to-Formatting" style="stroke:#181818;stroke-width:1;"/><polygon fill="#181818" points="73.25,335.2501,77.3715,326.3051,73.3177,330.2506,69.3723,326.1968,73.25,335.2501" style="stroke:#181818;stroke-width:1;stroke-linejoin:miter;stroke-miterlimit:10;"/></g><!--link ApiClient to Types--><g class="link" data-entity-1="ent0004" data-entity-2="ent0005" data-link-type="dependency" data-source-line="31" id="lnk23"><path d="M190.12,223.2501 C190.32,251.9001 190.647,301.4602 190.837,330.2502" fill="none" id="ApiClient-to-Types" style="stroke:#181818;stroke-width:1;"/><polygon fill="#181818" points="190.87,335.2501,194.8105,326.2239,190.837,330.2502,186.8107,326.2767,190.87,335.2501" style="stroke:#181818;stroke-width:1;stroke-linejoin:miter;stroke-miterlimit:10;"/></g><!--link ApiClient to Main--><g class="link" data-entity-1="ent0004" data-entity-2="ent0009" data-link-type="dependency" data-source-line="32" id="lnk24"><path d="M216.72,216.7001 C222.36,219.0101 228.32,221.2801 234,223.1201 C415.07,281.8201 632.0209,324.6543 734.3809,343.2943" fill="none" id="ApiClient-to-Main" style="stroke:#181818;stroke-width:1;"/><polygon fill="#181818" points="739.3,344.1901,731.1622,338.6424,734.3809,343.2943,729.729,346.513,739.3,344.1901" style="stroke:#181818;stroke-width:1;stroke-linejoin:miter;stroke-miterlimit:10;"/><text fill="#000000" font-family="sans-serif" font-size="13" lengthAdjust="spacing" textLength="33.9409" x="402" y="269.0181">HTTP</text></g><!--link Main to Manager--><g class="link" data-entity-1="ent0009" data-entity-2="ent0010" data-link-type="dependency" data-source-line="33" id="lnk25"><path d="M796,384.1401 C796,402.5301 796,421.4901 796,439.9201" fill="none" id="Main-to-Manager" style="stroke:#181818;stroke-width:1;"/><polygon fill="#181818" points="796,444.9201,800,435.9201,796,439.9201,792,435.9201,796,444.9201" style="stroke:#181818;stroke-width:1;stroke-linejoin:miter;stroke-miterlimit:10;"/></g><!--link Main to ReadModel--><g class="link" data-entity-1="ent0009" data-entity-2="ent0011" data-link-type="dependency" data-source-line="34" id="lnk26"><path d="M843.67,384.1401 C874.94,402.5301 911.3904,423.955 942.7204,442.385" fill="none" id="Main-to-ReadModel" style="stroke:#181818;stroke-width:1;"/><polygon fill="#181818" points="947.03,444.9201,941.3008,436.9091,942.7204,442.385,937.2445,443.8045,947.03,444.9201" style="stroke:#181818;stroke-width:1;stroke-linejoin:miter;stroke-miterlimit:10;"/></g><!--link Main to Service--><g class="link" data-entity-1="ent0009" data-entity-2="ent0012" data-link-type="dependency" data-source-line="35" id="lnk27"><path d="M753.77,384.3501 C685.78,429.8001 557.0067,515.9012 489.1567,561.2612" fill="none" id="Main-to-Service" style="stroke:#181818;stroke-width:1;"/><polygon fill="#181818" points="485,564.0401,494.7051,562.3635,489.1567,561.2612,490.2589,555.7128,485,564.0401" style="stroke:#181818;stroke-width:1;stroke-linejoin:miter;stroke-miterlimit:10;"/></g><!--link Main to Data--><g class="link" data-entity-1="ent0009" data-entity-2="ent0018" data-link-type="dependency" data-source-line="36" id="lnk28"><path d="M852.6,356.0101 C919.08,359.2501 1027.23,375.7301 1082,445.1201 C1130.78,506.9401 1109.62,545.8601 1090,622.1201 C1083.8,646.2001 1079.57,652.5801 1063,671.1201 C1053.12,682.1701 1044.8403,689.3902 1032.7403,697.9602" fill="none" id="Main-to-Data" style="stroke:#181818;stroke-width:1;"/><polygon fill="#181818" points="1028.66,700.8501,1038.3164,698.9125,1032.7403,697.9602,1033.6925,692.3841,1028.66,700.8501" style="stroke:#181818;stroke-width:1;stroke-linejoin:miter;stroke-miterlimit:10;"/></g><!--link Manager to Service--><g class="link" data-entity-1="ent0010" data-entity-2="ent0012" data-link-type="dependency" data-source-line="37" id="lnk29"><path d="M735.74,494.0201 C679.9,511.6701 594.61,539.0001 521,564.1201 C515.28,566.0701 514.059,566.4877 508.119,568.5677" fill="none" id="Manager-to-Service" style="stroke:#181818;stroke-width:1;"/><polygon fill="#181818" points="503.4,570.2201,513.2162,571.0209,508.119,568.5677,510.5723,563.4705,503.4,570.2201" style="stroke:#181818;stroke-width:1;stroke-linejoin:miter;stroke-miterlimit:10;"/></g><!--link Manager to Progress--><g class="link" data-entity-1="ent0010" data-entity-2="ent0016" data-link-type="dependency" data-source-line="38" id="lnk30"><path d="M753.6,503.1401 C725.79,521.5301 693.711,542.7329 665.831,561.1629" fill="none" id="Manager-to-Progress" style="stroke:#181818;stroke-width:1;"/><polygon fill="#181818" points="661.66,563.9201,671.3737,562.2939,665.831,561.1629,666.9621,555.6202,661.66,563.9201" style="stroke:#181818;stroke-width:1;stroke-linejoin:miter;stroke-miterlimit:10;"/></g><!--link Manager to Stats--><g class="link" data-entity-1="ent0010" data-entity-2="ent0017" data-link-type="dependency" data-source-line="39" id="lnk31"><path d="M796,503.1401 C796,521.5301 796,540.4901 796,558.9201" fill="none" id="Manager-to-Stats" style="stroke:#181818;stroke-width:1;"/><polygon fill="#181818" points="796,563.9201,800,554.9201,796,558.9201,792,554.9201,796,563.9201" style="stroke:#181818;stroke-width:1;stroke-linejoin:miter;stroke-miterlimit:10;"/></g><!--link Manager to Fallback--><g class="link" data-entity-1="ent0010" data-entity-2="ent0015" data-link-type="dependency" data-source-line="40" id="lnk32"><path d="M849.5,503.1201 C866.73,512.4001 885.81,522.9701 903,533.1201 C919.34,542.7701 932.7516,551.1648 948.1516,561.1248" fill="none" id="Manager-to-Fallback" style="stroke:#181818;stroke-width:1;"/><polygon fill="#181818" points="952.35,563.8401,946.9651,555.5937,948.1516,561.1248,942.6205,562.3112,952.35,563.8401" style="stroke:#181818;stroke-width:1;stroke-linejoin:miter;stroke-miterlimit:10;"/></g><!--link Manager to Data--><g class="link" data-entity-1="ent0010" data-entity-2="ent0018" data-link-type="dependency" data-source-line="41" id="lnk33"><path d="M823.15,503.4201 C838.97,520.4501 858.9,542.8801 875,564.1201 C879.81,570.4601 931.4626,651.3638 960.4126,696.7838" fill="none" id="Manager-to-Data" style="stroke:#181818;stroke-width:1;"/><polygon fill="#181818" points="963.1,701.0001,961.6357,691.2607,960.4126,696.7838,954.8895,695.5606,963.1,701.0001" style="stroke:#181818;stroke-width:1;stroke-linejoin:miter;stroke-miterlimit:10;"/></g><!--link ReadModel to Fallback--><g class="link" data-entity-1="ent0011" data-entity-2="ent0015" data-link-type="dependency" data-source-line="42" id="lnk34"><path d="M995,503.1401 C995,521.5301 995,540.4901 995,558.9201" fill="none" id="ReadModel-to-Fallback" style="stroke:#181818;stroke-width:1;"/><polygon fill="#181818" points="995,563.9201,999,554.9201,995,558.9201,991,554.9201,995,563.9201" style="stroke:#181818;stroke-width:1;stroke-linejoin:miter;stroke-miterlimit:10;"/></g><!--link ReadModel to Data--><g class="link" data-entity-1="ent0011" data-entity-2="ent0018" data-link-type="dependency" data-source-line="43" id="lnk35"><path d="M1032.08,503.4201 C1049.58,519.1501 1068.63,540.3301 1078,564.1201 C1087.45,588.1001 1087.28,598.0701 1078,622.1201 C1065.91,653.4701 1043.6514,678.0045 1021.6014,697.4345" fill="none" id="ReadModel-to-Data" style="stroke:#181818;stroke-width:1;"/><polygon fill="#181818" points="1017.85,700.7401,1027.247,697.7911,1021.6014,697.4345,1021.958,691.7889,1017.85,700.7401" style="stroke:#181818;stroke-width:1;stroke-linejoin:miter;stroke-miterlimit:10;"/></g><!--link Service to Formats--><g class="link" data-entity-1="ent0012" data-entity-2="ent0014" data-link-type="dependency" data-source-line="44" id="lnk36"><path d="M480.94,622.4201 C511.94,645.5401 551.5122,675.0505 582.4122,698.1005" fill="none" id="Service-to-Formats" style="stroke:#181818;stroke-width:1;"/><polygon fill="#181818" points="586.42,701.0901,581.5977,692.5026,582.4122,698.1005,576.8143,698.915,586.42,701.0901" style="stroke:#181818;stroke-width:1;stroke-linejoin:miter;stroke-miterlimit:10;"/></g><!--link Service to Cookies--><g class="link" data-entity-1="ent0012" data-entity-2="ent0013" data-link-type="dependency" data-source-line="45" id="lnk37"><path d="M445.52,622.4201 C447.56,645.4601 449.9967,672.8498 452.0467,695.8798" fill="none" id="Service-to-Cookies" style="stroke:#181818;stroke-width:1;"/><polygon fill="#181818" points="452.49,700.8601,455.6763,691.5409,452.0467,695.8798,447.7078,692.2502,452.49,700.8601" style="stroke:#181818;stroke-width:1;stroke-linejoin:miter;stroke-miterlimit:10;"/></g><!--link Service to Data--><g class="link" data-entity-1="ent0012" data-entity-2="ent0018" data-link-type="dependency" data-source-line="46" id="lnk38"><path d="M503.24,616.5301 C509.21,618.5101 515.2,620.4101 521,622.1201 C658.83,662.7401 818.6281,696.9046 908.8081,715.0346" fill="none" id="Service-to-Data" style="stroke:#181818;stroke-width:1;"/><polygon fill="#181818" points="913.71,716.0201,905.6749,710.3247,908.8081,715.0346,904.0982,718.1678,913.71,716.0201" style="stroke:#181818;stroke-width:1;stroke-linejoin:miter;stroke-miterlimit:10;"/><text fill="#000000" font-family="sans-serif" font-size="13" lengthAdjust="spacing" textLength="136.5952" x="697" y="668.0181">dependency status only</text></g><?plantuml-src NPDDZzCm48Rl-HNMNb6NEmUafQXY4IjQsXkWQf9CWxUExRKdMoB4VsSypYSt-tsVYUShfCcWshhMEukMrDTN3AyQRqMyQkiXGAkgqJnIpsp0Yi0s1XT8_0MrksdRg0kOY4NXeRf2W-fk5vmbjFMT-bCezVt1-tkAltygY8hFIVhioaE77Kwwt983NhCui7fhDEUGTEeznj4vfKjINpemclfHF-HhSYukj434wOtcRbAAlujaF_1XphK5RUzz_yFk8DB3_b45rn7c3ponbvXdLvvRi1mT17r9kR-zkN35C9BYZd10gC-jgz48dpxhWtlcdcfd9U0R4qy9I24zrSQVOvf9XHBHquObLRhErX1w2JbcFmMKmTqOFrVENJLtAONaiz8yna0IiCtk_49kKSOZ6ax7XMMh1ENPcf9RTFREwAeNkCKOkRw17O04ypvOuxXOBgy9JELl4pUWLT2mrC1KytvWPBe1RBnm2P76Z82NCWqeUiGwLqn3JdN9X7gZfAMPFXw-Q4B1FW91cZ2lcjfitW-hDTxcfPhzl3J2YRBOb0aN8-_TMajReTwfJwVJlf1p5lC2JC8yu4aQ1pW9alWG-HynQrFNLg1qPgbCKrcAyi2KoPfRoq8EpozQ4bVQk51BBGLoDshq_4-XhNgL9jf5vQpf_m40?></g></svg>