<svg xmlns="http://www.w3.org/2000/svg" xmlns:xlink="http://www.w3.org/1999/xlink" contentStyleType="text/css" data-diagram-type="DESCRIPTION" height="833px" preserveAspectRatio="none" style="width:2193px;height:833px;background:#FFFFFF;" version="1.1" viewBox="0 0 2193 833" width="2193px" zoomAndPan="magnify"><?plantuml $version$?><defs/><g><g class="title" data-source-line="1"><text fill="#000000" font-family="sans-serif" font-size="14" font-weight="700" lengthAdjust="spacing" textLength="143.917" x="1021.0415" y="24.5332">Component Overview</text></g><!--cluster Frontend--><g class="cluster" data-qualified-name="Frontend" data-source-line="5" id="ent0001"><path d="M451.5,44.6094 L513.1553,44.6094 A3.75,3.75 0 0 1 515.6553,47.1094 L522.6553,68.2188 L886.5,68.2188 A2.5,2.5 0 0 1 889,70.7188 L889,411.6094 A2.5,2.5 0 0 1 886.5,414.1094 L451.5,414.1094 A2.5,2.5 0 0 1 449,411.6094 L449,47.1094 A2.5,2.5 0 0 1 451.5,44.6094" fill="none" style="stroke:#000000;stroke-width:1.5;"/><line style="stroke:#000000;stroke-width:1.5;" x1="449" x2="522.6553" y1="68.2188" y2="68.2188"/><text fill="#000000" font-family="sans-serif" font-size="14" font-weight="700" lengthAdjust="spacing" textLength="60.6553" x="453" y="61.1426">Frontend</text></g><!--cluster Backend / entry--><g class="cluster" data-qualified-name="Backend . entry" data-source-line="14" id="ent0008"><path d="M915.5,315.6094 L1020.7617,315.6094 A3.75,3.75 0 0 1 1023.2617,318.1094 L1030.2617,339.2188 L1250.5,339.2188 A2.5,2.5 0 0 1 1253,341.7188 L1253,558.1094 A2.5,2.5 0 0 1 1250.5,560.6094 L915.5,560.6094 A2.5,2.5 0 0 1 913,558.1094 L913,318.1094 A2.5,2.5 0 0 1 915.5,315.6094" fill="none" style="stroke:#000000;stroke-width:1.5;"/><line style="stroke:#000000;stroke-width:1.5;" x1="913" x2="1030.2617" y1="339.2188" y2="339.2188"/><text fill="#000000" font-family="sans-serif" font-size="14" font-weight="700" lengthAdjust="spacing" textLength="104.2617" x="917" y="332.1426">Backend / entry</text></g><!--cluster Backend / orchestration--><g class="cluster" data-qualified-name="Backend . orchestration" data-source-line="20" id="ent0012"><path d="M1329.5,453.6094 L1489.9893,453.6094 A3.75,3.75 0 0 1 1492.4893,456.1094 L1499.4893,477.2188 L1655.5,477.2188 A2.5,2.5 0 0 1 1658,479.7188 L1658,698.1094 A2.5,2.5 0 0 1 1655.5,700.6094 L1329.5,700.6094 A2.5,2.5 0 0 1 1327,698.1094 L1327,456.1094 A2.5,2.5 0 0 1 1329.5,453.6094" fill="none" style="stroke:#000000;stroke-width:1.5;"/><line style="stroke:#000000;stroke-width:1.5;" x1="1327" x2="1499.4893" y1="477.2188" y2="477.2188"/><text fill="#000000" font-family="sans-serif" font-size="14" font-weight="700" lengthAdjust="spacing" textLength="159.4893" x="1331" y="470.1426">Backend / orchestration</text></g><!--cluster Backend / download--><g class="cluster" data-qualified-name="Backend . download" data-source-line="26" id="ent0016"><path d="M1684.5,593.6094 L1820.8516,593.6094 A3.75,3.75 0 0 1 1823.3516,596.1094 L1830.3516,617.2188 L2175.5,617.2188 A2.5,2.5 0 0 1 2178,619.7188 L2178,816.1094 A2.5,2.5 0 0 1 2175.5,818.6094 L1684.5,818.6094 A2.5,2.5 0 0 1 1682,816.1094 L1682,596.1094 A2.5,2.5 0 0 1 1684.5,593.6094" fill="none" style="stroke:#000000;stroke-width:1.5;"/><line style="stroke:#000000;stroke-width:1.5;" x1="1682" x2="1830.3516" y1="617.2188" y2="617.2188"/><text fill="#000000" font-family="sans-serif" font-size="14" font-weight="700" lengthAdjust="spacing" textLength="135.3516" x="1686" y="610.1426">Backend / download</text></g><!--cluster Backend / progress--><g class="cluster" data-qualified-name="Backend . progress" data-source-line="35" id="ent0023"><path d="M776.5,593.6094 L907.4375,593.6094 A3.75,3.75 0 0 1 909.9375,596.1094 L916.9375,617.2188 L1300.5,617.2188 A2.5,2.5 0 0 1 1303,619.7188 L1303,698.1094 A2.5,2.5 0 0 1 1300.5,700.6094 L776.5,700.6094 A2.5,2.5 0 0 1 774,698.1094 L774,596.1094 A2.5,2.5 0 0 1 776.5,593.6094" fill="none" style="stroke:#000000;stroke-width:1.5;"/><line style="stroke:#000000;stroke-width:1.5;" x1="774" x2="916.9375" y1="617.2188" y2="617.2188"/><text fill="#000000" font-family="sans-serif" font-size="14" font-weight="700" lengthAdjust="spacing" textLength="129.9375" x="778" y="610.1426">Backend / progress</text></g><!--cluster Backend / support--><g class="cluster" data-qualified-name="Backend . support" data-source-line="41" id="ent0027"><path d="M8.5,593.6094 L131.6309,593.6094 A3.75,3.75 0 0 1 134.1309,596.1094 L141.1309,617.2188 L626.5,617.2188 A2.5,2.5 0 0 1 629,619.7188 L629,816.1094 A2.5,2.5 0 0 1 626.5,818.6094 L8.5,818.6094 A2.5,2.5 0 0 1 6,816.1094 L6,596.1094 A2.5,2.5 0 0 1 8.5,593.6094" fill="none" style="stroke:#000000;stroke-width:1.5;"/><line style="stroke:#000000;stroke-width:1.5;" x1="6" x2="141.1309" y1="617.2188" y2="617.2188"/><text fill="#000000" font-family="sans-serif" font-size="14" font-weight="700" lengthAdjust="spacing" textLength="122.1309" x="10" y="610.1426">Backend / support</text></g><!--entity App--><g class="entity" data-qualified-name="Frontend.App" data-source-line="6" id="ent0002"><rect fill="#F1F1F1" height="55.2188" rx="2.5" ry="2.5" style="stroke:#181818;stroke-width:0.5;" width="151.5303" x="551" y="80.6094"/><text fill="#000000" font-family="sans-serif" font-size="14" lengthAdjust="spacing" textLength="46.6895" x="561" y="105.1426">App.tsx</text><text fill="#000000" font-family="sans-serif" font-size="14" lengthAdjust="spacing" textLength="131.5303" x="561" y="122.752">state + SSE + panels</text></g><!--entity Queue--><g class="entity" data-qualified-name="Frontend.Queue" data-source-line="7" id="ent0003"><rect fill="#F1F1F1" height="55.2188" rx="2.5" ry="2.5" style="stroke:#181818;stroke-width:0.5;" width="106.3857" x="465" y="196.6094"/><text fill="#000000" font-family="sans-serif" font-size="14" lengthAdjust="spacing" textLength="86.3857" x="475" y="221.1426">JobQueue.tsx</text><text fill="#000000" font-family="sans-serif" font-size="14" lengthAdjust="spacing" textLength="68.4756" x="475" y="238.752">task center</text></g><!--entity ApiClient--><g class="entity" data-qualified-name="Frontend.ApiClient" data-source-line="8" id="ent0004"><rect fill="#F1F1F1" height="55.2188" rx="2.5" ry="2.5" style="stroke:#181818;stroke-width:0.5;" width="118.8203" x="753.5" y="196.6094"/><text fill="#000000" font-family="sans-serif" font-size="14" lengthAdjust="spacing" textLength="33.4619" x="763.5" y="221.1426">api.ts</text><text fill="#000000" font-family="sans-serif" font-size="14" lengthAdjust="spacing" textLength="98.8203" x="763.5" y="238.752">HTTP boundary</text></g><!--entity Types--><g class="entity" data-qualified-name="Frontend.Types" data-source-line="9" id="ent0005"><rect fill="#F1F1F1" height="37.6094" rx="2.5" ry="2.5" style="stroke:#181818;stroke-width:0.5;" width="68.2412" x="779" y="360.1094"/><text fill="#000000" font-family="sans-serif" font-size="14" lengthAdjust="spacing" textLength="48.2412" x="789" y="384.6426">types.ts</text></g><!--entity Quality--><g class="entity" data-qualified-name="Frontend.Quality" data-source-line="10" id="ent0006"><rect fill="#F1F1F1" height="37.6094" rx="2.5" ry="2.5" style="stroke:#181818;stroke-width:0.5;" width="75.248" x="643.5" y="205.1094"/><text fill="#000000" font-family="sans-serif" font-size="14" lengthAdjust="spacing" textLength="55.248" x="653.5" y="229.6426">quality.ts</text></g><!--entity Formatting--><g class="entity" data-qualified-name="Frontend.Formatting" data-source-line="11" id="ent0007"><rect fill="#F1F1F1" height="37.6094" rx="2.5" ry="2.5" style="stroke:#181818;stroke-width:0.5;" width="97.0273" x="535.5" y="360.1094"/><text fill="#000000" font-family="sans-serif" font-size="14" lengthAdjust="spacing" textLength="77.0273" x="545.5" y="384.6426">formatting.ts</text></g><!--entity Main--><g class="entity" data-qualified-name="Backend . entry.Main" data-source-line="15" id="ent0009"><rect fill="#F1F1F1" height="55.2188" rx="2.5" ry="2.5" style="stroke:#181818;stroke-width:0.5;" width="176.8027" x="1059.5" y="351.6094"/><text fill="#000000" font-family="sans-serif" font-size="14" lengthAdjust="spacing" textLength="49.0205" x="1069.5" y="376.1426">main.py</text><text fill="#000000" font-family="sans-serif" font-size="14" lengthAdjust="spacing" textLength="156.8027" x="1069.5" y="393.752">FastAPI routes + lifespan</text></g><!--entity Schemas--><g class="entity" data-qualified-name="Backend . entry.Schemas" data-source-line="16" id="ent0010"><rect fill="#F1F1F1" height="55.2188" rx="2.5" ry="2.5" style="stroke:#181818;stroke-width:0.5;" width="177.1992" x="929.5" y="489.6094"/><text fill="#000000" font-family="sans-serif" font-size="14" lengthAdjust="spacing" textLength="74.6963" x="939.5" y="514.1426">schemas.py</text><text fill="#000000" font-family="sans-serif" font-size="14" lengthAdjust="spacing" textLength="157.1992" x="939.5" y="531.752">request/response models</text></g><!--entity Config--><g class="entity" data-qualified-name="Backend . entry.Config" data-source-line="17" id="ent0011"><rect fill="#F1F1F1" height="55.2188" rx="2.5" ry="2.5" style="stroke:#181818;stroke-width:0.5;" width="95.4961" x="1141.5" y="489.6094"/><text fill="#000000" font-family="sans-serif" font-size="14" lengthAdjust="spacing" textLength="56.0342" x="1151.5" y="514.1426">config.py</text><text fill="#000000" font-family="sans-serif" font-size="14" lengthAdjust="spacing" textLength="75.4961" x="1151.5" y="531.752">AppSettings</text></g><!--entity Manager--><g class="entity" data-qualified-name="Backend . orchestration.Manager" data-source-line="21" id="ent0013"><rect fill="#F1F1F1" height="55.2188" rx="2.5" ry="2.5" style="stroke:#181818;stroke-width:0.5;" width="123.8926" x="1518" y="489.6094"/><text fill="#000000" font-family="sans-serif" font-size="14" lengthAdjust="spacing" textLength="100.3994" x="1528" y="514.1426">job_manager.py</text><text fill="#000000" font-family="sans-serif" font-size="14" lengthAdjust="spacing" textLength="103.8926" x="1528" y="531.752">queue + workers</text></g><!--entity ReadModel--><g class="entity" data-qualified-name="Backend . orchestration.ReadModel" data-source-line="22" id="ent0014"><rect fill="#F1F1F1" height="55.2188" rx="2.5" ry="2.5" style="stroke:#181818;stroke-width:0.5;" width="139.082" x="1343.5" y="489.6094"/><text fill="#000000" font-family="sans-serif" font-size="14" lengthAdjust="spacing" textLength="119.082" x="1353.5" y="514.1426">job_read_model.py</text><text fill="#000000" font-family="sans-serif" font-size="14" lengthAdjust="spacing" textLength="87.1582" x="1353.5" y="531.752">API projection</text></g><!--entity Broker--><g class="entity" data-qualified-name="Backend . orchestration.Broker" data-source-line="23" id="ent0015"><rect fill="#F1F1F1" height="55.2188" rx="2.5" ry="2.5" style="stroke:#181818;stroke-width:0.5;" width="138.2617" x="1502" y="629.6094"/><text fill="#000000" font-family="sans-serif" font-size="14" lengthAdjust="spacing" textLength="59.9238" x="1512" y="654.1426">events.py</text><text fill="#000000" font-family="sans-serif" font-size="14" lengthAdjust="spacing" textLength="118.2617" x="1512" y="671.752">EventBroker (SSE)</text></g><!--entity Service--><g class="entity" data-qualified-name="Backend . download.Service" data-source-line="27" id="ent0017"><rect fill="#F1F1F1" height="55.2188" rx="2.5" ry="2.5" style="stroke:#181818;stroke-width:0.5;" width="120.3789" x="1855" y="629.6094"/><text fill="#000000" font-family="sans-serif" font-size="14" lengthAdjust="spacing" textLength="100.3789" x="1865" y="654.1426">ytdlp_service.py</text><text fill="#000000" font-family="sans-serif" font-size="14" lengthAdjust="spacing" textLength="96.5029" x="1865" y="671.752">yt-dlp boundary</text></g><!--entity Formats--><g class="entity" data-qualified-name="Backend . download.Formats" data-source-line="28" id="ent0018"><rect fill="#F1F1F1" height="55.2188" rx="2.5" ry="2.5" style="stroke:#181818;stroke-width:0.5;" width="122.71" x="1702.5" y="747.6094"/><text fill="#000000" font-family="sans-serif" font-size="14" lengthAdjust="spacing" textLength="102.71" x="1712.5" y="772.1426">ytdlp_formats.py</text><text fill="#000000" font-family="sans-serif" font-size="14" lengthAdjust="spacing" textLength="56.0205" x="1712.5" y="789.752">selectors</text></g><!--entity StallGuard--><g class="entity" data-qualified-name="Backend . download.StallGuard" data-source-line="29" id="ent0019"><rect fill="#F1F1F1" height="55.2188" rx="2.5" ry="2.5" style="stroke:#181818;stroke-width:0.5;" width="108.7168" x="1860.5" y="747.6094"/><text fill="#000000" font-family="sans-serif" font-size="14" lengthAdjust="spacing" textLength="87.165" x="1870.5" y="772.1426">stall_guard.py</text><text fill="#000000" font-family="sans-serif" font-size="14" lengthAdjust="spacing" textLength="88.7168" x="1870.5" y="789.752">stall watchdog</text></g><!--entity Cookies--><g class="entity" data-qualified-name="Backend . download.Cookies" data-source-line="30" id="ent0020"><rect fill="#F1F1F1" height="55.2188" rx="2.5" ry="2.5" style="stroke:#181818;stroke-width:0.5;" width="143.7236" x="2005" y="747.6094"/><text fill="#000000" font-family="sans-serif" font-size="14" lengthAdjust="spacing" textLength="123.7236" x="2015" y="772.1426">browser_cookies.py</text><text fill="#000000" font-family="sans-serif" font-size="14" lengthAdjust="spacing" textLength="83.2549" x="2015" y="789.752">cookie import</text></g><!--entity SystemOpen--><g class="entity" data-qualified-name="Backend . download.SystemOpen" data-source-line="31" id="ent0021"><rect fill="#F1F1F1" height="55.2188" rx="2.5" ry="2.5" style="stroke:#181818;stroke-width:0.5;" width="152.3027" x="2010" y="629.6094"/><text fill="#000000" font-family="sans-serif" font-size="14" lengthAdjust="spacing" textLength="101.9443" x="2020" y="654.1426">system_open.py</text><text fill="#000000" font-family="sans-serif" font-size="14" lengthAdjust="spacing" textLength="132.3027" x="2020" y="671.752">player / folder opener</text></g><!--entity OutputPaths--><g class="entity" data-qualified-name="Backend . download.OutputPaths" data-source-line="32" id="ent0022"><rect fill="#F1F1F1" height="55.2188" rx="2.5" ry="2.5" style="stroke:#181818;stroke-width:0.5;" width="121.9443" x="1698" y="629.6094"/><text fill="#000000" font-family="sans-serif" font-size="14" lengthAdjust="spacing" textLength="99.6338" x="1708" y="654.1426">output_paths.py</text><text fill="#000000" font-family="sans-serif" font-size="14" lengthAdjust="spacing" textLength="101.9443" x="1708" y="671.752">output discovery</text></g><!--entity Progress--><g class="entity" data-qualified-name="Backend . progress.Progress" data-source-line="36" id="ent0024"><rect fill="#F1F1F1" height="55.2188" rx="2.5" ry="2.5" style="stroke:#181818;stroke-width:0.5;" width="160.8682" x="1125.5" y="629.6094"/><text fill="#000000" font-family="sans-serif" font-size="14" lengthAdjust="spacing" textLength="140.8682" x="1135.5" y="654.1426">download_progress.py</text><text fill="#000000" font-family="sans-serif" font-size="14" lengthAdjust="spacing" textLength="120.627" x="1135.5" y="671.752">stream aggregation</text></g><!--entity PersistGate--><g class="entity" data-qualified-name="Backend . progress.PersistGate" data-source-line="37" id="ent0025"><rect fill="#F1F1F1" height="55.2188" rx="2.5" ry="2.5" style="stroke:#181818;stroke-width:0.5;" width="142.165" x="790" y="629.6094"/><text fill="#000000" font-family="sans-serif" font-size="14" lengthAdjust="spacing" textLength="122.165" x="800" y="654.1426">progress_persist.py</text><text fill="#000000" font-family="sans-serif" font-size="14" lengthAdjust="spacing" textLength="72.3721" x="800" y="671.752">persist gate</text></g><!--entity Stats--><g class="entity" data-qualified-name="Backend . progress.Stats" data-source-line="38" id="ent0026"><rect fill="#F1F1F1" height="55.2188" rx="2.5" ry="2.5" style="stroke:#181818;stroke-width:0.5;" width="123.4893" x="967.5" y="629.6094"/><text fill="#000000" font-family="sans-serif" font-size="14" lengthAdjust="spacing" textLength="103.4893" x="977.5" y="654.1426">transfer_stats.py</text><text fill="#000000" font-family="sans-serif" font-size="14" lengthAdjust="spacing" textLength="92.627" x="977.5" y="671.752">average speed</text></g><!--entity Models--><g class="entity" data-qualified-name="Backend . support.Models" data-source-line="42" id="ent0028"><rect fill="#F1F1F1" height="55.2188" rx="2.5" ry="2.5" style="stroke:#181818;stroke-width:0.5;" width="127.3926" x="485.5" y="747.6094"/><text fill="#000000" font-family="sans-serif" font-size="14" lengthAdjust="spacing" textLength="63.8066" x="495.5" y="772.1426">models.py</text><text fill="#000000" font-family="sans-serif" font-size="14" lengthAdjust="spacing" textLength="107.3926" x="495.5" y="789.752">SQLModel tables</text></g><!--entity DB--><g class="entity" data-qualified-name="Backend . support.DB" data-source-line="43" id="ent0029"><rect fill="#F1F1F1" height="55.2188" rx="2.5" ry="2.5" style="stroke:#181818;stroke-width:0.5;" width="132.4648" x="22" y="629.6094"/><text fill="#000000" font-family="sans-serif" font-size="14" lengthAdjust="spacing" textLength="34.248" x="32" y="654.1426">db.py</text><text fill="#000000" font-family="sans-serif" font-size="14" lengthAdjust="spacing" textLength="112.4648" x="32" y="671.752">engine + pragmas</text></g><!--entity Fallback--><g class="entity" data-qualified-name="Backend . support.Fallback" data-source-line="44" id="ent0030"><rect fill="#F1F1F1" height="55.2188" rx="2.5" ry="2.5" style="stroke:#181818;stroke-width:0.5;" width="156.9717" x="189.5" y="629.6094"/><text fill="#000000" font-family="sans-serif" font-size="14" lengthAdjust="spacing" textLength="109.7236" x="199.5" y="654.1426">fallback_policy.py</text><text fill="#000000" font-family="sans-serif" font-size="14" lengthAdjust="spacing" textLength="136.9717" x="199.5" y="671.752">downgrade messages</text></g><!--entity Paths--><g class="entity" data-qualified-name="Backend . support.Paths" data-source-line="45" id="ent0031"><rect fill="#F1F1F1" height="55.2188" rx="2.5" ry="2.5" style="stroke:#181818;stroke-width:0.5;" width="92.3721" x="382" y="629.6094"/><text fill="#000000" font-family="sans-serif" font-size="14" lengthAdjust="spacing" textLength="52.9238" x="392" y="654.1426">paths.py</text><text fill="#000000" font-family="sans-serif" font-size="14" lengthAdjust="spacing" textLength="72.3721" x="392" y="671.752">safe names</text></g><!--entity LogSafety--><g class="entity" data-qualified-name="Backend . support.LogSafety" data-source-line="46" id="ent0032"><rect fill="#F1F1F1" height="55.2188" rx="2.5" ry="2.5" style="stroke:#181818;stroke-width:0.5;" width="103.2754" x="509.5" y="629.6094"/><text fill="#000000" font-family="sans-serif" font-size="14" lengthAdjust="spacing" textLength="82.4961" x="519.5" y="654.1426">log_safety.py</text><text fill="#000000" font-family="sans-serif" font-size="14" lengthAdjust="spacing" textLength="83.2754" x="519.5" y="671.752">log scrubbing</text></g><!--link App to Queue--><g class="link" data-entity-1="ent0002" data-entity-2="ent0003" data-link-type="dependency" data-source-line="49" id="lnk33"><path d="M601.44,135.8394 C583.95,154.1294 564.3044,174.6746 546.8544,192.9346" fill="none" id="App-to-Queue" style="stroke:#181818;stroke-width:1;"/><polygon fill="#181818" points="543.4,196.5494,552.5098,192.8063,546.8544,192.9346,546.7262,187.2792,543.4,196.5494" style="stroke:#181818;stroke-width:1;stroke-linejoin:miter;stroke-miterlimit:10;"/></g><!--link App to ApiClient--><g class="link" data-entity-1="ent0002" data-entity-2="ent0004" data-link-type="dependency" data-source-line="50" id="lnk34"><path d="M670.61,135.8394 C700.46,154.1294 735.6071,175.6764 765.3971,193.9364" fill="none" id="App-to-ApiClient" style="stroke:#181818;stroke-width:1;"/><polygon fill="#181818" points="769.66,196.5494,764.0772,188.4357,765.3971,193.9364,759.8964,195.2563,769.66,196.5494" style="stroke:#181818;stroke-width:1;stroke-linejoin:miter;stroke-miterlimit:10;"/></g><!--link App to Quality--><g class="link" data-entity-1="ent0002" data-entity-2="ent0006" data-link-type="dependency" data-source-line="51" id="lnk35"><path d="M639.66,135.8394 C649.76,157.1594 661.4895,181.9207 670.3195,200.5607" fill="none" id="App-to-Quality" style="stroke:#181818;stroke-width:1;"/><polygon fill="#181818" points="672.46,205.0794,672.2219,195.2334,670.3195,200.5607,664.9921,198.6583,672.46,205.0794" style="stroke:#181818;stroke-width:1;stroke-linejoin:miter;stroke-miterlimit:10;"/></g><!--link App to Formatting--><g class="link" data-entity-1="ent0002" data-entity-2="ent0007" data-link-type="dependency" data-source-line="52" id="lnk36"><path d="M622.72,135.8894 C613.99,190.4994 595.1083,308.5819 587.6983,354.9919" fill="none" id="App-to-Formatting" style="stroke:#181818;stroke-width:1;"/><polygon fill="#181818" points="586.91,359.9294,592.279,351.6726,587.6983,354.9919,584.379,350.4113,586.91,359.9294" style="stroke:#181818;stroke-width:1;stroke-linejoin:miter;stroke-miterlimit:10;"/></g><!--link Queue to Formatting--><g class="link" data-entity-1="ent0003" data-entity-2="ent0007" data-link-type="dependency" data-source-line="53" id="lnk37"><path d="M529.5,251.7594 C542.87,282.7494 562.6001,328.4881 574.1701,355.3181" fill="none" id="Queue-to-Formatting" style="stroke:#181818;stroke-width:1;"/><polygon fill="#181818" points="576.15,359.9094,576.2592,350.0611,574.1701,355.3181,568.9131,353.229,576.15,359.9094" style="stroke:#181818;stroke-width:1;stroke-linejoin:miter;stroke-miterlimit:10;"/></g><!--link ApiClient to Types--><g class="link" data-entity-1="ent0004" data-entity-2="ent0005" data-link-type="dependency" data-source-line="54" id="lnk38"><path d="M813,251.7594 C813,282.7494 813,328.0794 813,354.9094" fill="none" id="ApiClient-to-Types" style="stroke:#181818;stroke-width:1;"/><polygon fill="#181818" points="813,359.9094,817,350.9094,813,354.9094,809,350.9094,813,359.9094" style="stroke:#181818;stroke-width:1;stroke-linejoin:miter;stroke-miterlimit:10;"/></g><!--link ApiClient to Main--><g class="link" data-entity-1="ent0004" data-entity-2="ent0009" data-link-type="dependency" data-source-line="55" id="lnk39"><path d="M871.35,251.7594 C932.65,279.7594 1023.9519,321.4521 1085.2119,349.4321" fill="none" id="ApiClient-to-Main" style="stroke:#181818;stroke-width:1;"/><polygon fill="#181818" points="1089.76,351.5094,1083.2353,344.1318,1085.2119,349.4321,1079.9117,351.4087,1089.76,351.5094" style="stroke:#181818;stroke-width:1;stroke-linejoin:miter;stroke-miterlimit:10;"/><text fill="#000000" font-family="sans-serif" font-size="13" lengthAdjust="spacing" textLength="74.769" x="971" y="296.1045">HTTP + SSE</text></g><!--link Main to Config--><g class="link" data-entity-1="ent0009" data-entity-2="ent0011" data-link-type="dependency" data-source-line="56" id="lnk40"><path d="M1156,406.6594 C1163.18,430.4594 1172.2157,460.4525 1179.4357,484.3825" fill="none" id="Main-to-Config" style="stroke:#181818;stroke-width:1;"/><polygon fill="#181818" points="1180.88,489.1694,1182.1098,479.3976,1179.4357,484.3825,1174.4508,481.7084,1180.88,489.1694" style="stroke:#181818;stroke-width:1;stroke-linejoin:miter;stroke-miterlimit:10;"/></g><!--link Main to Schemas--><g class="link" data-entity-1="ent0009" data-entity-2="ent0010" data-link-type="dependency" data-source-line="57" id="lnk41"><path d="M1122.63,406.6594 C1099.87,430.4594 1070.0854,461.6254 1047.2054,485.5554" fill="none" id="Main-to-Schemas" style="stroke:#181818;stroke-width:1;"/><polygon fill="#181818" points="1043.75,489.1694,1052.8608,485.4286,1047.2054,485.5554,1047.0785,479.9,1043.75,489.1694" style="stroke:#181818;stroke-width:1;stroke-linejoin:miter;stroke-miterlimit:10;"/></g><!--link Main to Manager--><g class="link" data-entity-1="ent0009" data-entity-2="ent0013" data-link-type="dependency" data-source-line="58" id="lnk42"><path d="M1236.69,383.5594 C1310.44,389.4194 1416.45,404.9194 1500,445.6094 C1521.64,456.1494 1538.4481,470.5711 1553.1781,485.7511" fill="none" id="Main-to-Manager" style="stroke:#181818;stroke-width:1;"/><polygon fill="#181818" points="1556.66,489.3394,1553.2632,480.0948,1553.1781,485.7511,1547.5218,485.666,1556.66,489.3394" style="stroke:#181818;stroke-width:1;stroke-linejoin:miter;stroke-miterlimit:10;"/></g><!--link Main to ReadModel--><g class="link" data-entity-1="ent0009" data-entity-2="ent0014" data-link-type="dependency" data-source-line="59" id="lnk43"><path d="M1236.87,403.3694 C1263.19,411.9894 1291.5,423.0494 1316,436.6094 C1341.91,450.9494 1363.9969,469.097 1382.4469,486.137" fill="none" id="Main-to-ReadModel" style="stroke:#181818;stroke-width:1;"/><polygon fill="#181818" points="1386.12,489.5294,1382.2223,480.4846,1382.4469,486.137,1376.7945,486.3615,1386.12,489.5294" style="stroke:#181818;stroke-width:1;stroke-linejoin:miter;stroke-miterlimit:10;"/></g><!--link Main to Service--><g class="link" data-entity-1="ent0009" data-entity-2="ent0017" data-link-type="dependency" data-source-line="60" id="lnk44"><path d="M1236.53,380.6494 C1385.45,383.0094 1678.39,394.2494 1766,445.6094 C1839.2,488.5194 1883.7546,578.6208 1902.9646,624.9408" fill="none" id="Main-to-Service" style="stroke:#181818;stroke-width:1;"/><polygon fill="#181818" points="1904.88,629.5594,1905.1271,619.7136,1902.9646,624.9408,1897.7374,622.7783,1904.88,629.5594" style="stroke:#181818;stroke-width:1;stroke-linejoin:miter;stroke-miterlimit:10;"/></g><!--link Main to DB--><g class="link" data-entity-1="ent0009" data-entity-2="ent0029" data-link-type="dependency" data-source-line="61" id="lnk45"><path d="M1213.89,406.7294 C1229.83,416.4894 1244.89,429.2694 1254,445.6094 C1280.62,493.3594 1292.44,529.7394 1254,568.6094 C1246.88,575.8094 535.12,576.4294 525,576.6094 C446.54,578.0394 245.39,557.8294 172,585.6094 C148.14,594.6394 129.7177,609.9369 114.2677,625.8969" fill="none" id="Main-to-DB" style="stroke:#181818;stroke-width:1;"/><polygon fill="#181818" points="110.79,629.4894,119.9238,625.8051,114.2677,625.8969,114.1758,620.2408,110.79,629.4894" style="stroke:#181818;stroke-width:1;stroke-linejoin:miter;stroke-miterlimit:10;"/></g><!--link Main to SystemOpen--><g class="link" data-entity-1="ent0009" data-entity-2="ent0021" data-link-type="dependency" data-source-line="62" id="lnk46"><path d="M1236.75,381.3794 C1399.62,384.8594 1739.31,397.7894 1846,445.6094 C1941.84,488.5594 2024.1314,579.4016 2062.0614,625.7016" fill="none" id="Main-to-SystemOpen" style="stroke:#181818;stroke-width:1;"/><polygon fill="#181818" points="2065.23,629.5694,2062.6208,620.0724,2062.0614,625.7016,2056.4323,625.1422,2065.23,629.5694" style="stroke:#181818;stroke-width:1;stroke-linejoin:miter;stroke-miterlimit:10;"/></g><!--link Manager to Service--><g class="link" data-entity-1="ent0013" data-entity-2="ent0017" data-link-type="dependency" data-source-line="63" id="lnk47"><path d="M1620.58,544.6694 C1636.34,553.7494 1654.92,563.0194 1673,568.6094 C1743.43,590.3994 1770.75,555.4094 1838,585.6094 C1859.83,595.4094 1876.2691,610.1384 1890.3191,625.6984" fill="none" id="Manager-to-Service" style="stroke:#181818;stroke-width:1;"/><polygon fill="#181818" points="1893.67,629.4094,1890.6072,620.0489,1890.3191,625.6984,1884.6696,625.4103,1893.67,629.4094" style="stroke:#181818;stroke-width:1;stroke-linejoin:miter;stroke-miterlimit:10;"/></g><!--link Manager to Progress--><g class="link" data-entity-1="ent0013" data-entity-2="ent0024" data-link-type="dependency" data-source-line="64" id="lnk48"><path d="M1545.58,544.7794 C1532.08,553.8694 1516,563.1194 1500,568.6094 C1426.92,593.6794 1400.51,561.8394 1327,585.6094 C1296.46,595.4794 1269.3975,611.1268 1246.3175,626.6668" fill="none" id="Manager-to-Progress" style="stroke:#181818;stroke-width:1;"/><polygon fill="#181818" points="1242.17,629.4594,1251.8695,627.7508,1246.3175,626.6668,1247.4014,621.1148,1242.17,629.4594" style="stroke:#181818;stroke-width:1;stroke-linejoin:miter;stroke-miterlimit:10;"/></g><!--link Manager to PersistGate--><g class="link" data-entity-1="ent0013" data-entity-2="ent0025" data-link-type="dependency" data-source-line="65" id="lnk49"><path d="M1546.56,544.8694 C1532.93,554.2094 1516.5,563.6094 1500,568.6094 C1441.49,586.3394 1007.35,564.4094 950,585.6094 C925.23,594.7694 905.5993,610.1887 889.0893,626.1087" fill="none" id="Manager-to-PersistGate" style="stroke:#181818;stroke-width:1;"/><polygon fill="#181818" points="885.49,629.5794,894.7452,626.2116,889.0893,626.1087,889.1922,620.4528,885.49,629.5794" style="stroke:#181818;stroke-width:1;stroke-linejoin:miter;stroke-miterlimit:10;"/></g><!--link Manager to Stats--><g class="link" data-entity-1="ent0013" data-entity-2="ent0026" data-link-type="dependency" data-source-line="66" id="lnk50"><path d="M1546.51,544.7194 C1532.87,554.0394 1516.46,563.4594 1500,568.6094 C1458.39,581.6294 1148.39,569.1994 1108,585.6094 C1085.35,594.8094 1068.277,609.783 1053.867,625.603" fill="none" id="Manager-to-Stats" style="stroke:#181818;stroke-width:1;"/><polygon fill="#181818" points="1050.5,629.2994,1059.5177,625.3394,1053.867,625.603,1053.6034,619.9522,1050.5,629.2994" style="stroke:#181818;stroke-width:1;stroke-linejoin:miter;stroke-miterlimit:10;"/></g><!--link Manager to Fallback--><g class="link" data-entity-1="ent0013" data-entity-2="ent0030" data-link-type="dependency" data-source-line="67" id="lnk51"><path d="M1546.99,544.7394 C1533.29,554.1894 1516.7,563.6894 1500,568.6094 C1477.75,575.1594 688.19,576.1494 665,576.6094 C648.27,576.9394 379.82,580.1594 364,585.6094 C337.8,594.6294 316.4676,610.2082 298.5176,626.1582" fill="none" id="Manager-to-Fallback" style="stroke:#181818;stroke-width:1;"/><polygon fill="#181818" points="294.78,629.4794,304.1647,626.4914,298.5176,626.1582,298.8508,620.5112,294.78,629.4794" style="stroke:#181818;stroke-width:1;stroke-linejoin:miter;stroke-miterlimit:10;"/></g><!--link Manager to OutputPaths--><g class="link" data-entity-1="ent0013" data-entity-2="ent0022" data-link-type="dependency" data-source-line="68" id="lnk52"><path d="M1613.98,544.8594 C1627.08,555.1394 1642.21,566.9594 1656,577.6094 C1678.42,594.9294 1699.7373,611.1964 1719.6573,626.3164" fill="none" id="Manager-to-OutputPaths" style="stroke:#181818;stroke-width:1;"/><polygon fill="#181818" points="1723.64,629.3394,1718.8896,620.7119,1719.6573,626.3164,1714.0528,627.0841,1723.64,629.3394" style="stroke:#181818;stroke-width:1;stroke-linejoin:miter;stroke-miterlimit:10;"/></g><!--link Manager to Paths--><g class="link" data-entity-1="ent0013" data-entity-2="ent0031" data-link-type="dependency" data-source-line="69" id="lnk53"><path d="M1546.99,544.7394 C1533.29,554.1794 1516.7,563.6894 1500,568.6094 C1479.24,574.7294 742.63,576.0694 721,576.6094 C708.27,576.9294 503.54,580.2294 492,585.6094 C472.08,594.8994 458.4813,609.4972 447.2313,625.2872" fill="none" id="Manager-to-Paths" style="stroke:#181818;stroke-width:1;"/><polygon fill="#181818" points="444.33,629.3594,452.8101,624.3506,447.2313,625.2872,446.2946,619.7085,444.33,629.3594" style="stroke:#181818;stroke-width:1;stroke-linejoin:miter;stroke-miterlimit:10;"/></g><!--link Manager to LogSafety--><g class="link" data-entity-1="ent0013" data-entity-2="ent0032" data-link-type="dependency" data-source-line="70" id="lnk54"><path d="M1546.99,544.7294 C1533.29,554.1794 1516.7,563.6894 1500,568.6094 C1458.91,580.7194 770.74,566.9994 729,576.6094 C683.88,586.9894 640.8883,608.2336 608.0083,627.0736" fill="none" id="Manager-to-LogSafety" style="stroke:#181818;stroke-width:1;"/><polygon fill="#181818" points="603.67,629.5594,613.4676,628.5556,608.0083,627.0736,609.4903,621.6143,603.67,629.5594" style="stroke:#181818;stroke-width:1;stroke-linejoin:miter;stroke-miterlimit:10;"/></g><!--link Manager to Broker--><g class="link" data-entity-1="ent0013" data-entity-2="ent0015" data-link-type="dependency" data-source-line="71" id="lnk55"><path d="M1578.26,544.7194 C1576.67,569.1494 1574.645,600.1799 1573.055,624.5899" fill="none" id="Manager-to-Broker" style="stroke:#181818;stroke-width:1;"/><polygon fill="#181818" points="1572.73,629.5794,1577.3065,620.8584,1573.055,624.5899,1569.3235,620.3384,1572.73,629.5794" style="stroke:#181818;stroke-width:1;stroke-linejoin:miter;stroke-miterlimit:10;"/></g><!--link Manager to Models--><g class="link" data-entity-1="ent0013" data-entity-2="ent0028" data-link-type="dependency" data-source-line="72" id="lnk56"><path d="M1546.97,544.6794 C1533.27,554.1194 1516.68,563.6394 1500,568.6094 C1461.34,580.1394 808.98,565.5094 774,585.6094 C717.87,617.8594 744.99,666.2994 696,708.6094 C672,729.3394 645.065,742.7861 617.305,753.3161" fill="none" id="Manager-to-Models" style="stroke:#181818;stroke-width:1;"/><polygon fill="#181818" points="612.63,755.0894,622.4636,755.6374,617.305,753.3161,619.6263,748.1574,612.63,755.0894" style="stroke:#181818;stroke-width:1;stroke-linejoin:miter;stroke-miterlimit:10;"/></g><!--link ReadModel to Fallback--><g class="link" data-entity-1="ent0014" data-entity-2="ent0030" data-link-type="dependency" data-source-line="73" id="lnk57"><path d="M1372.23,544.7694 C1355.51,554.2194 1335.52,563.7194 1316,568.6094 C1275.52,578.7394 606.71,575.4494 565,576.6094 C553.83,576.9194 374.54,581.8894 364,585.6094 C338.06,594.7594 316.9191,610.1212 298.9791,625.9512" fill="none" id="ReadModel-to-Fallback" style="stroke:#181818;stroke-width:1;"/><polygon fill="#181818" points="295.23,629.2594,304.625,626.304,298.9791,625.9512,299.3319,620.3054,295.23,629.2594" style="stroke:#181818;stroke-width:1;stroke-linejoin:miter;stroke-miterlimit:10;"/></g><!--link ReadModel to OutputPaths--><g class="link" data-entity-1="ent0014" data-entity-2="ent0022" data-link-type="dependency" data-source-line="74" id="lnk58"><path d="M1451.24,544.6494 C1466.13,553.7294 1483.75,562.9994 1501,568.6094 C1567.74,590.3194 1592.28,560.9794 1658,585.6094 C1684.43,595.5194 1706.5889,610.7848 1725.5989,626.3248" fill="none" id="ReadModel-to-OutputPaths" style="stroke:#181818;stroke-width:1;"/><polygon fill="#181818" points="1729.47,629.4894,1725.0336,620.6963,1725.5989,626.3248,1719.9703,626.8901,1729.47,629.4894" style="stroke:#181818;stroke-width:1;stroke-linejoin:miter;stroke-miterlimit:10;"/></g><!--link ReadModel to Models--><g class="link" data-entity-1="ent0014" data-entity-2="ent0028" data-link-type="dependency" data-source-line="75" id="lnk59"><path d="M1372.22,544.7394 C1355.5,554.1894 1335.52,563.6894 1316,568.6094 C1284,576.6694 753.01,565.3094 722,576.6094 C716.07,578.7694 715.23,580.9194 711,585.6094 C667.17,634.2194 673.97,660.1194 630,708.6094 C617.24,722.6794 605.2862,733.1619 590.9362,744.2519" fill="none" id="ReadModel-to-Models" style="stroke:#181818;stroke-width:1;"/><polygon fill="#181818" points="586.98,747.3094,596.5472,744.9709,590.9362,744.2519,591.6553,738.6409,586.98,747.3094" style="stroke:#181818;stroke-width:1;stroke-linejoin:miter;stroke-miterlimit:10;"/></g><!--link Service to Formats--><g class="link" data-entity-1="ent0017" data-entity-2="ent0018" data-link-type="dependency" data-source-line="76" id="lnk60"><path d="M1880.36,684.7194 C1855.89,703.5194 1827.1953,725.5637 1802.7053,744.3737" fill="none" id="Service-to-Formats" style="stroke:#181818;stroke-width:1;"/><polygon fill="#181818" points="1798.74,747.4194,1808.3141,745.1095,1802.7053,744.3737,1803.4411,738.7649,1798.74,747.4194" style="stroke:#181818;stroke-width:1;stroke-linejoin:miter;stroke-miterlimit:10;"/></g><!--link Service to Cookies--><g class="link" data-entity-1="ent0017" data-entity-2="ent0020" data-link-type="dependency" data-source-line="77" id="lnk61"><path d="M1952.17,684.7194 C1978.42,703.5194 2009.3842,725.6992 2035.6642,744.5092" fill="none" id="Service-to-Cookies" style="stroke:#181818;stroke-width:1;"/><polygon fill="#181818" points="2039.73,747.4194,2034.7396,738.9284,2035.6642,744.5092,2030.0834,745.4338,2039.73,747.4194" style="stroke:#181818;stroke-width:1;stroke-linejoin:miter;stroke-miterlimit:10;"/></g><!--link Service to StallGuard--><g class="link" data-entity-1="ent0017" data-entity-2="ent0019" data-link-type="dependency" data-source-line="78" id="lnk62"><path d="M1915,684.7194 C1915,703.4494 1915,723.4294 1915,742.2194" fill="none" id="Service-to-StallGuard" style="stroke:#181818;stroke-width:1;"/><polygon fill="#181818" points="1915,747.2194,1919,738.2194,1915,742.2194,1911,738.2194,1915,747.2194" style="stroke:#181818;stroke-width:1;stroke-linejoin:miter;stroke-miterlimit:10;"/></g><!--link DB to Models--><g class="link" data-entity-1="ent0029" data-entity-2="ent0028" data-link-type="dependency" data-source-line="79" id="lnk63"><path d="M125.38,684.6294 C139.42,693.4794 155.9,702.6094 172,708.6094 C277.67,747.9794 403.9768,763.5302 480.4568,769.8102" fill="none" id="DB-to-Models" style="stroke:#181818;stroke-width:1;"/><polygon fill="#181818" points="485.44,770.2194,476.7975,765.4963,480.4568,769.8102,476.1428,773.4694,485.44,770.2194" style="stroke:#181818;stroke-width:1;stroke-linejoin:miter;stroke-miterlimit:10;"/></g><!--link Broker to Main--><g class="link" data-entity-1="ent0015" data-entity-2="ent0009" data-link-type="dependency" data-source-line="80" id="lnk64"><path d="M1610.23,629.3294 C1629.09,613.9994 1649.78,592.9894 1660,568.6094 C1681.13,518.1894 1696.12,486.6394 1660,445.6094 C1632.52,414.3894 1380.6899,394.3268 1241.5599,385.4768" fill="none" id="Broker-to-Main" style="stroke:#181818;stroke-width:1;"/><polygon fill="#181818" points="1236.57,385.1594,1245.2979,389.7226,1241.5599,385.4768,1245.8058,381.7388,1236.57,385.1594" style="stroke:#181818;stroke-width:1;stroke-linejoin:miter;stroke-miterlimit:10;"/><text fill="#000000" font-family="sans-serif" font-size="13" lengthAdjust="spacing" textLength="75.1436" x="1682" y="522.6045">event stream</text></g><?plantuml-src TLJBJjqm4DtVhx1OjQg0VHULUBSL26ZObIgQ97E3kOvjR8VRgEg_TpnsNbHielZCcVSZoA1Gd9dE6eqwYDjNTAyIznk_azg2WqxKex080t4TrW5qgt11yK_GcBtKhTY2yhZPMAXtqA8uk7H61zJDWVYp4UBdYRL7mVz-r3v0GF595CK5VIreLFwN02-84OdVJNNVOu-97S3lH4qXe6CIYo8Dh2J6e_xwy70dAjFh1joGxSWp9Kabqi9WqHEH9G_n4T6N7fGCmuZVfsUKR8th80HAQ1HUJiZcxoAzK_gXxCIn84zko5bs8FMH7Hxr9VXmSlTDEDC7z9Ieablqb2tRl25QfFlw2JlmhE7mfKSVZXtHZFOeEjECfIaIBwhKHczbonfKi08viiGwOz4xKHf7Ddnm4AJHETfdKvKTQ68wDlWIYqknxetReVCvL9QFT8VGb1nP2e5IjCuyqsIGMLRuGOoRI8Wg-4hLIVbTnDzJPyYo-43D_yZi1BmJCqsMLWR64Hf2espfuvZMo3Q7S4ZGklr5aiyAgQKf28-AGZLksLekAqsbKcNRWsiICRx57aBzr9Ws6OxGLMH4XSgPFOLIriRi92RhwLz8sXeNSajOoXu67x0hZSKq8LR1GAKu5bkZ6lg9WZpa1LDl2OYAD46s3wM5y9JS940qqjU6bZQbVSlWNIIzKqtgKql3vNCrn-AM8vxpfWvt0bg2MfYQUfSvKN7abvPcHFgGiad_WdGmQIJWYjwyXmwqtrAzuledLq2nnn2zHMp62eVtelUzZLKTzuntWyqKzzSyRY90fJ0FBOivouf9g5kfusXRSacRnAppKzvuwcf5RafhbAm7fiVQj0uQMa9Ab2B9yvAfN8Mf7HwsA3HqcPHQG0nbsZBAGh99J-5hrrSLBImphqrRi3ocJCii3W-_v0CtlkPRDilJhHhVY_F4gc_1oG8BqWLSO_4OYS-23ocVvGqZKPGlolGUxz04ZDTX0kRjdvNoGau0rNqMpgEURRtHcR5f1bVWOinM1dYKbiZKl2Mut9gLsV-GkLbBD9-l9PHdRoh4slaQNhfVIxALN8T5KzVOU5-MsE9EdPykZUNZk-WvdsUHTluV?></g></svg>