<svg xmlns="http://www.w3.org/2000/svg" xmlns:xlink="http://www.w3.org/1999/xlink" contentStyleType="text/css" data-diagram-type="ACTIVITY" height="1050px" preserveAspectRatio="none" style="width:577px;height:1050px;background:#FFFFFF;" version="1.1" viewBox="0 0 577 1050" width="577px" zoomAndPan="magnify"><?plantuml $version$?><defs/><g><g class="title" data-source-line="1"><text fill="#000000" font-family="sans-serif" font-size="14" font-weight="700" lengthAdjust="spacing" textLength="196.0273" x="189.5898" y="36.0439">Cookies Import and Use Flow</text></g><ellipse cx="350.2153" cy="65.1201" fill="#222222" rx="10" ry="10" style="stroke:#222222;stroke-width:1;"/><rect fill="#F1F1F1" height="36.3887" rx="12.5" ry="12.5" style="stroke:#181818;stroke-width:0.5;" width="224.7559" x="237.8374" y="95.1201"/><text fill="#000000" font-family="sans-serif" font-size="12" lengthAdjust="spacing" textLength="204.7559" x="247.8374" y="118.8721">User analyzes URL or starts download</text><polygon fill="#F1F1F1" points="304.3623,151.5088,396.0684,151.5088,408.0684,163.5088,396.0684,175.5088,304.3623,175.5088,292.3623,163.5088,304.3623,151.5088" style="stroke:#181818;stroke-width:0.5;stroke-linejoin:miter;stroke-miterlimit:10;"/><text fill="#000000" font-family="sans-serif" font-size="11" lengthAdjust="spacing" textLength="91.7061" x="304.3623" y="168.6033">cookies file exists?</text><text fill="#000000" font-family="sans-serif" font-size="11" lengthAdjust="spacing" textLength="17.1177" x="275.2446" y="161.0918">yes</text><text fill="#000000" font-family="sans-serif" font-size="11" lengthAdjust="spacing" textLength="12.2354" x="408.0684" y="161.0918">no</text><rect fill="#F1F1F1" height="36.3887" rx="12.5" ry="12.5" style="stroke:#181818;stroke-width:0.5;" width="179.4102" x="172.9692" y="185.5088"/><text fill="#000000" font-family="sans-serif" font-size="12" lengthAdjust="spacing" textLength="159.4102" x="182.9692" y="209.2607">Pass data/cookies.txt to yt-dlp</text><rect fill="#F1F1F1" height="36.3887" rx="12.5" ry="12.5" style="stroke:#181818;stroke-width:0.5;" width="130.7539" x="372.3794" y="185.5088"/><text fill="#000000" font-family="sans-serif" font-size="12" lengthAdjust="spacing" textLength="110.7539" x="382.3794" y="209.2607">Run unauthenticated</text><polygon fill="#F1F1F1" points="350.2153,227.8975,362.2153,239.8975,350.2153,251.8975,338.2153,239.8975,350.2153,227.8975" style="stroke:#181818;stroke-width:0.5;stroke-linejoin:miter;stroke-miterlimit:10;"/><polygon fill="#F1F1F1" points="265.2178,271.8975,435.2129,271.8975,447.2129,283.8975,435.2129,295.8975,265.2178,295.8975,253.2178,283.8975,265.2178,271.8975" style="stroke:#181818;stroke-width:0.5;stroke-linejoin:miter;stroke-miterlimit:10;"/><text fill="#000000" font-family="sans-serif" font-size="11" lengthAdjust="spacing" textLength="169.9951" x="265.2178" y="288.9919">YouTube requires login/bot check?</text><text fill="#000000" font-family="sans-serif" font-size="11" lengthAdjust="spacing" textLength="17.1177" x="236.1001" y="281.4805">yes</text><text fill="#000000" font-family="sans-serif" font-size="11" lengthAdjust="spacing" textLength="12.2354" x="447.2129" y="281.4805">no</text><rect fill="#F1F1F1" height="36.3887" rx="12.5" ry="12.5" style="stroke:#181818;stroke-width:0.5;" width="158.0352" x="122.5635" y="305.8975"/><text fill="#000000" font-family="sans-serif" font-size="12" lengthAdjust="spacing" textLength="138.0352" x="132.5635" y="329.6494">Try browser cookie import</text><polygon fill="#F1F1F1" points="122.7012,411.7976,280.4609,411.7976,292.4609,423.7976,280.4609,435.7976,122.7012,435.7976,110.7012,423.7976,122.7012,411.7976" style="stroke:#181818;stroke-width:0.5;stroke-linejoin:miter;stroke-miterlimit:10;"/><text fill="#000000" font-family="sans-serif" font-size="11" lengthAdjust="spacing" textLength="157.7598" x="122.7012" y="428.8921">Edge and user confirmed close?</text><text fill="#000000" font-family="sans-serif" font-size="11" lengthAdjust="spacing" textLength="17.1177" x="93.5835" y="421.3806">yes</text><text fill="#000000" font-family="sans-serif" font-size="11" lengthAdjust="spacing" textLength="12.2354" x="292.4609" y="421.3806">no</text><rect fill="#F1F1F1" height="36.3887" rx="12.5" ry="12.5" style="stroke:#181818;stroke-width:0.5;" width="169.4023" x="16" y="445.7976"/><text fill="#000000" font-family="sans-serif" font-size="12" lengthAdjust="spacing" textLength="149.4023" x="26" y="469.5496">Close Edge and retry import</text><rect fill="#F1F1F1" height="36.3887" rx="12.5" ry="12.5" style="stroke:#181818;stroke-width:0.5;" width="172.0625" x="216.4297" y="445.7976"/><text fill="#000000" font-family="sans-serif" font-size="12" lengthAdjust="spacing" textLength="152.0625" x="226.4297" y="469.5496">Return browser_locked error</text><ellipse cx="302.4609" cy="513.1863" fill="none" rx="11" ry="11" style="stroke:#222222;stroke-width:1;"/><ellipse cx="302.4609" cy="513.1863" fill="#222222" rx="6" ry="6" style="stroke:#222222;stroke-width:1;"/><polygon fill="#F1F1F1" points="134.9392,362.2861,268.2229,362.2861,280.2229,374.2861,268.2229,386.2861,134.9392,386.2861,122.9392,374.2861,134.9392,362.2861" style="stroke:#181818;stroke-width:0.5;stroke-linejoin:miter;stroke-miterlimit:10;"/><text fill="#000000" font-family="sans-serif" font-size="11" lengthAdjust="spacing" textLength="17.1177" x="205.5811" y="398.8921">yes</text><text fill="#000000" font-family="sans-serif" font-size="11" lengthAdjust="spacing" textLength="133.2837" x="134.9392" y="379.3806">browser cookie DB locked?</text><polygon fill="#F1F1F1" points="201.5811,544.1863,213.5811,556.1863,201.5811,568.1863,189.5811,556.1863,201.5811,544.1863" style="stroke:#181818;stroke-width:0.5;stroke-linejoin:miter;stroke-miterlimit:10;"/><rect fill="#F1F1F1" height="36.3887" rx="12.5" ry="12.5" style="stroke:#181818;stroke-width:0.5;" width="258.1133" x="72.5244" y="637.6978"/><text fill="#000000" font-family="sans-serif" font-size="12" lengthAdjust="spacing" textLength="238.1133" x="82.5244" y="661.4497">Start temporary headless Edge CDP session</text><rect fill="#F1F1F1" height="36.3887" rx="12.5" ry="12.5" style="stroke:#181818;stroke-width:0.5;" width="259.4668" x="71.8477" y="709.0864"/><text fill="#000000" font-family="sans-serif" font-size="12" lengthAdjust="spacing" textLength="239.4668" x="81.8477" y="732.8384">Read YouTube/Google cookies via DevTools</text><polygon fill="#F1F1F1" points="136.7708,588.1863,266.3914,588.1863,278.3914,600.1863,266.3914,612.1863,136.7708,612.1863,124.7708,600.1863,136.7708,588.1863" style="stroke:#181818;stroke-width:0.5;stroke-linejoin:miter;stroke-miterlimit:10;"/><text fill="#000000" font-family="sans-serif" font-size="11" lengthAdjust="spacing" textLength="17.1177" x="205.5811" y="624.7922">yes</text><text fill="#000000" font-family="sans-serif" font-size="11" lengthAdjust="spacing" textLength="129.6206" x="136.7708" y="605.2808">Edge DPAPI decrypt fails?</text><polygon fill="#F1F1F1" points="201.5811,765.4751,213.5811,777.4751,201.5811,789.4751,189.5811,777.4751,201.5811,765.4751" style="stroke:#181818;stroke-width:0.5;stroke-linejoin:miter;stroke-miterlimit:10;"/><rect fill="#F1F1F1" height="36.3887" rx="12.5" ry="12.5" style="stroke:#181818;stroke-width:0.5;" width="184.7539" x="109.2041" y="809.4751"/><text fill="#000000" font-family="sans-serif" font-size="12" lengthAdjust="spacing" textLength="164.7539" x="119.2041" y="833.2271">Filter YouTube/Google cookies</text><rect fill="#F1F1F1" height="36.3887" rx="12.5" ry="12.5" style="stroke:#181818;stroke-width:0.5;" width="134.0645" x="134.5488" y="865.8638"/><text fill="#000000" font-family="sans-serif" font-size="12" lengthAdjust="spacing" textLength="114.0645" x="144.5488" y="889.6157">Save data/cookies.txt</text><rect fill="#F1F1F1" height="36.3887" rx="12.5" ry="12.5" style="stroke:#181818;stroke-width:0.5;" width="177.4297" x="112.8662" y="922.2524"/><text fill="#000000" font-family="sans-serif" font-size="12" lengthAdjust="spacing" textLength="157.4297" x="122.8662" y="946.0044">Retry analyze/download once</text><rect fill="#F1F1F1" height="36.3887" rx="12.5" ry="12.5" style="stroke:#181818;stroke-width:0.5;" width="116.7148" x="440.4922" y="305.8975"/><text fill="#000000" font-family="sans-serif" font-size="12" lengthAdjust="spacing" textLength="96.7148" x="450.4922" y="329.6494">Continue normally</text><polygon fill="#F1F1F1" points="350.2153,964.6411,362.2153,976.6411,350.2153,988.6411,338.2153,976.6411,350.2153,964.6411" style="stroke:#181818;stroke-width:0.5;stroke-linejoin:miter;stroke-miterlimit:10;"/><ellipse cx="350.2153" cy="1019.6411" fill="none" rx="11" ry="11" style="stroke:#222222;stroke-width:1;"/><ellipse cx="350.2153" cy="1019.6411" fill="#222222" rx="6" ry="6" style="stroke:#222222;stroke-width:1;"/><line style="stroke:#181818;stroke-width:1;" x1="350.2153" x2="350.2153" y1="75.1201" y2="95.1201"/><polygon fill="#181818" points="346.2153,85.1201,350.2153,95.1201,354.2153,85.1201,350.2153,89.1201" style="stroke:#181818;stroke-width:1;stroke-linejoin:miter;stroke-miterlimit:10;"/><line style="stroke:#181818;stroke-width:1;" x1="292.3623" x2="262.6743" y1="163.5088" y2="163.5088"/><line style="stroke:#181818;stroke-width:1;" x1="262.6743" x2="262.6743" y1="163.5088" y2="185.5088"/><polygon fill="#181818" points="258.6743,175.5088,262.6743,185.5088,266.6743,175.5088,262.6743,179.5088" style="stroke:#181818;stroke-width:1;stroke-linejoin:miter;stroke-miterlimit:10;"/><line style="stroke:#181818;stroke-width:1;" x1="408.0684" x2="437.7563" y1="163.5088" y2="163.5088"/><line style="stroke:#181818;stroke-width:1;" x1="437.7563" x2="437.7563" y1="163.5088" y2="185.5088"/><polygon fill="#181818" points="433.7563,175.5088,437.7563,185.5088,441.7563,175.5088,437.7563,179.5088" style="stroke:#181818;stroke-width:1;stroke-linejoin:miter;stroke-miterlimit:10;"/><line style="stroke:#181818;stroke-width:1;" x1="262.6743" x2="262.6743" y1="221.8975" y2="239.8975"/><line style="stroke:#181818;stroke-width:1;" x1="262.6743" x2="338.2153" y1="239.8975" y2="239.8975"/><polygon fill="#181818" points="328.2153,235.8975,338.2153,239.8975,328.2153,243.8975,332.2153,239.8975" style="stroke:#181818;stroke-width:1;stroke-linejoin:miter;stroke-miterlimit:10;"/><line style="stroke:#181818;stroke-width:1;" x1="437.7563" x2="437.7563" y1="221.8975" y2="239.8975"/><line style="stroke:#181818;stroke-width:1;" x1="437.7563" x2="362.2153" y1="239.8975" y2="239.8975"/><polygon fill="#181818" points="372.2153,235.8975,362.2153,239.8975,372.2153,243.8975,368.2153,239.8975" style="stroke:#181818;stroke-width:1;stroke-linejoin:miter;stroke-miterlimit:10;"/><line style="stroke:#181818;stroke-width:1;" x1="350.2153" x2="350.2153" y1="131.5088" y2="151.5088"/><polygon fill="#181818" points="346.2153,141.5088,350.2153,151.5088,354.2153,141.5088,350.2153,145.5088" style="stroke:#181818;stroke-width:1;stroke-linejoin:miter;stroke-miterlimit:10;"/><line style="stroke:#181818;stroke-width:1;" x1="302.4609" x2="302.4609" y1="482.1863" y2="502.1863"/><polygon fill="#181818" points="298.4609,492.1863,302.4609,502.1863,306.4609,492.1863,302.4609,496.1863" style="stroke:#181818;stroke-width:1;stroke-linejoin:miter;stroke-miterlimit:10;"/><line style="stroke:#181818;stroke-width:1;" x1="110.7012" x2="100.7012" y1="423.7976" y2="423.7976"/><line style="stroke:#181818;stroke-width:1;" x1="100.7012" x2="100.7012" y1="423.7976" y2="445.7976"/><polygon fill="#181818" points="96.7012,435.7976,100.7012,445.7976,104.7012,435.7976,100.7012,439.7976" style="stroke:#181818;stroke-width:1;stroke-linejoin:miter;stroke-miterlimit:10;"/><line style="stroke:#181818;stroke-width:1;" x1="292.4609" x2="302.4609" y1="423.7976" y2="423.7976"/><line style="stroke:#181818;stroke-width:1;" x1="302.4609" x2="302.4609" y1="423.7976" y2="445.7976"/><polygon fill="#181818" points="298.4609,435.7976,302.4609,445.7976,306.4609,435.7976,302.4609,439.7976" style="stroke:#181818;stroke-width:1;stroke-linejoin:miter;stroke-miterlimit:10;"/><line style="stroke:#181818;stroke-width:1;" x1="100.7012" x2="100.7012" y1="482.1863" y2="529.1863"/><line style="stroke:#181818;stroke-width:1;" x1="100.7012" x2="201.5811" y1="529.1863" y2="529.1863"/><line style="stroke:#181818;stroke-width:1;" x1="201.5811" x2="201.5811" y1="529.1863" y2="544.1863"/><polygon fill="#181818" points="197.5811,534.1863,201.5811,544.1863,205.5811,534.1863,201.5811,538.1863" style="stroke:#181818;stroke-width:1;stroke-linejoin:miter;stroke-miterlimit:10;"/><line style="stroke:#181818;stroke-width:1;" x1="201.5811" x2="201.5811" y1="386.2861" y2="411.7976"/><polygon fill="#181818" points="197.5811,401.7976,201.5811,411.7976,205.5811,401.7976,201.5811,405.7976" style="stroke:#181818;stroke-width:1;stroke-linejoin:miter;stroke-miterlimit:10;"/><line style="stroke:#181818;stroke-width:1;" x1="280.2229" x2="408.4922" y1="374.2861" y2="374.2861"/><polygon fill="#181818" points="404.4922,468.4919,408.4922,478.4919,412.4922,468.4919,408.4922,472.4919" style="stroke:#181818;stroke-width:1;stroke-linejoin:miter;stroke-miterlimit:10;"/><line style="stroke:#181818;stroke-width:1;" x1="408.4922" x2="408.4922" y1="374.2861" y2="556.1863"/><line style="stroke:#181818;stroke-width:1;" x1="408.4922" x2="213.5811" y1="556.1863" y2="556.1863"/><polygon fill="#181818" points="223.5811,552.1863,213.5811,556.1863,223.5811,560.1863,219.5811,556.1863" style="stroke:#181818;stroke-width:1;stroke-linejoin:miter;stroke-miterlimit:10;"/><line style="stroke:#181818;stroke-width:1;" x1="201.5811" x2="201.5811" y1="342.2861" y2="362.2861"/><polygon fill="#181818" points="197.5811,352.2861,201.5811,362.2861,205.5811,352.2861,201.5811,356.2861" style="stroke:#181818;stroke-width:1;stroke-linejoin:miter;stroke-miterlimit:10;"/><line style="stroke:#181818;stroke-width:1;" x1="201.5811" x2="201.5811" y1="674.0864" y2="709.0864"/><polygon fill="#181818" points="197.5811,699.0864,201.5811,709.0864,205.5811,699.0864,201.5811,703.0864" style="stroke:#181818;stroke-width:1;stroke-linejoin:miter;stroke-miterlimit:10;"/><line style="stroke:#181818;stroke-width:1;" x1="201.5811" x2="201.5811" y1="612.1863" y2="637.6978"/><polygon fill="#181818" points="197.5811,627.6978,201.5811,637.6978,205.5811,627.6978,201.5811,631.6978" style="stroke:#181818;stroke-width:1;stroke-linejoin:miter;stroke-miterlimit:10;"/><line style="stroke:#181818;stroke-width:1;" x1="278.3914" x2="341.3145" y1="600.1863" y2="600.1863"/><polygon fill="#181818" points="337.3145,681.5864,341.3145,691.5864,345.3145,681.5864,341.3145,685.5864" style="stroke:#181818;stroke-width:1;stroke-linejoin:miter;stroke-miterlimit:10;"/><line style="stroke:#181818;stroke-width:1;" x1="341.3145" x2="341.3145" y1="600.1863" y2="777.4751"/><line style="stroke:#181818;stroke-width:1;" x1="341.3145" x2="213.5811" y1="777.4751" y2="777.4751"/><polygon fill="#181818" points="223.5811,773.4751,213.5811,777.4751,223.5811,781.4751,219.5811,777.4751" style="stroke:#181818;stroke-width:1;stroke-linejoin:miter;stroke-miterlimit:10;"/><line style="stroke:#181818;stroke-width:1;" x1="201.5811" x2="201.5811" y1="745.4751" y2="765.4751"/><polygon fill="#181818" points="197.5811,755.4751,201.5811,765.4751,205.5811,755.4751,201.5811,759.4751" style="stroke:#181818;stroke-width:1;stroke-linejoin:miter;stroke-miterlimit:10;"/><line style="stroke:#181818;stroke-width:1;" x1="201.5811" x2="201.5811" y1="568.1863" y2="588.1863"/><polygon fill="#181818" points="197.5811,578.1863,201.5811,588.1863,205.5811,578.1863,201.5811,582.1863" style="stroke:#181818;stroke-width:1;stroke-linejoin:miter;stroke-miterlimit:10;"/><line style="stroke:#181818;stroke-width:1;" x1="201.5811" x2="201.5811" y1="789.4751" y2="809.4751"/><polygon fill="#181818" points="197.5811,799.4751,201.5811,809.4751,205.5811,799.4751,201.5811,803.4751" style="stroke:#181818;stroke-width:1;stroke-linejoin:miter;stroke-miterlimit:10;"/><line style="stroke:#181818;stroke-width:1;" x1="201.5811" x2="201.5811" y1="845.8638" y2="865.8638"/><polygon fill="#181818" points="197.5811,855.8638,201.5811,865.8638,205.5811,855.8638,201.5811,859.8638" style="stroke:#181818;stroke-width:1;stroke-linejoin:miter;stroke-miterlimit:10;"/><line style="stroke:#181818;stroke-width:1;" x1="201.5811" x2="201.5811" y1="902.2524" y2="922.2524"/><polygon fill="#181818" points="197.5811,912.2524,201.5811,922.2524,205.5811,912.2524,201.5811,916.2524" style="stroke:#181818;stroke-width:1;stroke-linejoin:miter;stroke-miterlimit:10;"/><line style="stroke:#181818;stroke-width:1;" x1="253.2178" x2="201.5811" y1="283.8975" y2="283.8975"/><line style="stroke:#181818;stroke-width:1;" x1="201.5811" x2="201.5811" y1="283.8975" y2="305.8975"/><polygon fill="#181818" points="197.5811,295.8975,201.5811,305.8975,205.5811,295.8975,201.5811,299.8975" style="stroke:#181818;stroke-width:1;stroke-linejoin:miter;stroke-miterlimit:10;"/><line style="stroke:#181818;stroke-width:1;" x1="447.2129" x2="498.8496" y1="283.8975" y2="283.8975"/><line style="stroke:#181818;stroke-width:1;" x1="498.8496" x2="498.8496" y1="283.8975" y2="305.8975"/><polygon fill="#181818" points="494.8496,295.8975,498.8496,305.8975,502.8496,295.8975,498.8496,299.8975" style="stroke:#181818;stroke-width:1;stroke-linejoin:miter;stroke-miterlimit:10;"/><line style="stroke:#181818;stroke-width:1;" x1="201.5811" x2="201.5811" y1="958.6411" y2="976.6411"/><line style="stroke:#181818;stroke-width:1;" x1="201.5811" x2="338.2153" y1="976.6411" y2="976.6411"/><polygon fill="#181818" points="328.2153,972.6411,338.2153,976.6411,328.2153,980.6411,332.2153,976.6411" style="stroke:#181818;stroke-width:1;stroke-linejoin:miter;stroke-miterlimit:10;"/><line style="stroke:#181818;stroke-width:1;" x1="498.8496" x2="498.8496" y1="342.2861" y2="976.6411"/><line style="stroke:#181818;stroke-width:1;" x1="498.8496" x2="362.2153" y1="976.6411" y2="976.6411"/><polygon fill="#181818" points="372.2153,972.6411,362.2153,976.6411,372.2153,980.6411,368.2153,976.6411" style="stroke:#181818;stroke-width:1;stroke-linejoin:miter;stroke-miterlimit:10;"/><line style="stroke:#181818;stroke-width:1;" x1="350.2153" x2="350.2153" y1="251.8975" y2="271.8975"/><polygon fill="#181818" points="346.2153,261.8975,350.2153,271.8975,354.2153,261.8975,350.2153,265.8975" style="stroke:#181818;stroke-width:1;stroke-linejoin:miter;stroke-miterlimit:10;"/><line style="stroke:#181818;stroke-width:1;" x1="350.2153" x2="350.2153" y1="988.6411" y2="1008.6411"/><polygon fill="#181818" points="346.2153,998.6411,350.2153,1008.6411,354.2153,998.6411,350.2153,1002.6411" style="stroke:#181818;stroke-width:1;stroke-linejoin:miter;stroke-miterlimit:10;"/><?plantuml-src RLAnRjim4Dtv5JSwG-jT6eBMRee07Gp76JeLP_5a4wPv2dcqetvzJvIS6dOcGRZtxZs-U-B44ooO3uuIF1yxZW8OBBmcWYVFPvCEBdGOyGXfZvRFBkoWHP_8c2GOnLGAZSf1t__L7Q_hNy0HoYo14e9djBLnBSoQIQTrAahlBabwV03PKu1PJ-d105GhJ4f3mVc4_Yhl0iBGonVhkzgGQiCiS46lSu0SC0yxn3Kef58Kh6jDKVpDUPEt197UieigxNddmdpB0isUciET_2Rsi8ry7juq6W1NKgbrEcoy6Iw_wyhcGFPsquZ-ONTKyimZ9xGk7ib2updHFKKDB8O9VF0YYJhwRm7W-ls5iIR9CLnS_ndj0CN8iPumIRWRoIMQozTScLoklgsUmL8J-qxqmiwdUt_Lot1M41hye1hR4rfFUh6oOx5SGT8_ns5KLczeOJh2_2VpJWz_QS798Ipfj67sgRxsL3qvBnhNvxm1MhtWYUvQKYRh4jXKn_cbVy2XePlkB5Wh4p91u7X4x_kFvWnn_GC0?></g></svg>