<svg xmlns="http://www.w3.org/2000/svg" xmlns:xlink="http://www.w3.org/1999/xlink" contentStyleType="text/css" data-diagram-type="CLASS" height="1014px" preserveAspectRatio="none" style="width:562px;height:1014px;background:#FFFFFF;" version="1.1" viewBox="0 0 562 1014" width="562px" zoomAndPan="magnify"><?plantuml $version$?><defs/><g><g class="title" data-source-line="1"><text fill="#000000" font-family="sans-serif" font-size="14" font-weight="700" lengthAdjust="spacing" textLength="110.4619" x="222.6025" y="26.0439">Core Data Model</text></g><!--class Setting--><g class="entity" data-qualified-name="Setting" data-source-line="4" id="ent0001"><rect fill="#F1F1F1" height="86.2402" rx="2.5" ry="2.5" style="stroke:#181818;stroke-width:0.5;" width="82.7998" x="12.5" y="152.6201"/><ellipse cx="30.7462" cy="168.6201" fill="#ADD1B2" rx="11" ry="11" style="stroke:#181818;stroke-width:1;"/><path d="M30.1681,174.4795 Q28.1369,174.4795 26.9494,172.9795 Q25.7775,171.4795 25.7775,168.3701 Q25.7775,165.7295 27.0275,163.9639 Q28.2775,162.1826 30.4337,162.1826 Q30.9494,162.1826 31.4806,162.3232 Q31.9181,162.5107 32.1681,162.5107 Q32.3556,162.5107 32.4494,162.4795 Q32.5431,162.4326 33.09,161.7139 L33.9025,165.6826 L32.8556,165.9951 Q32.4025,164.4951 31.8087,163.917 Q31.2306,163.3232 30.3087,163.3232 Q29.1369,163.3232 28.4337,164.7295 Q27.7306,166.1201 27.7306,168.292 Q27.7306,170.6826 28.3244,171.9482 Q28.9337,173.1982 30.2462,173.1982 Q31.1681,173.1982 31.84,172.5264 Q32.5119,171.8389 32.84,170.2607 L33.8869,170.7607 Q33.4806,172.5264 32.4962,173.5107 Q31.5119,174.4795 30.1681,174.4795 Z " fill="#000000"/><text fill="#000000" font-family="sans-serif" font-size="14" lengthAdjust="spacing" textLength="43.5859" x="45.4676" y="175.104">Setting</text><line style="stroke:#181818;stroke-width:0.5;" x1="13.5" x2="94.2998" y1="184.6201" y2="184.6201"/><g data-visibility-modifier="PUBLIC_FIELD"><ellipse cx="23.5" cy="199.6802" fill="none" rx="3" ry="3" style="stroke:#038048;stroke-width:1;"/></g><text fill="#000000" font-family="sans-serif" font-size="14" lengthAdjust="spacing" textLength="45.1172" x="32.5" y="204.6641">key: str</text><g data-visibility-modifier="PUBLIC_FIELD"><ellipse cx="23.5" cy="218.8003" fill="none" rx="3" ry="3" style="stroke:#038048;stroke-width:1;"/></g><text fill="#000000" font-family="sans-serif" font-size="14" lengthAdjust="spacing" textLength="56.7998" x="32.5" y="223.7842">value: str</text><line style="stroke:#181818;stroke-width:0.5;" x1="13.5" x2="94.2998" y1="230.8604" y2="230.8604"/></g><!--class Job--><g class="entity" data-qualified-name="Job" data-source-line="9" id="ent0002"><rect fill="#F1F1F1" height="296.5615" rx="2.5" ry="2.5" style="stroke:#181818;stroke-width:0.5;" width="154.3926" x="131" y="47.1201"/><ellipse cx="192.6602" cy="63.1201" fill="#ADD1B2" rx="11" ry="11" style="stroke:#181818;stroke-width:1;"/><path d="M192.082,68.9795 Q190.0508,68.9795 188.8633,67.4795 Q187.6914,65.9795 187.6914,62.8701 Q187.6914,60.2295 188.9414,58.4639 Q190.1914,56.6826 192.3477,56.6826 Q192.8633,56.6826 193.3945,56.8232 Q193.832,57.0107 194.082,57.0107 Q194.2695,57.0107 194.3633,56.9795 Q194.457,56.9326 195.0039,56.2139 L195.8164,60.1826 L194.7695,60.4951 Q194.3164,58.9951 193.7227,58.417 Q193.1445,57.8232 192.2227,57.8232 Q191.0508,57.8232 190.3477,59.2295 Q189.6445,60.6201 189.6445,62.792 Q189.6445,65.1826 190.2383,66.4482 Q190.8477,67.6982 192.1602,67.6982 Q193.082,67.6982 193.7539,67.0264 Q194.4258,66.3389 194.7539,64.7607 L195.8008,65.2607 Q195.3945,67.0264 194.4102,68.0107 Q193.4258,68.9795 192.082,68.9795 Z " fill="#000000"/><text fill="#000000" font-family="sans-serif" font-size="14" lengthAdjust="spacing" textLength="22.5723" x="213.1602" y="69.604">Job</text><line style="stroke:#181818;stroke-width:0.5;" x1="132" x2="284.3926" y1="79.1201" y2="79.1201"/><g data-visibility-modifier="PUBLIC_FIELD"><ellipse cx="142" cy="94.1802" fill="none" rx="3" ry="3" style="stroke:#038048;stroke-width:1;"/></g><text fill="#000000" font-family="sans-serif" font-size="14" lengthAdjust="spacing" textLength="34.2275" x="151" y="99.1641">id: str</text><g data-visibility-modifier="PUBLIC_FIELD"><ellipse cx="142" cy="113.3003" fill="none" rx="3" ry="3" style="stroke:#038048;stroke-width:1;"/></g><text fill="#000000" font-family="sans-serif" font-size="14" lengthAdjust="spacing" textLength="38.8896" x="151" y="118.2842">url: str</text><g data-visibility-modifier="PUBLIC_FIELD"><ellipse cx="142" cy="132.4204" fill="none" rx="3" ry="3" style="stroke:#038048;stroke-width:1;"/></g><text fill="#000000" font-family="sans-serif" font-size="14" lengthAdjust="spacing" textLength="45.1172" x="151" y="137.4043">title: str</text><g data-visibility-modifier="PUBLIC_FIELD"><ellipse cx="142" cy="151.5405" fill="none" rx="3" ry="3" style="stroke:#038048;stroke-width:1;"/></g><text fill="#000000" font-family="sans-serif" font-size="14" lengthAdjust="spacing" textLength="60.6826" x="151" y="156.5244">status: str</text><g data-visibility-modifier="PUBLIC_FIELD"><ellipse cx="142" cy="170.6606" fill="none" rx="3" ry="3" style="stroke:#038048;stroke-width:1;"/></g><text fill="#000000" font-family="sans-serif" font-size="14" lengthAdjust="spacing" textLength="101.9443" x="151" y="175.6445">options_json: str</text><g data-visibility-modifier="PUBLIC_FIELD"><ellipse cx="142" cy="189.7808" fill="none" rx="3" ry="3" style="stroke:#038048;stroke-width:1;"/></g><text fill="#000000" font-family="sans-serif" font-size="14" lengthAdjust="spacing" textLength="88.71" x="151" y="194.7646">progress: float</text><g data-visibility-modifier="PUBLIC_FIELD"><ellipse cx="142" cy="208.9009" fill="none" rx="3" ry="3" style="stroke:#038048;stroke-width:1;"/></g><text fill="#000000" font-family="sans-serif" font-size="14" lengthAdjust="spacing" textLength="80.1719" x="151" y="213.8848">speed: float?</text><g data-visibility-modifier="PUBLIC_FIELD"><ellipse cx="142" cy="228.021" fill="none" rx="3" ry="3" style="stroke:#038048;stroke-width:1;"/></g><text fill="#000000" font-family="sans-serif" font-size="14" lengthAdjust="spacing" textLength="49.8135" x="151" y="233.0049">eta: int?</text><g data-visibility-modifier="PUBLIC_FIELD"><ellipse cx="142" cy="247.1411" fill="none" rx="3" ry="3" style="stroke:#038048;stroke-width:1;"/></g><text fill="#000000" font-family="sans-serif" font-size="14" lengthAdjust="spacing" textLength="90.2617" x="151" y="252.125">total_items: int</text><g data-visibility-modifier="PUBLIC_FIELD"><ellipse cx="142" cy="266.2612" fill="none" rx="3" ry="3" style="stroke:#038048;stroke-width:1;"/></g><text fill="#000000" font-family="sans-serif" font-size="14" lengthAdjust="spacing" textLength="128.3926" x="151" y="271.2451">completed_items: int</text><g data-visibility-modifier="PUBLIC_FIELD"><ellipse cx="142" cy="285.3813" fill="none" rx="3" ry="3" style="stroke:#038048;stroke-width:1;"/></g><text fill="#000000" font-family="sans-serif" font-size="14" lengthAdjust="spacing" textLength="97.2686" x="151" y="290.3652">failed_items: int</text><g data-visibility-modifier="PUBLIC_FIELD"><ellipse cx="142" cy="304.5015" fill="none" rx="3" ry="3" style="stroke:#038048;stroke-width:1;"/></g><text fill="#000000" font-family="sans-serif" font-size="14" lengthAdjust="spacing" textLength="114.3994" x="151" y="309.4854">download_dir: str?</text><g data-visibility-modifier="PUBLIC_FIELD"><ellipse cx="142" cy="323.6216" fill="none" rx="3" ry="3" style="stroke:#038048;stroke-width:1;"/></g><text fill="#000000" font-family="sans-serif" font-size="14" lengthAdjust="spacing" textLength="60.6758" x="151" y="328.6055">error: str?</text><line style="stroke:#181818;stroke-width:0.5;" x1="132" x2="284.3926" y1="335.6816" y2="335.6816"/></g><!--class JobItem--><g class="entity" data-qualified-name="JobItem" data-source-line="25" id="ent0003"><rect fill="#F1F1F1" height="353.9219" rx="2.5" ry="2.5" style="stroke:#181818;stroke-width:0.5;" width="187.875" x="114" y="423.1201"/><ellipse cx="178.7876" cy="439.1201" fill="#ADD1B2" rx="11" ry="11" style="stroke:#181818;stroke-width:1;"/><path d="M178.2095,444.9795 Q176.1782,444.9795 174.9907,443.4795 Q173.8188,441.9795 173.8188,438.8701 Q173.8188,436.2295 175.0688,434.4639 Q176.3188,432.6826 178.4751,432.6826 Q178.9907,432.6826 179.522,432.8232 Q179.9595,433.0107 180.2095,433.0107 Q180.397,433.0107 180.4907,432.9795 Q180.5845,432.9326 181.1313,432.2139 L181.9438,436.1826 L180.897,436.4951 Q180.4438,434.9951 179.8501,434.417 Q179.272,433.8232 178.3501,433.8232 Q177.1782,433.8232 176.4751,435.2295 Q175.772,436.6201 175.772,438.792 Q175.772,441.1826 176.3657,442.4482 Q176.9751,443.6982 178.2876,443.6982 Q179.2095,443.6982 179.8813,443.0264 Q180.5532,442.3389 180.8813,440.7607 L181.9282,441.2607 Q181.522,443.0264 180.5376,444.0107 Q179.5532,444.9795 178.2095,444.9795 Z " fill="#000000"/><text fill="#000000" font-family="sans-serif" font-size="14" lengthAdjust="spacing" textLength="49.7998" x="199.2876" y="445.604">JobItem</text><line style="stroke:#181818;stroke-width:0.5;" x1="115" x2="300.875" y1="455.1201" y2="455.1201"/><g data-visibility-modifier="PUBLIC_FIELD"><ellipse cx="125" cy="470.1802" fill="none" rx="3" ry="3" style="stroke:#038048;stroke-width:1;"/></g><text fill="#000000" font-family="sans-serif" font-size="14" lengthAdjust="spacing" textLength="34.2275" x="134" y="475.1641">id: str</text><g data-visibility-modifier="PUBLIC_FIELD"><ellipse cx="125" cy="489.3003" fill="none" rx="3" ry="3" style="stroke:#038048;stroke-width:1;"/></g><text fill="#000000" font-family="sans-serif" font-size="14" lengthAdjust="spacing" textLength="60.6963" x="134" y="494.2842">job_id: str</text><g data-visibility-modifier="PUBLIC_FIELD"><ellipse cx="125" cy="508.4204" fill="none" rx="3" ry="3" style="stroke:#038048;stroke-width:1;"/></g><text fill="#000000" font-family="sans-serif" font-size="14" lengthAdjust="spacing" textLength="88.6963" x="134" y="513.4043">source_url: str</text><g data-visibility-modifier="PUBLIC_FIELD"><ellipse cx="125" cy="527.5405" fill="none" rx="3" ry="3" style="stroke:#038048;stroke-width:1;"/></g><text fill="#000000" font-family="sans-serif" font-size="14" lengthAdjust="spacing" textLength="45.1172" x="134" y="532.5244">title: str</text><g data-visibility-modifier="PUBLIC_FIELD"><ellipse cx="125" cy="546.6606" fill="none" rx="3" ry="3" style="stroke:#038048;stroke-width:1;"/></g><text fill="#000000" font-family="sans-serif" font-size="14" lengthAdjust="spacing" textLength="56.0342" x="134" y="551.6445">index: int</text><g data-visibility-modifier="PUBLIC_FIELD"><ellipse cx="125" cy="565.7808" fill="none" rx="3" ry="3" style="stroke:#038048;stroke-width:1;"/></g><text fill="#000000" font-family="sans-serif" font-size="14" lengthAdjust="spacing" textLength="60.6826" x="134" y="570.7646">status: str</text><g data-visibility-modifier="PUBLIC_FIELD"><ellipse cx="125" cy="584.9009" fill="none" rx="3" ry="3" style="stroke:#038048;stroke-width:1;"/></g><text fill="#000000" font-family="sans-serif" font-size="14" lengthAdjust="spacing" textLength="88.71" x="134" y="589.8848">progress: float</text><g data-visibility-modifier="PUBLIC_FIELD"><ellipse cx="125" cy="604.021" fill="none" rx="3" ry="3" style="stroke:#038048;stroke-width:1;"/></g><text fill="#000000" font-family="sans-serif" font-size="14" lengthAdjust="spacing" textLength="147.1094" x="134" y="609.0049">downloaded_bytes: int?</text><g data-visibility-modifier="PUBLIC_FIELD"><ellipse cx="125" cy="623.1411" fill="none" rx="3" ry="3" style="stroke:#038048;stroke-width:1;"/></g><text fill="#000000" font-family="sans-serif" font-size="14" lengthAdjust="spacing" textLength="98.0615" x="134" y="628.125">total_bytes: int?</text><g data-visibility-modifier="PUBLIC_FIELD"><ellipse cx="125" cy="642.2612" fill="none" rx="3" ry="3" style="stroke:#038048;stroke-width:1;"/></g><text fill="#000000" font-family="sans-serif" font-size="14" lengthAdjust="spacing" textLength="108.1787" x="134" y="647.2451">actual_width: int?</text><g data-visibility-modifier="PUBLIC_FIELD"><ellipse cx="125" cy="661.3813" fill="none" rx="3" ry="3" style="stroke:#038048;stroke-width:1;"/></g><text fill="#000000" font-family="sans-serif" font-size="14" lengthAdjust="spacing" textLength="113.6406" x="134" y="666.3652">actual_height: int?</text><g data-visibility-modifier="PUBLIC_FIELD"><ellipse cx="125" cy="680.5015" fill="none" rx="3" ry="3" style="stroke:#038048;stroke-width:1;"/></g><text fill="#000000" font-family="sans-serif" font-size="14" lengthAdjust="spacing" textLength="115.9375" x="134" y="685.4854">actual_format: str?</text><g data-visibility-modifier="PUBLIC_FIELD"><ellipse cx="125" cy="699.6216" fill="none" rx="3" ry="3" style="stroke:#038048;stroke-width:1;"/></g><text fill="#000000" font-family="sans-serif" font-size="14" lengthAdjust="spacing" textLength="161.875" x="134" y="704.6055">requested_resolution: str?</text><g data-visibility-modifier="PUBLIC_FIELD"><ellipse cx="125" cy="718.7417" fill="none" rx="3" ry="3" style="stroke:#038048;stroke-width:1;"/></g><text fill="#000000" font-family="sans-serif" font-size="14" lengthAdjust="spacing" textLength="147.0752" x="134" y="723.7256">fallback_resolution: str?</text><g data-visibility-modifier="PUBLIC_FIELD"><ellipse cx="125" cy="737.8618" fill="none" rx="3" ry="3" style="stroke:#038048;stroke-width:1;"/></g><text fill="#000000" font-family="sans-serif" font-size="14" lengthAdjust="spacing" textLength="129.1787" x="134" y="742.8457">fallback_reason: str?</text><g data-visibility-modifier="PUBLIC_FIELD"><ellipse cx="125" cy="756.9819" fill="none" rx="3" ry="3" style="stroke:#038048;stroke-width:1;"/></g><text fill="#000000" font-family="sans-serif" font-size="14" lengthAdjust="spacing" textLength="60.6758" x="134" y="761.9658">error: str?</text><line style="stroke:#181818;stroke-width:0.5;" x1="115" x2="300.875" y1="769.042" y2="769.042"/></g><!--class JobEvent--><g class="entity" data-qualified-name="JobEvent" data-source-line="44" id="ent0004"><rect fill="#F1F1F1" height="143.6006" rx="2.5" ry="2.5" style="stroke:#181818;stroke-width:0.5;" width="131.8408" x="7" y="856.1201"/><ellipse cx="40.6609" cy="872.1201" fill="#ADD1B2" rx="11" ry="11" style="stroke:#181818;stroke-width:1;"/><path d="M40.0828,877.9795 Q38.0516,877.9795 36.8641,876.4795 Q35.6922,874.9795 35.6922,871.8701 Q35.6922,869.2295 36.9422,867.4639 Q38.1922,865.6826 40.3484,865.6826 Q40.8641,865.6826 41.3953,865.8232 Q41.8328,866.0107 42.0828,866.0107 Q42.2703,866.0107 42.3641,865.9795 Q42.4578,865.9326 43.0047,865.2139 L43.8172,869.1826 L42.7703,869.4951 Q42.3172,867.9951 41.7234,867.417 Q41.1453,866.8232 40.2234,866.8232 Q39.0516,866.8232 38.3484,868.2295 Q37.6453,869.6201 37.6453,871.792 Q37.6453,874.1826 38.2391,875.4482 Q38.8484,876.6982 40.1609,876.6982 Q41.0828,876.6982 41.7547,876.0264 Q42.4266,875.3389 42.7547,873.7607 L43.8016,874.2607 Q43.3953,876.0264 42.4109,877.0107 Q41.4266,877.9795 40.0828,877.9795 Z " fill="#000000"/><text fill="#000000" font-family="sans-serif" font-size="14" lengthAdjust="spacing" textLength="58.3721" x="58.8078" y="878.604">JobEvent</text><line style="stroke:#181818;stroke-width:0.5;" x1="8" x2="137.8408" y1="888.1201" y2="888.1201"/><g data-visibility-modifier="PUBLIC_FIELD"><ellipse cx="18" cy="903.1802" fill="none" rx="3" ry="3" style="stroke:#038048;stroke-width:1;"/></g><text fill="#000000" font-family="sans-serif" font-size="14" lengthAdjust="spacing" textLength="41.248" x="27" y="908.1641">id: int?</text><g data-visibility-modifier="PUBLIC_FIELD"><ellipse cx="18" cy="922.3003" fill="none" rx="3" ry="3" style="stroke:#038048;stroke-width:1;"/></g><text fill="#000000" font-family="sans-serif" font-size="14" lengthAdjust="spacing" textLength="60.6963" x="27" y="927.2842">job_id: str</text><g data-visibility-modifier="PUBLIC_FIELD"><ellipse cx="18" cy="941.4204" fill="none" rx="3" ry="3" style="stroke:#038048;stroke-width:1;"/></g><text fill="#000000" font-family="sans-serif" font-size="14" lengthAdjust="spacing" textLength="76.248" x="27" y="946.4043">item_id: str?</text><g data-visibility-modifier="PUBLIC_FIELD"><ellipse cx="18" cy="960.5405" fill="none" rx="3" ry="3" style="stroke:#038048;stroke-width:1;"/></g><text fill="#000000" font-family="sans-serif" font-size="14" lengthAdjust="spacing" textLength="91.8271" x="27" y="965.5244">event_type: str</text><g data-visibility-modifier="PUBLIC_FIELD"><ellipse cx="18" cy="979.6606" fill="none" rx="3" ry="3" style="stroke:#038048;stroke-width:1;"/></g><text fill="#000000" font-family="sans-serif" font-size="14" lengthAdjust="spacing" textLength="105.8408" x="27" y="984.6445">payload_json: str</text><line style="stroke:#181818;stroke-width:0.5;" x1="8" x2="137.8408" y1="991.7207" y2="991.7207"/></g><!--class JobRead--><g class="entity" data-qualified-name="JobRead" data-source-line="52" id="ent0005"><rect fill="#F1F1F1" height="124.4805" rx="2.5" ry="2.5" style="stroke:#181818;stroke-width:0.5;" width="275.8057" x="219" y="866.1201"/><ellipse cx="324.6323" cy="882.1201" fill="#ADD1B2" rx="11" ry="11" style="stroke:#181818;stroke-width:1;"/><path d="M324.0542,887.9795 Q322.0229,887.9795 320.8354,886.4795 Q319.6636,884.9795 319.6636,881.8701 Q319.6636,879.2295 320.9136,877.4639 Q322.1636,875.6826 324.3198,875.6826 Q324.8354,875.6826 325.3667,875.8232 Q325.8042,876.0107 326.0542,876.0107 Q326.2417,876.0107 326.3354,875.9795 Q326.4292,875.9326 326.9761,875.2139 L327.7886,879.1826 L326.7417,879.4951 Q326.2886,877.9951 325.6948,877.417 Q325.1167,876.8232 324.1948,876.8232 Q323.0229,876.8232 322.3198,878.2295 Q321.6167,879.6201 321.6167,881.792 Q321.6167,884.1826 322.2104,885.4482 Q322.8198,886.6982 324.1323,886.6982 Q325.0542,886.6982 325.7261,886.0264 Q326.3979,885.3389 326.7261,883.7607 L327.7729,884.2607 Q327.3667,886.0264 326.3823,887.0107 Q325.3979,887.9795 324.0542,887.9795 Z " fill="#000000"/><text fill="#000000" font-family="sans-serif" font-size="14" lengthAdjust="spacing" textLength="56.041" x="345.1323" y="888.604">JobRead</text><line style="stroke:#181818;stroke-width:0.5;" x1="220" x2="493.8057" y1="898.1201" y2="898.1201"/><g data-visibility-modifier="PUBLIC_FIELD"><ellipse cx="230" cy="913.1802" fill="none" rx="3" ry="3" style="stroke:#038048;stroke-width:1;"/></g><text fill="#000000" font-family="sans-serif" font-size="14" lengthAdjust="spacing" textLength="157.958" x="239" y="918.1641">items: list&lt;JobItemRead&gt;</text><g data-visibility-modifier="PUBLIC_FIELD"><ellipse cx="230" cy="932.3003" fill="none" rx="3" ry="3" style="stroke:#038048;stroke-width:1;"/></g><text fill="#000000" font-family="sans-serif" font-size="14" lengthAdjust="spacing" textLength="136.9648" x="239" y="937.2842">actual_resolution: str?</text><g data-visibility-modifier="PUBLIC_FIELD"><ellipse cx="230" cy="951.4204" fill="none" rx="3" ry="3" style="stroke:#038048;stroke-width:1;"/></g><text fill="#000000" font-family="sans-serif" font-size="14" lengthAdjust="spacing" textLength="115.9375" x="239" y="956.4043">actual_format: str?</text><g data-visibility-modifier="PUBLIC_FIELD"><ellipse cx="230" cy="970.5405" fill="none" rx="3" ry="3" style="stroke:#038048;stroke-width:1;"/></g><text fill="#000000" font-family="sans-serif" font-size="14" lengthAdjust="spacing" textLength="249.8057" x="239" y="975.5244">resolution_fallback: ResolutionFallback?</text><line style="stroke:#181818;stroke-width:0.5;" x1="220" x2="493.8057" y1="982.6006" y2="982.6006"/></g><!--link Job to JobItem--><g class="link" data-entity-1="ent0002" data-entity-2="ent0003" data-link-type="dependency" data-source-line="59" id="lnk6"><path codeLine="59" d="M208,344.2101 C208,369.7901 208,391.6101 208,417.8601" fill="none" id="Job-to-JobItem" style="stroke:#181818;stroke-width:1;"/><polygon fill="#181818" points="208,422.8601,212,413.8601,208,417.8601,204,413.8601,208,422.8601" style="stroke:#181818;stroke-width:1;stroke-linejoin:miter;stroke-miterlimit:10;"/><text fill="#000000" font-family="sans-serif" font-size="13" lengthAdjust="spacing" textLength="48.4199" x="209" y="390.0181">contains</text><text fill="#000000" font-family="sans-serif" font-size="13" lengthAdjust="spacing" textLength="7.23" x="200.8265" y="366.746">1</text><text fill="#000000" font-family="sans-serif" font-size="13" lengthAdjust="spacing" textLength="5.0591" x="202.8909" y="412.3597">*</text></g><!--link Job to JobEvent--><g class="link" data-entity-1="ent0002" data-entity-2="ent0004" data-link-type="dependency" data-source-line="60" id="lnk7"><path codeLine="60" d="M130.82,316.4201 C96.45,369.8901 63.5,421.4101 63,423.1201 C19.37,572.2101 40.1863,751.9253 57.5863,851.1453" fill="none" id="Job-to-JobEvent" style="stroke:#181818;stroke-width:1;"/><polygon fill="#181818" points="58.45,856.0701,60.8353,846.5145,57.5863,851.1453,52.9555,847.8963,58.45,856.0701" style="stroke:#181818;stroke-width:1;stroke-linejoin:miter;stroke-miterlimit:10;"/><text fill="#000000" font-family="sans-serif" font-size="13" lengthAdjust="spacing" textLength="31.0591" x="64" y="606.5181">emits</text><text fill="#000000" font-family="sans-serif" font-size="13" lengthAdjust="spacing" textLength="7.23" x="115.8701" y="325.4313">1</text><text fill="#000000" font-family="sans-serif" font-size="13" lengthAdjust="spacing" textLength="5.0591" x="51.5971" y="845.221">*</text></g><!--link JobItem to JobEvent--><g class="link" data-entity-1="ent0003" data-entity-2="ent0004" data-link-type="dependency" data-source-line="61" id="lnk8"><path codeLine="61" d="M113.88,770.3301 C108.47,782.6201 103.44,794.9601 99,807.1201 C93.33,822.6401 89.822,834.8831 86.132,851.2131" fill="none" id="JobItem-to-JobEvent" style="stroke:#181818;stroke-width:1;"/><polygon fill="#181818" points="85.03,856.0901,90.9153,848.1931,86.132,851.2131,83.112,846.4298,85.03,856.0901" style="stroke:#181818;stroke-width:1;stroke-linejoin:miter;stroke-miterlimit:10;"/><text fill="#000000" font-family="sans-serif" font-size="13" lengthAdjust="spacing" textLength="66.4727" x="100" y="823.0181">item events</text><text fill="#000000" font-family="sans-serif" font-size="13" lengthAdjust="spacing" textLength="21.6836" x="84.2496" y="781.6541">0..1</text><text fill="#000000" font-family="sans-serif" font-size="13" lengthAdjust="spacing" textLength="5.0591" x="81.0843" y="845.2432">*</text></g><!--link Job to JobRead--><g class="link" data-entity-1="ent0002" data-entity-2="ent0005" data-link-type="dependency" data-source-line="62" id="lnk9"><path codeLine="62" d="M285.12,337.7401 C297.97,365.4401 310.01,394.7301 319,423.1201 C371.16,587.8701 366.4,634.8501 380,807.1201 C381.53,826.4701 380.0206,842.4213 376.1806,861.2213" fill="none" id="Job-to-JobRead" style="stroke:#181818;stroke-width:1;"/><polygon fill="#181818" points="375.18,866.1201,380.9002,858.1027,376.1806,861.2213,373.062,856.5017,375.18,866.1201" style="stroke:#181818;stroke-width:1;stroke-linejoin:miter;stroke-miterlimit:10;"/><text fill="#000000" font-family="sans-serif" font-size="13" lengthAdjust="spacing" textLength="167.667" x="379" y="606.5181">projected by job_read_model</text></g><!--link JobItem to JobRead--><g class="link" data-entity-1="ent0003" data-entity-2="ent0005" data-link-type="dependency" data-source-line="63" id="lnk10"><path codeLine="63" d="M190.46,777.2501 C193.65,794.3401 198.92,810.9501 207,826.1201 C215.04,841.2201 222.7077,851.1542 235.6977,862.6642" fill="none" id="JobItem-to-JobRead" style="stroke:#181818;stroke-width:1;"/><polygon fill="#181818" points="239.44,865.9801,235.3566,857.0176,235.6977,862.6642,230.0512,863.0053,239.44,865.9801" style="stroke:#181818;stroke-width:1;stroke-linejoin:miter;stroke-miterlimit:10;"/><text fill="#000000" font-family="sans-serif" font-size="13" lengthAdjust="spacing" textLength="167.667" x="208" y="823.0181">projected by job_read_model</text></g><?plantuml-src ZLHDRzim3BtdLn0-RcYnNOsXE-m3Q85TsXzWq1QJA94bJwJR6aN_-oGviWqdGNVJUtoKo4VQeiKG_72Uu2SAmX-do6pug6s77blWFIhtekqEjcYODfl683CyaKWatpO0duyqbC3Yu_aPJKyZUi_Y1rUFGgqcNU_DT9POmuHOK7gUeEj4EylLWPsToCwxdISEggrnA2cj8r8d_3qI95Y2jYCG9sWgBTHo8YFNkBOp9AHM_1QrEIE32JPShIgbVIfZVCDxb-6otVkGUzRomTNL0hBhVKFLTIEqLVGw5R2ovO83kSHGUpq8yRhx5OcDz85zqKhsP-oUz6ulP_JM-HPbxj_JtvuuMXXgSQQFevgZOMDCZStneo3oCd3Dqr_FP6KsDLUsSZLEBUFnkfXMoT3DndOuf57EAxLyvv5GdPuPDy1ebc-deSRWtSAGIvrTzIfBgznx2OyJ-Vl4fQRZ5rDyBU3cvWwAJyMqKYKqpWfgovSaeqCbKAib2L9EyUNszh8kzWV9d_6wACa6b10sx41Dc2tK0qINmw1KrQR_GxxxlpF-0G00?></g></svg>