<svg xmlns="http://www.w3.org/2000/svg" xmlns:xlink="http://www.w3.org/1999/xlink" contentStyleType="text/css" data-diagram-type="ACTIVITY" height="1885px" preserveAspectRatio="none" style="width:584px;height:1885px;background:#FFFFFF;" version="1.1" viewBox="0 0 584 1885" width="584px" zoomAndPan="magnify"><?plantuml $version$?><defs/><g><g class="title" data-source-line="1"><text fill="#000000" font-family="sans-serif" font-size="14" font-weight="700" lengthAdjust="spacing" textLength="136.8896" x="222.7107" y="34.5332">Download Data Flow</text></g><rect fill="#FFFFCC" height="133.3398" rx="2.5" ry="2.5" style="stroke:#FFDD88;stroke-width:3;" width="553.311" x="13" y="51.6094"/><text fill="#000000" font-family="monospace" font-size="10" lengthAdjust="spacing" textLength="456.0742" x="20" y="63.666">You&#160;should&#160;use&#160;a&#160;bracket&#160;({)&#160;when&#160;defining&#160;your&#160;container&#160;'group'&#160;HTTP&#160;layer</text><text fill="#000000" font-family="monospace" font-size="10" lengthAdjust="spacing" textLength="306.0498" x="20" y="86.7227">You&#160;should&#160;use&#160;a&#160;bracket&#160;(})&#160;instead&#160;of&#160;'end&#160;group'</text><text fill="#000000" font-family="monospace" font-size="10" lengthAdjust="spacing" textLength="456.0742" x="20" y="109.7793">You&#160;should&#160;use&#160;a&#160;bracket&#160;({)&#160;when&#160;defining&#160;your&#160;container&#160;'group'&#160;JobManager</text><text fill="#000000" font-family="monospace" font-size="10" lengthAdjust="spacing" textLength="432.0703" x="20" y="132.8359">You&#160;should&#160;use&#160;a&#160;bracket&#160;({)&#160;when&#160;defining&#160;your&#160;container&#160;'group'&#160;yt-dlp</text><text fill="#000000" font-family="monospace" font-size="10" lengthAdjust="spacing" textLength="498.0811" x="20" y="155.8926">You&#160;should&#160;use&#160;a&#160;bracket&#160;({)&#160;when&#160;defining&#160;your&#160;container&#160;'group'&#160;progress&#160;pipeline</text><text fill="#000000" font-family="monospace" font-size="10" lengthAdjust="spacing" textLength="504.082" x="20" y="178.9492">You&#160;should&#160;use&#160;a&#160;bracket&#160;({)&#160;when&#160;defining&#160;your&#160;container&#160;'group'&#160;persistence&#160;and&#160;UI</text><ellipse cx="185.4287" cy="201.9492" fill="#222222" rx="10" ry="10" style="stroke:#222222;stroke-width:1;"/><rect fill="none" height="249.9844" style="stroke:#000000;stroke-width:1.5;" width="284.7871" x="43.0352" y="221.9492"/><path d="M123.8213,221.9492 L123.8213,232.5586 L113.8213,242.5586 L43.0352,242.5586" fill="none" style="stroke:#000000;stroke-width:1.5;"/><text fill="#000000" font-family="sans-serif" font-size="14" lengthAdjust="spacing" textLength="70.7861" x="46.0352" y="237.4824">HTTP layer</text><rect fill="#F1F1F1" height="35.0938" rx="12.5" ry="12.5" style="stroke:#181818;stroke-width:0.5;" width="250.4434" x="60.207" y="259.5586"/><text fill="#000000" font-family="sans-serif" font-size="12" lengthAdjust="spacing" textLength="230.4434" x="70.207" y="282.0156">POST /api/jobs with url + DownloadOptions</text><rect fill="#F1F1F1" height="35.0938" rx="12.5" ry="12.5" style="stroke:#181818;stroke-width:0.5;" width="264.7871" x="53.0352" y="314.6523"/><text fill="#000000" font-family="sans-serif" font-size="12" lengthAdjust="spacing" textLength="244.7871" x="63.0352" y="337.1094">extract_metadata (with cookies when present)</text><rect fill="#F1F1F1" height="35.0938" rx="12.5" ry="12.5" style="stroke:#181818;stroke-width:0.5;" width="263.4746" x="53.6914" y="369.7461"/><text fill="#000000" font-family="sans-serif" font-size="12" lengthAdjust="spacing" textLength="243.4746" x="63.6914" y="392.2031">insert Job and one JobItem per selected entry</text><rect fill="#F1F1F1" height="35.0938" rx="12.5" ry="12.5" style="stroke:#181818;stroke-width:0.5;" width="174.7871" x="98.0352" y="424.8398"/><text fill="#000000" font-family="sans-serif" font-size="12" lengthAdjust="spacing" textLength="154.7871" x="108.0352" y="447.2969">enqueue queued JobItem ids</text><rect fill="none" height="249.9844" style="stroke:#000000;stroke-width:1.5;" width="338.8574" x="16" y="481.9336"/><path d="M103.8271,481.9336 L103.8271,492.543 L93.8271,502.543 L16,502.543" fill="none" style="stroke:#000000;stroke-width:1.5;"/><text fill="#000000" font-family="sans-serif" font-size="14" lengthAdjust="spacing" textLength="77.8271" x="19" y="497.4668">JobManager</text><rect fill="#F1F1F1" height="35.0938" rx="12.5" ry="12.5" style="stroke:#181818;stroke-width:0.5;" width="167.416" x="101.7207" y="519.543"/><text fill="#000000" font-family="sans-serif" font-size="12" lengthAdjust="spacing" textLength="147.416" x="111.7207" y="542">worker dequeues an item id</text><rect fill="#F1F1F1" height="35.0938" rx="12.5" ry="12.5" style="stroke:#181818;stroke-width:0.5;" width="257.416" x="56.7207" y="574.6367"/><text fill="#000000" font-family="sans-serif" font-size="12" lengthAdjust="spacing" textLength="237.416" x="66.7207" y="597.0938">claim lock: check status, set running, commit</text><rect fill="#F1F1F1" height="35.0938" rx="12.5" ry="12.5" style="stroke:#181818;stroke-width:0.5;" width="233.4746" x="68.6914" y="629.7305"/><text fill="#000000" font-family="sans-serif" font-size="12" lengthAdjust="spacing" textLength="213.4746" x="78.6914" y="652.1875">offload to a thread via asyncio.to_thread</text><rect fill="#F1F1F1" height="35.0938" rx="12.5" ry="12.5" style="stroke:#181818;stroke-width:0.5;" width="318.8574" x="26" y="684.8242"/><text fill="#000000" font-family="sans-serif" font-size="12" lengthAdjust="spacing" textLength="298.8574" x="36" y="707.2813">prepare_download resolves the planned format and size</text><rect fill="none" height="302.9023" style="stroke:#000000;stroke-width:1.5;" width="302.8125" x="40.0225" y="741.918"/><path d="M84.2568,741.918 L84.2568,752.5273 L74.2568,762.5273 L40.0225,762.5273" fill="none" style="stroke:#000000;stroke-width:1.5;"/><text fill="#000000" font-family="sans-serif" font-size="14" lengthAdjust="spacing" textLength="34.2344" x="43.0225" y="757.4512">yt-dlp</text><rect fill="#F1F1F1" height="35.0938" rx="12.5" ry="12.5" style="stroke:#181818;stroke-width:0.5;" width="254.1641" x="58.3467" y="779.5273"/><text fill="#000000" font-family="sans-serif" font-size="12" lengthAdjust="spacing" textLength="234.1641" x="68.3467" y="801.9844">build_download_options for the profile chain</text><rect fill="#F1F1F1" height="35.0938" rx="12.5" ry="12.5" style="stroke:#181818;stroke-width:0.5;" width="264.8047" x="53.0264" y="834.6211"/><text fill="#000000" font-family="sans-serif" font-size="12" lengthAdjust="spacing" textLength="244.8047" x="63.0264" y="857.0781">extract and download, emit progress payloads</text><rect fill="#F1F1F1" height="50.1875" rx="12.5" ry="12.5" style="stroke:#181818;stroke-width:0.5;" width="250.8125" x="60.0225" y="938.6328"/><text fill="#000000" font-family="sans-serif" font-size="12" lengthAdjust="spacing" textLength="98.7129" x="70.0225" y="961.0898">try the next profile;</text><text fill="#000000" font-family="sans-serif" font-size="12" lengthAdjust="spacing" textLength="230.8125" x="70.0225" y="976.1836">DownloadStalled and Cancel skip the chain</text><polygon fill="#F1F1F1" points="132.5449,889.7148,238.3125,889.7148,250.3125,901.7148,238.3125,913.7148,132.5449,913.7148,120.5449,901.7148,132.5449,889.7148" style="stroke:#181818;stroke-width:0.5;stroke-linejoin:miter;stroke-miterlimit:10;"/><text fill="#000000" font-family="sans-serif" font-size="11" lengthAdjust="spacing" textLength="17.1177" x="189.4287" y="925.1338">yes</text><text fill="#000000" font-family="sans-serif" font-size="11" lengthAdjust="spacing" textLength="105.7676" x="132.5449" y="906.2158">media stream failure?</text><text fill="#000000" font-family="sans-serif" font-size="11" lengthAdjust="spacing" textLength="12.2354" x="250.3125" y="899.2979">no</text><polygon fill="#F1F1F1" points="185.4287,1008.8203,197.4287,1020.8203,185.4287,1032.8203,173.4287,1020.8203,185.4287,1008.8203" style="stroke:#181818;stroke-width:0.5;stroke-linejoin:miter;stroke-miterlimit:10;"/><rect fill="none" height="425.9492" style="stroke:#000000;stroke-width:1.5;" width="314.166" x="28.3457" y="1054.8203"/><path d="M144.9658,1054.8203 L144.9658,1065.4297 L134.9658,1075.4297 L28.3457,1075.4297" fill="none" style="stroke:#000000;stroke-width:1.5;"/><text fill="#000000" font-family="sans-serif" font-size="14" lengthAdjust="spacing" textLength="106.6201" x="31.3457" y="1070.3535">progress pipeline</text><rect fill="#F1F1F1" height="35.0938" rx="12.5" ry="12.5" style="stroke:#181818;stroke-width:0.5;" width="289.4609" x="40.6982" y="1092.4297"/><text fill="#000000" font-family="sans-serif" font-size="12" lengthAdjust="spacing" textLength="269.4609" x="50.6982" y="1114.8867">DownloadProgressAggregator merges substreams</text><rect fill="#F1F1F1" height="35.0938" rx="12.5" ry="12.5" style="stroke:#181818;stroke-width:0.5;" width="262.1152" x="54.3711" y="1147.5234"/><text fill="#000000" font-family="sans-serif" font-size="12" lengthAdjust="spacing" textLength="242.1152" x="64.3711" y="1169.9805">TransferStats records bytes and elapsed time</text><rect fill="#F1F1F1" height="35.0938" rx="12.5" ry="12.5" style="stroke:#181818;stroke-width:0.5;" width="294.166" x="38.3457" y="1202.6172"/><text fill="#000000" font-family="sans-serif" font-size="12" lengthAdjust="spacing" textLength="274.166" x="48.3457" y="1225.0742">StallGuard checks whether the byte peak advanced</text><rect fill="#F1F1F1" height="35.0938" rx="12.5" ry="12.5" style="stroke:#181818;stroke-width:0.5;" width="229.4199" x="70.7188" y="1306.6289"/><text fill="#000000" font-family="sans-serif" font-size="12" lengthAdjust="spacing" textLength="209.4199" x="80.7188" y="1329.0859">raise DownloadStalled, item fails visibly</text><ellipse cx="185.4287" cy="1380.6758" fill="none" rx="11" ry="11" style="stroke:#222222;stroke-width:1;"/><ellipse cx="185.4287" cy="1380.6758" fill="#222222" rx="6" ry="6" style="stroke:#222222;stroke-width:1;"/><polygon fill="#F1F1F1" points="120.613,1257.7109,250.2444,1257.7109,262.2444,1269.7109,250.2444,1281.7109,120.613,1281.7109,108.613,1269.7109,120.613,1257.7109" style="stroke:#181818;stroke-width:0.5;stroke-linejoin:miter;stroke-miterlimit:10;"/><text fill="#000000" font-family="sans-serif" font-size="11" lengthAdjust="spacing" textLength="17.1177" x="189.4287" y="1293.1299">yes</text><text fill="#000000" font-family="sans-serif" font-size="11" lengthAdjust="spacing" textLength="129.6313" x="120.613" y="1274.2119">peak stale for the timeout?</text><text fill="#000000" font-family="sans-serif" font-size="11" lengthAdjust="spacing" textLength="12.2354" x="262.2444" y="1267.2939">no</text><rect fill="#F1F1F1" height="35.0938" rx="12.5" ry="12.5" style="stroke:#181818;stroke-width:0.5;" width="244.0801" x="63.3887" y="1433.6758"/><text fill="#000000" font-family="sans-serif" font-size="12" lengthAdjust="spacing" textLength="224.0801" x="73.3887" y="1456.1328">ProgressPersistGate decides write vs skip</text><rect fill="none" height="305.0781" style="stroke:#000000;stroke-width:1.5;" width="316.8496" x="27.0039" y="1490.7695"/><path d="M153.7344,1490.7695 L153.7344,1501.3789 L143.7344,1511.3789 L27.0039,1511.3789" fill="none" style="stroke:#000000;stroke-width:1.5;"/><text fill="#000000" font-family="sans-serif" font-size="14" lengthAdjust="spacing" textLength="116.7305" x="30.0039" y="1506.3027">persistence and UI</text><rect fill="#F1F1F1" height="35.0938" rx="12.5" ry="12.5" style="stroke:#181818;stroke-width:0.5;" width="255.4941" x="57.6816" y="1528.3789"/><text fill="#000000" font-family="sans-serif" font-size="12" lengthAdjust="spacing" textLength="235.4941" x="67.6816" y="1550.8359">update JobItem, then aggregate the Job row</text><rect fill="#F1F1F1" height="35.0938" rx="12.5" ry="12.5" style="stroke:#181818;stroke-width:0.5;" width="296.8496" x="37.0039" y="1583.4727"/><text fill="#000000" font-family="sans-serif" font-size="12" lengthAdjust="spacing" textLength="276.8496" x="47.0039" y="1605.9297">append a JobEvent row and publish on EventBroker</text><rect fill="#F1F1F1" height="35.0938" rx="12.5" ry="12.5" style="stroke:#181818;stroke-width:0.5;" width="208.0918" x="81.3828" y="1638.5664"/><text fill="#000000" font-family="sans-serif" font-size="12" lengthAdjust="spacing" textLength="188.0918" x="91.3828" y="1661.0234">SSE message reaches the browser</text><rect fill="#F1F1F1" height="35.0938" rx="12.5" ry="12.5" style="stroke:#181818;stroke-width:0.5;" width="290.8262" x="40.0156" y="1693.6602"/><text fill="#000000" font-family="sans-serif" font-size="12" lengthAdjust="spacing" textLength="270.8262" x="50.0156" y="1716.1172">GET /api/jobs reads the job_read_model projection</text><rect fill="#F1F1F1" height="35.0938" rx="12.5" ry="12.5" style="stroke:#181818;stroke-width:0.5;" width="232.1094" x="69.374" y="1748.7539"/><text fill="#000000" font-family="sans-serif" font-size="12" lengthAdjust="spacing" textLength="212.1094" x="79.374" y="1771.2109">React task center renders the new state</text><path d="M216.4287,1805.8477 L216.4287,1831.375 L196.4287,1835.375 L216.4287,1839.375 L216.4287,1864.9023 A0,0 0 0 0 216.4287,1864.9023 L563.311,1864.9023 A0,0 0 0 0 563.311,1864.9023 L563.311,1815.8477 L553.311,1805.8477 L216.4287,1805.8477 A0,0 0 0 0 216.4287,1805.8477" fill="#FEFFDD" style="stroke:#181818;stroke-width:0.5;"/><path d="M553.311,1805.8477 L553.311,1815.8477 L563.311,1815.8477 L553.311,1805.8477" fill="#FEFFDD" style="stroke:#181818;stroke-width:0.5;"/><text fill="#000000" font-family="sans-serif" font-size="13" lengthAdjust="spacing" textLength="325.8823" x="222.4287" y="1824.3428">The gate throttles writes (&gt;=250ms, or &gt;=0.5% progress,</text><text fill="#000000" font-family="sans-serif" font-size="13" lengthAdjust="spacing" textLength="294.0679" x="222.4287" y="1840.6943">or a terminal status), so five parallel workers do not</text><text fill="#000000" font-family="sans-serif" font-size="13" lengthAdjust="spacing" textLength="231.207" x="222.4287" y="1857.0459">turn every chunk callback into a commit.</text><ellipse cx="185.4287" cy="1835.375" fill="none" rx="11" ry="11" style="stroke:#222222;stroke-width:1;"/><ellipse cx="185.4287" cy="1835.375" fill="#222222" rx="6" ry="6" style="stroke:#222222;stroke-width:1;"/><line style="stroke:#181818;stroke-width:1;" x1="185.4287" x2="185.4287" y1="294.6523" y2="314.6523"/><polygon fill="#181818" points="181.4287,304.6523,185.4287,314.6523,189.4287,304.6523,185.4287,308.6523" style="stroke:#181818;stroke-width:1;stroke-linejoin:miter;stroke-miterlimit:10;"/><line style="stroke:#181818;stroke-width:1;" x1="185.4287" x2="185.4287" y1="349.7461" y2="369.7461"/><polygon fill="#181818" points="181.4287,359.7461,185.4287,369.7461,189.4287,359.7461,185.4287,363.7461" style="stroke:#181818;stroke-width:1;stroke-linejoin:miter;stroke-miterlimit:10;"/><line style="stroke:#181818;stroke-width:1;" x1="185.4287" x2="185.4287" y1="404.8398" y2="424.8398"/><polygon fill="#181818" points="181.4287,414.8398,185.4287,424.8398,189.4287,414.8398,185.4287,418.8398" style="stroke:#181818;stroke-width:1;stroke-linejoin:miter;stroke-miterlimit:10;"/><line style="stroke:#181818;stroke-width:1;" x1="185.4287" x2="185.4287" y1="211.9492" y2="259.5586"/><polygon fill="#181818" points="181.4287,249.5586,185.4287,259.5586,189.4287,249.5586,185.4287,253.5586" style="stroke:#181818;stroke-width:1;stroke-linejoin:miter;stroke-miterlimit:10;"/><line style="stroke:#181818;stroke-width:1;" x1="185.4287" x2="185.4287" y1="554.6367" y2="574.6367"/><polygon fill="#181818" points="181.4287,564.6367,185.4287,574.6367,189.4287,564.6367,185.4287,568.6367" style="stroke:#181818;stroke-width:1;stroke-linejoin:miter;stroke-miterlimit:10;"/><line style="stroke:#181818;stroke-width:1;" x1="185.4287" x2="185.4287" y1="609.7305" y2="629.7305"/><polygon fill="#181818" points="181.4287,619.7305,185.4287,629.7305,189.4287,619.7305,185.4287,623.7305" style="stroke:#181818;stroke-width:1;stroke-linejoin:miter;stroke-miterlimit:10;"/><line style="stroke:#181818;stroke-width:1;" x1="185.4287" x2="185.4287" y1="664.8242" y2="684.8242"/><polygon fill="#181818" points="181.4287,674.8242,185.4287,684.8242,189.4287,674.8242,185.4287,678.8242" style="stroke:#181818;stroke-width:1;stroke-linejoin:miter;stroke-miterlimit:10;"/><line style="stroke:#181818;stroke-width:1;" x1="185.4287" x2="185.4287" y1="459.9336" y2="519.543"/><polygon fill="#181818" points="181.4287,509.543,185.4287,519.543,189.4287,509.543,185.4287,513.543" style="stroke:#181818;stroke-width:1;stroke-linejoin:miter;stroke-miterlimit:10;"/><line style="stroke:#181818;stroke-width:1;" x1="185.4287" x2="185.4287" y1="814.6211" y2="834.6211"/><polygon fill="#181818" points="181.4287,824.6211,185.4287,834.6211,189.4287,824.6211,185.4287,828.6211" style="stroke:#181818;stroke-width:1;stroke-linejoin:miter;stroke-miterlimit:10;"/><line style="stroke:#181818;stroke-width:1;" x1="185.4287" x2="185.4287" y1="913.7148" y2="938.6328"/><polygon fill="#181818" points="181.4287,928.6328,185.4287,938.6328,189.4287,928.6328,185.4287,932.6328" style="stroke:#181818;stroke-width:1;stroke-linejoin:miter;stroke-miterlimit:10;"/><line style="stroke:#181818;stroke-width:1;" x1="250.3125" x2="320.835" y1="901.7148" y2="901.7148"/><polygon fill="#181818" points="316.835,953.7266,320.835,963.7266,324.835,953.7266,320.835,957.7266" style="stroke:#181818;stroke-width:1;stroke-linejoin:miter;stroke-miterlimit:10;"/><line style="stroke:#181818;stroke-width:1;" x1="320.835" x2="320.835" y1="901.7148" y2="1020.8203"/><line style="stroke:#181818;stroke-width:1;" x1="320.835" x2="197.4287" y1="1020.8203" y2="1020.8203"/><polygon fill="#181818" points="207.4287,1016.8203,197.4287,1020.8203,207.4287,1024.8203,203.4287,1020.8203" style="stroke:#181818;stroke-width:1;stroke-linejoin:miter;stroke-miterlimit:10;"/><line style="stroke:#181818;stroke-width:1;" x1="185.4287" x2="185.4287" y1="988.8203" y2="1008.8203"/><polygon fill="#181818" points="181.4287,998.8203,185.4287,1008.8203,189.4287,998.8203,185.4287,1002.8203" style="stroke:#181818;stroke-width:1;stroke-linejoin:miter;stroke-miterlimit:10;"/><line style="stroke:#181818;stroke-width:1;" x1="185.4287" x2="185.4287" y1="869.7148" y2="889.7148"/><polygon fill="#181818" points="181.4287,879.7148,185.4287,889.7148,189.4287,879.7148,185.4287,883.7148" style="stroke:#181818;stroke-width:1;stroke-linejoin:miter;stroke-miterlimit:10;"/><line style="stroke:#181818;stroke-width:1;" x1="185.4287" x2="185.4287" y1="719.918" y2="779.5273"/><polygon fill="#181818" points="181.4287,769.5273,185.4287,779.5273,189.4287,769.5273,185.4287,773.5273" style="stroke:#181818;stroke-width:1;stroke-linejoin:miter;stroke-miterlimit:10;"/><line style="stroke:#181818;stroke-width:1;" x1="185.4287" x2="185.4287" y1="1127.5234" y2="1147.5234"/><polygon fill="#181818" points="181.4287,1137.5234,185.4287,1147.5234,189.4287,1137.5234,185.4287,1141.5234" style="stroke:#181818;stroke-width:1;stroke-linejoin:miter;stroke-miterlimit:10;"/><line style="stroke:#181818;stroke-width:1;" x1="185.4287" x2="185.4287" y1="1182.6172" y2="1202.6172"/><polygon fill="#181818" points="181.4287,1192.6172,185.4287,1202.6172,189.4287,1192.6172,185.4287,1196.6172" style="stroke:#181818;stroke-width:1;stroke-linejoin:miter;stroke-miterlimit:10;"/><line style="stroke:#181818;stroke-width:1;" x1="185.4287" x2="185.4287" y1="1341.7227" y2="1369.6758"/><polygon fill="#181818" points="181.4287,1359.6758,185.4287,1369.6758,189.4287,1359.6758,185.4287,1363.6758" style="stroke:#181818;stroke-width:1;stroke-linejoin:miter;stroke-miterlimit:10;"/><line style="stroke:#181818;stroke-width:1;" x1="185.4287" x2="185.4287" y1="1281.7109" y2="1306.6289"/><polygon fill="#181818" points="181.4287,1296.6289,185.4287,1306.6289,189.4287,1296.6289,185.4287,1300.6289" style="stroke:#181818;stroke-width:1;stroke-linejoin:miter;stroke-miterlimit:10;"/><line style="stroke:#181818;stroke-width:1;" x1="262.2444" x2="310.1387" y1="1269.7109" y2="1269.7109"/><polygon fill="#181818" points="306.1387,1339.6758,310.1387,1349.6758,314.1387,1339.6758,310.1387,1343.6758" style="stroke:#181818;stroke-width:1;stroke-linejoin:miter;stroke-miterlimit:10;"/><line style="stroke:#181818;stroke-width:1;" x1="310.1387" x2="310.1387" y1="1269.7109" y2="1413.6758"/><line style="stroke:#181818;stroke-width:1;" x1="310.1387" x2="185.4287" y1="1413.6758" y2="1413.6758"/><line style="stroke:#181818;stroke-width:1;" x1="185.4287" x2="185.4287" y1="1413.6758" y2="1433.6758"/><polygon fill="#181818" points="181.4287,1423.6758,185.4287,1433.6758,189.4287,1423.6758,185.4287,1427.6758" style="stroke:#181818;stroke-width:1;stroke-linejoin:miter;stroke-miterlimit:10;"/><line style="stroke:#181818;stroke-width:1;" x1="185.4287" x2="185.4287" y1="1237.7109" y2="1257.7109"/><polygon fill="#181818" points="181.4287,1247.7109,185.4287,1257.7109,189.4287,1247.7109,185.4287,1251.7109" style="stroke:#181818;stroke-width:1;stroke-linejoin:miter;stroke-miterlimit:10;"/><line style="stroke:#181818;stroke-width:1;" x1="185.4287" x2="185.4287" y1="1032.8203" y2="1092.4297"/><polygon fill="#181818" points="181.4287,1082.4297,185.4287,1092.4297,189.4287,1082.4297,185.4287,1086.4297" style="stroke:#181818;stroke-width:1;stroke-linejoin:miter;stroke-miterlimit:10;"/><line style="stroke:#181818;stroke-width:1;" x1="185.4287" x2="185.4287" y1="1563.4727" y2="1583.4727"/><polygon fill="#181818" points="181.4287,1573.4727,185.4287,1583.4727,189.4287,1573.4727,185.4287,1577.4727" style="stroke:#181818;stroke-width:1;stroke-linejoin:miter;stroke-miterlimit:10;"/><line style="stroke:#181818;stroke-width:1;" x1="185.4287" x2="185.4287" y1="1618.5664" y2="1638.5664"/><polygon fill="#181818" points="181.4287,1628.5664,185.4287,1638.5664,189.4287,1628.5664,185.4287,1632.5664" style="stroke:#181818;stroke-width:1;stroke-linejoin:miter;stroke-miterlimit:10;"/><line style="stroke:#181818;stroke-width:1;" x1="185.4287" x2="185.4287" y1="1673.6602" y2="1693.6602"/><polygon fill="#181818" points="181.4287,1683.6602,185.4287,1693.6602,189.4287,1683.6602,185.4287,1687.6602" style="stroke:#181818;stroke-width:1;stroke-linejoin:miter;stroke-miterlimit:10;"/><line style="stroke:#181818;stroke-width:1;" x1="185.4287" x2="185.4287" y1="1728.7539" y2="1748.7539"/><polygon fill="#181818" points="181.4287,1738.7539,185.4287,1748.7539,189.4287,1738.7539,185.4287,1742.7539" style="stroke:#181818;stroke-width:1;stroke-linejoin:miter;stroke-miterlimit:10;"/><line style="stroke:#181818;stroke-width:1;" x1="185.4287" x2="185.4287" y1="1468.7695" y2="1528.3789"/><polygon fill="#181818" points="181.4287,1518.3789,185.4287,1528.3789,189.4287,1518.3789,185.4287,1522.3789" style="stroke:#181818;stroke-width:1;stroke-linejoin:miter;stroke-miterlimit:10;"/><line style="stroke:#181818;stroke-width:1;" x1="185.4287" x2="185.4287" y1="1783.8477" y2="1824.375"/><polygon fill="#181818" points="181.4287,1814.375,185.4287,1824.375,189.4287,1814.375,185.4287,1818.375" style="stroke:#181818;stroke-width:1;stroke-linejoin:miter;stroke-miterlimit:10;"/><?plantuml-src RLJ1Zjis4BthA-PIm8kwco10BWcIecqssnGeiiWwjmB6I1nRZ2cI9KTstQ_F8oaxAReNMw8uR-QzUJDgrGcz2oVl0XjwnyhqteLJbm_MHquyKHxPX9FrUzgnoz9rMJbfjqzXZlJxPlD0Zi-IEg9N3nyVD_ICetts9VIPJbP7cfEZ7wyPFaQrmUVNvRRyeua7tKwYR4hYLGqOGZXOGVGedcAIB5vlQe3rMPBI7w4dzeQ2b_ByGMMYA8coE1bK324WdLiA__Siir3zDTVRrg020KGbqIrSyFLFzhnlN4uX7G1gfCPcP2JROYlouDXEvC9mU4N3ACE188lEUOqobDBiFHHRWymqMQqHORUh6ciW9XsJuFbecJYV_M33hOPjEwstGHpoozPSMWCXWZkY41s5ecFlGMWNqiHQrSZsNtc2r5b_CYuMn7wspbpnjg5rea0qo1Hs5buOHhR--_vKz4lOcWHyokKz2ieK-LoEQqFjZbQJ653A2XuJ_6BTdEJdcvB0q-ei-GRt08t-rAGUEIwPN__bBovvL7OEz4hctzWFuWX-Z3NaMf_0ZBJoeK22jjtzd_otCcqKPxqKMfSa3yl7N_RusxD2XqdI7WhdkMyCcaytYNtUIK9Lcj678IIJgJzhTGNivZXcLAjsaXfGox-VEPbcZUfbrDw4Be7mAn-8pR6GCnVnwY5iX2vSkb8mmwnFI9ZOvc-JkoYsRXujmcUOAzlUrK4Wm8Ruf6XbR1Sb7YHbc_MUKQ2HmPeoXGc8TCor0K_uAxOO0OygnkSF1N6Efe0iyxPknVCYj5HcPOfJE5N1ECO2pENmxeZnBLygN9nxP_E8MQVwuTSKC9LDvSSxD2nd32oQmb2wpKQFsBpSkR_xVX-LuMftyBejRzif69WBFlc2rO5vg56VfDXUEHzeG4xqBQ4y45qyUwgp_fzfg_9sFe1SiljHkmrkBbnJK2pPHSfCgxTlNhnyFc5JeCTltpo_VVd3rQZh3cVO3f8cwzajE-K6IoNGpXxX6wnaDDfHMqyPWqd8skcSFCbHC5V3E7iKZcizOorPNnTEMqItjUHIvbS0?></g></svg>