<svg xmlns="http://www.w3.org/2000/svg" xmlns:xlink="http://www.w3.org/1999/xlink" contentStyleType="text/css" data-diagram-type="STATE" height="599px" preserveAspectRatio="none" style="width:802px;height:599px;background:#FFFFFF;" version="1.1" viewBox="0 0 802 599" width="802px" zoomAndPan="magnify"><?plantuml $version$?><defs/><g><g class="title" data-source-line="1"><text fill="#000000" font-family="sans-serif" font-size="14" font-weight="700" lengthAdjust="spacing" textLength="130.6963" x="332.3745" y="26.0439">Download Lifecycle</text></g><g class="start_entity" data-qualified-name=".start." data-source-line="4" id="ent0001"><ellipse cx="403" cy="201.1201" fill="#222222" rx="10" ry="10" style="stroke:#222222;stroke-width:1;"/></g><g class="entity" data-qualified-name="queued" data-source-line="4" id="ent0002"><rect fill="#F1F1F1" height="50" rx="12.5" ry="12.5" style="stroke:#181818;stroke-width:0.5;" width="66.7168" x="350.5" y="305.1201"/><line style="stroke:#181818;stroke-width:0.5;" x1="350.5" x2="417.2168" y1="334.2402" y2="334.2402"/><text fill="#000000" font-family="sans-serif" font-size="14" lengthAdjust="spacing" textLength="46.7168" x="360.5" y="326.1641">queued</text></g><g class="entity" data-qualified-name="running" data-source-line="5" id="ent0004"><rect fill="#F1F1F1" height="50" rx="12.5" ry="12.5" style="stroke:#181818;stroke-width:0.5;" width="66.7031" x="336.5" y="47.1201"/><line style="stroke:#181818;stroke-width:0.5;" x1="336.5" x2="403.2031" y1="76.2402" y2="76.2402"/><text fill="#000000" font-family="sans-serif" font-size="14" lengthAdjust="spacing" textLength="46.7031" x="346.5" y="68.1641">running</text></g><g class="entity" data-qualified-name="succeeded" data-source-line="6" id="ent0006"><rect fill="#F1F1F1" height="50" rx="12.5" ry="12.5" style="stroke:#181818;stroke-width:0.5;" width="87.7168" x="465" y="176.1201"/><line style="stroke:#181818;stroke-width:0.5;" x1="465" x2="552.7168" y1="205.2402" y2="205.2402"/><text fill="#000000" font-family="sans-serif" font-size="14" lengthAdjust="spacing" textLength="67.7168" x="475" y="197.1641">succeeded</text></g><g class="entity" data-qualified-name="failed" data-source-line="7" id="ent0008"><rect fill="#F1F1F1" height="50" rx="12.5" ry="12.5" style="stroke:#181818;stroke-width:0.5;" width="53.4688" x="732.5" y="176.1201"/><line style="stroke:#181818;stroke-width:0.5;" x1="732.5" x2="785.9688" y1="205.2402" y2="205.2402"/><text fill="#000000" font-family="sans-serif" font-size="14" lengthAdjust="spacing" textLength="33.4688" x="742.5" y="197.1641">failed</text></g><g class="entity" data-qualified-name="paused" data-source-line="8" id="ent0010"><rect fill="#F1F1F1" height="50" rx="12.5" ry="12.5" style="stroke:#181818;stroke-width:0.5;" width="65.9307" x="393" y="434.1201"/><line style="stroke:#181818;stroke-width:0.5;" x1="393" x2="458.9307" y1="463.2402" y2="463.2402"/><text fill="#000000" font-family="sans-serif" font-size="14" lengthAdjust="spacing" textLength="45.9307" x="403" y="455.1641">paused</text></g><g class="entity" data-qualified-name="cancelled" data-source-line="10" id="ent0013"><rect fill="#F1F1F1" height="50" rx="12.5" ry="12.5" style="stroke:#181818;stroke-width:0.5;" width="79.1514" x="221.5" y="434.1201"/><line style="stroke:#181818;stroke-width:0.5;" x1="221.5" x2="300.6514" y1="463.2402" y2="463.2402"/><text fill="#000000" font-family="sans-serif" font-size="14" lengthAdjust="spacing" textLength="59.1514" x="231.5" y="455.1641">cancelled</text></g><g class="end_entity" data-qualified-name=".end." data-source-line="16" id="ent0020"><ellipse cx="342" cy="574.1201" fill="none" rx="11" ry="11" style="stroke:#222222;stroke-width:1;"/><ellipse cx="342" cy="574.1201" fill="#222222" rx="6" ry="6" style="stroke:#222222;stroke-width:1;"/></g><g class="entity" data-qualified-name="GMN27" data-source-line="24" id="ent0028"><path d="M439,49.1201 L439,68.1201 L403.79,72.1201 L439,76.1201 L439,94.6289 A0,0 0 0 0 439,94.6289 L723.0215,94.6289 A0,0 0 0 0 723.0215,94.6289 L723.0215,59.1201 L713.0215,49.1201 L439,49.1201 A0,0 0 0 0 439,49.1201" fill="#FEFFDD" style="stroke:#181818;stroke-width:0.5;"/><path d="M713.0215,49.1201 L713.0215,59.1201 L723.0215,59.1201 L713.0215,49.1201" fill="#FEFFDD" style="stroke:#181818;stroke-width:0.5;"/><text fill="#000000" font-family="sans-serif" font-size="13" lengthAdjust="spacing" textLength="211.7134" x="445" y="69.0181">Progress is aggregated across yt-dlp</text><text fill="#000000" font-family="sans-serif" font-size="13" lengthAdjust="spacing" textLength="263.0215" x="445" y="86.7725">sub-stream payloads and remains monotonic.</text></g><!--link *start* to queued--><g class="link" data-entity-1="ent0001" data-entity-2="ent0002" data-link-type="dependency" data-source-line="4" id="lnk3"><path d="M398.53,210.2301 C393.13,220.5301 384.35,239.0301 381,256.1201 C377.85,272.1801 378.0981,285.6196 379.6581,299.9296" fill="none" id="*start*-to-queued" style="stroke:#181818;stroke-width:1;"/><polygon fill="#181818" points="380.2,304.9001,383.2011,295.5196,379.6581,299.9296,375.2482,296.3866,380.2,304.9001" style="stroke:#181818;stroke-width:1;stroke-linejoin:miter;stroke-miterlimit:10;"/><text fill="#000000" font-family="sans-serif" font-size="13" lengthAdjust="spacing" textLength="85.2617" x="382" y="272.0181">create job/item</text></g><!--link queued to running--><g class="link" data-entity-1="ent0002" data-entity-2="ent0004" data-link-type="dependency" data-source-line="5" id="lnk5"><path d="M350.28,308.7401 C323.99,290.7101 289.46,261.7601 274,226.1201 C252.92,177.5001 297.6459,129.5633 333.1059,100.4433" fill="none" id="queued-to-running" style="stroke:#181818;stroke-width:1;"/><polygon fill="#181818" points="336.97,97.2701,327.4762,99.8906,333.1059,100.4433,332.5533,106.0731,336.97,97.2701" style="stroke:#181818;stroke-width:1;stroke-linejoin:miter;stroke-miterlimit:10;"/><text fill="#000000" font-family="sans-serif" font-size="13" lengthAdjust="spacing" textLength="100.4072" x="275" y="207.5181">worker picks item</text></g><!--link running to succeeded--><g class="link" data-entity-1="ent0004" data-entity-2="ent0006" data-link-type="dependency" data-source-line="6" id="lnk7"><path d="M396.47,97.3101 C421.21,119.9001 454.2389,150.0773 478.9389,172.6473" fill="none" id="running-to-succeeded" style="stroke:#181818;stroke-width:1;"/><polygon fill="#181818" points="482.63,176.0201,478.6843,166.9962,478.9389,172.6473,473.2878,172.902,482.63,176.0201" style="stroke:#181818;stroke-width:1;stroke-linejoin:miter;stroke-miterlimit:10;"/><text fill="#000000" font-family="sans-serif" font-size="13" lengthAdjust="spacing" textLength="118.5171" x="448" y="143.0181">download completes</text></g><!--link running to failed--><g class="link" data-entity-1="ent0004" data-entity-2="ent0008" data-link-type="dependency" data-source-line="7" id="lnk9"><path d="M403.58,90.3301 C409.6,92.9201 415.9,95.3201 422,97.1201 C512.42,123.8201 542.86,96.4101 632,127.1201 C669.03,139.8801 703.3455,160.8738 728.0955,177.8338" fill="none" id="running-to-failed" style="stroke:#181818;stroke-width:1;"/><polygon fill="#181818" points="732.22,180.6601,727.0569,172.2731,728.0955,177.8338,722.5348,178.8723,732.22,180.6601" style="stroke:#181818;stroke-width:1;stroke-linejoin:miter;stroke-miterlimit:10;"/><text fill="#000000" font-family="sans-serif" font-size="13" lengthAdjust="spacing" textLength="113.4453" x="673" y="143.0181">unrecoverable error</text></g><!--link running to paused--><g class="link" data-entity-1="ent0004" data-entity-2="ent0010" data-link-type="dependency" data-source-line="8" id="lnk11"><path d="M403.66,90.0601 C409.67,92.6801 415.95,95.1601 422,97.1201 C487.93,118.4601 529.23,75.0901 575,127.1201 C595.37,150.2701 610.12,379.1701 592,404.1201 C561.64,445.9301 503.0731,455.7368 464.0131,457.7968" fill="none" id="running-to-paused" style="stroke:#181818;stroke-width:1;"/><polygon fill="#181818" points="459.02,458.0601,468.2182,461.5806,464.0131,457.7968,467.7968,453.5917,459.02,458.0601" style="stroke:#181818;stroke-width:1;stroke-linejoin:miter;stroke-miterlimit:10;"/><text fill="#000000" font-family="sans-serif" font-size="13" lengthAdjust="spacing" textLength="70.8208" x="599" y="272.0181">user pauses</text></g><!--link queued to paused--><g class="link" data-entity-1="ent0002" data-entity-2="ent0010" data-link-type="dependency" data-source-line="9" id="lnk12"><path d="M408.15,355.1301 C415.33,363.8301 422.26,374.2201 426,385.1201 C431.35,400.7001 431.73,414.3123 430.36,428.8223" fill="none" id="queued-to-paused" style="stroke:#181818;stroke-width:1;"/><polygon fill="#181818" points="429.89,433.8001,434.7183,425.216,430.36,428.8223,426.7537,424.464,429.89,433.8001" style="stroke:#181818;stroke-width:1;stroke-linejoin:miter;stroke-miterlimit:10;"/><text fill="#000000" font-family="sans-serif" font-size="13" lengthAdjust="spacing" textLength="153.9116" x="430" y="401.0181">user pauses before worker</text></g><!--link paused to queued--><g class="link" data-entity-1="ent0010" data-entity-2="ent0002" data-link-type="dependency" data-source-line="12" id="lnk16"><path d="M399.1,433.9401 C391.42,425.3701 384.04,415.1001 380,404.1201 C374.26,388.5201 374.589,374.6972 377.109,360.1072" fill="none" id="paused-to-queued" style="stroke:#181818;stroke-width:1;"/><polygon fill="#181818" points="377.96,355.1801,372.4866,363.368,377.109,360.1072,380.3698,364.7296,377.96,355.1801" style="stroke:#181818;stroke-width:1;stroke-linejoin:miter;stroke-miterlimit:10;"/><text fill="#000000" font-family="sans-serif" font-size="13" lengthAdjust="spacing" textLength="36.8418" x="381" y="401.0181">restart</text></g><!--link queued to cancelled--><g class="link" data-entity-1="ent0002" data-entity-2="ent0013" data-link-type="dependency" data-source-line="10" id="lnk14"><path d="M350.2,345.2701 C331.66,354.4101 309.39,367.8401 294,385.1201 C281.51,399.1401 274.6372,413.9489 269.3972,429.2789" fill="none" id="queued-to-cancelled" style="stroke:#181818;stroke-width:1;"/><polygon fill="#181818" points="267.78,434.0101,274.476,426.7876,269.3972,429.2789,266.906,424.2001,267.78,434.0101" style="stroke:#181818;stroke-width:1;stroke-linejoin:miter;stroke-miterlimit:10;"/><text fill="#000000" font-family="sans-serif" font-size="13" lengthAdjust="spacing" textLength="72.979" x="295" y="401.0181">user cancels</text></g><!--link cancelled to queued--><g class="link" data-entity-1="ent0013" data-entity-2="ent0002" data-link-type="dependency" data-source-line="15" id="lnk19"><path d="M242.16,433.8701 C232.93,418.8501 225.79,399.7201 236,385.1201 C261.71,348.3701 310.2482,337.0707 345.3882,333.3207" fill="none" id="cancelled-to-queued" style="stroke:#181818;stroke-width:1;"/><polygon fill="#181818" points="350.36,332.7901,340.9864,329.7677,345.3882,333.3207,341.8353,337.7226,350.36,332.7901" style="stroke:#181818;stroke-width:1;stroke-linejoin:miter;stroke-miterlimit:10;"/><text fill="#000000" font-family="sans-serif" font-size="13" lengthAdjust="spacing" textLength="36.8418" x="237" y="401.0181">restart</text></g><!--link running to cancelled--><g class="link" data-entity-1="ent0004" data-entity-2="ent0013" data-link-type="dependency" data-source-line="11" id="lnk15"><path d="M336.24,90.2901 C319.25,99.8301 298.94,112.6801 283,127.1201 C229.43,175.6301 207.23,187.6901 184,256.1201 C161.92,321.1601 207.6672,392.5015 237.3072,430.1515" fill="none" id="running-to-cancelled" style="stroke:#181818;stroke-width:1;"/><polygon fill="#181818" points="240.4,434.0801,237.9758,424.5343,237.3072,430.1515,231.69,429.4828,240.4,434.0801" style="stroke:#181818;stroke-width:1;stroke-linejoin:miter;stroke-miterlimit:10;"/><text fill="#000000" font-family="sans-serif" font-size="13" lengthAdjust="spacing" textLength="99.0107" x="185" y="272.0181">cancel requested</text></g><!--link failed to queued--><g class="link" data-entity-1="ent0008" data-entity-2="ent0002" data-link-type="dependency" data-source-line="13" id="lnk17"><path d="M741.32,226.3501 C727.99,242.7601 708.24,263.5101 686,275.1201 C597.24,321.4601 480.9697,328.8034 422.8197,329.4634" fill="none" id="failed-to-queued" style="stroke:#181818;stroke-width:1;"/><polygon fill="#181818" points="417.82,329.5201,426.8648,333.4177,422.8197,329.4634,426.774,325.4182,417.82,329.5201" style="stroke:#181818;stroke-width:1;stroke-linejoin:miter;stroke-miterlimit:10;"/><text fill="#000000" font-family="sans-serif" font-size="13" lengthAdjust="spacing" textLength="36.8418" x="712" y="272.0181">restart</text></g><!--link succeeded to queued--><g class="link" data-entity-1="ent0006" data-entity-2="ent0002" data-link-type="dependency" data-source-line="14" id="lnk18"><path d="M500.73,226.1801 C494.58,241.4901 485,261.0201 472,275.1201 C456.81,291.5901 439.9188,302.5487 422.0588,311.8087" fill="none" id="succeeded-to-queued" style="stroke:#181818;stroke-width:1;"/><polygon fill="#181818" points="417.62,314.1101,427.4511,313.5186,422.0588,311.8087,423.7688,306.4164,417.62,314.1101" style="stroke:#181818;stroke-width:1;stroke-linejoin:miter;stroke-miterlimit:10;"/><text fill="#000000" font-family="sans-serif" font-size="13" lengthAdjust="spacing" textLength="36.8418" x="486" y="272.0181">restart</text></g><!--link queued to *end*--><g class="link" data-entity-1="ent0002" data-entity-2="ent0020" data-link-type="dependency" data-source-line="16" id="lnk21"><path d="M350.19,334.3701 C297.64,341.5601 199.1,364.2001 167,434.1201 C157.73,454.3201 155.38,465.1801 167,484.1201 C204.6,545.4301 294.1692,565.3011 326.2292,570.6911" fill="none" id="queued-to-*end*" style="stroke:#181818;stroke-width:1;"/><polygon fill="#181818" points="331.16,571.5201,322.9477,566.0833,326.2292,570.6911,321.6214,573.9726,331.16,571.5201" style="stroke:#181818;stroke-width:1;stroke-linejoin:miter;stroke-miterlimit:10;"/><text fill="#000000" font-family="sans-serif" font-size="13" lengthAdjust="spacing" textLength="35.4199" x="168" y="465.5181">delete</text></g><!--link running to *end*--><g class="link" data-entity-1="ent0004" data-entity-2="ent0020" data-link-type="dependency" data-source-line="17" id="lnk22"><path d="M336.41,77.5001 C246.3,90.1801 6,130.5101 6,200.1201 C6,200.1201 6,200.1201 6,460.1201 C6,530.4301 268.7233,564.6741 326.2333,571.3441" fill="none" id="running-to-*end*" style="stroke:#181818;stroke-width:1;"/><polygon fill="#181818" points="331.2,571.9201,322.7208,566.9099,326.2333,571.3441,321.7991,574.8566,331.2,571.9201" style="stroke:#181818;stroke-width:1;stroke-linejoin:miter;stroke-miterlimit:10;"/><text fill="#000000" font-family="sans-serif" font-size="13" lengthAdjust="spacing" textLength="35.4199" x="7" y="336.5181">delete</text></g><!--link paused to *end*--><g class="link" data-entity-1="ent0010" data-entity-2="ent0020" data-link-type="dependency" data-source-line="18" id="lnk23"><path d="M407.98,484.3601 C389.18,509.6501 363.7232,543.8975 351.2332,560.6975" fill="none" id="paused-to-*end*" style="stroke:#181818;stroke-width:1;"/><polygon fill="#181818" points="348.25,564.7101,356.8297,559.874,351.2332,560.6975,350.4096,555.101,348.25,564.7101" style="stroke:#181818;stroke-width:1;stroke-linejoin:miter;stroke-miterlimit:10;"/><text fill="#000000" font-family="sans-serif" font-size="13" lengthAdjust="spacing" textLength="35.4199" x="385" y="530.0181">delete</text></g><!--link failed to *end*--><g class="link" data-entity-1="ent0008" data-entity-2="ent0020" data-link-type="dependency" data-source-line="19" id="lnk24"><path d="M761.4,226.2701 C762.09,240.7301 761.64,259.3101 757,275.1201 C738.12,339.4101 723.05,353.6401 679,404.1201 C607.48,486.0801 572.75,494.6401 471,533.1201 C427.79,549.4601 379.5171,563.0365 357.3371,569.0265" fill="none" id="failed-to-*end*" style="stroke:#181818;stroke-width:1;"/><polygon fill="#181818" points="352.51,570.3301,362.2416,571.8453,357.3371,569.0265,360.1558,564.122,352.51,570.3301" style="stroke:#181818;stroke-width:1;stroke-linejoin:miter;stroke-miterlimit:10;"/><text fill="#000000" font-family="sans-serif" font-size="13" lengthAdjust="spacing" textLength="35.4199" x="695" y="401.0181">delete</text></g><!--link succeeded to *end*--><g class="link" data-entity-1="ent0006" data-entity-2="ent0020" data-link-type="dependency" data-source-line="20" id="lnk25"><path d="M553.04,203.0201 C606.92,206.4801 689.7,220.5901 678,275.1201 C644.58,430.9401 567.89,454.9801 429,533.1201 C402.05,548.2801 372.9748,560.6542 356.5448,567.3042" fill="none" id="succeeded-to-*end*" style="stroke:#181818;stroke-width:1;"/><polygon fill="#181818" points="351.91,569.1801,361.7533,569.5113,356.5448,567.3042,358.7518,562.0957,351.91,569.1801" style="stroke:#181818;stroke-width:1;stroke-linejoin:miter;stroke-miterlimit:10;"/><text fill="#000000" font-family="sans-serif" font-size="13" lengthAdjust="spacing" textLength="35.4199" x="635" y="401.0181">delete</text></g><!--link cancelled to *end*--><g class="link" data-entity-1="ent0013" data-entity-2="ent0020" data-link-type="dependency" data-source-line="21" id="lnk26"><path d="M278.38,484.3601 C296.51,509.6501 321.0174,543.846 333.0574,560.646" fill="none" id="cancelled-to-*end*" style="stroke:#181818;stroke-width:1;"/><polygon fill="#181818" points="335.97,564.7101,333.9786,555.0647,333.0574,560.646,327.4761,559.7248,335.97,564.7101" style="stroke:#181818;stroke-width:1;stroke-linejoin:miter;stroke-miterlimit:10;"/><text fill="#000000" font-family="sans-serif" font-size="13" lengthAdjust="spacing" textLength="35.4199" x="313" y="530.0181">delete</text></g><?plantuml-src RL8nRiCm3Dpr2iu5tEuPEdNiqBteG4kqeqOMNL9EaD-NIXp40hn9l1FlI5s99H5yy2KdnW2VSI1_zOcSdcAUKN02FMBWIymZ39YKdFj--O6kUuU_XHOAS00lX8NWb_ktM6XoAr0vikHSdnxWmd8YWJdwayADzi0gJnVlYSAjNNYuyJpDYGffGnqmfXjloKAUpoJOsmmamj8GPrpqJjGgN6-wzRQ7Gqy32wrkjsoFsLDApmVtGkjjIxgVGSYQQA7WLhrcTM8GId7hKBlOSpUxy5Dp5zwCK3_Erajrfutj1jZOREeRYqszjTT0hRK6SfajCXB7Om4U7ZbnNyAZERU4AE1enz6I5G2zi1MlfGjfDiM-qsAXc-pNhZKgHix1HfumPeM9hJddw5yTMRag_GC0?></g></svg>