<svg xmlns="http://www.w3.org/2000/svg" xmlns:xlink="http://www.w3.org/1999/xlink" contentStyleType="text/css" data-diagram-type="DESCRIPTION" height="1251px" preserveAspectRatio="none" style="width:1084px;height:1251px;background:#FFFFFF;" version="1.1" viewBox="0 0 1084 1251" width="1084px" zoomAndPan="magnify"><?plantuml $version$?><defs/><g><g class="title" data-source-line="1"><text fill="#000000" font-family="sans-serif" font-size="14" font-weight="700" lengthAdjust="spacing" textLength="122.5684" x="477.2158" y="26.0439">4+1 Scenario View</text></g><!--cluster YouTube Downloader--><g class="cluster" data-qualified-name="YouTube Downloader" data-source-line="7" id="ent0002"><rect fill="none" height="580" rx="2.5" ry="2.5" style="stroke:#181818;stroke-width:1;" width="952" x="118" y="141.3901"/><text fill="#000000" font-family="sans-serif" font-size="14" font-weight="700" lengthAdjust="spacing" textLength="143.8896" x="522.0552" y="159.4341">YouTube Downloader</text></g><!--entity Analyze--><g class="entity" data-qualified-name="YouTube Downloader.Analyze" data-source-line="8" id="ent0003"><ellipse cx="605.7728" cy="611.4101" fill="#F1F1F1" rx="60.7728" ry="16.52" style="stroke:#181818;stroke-width:0.5;"/><text fill="#000000" font-family="sans-serif" font-size="14" lengthAdjust="spacing" textLength="81.7031" x="564.9213" y="617.4701">Analyze URL</text></g><!--entity CreateVideo--><g class="entity" data-qualified-name="YouTube Downloader.CreateVideo" data-source-line="9" id="ent0004"><ellipse cx="223.3812" cy="597.3664" fill="#F1F1F1" rx="72.8812" ry="16.9762" style="stroke:#181818;stroke-width:0.5;"/><text fill="#000000" font-family="sans-serif" font-size="14" lengthAdjust="spacing" textLength="101.9512" x="172.4056" y="603.4264">Create video job</text></g><!--entity CreatePlaylist--><g class="entity" data-qualified-name="YouTube Downloader.CreatePlaylist" data-source-line="10" id="ent0005"><ellipse cx="223.3514" cy="527.5604" fill="#F1F1F1" rx="76.3514" ry="17.6703" style="stroke:#181818;stroke-width:0.5;"/><text fill="#000000" font-family="sans-serif" font-size="14" lengthAdjust="spacing" textLength="111.2754" x="167.7137" y="533.6204">Create playlist job</text></g><!--entity Options--><g class="entity" data-qualified-name="YouTube Downloader.Options" data-source-line="11" id="ent0006"><ellipse cx="606.0376" cy="493.4976" fill="#F1F1F1" rx="91.0376" ry="20.6075" style="stroke:#181818;stroke-width:0.5;"/><text fill="#000000" font-family="sans-serif" font-size="14" lengthAdjust="spacing" textLength="147.8613" x="532.1069" y="499.5577">Choose quality/subtitles</text></g><!--entity Monitor--><g class="entity" data-qualified-name="YouTube Downloader.Monitor" data-source-line="12" id="ent0007"><ellipse cx="606.016" cy="375.5933" fill="#F1F1F1" rx="74.016" ry="17.2032" style="stroke:#181818;stroke-width:0.5;"/><text fill="#000000" font-family="sans-serif" font-size="14" lengthAdjust="spacing" textLength="105.041" x="553.4955" y="381.6534">Monitor progress</text></g><!--entity RuntimeSettings--><g class="entity" data-qualified-name="YouTube Downloader.RuntimeSettings" data-source-line="13" id="ent0008"><ellipse cx="953.6492" cy="600.1526" fill="#F1F1F1" rx="100.6492" ry="28.2624" style="stroke:#181818;stroke-width:0.5;"/><text fill="#000000" font-family="sans-serif" font-size="14" lengthAdjust="spacing" textLength="99.6133" x="903.8426" y="594.0434">Change runtime</text><text fill="#000000" font-family="sans-serif" font-size="14" lengthAdjust="spacing" textLength="147.8135" x="879.7425" y="613.1635">concurrency/limit/retries</text></g><!--entity ImportCookies--><g class="entity" data-qualified-name="YouTube Downloader.ImportCookies" data-source-line="14" id="ent0009"><ellipse cx="605.8709" cy="683.4101" fill="#F1F1F1" rx="67.3709" ry="16.52" style="stroke:#181818;stroke-width:0.5;"/><text fill="#000000" font-family="sans-serif" font-size="14" lengthAdjust="spacing" textLength="91.0342" x="560.3538" y="689.4701">Import cookies</text></g><!--entity RetryResolution--><g class="entity" data-qualified-name="YouTube Downloader.RetryResolution" data-source-line="15" id="ent0010"><ellipse cx="223.3679" cy="447.4225" fill="#F1F1F1" rx="86.8679" ry="27.5324" style="stroke:#181818;stroke-width:0.5;"/><text fill="#000000" font-family="sans-serif" font-size="14" lengthAdjust="spacing" textLength="130.7305" x="158.0027" y="447.6719">Retry with suggested</text><text fill="#000000" font-family="sans-serif" font-size="14" lengthAdjust="spacing" textLength="60.7031" x="193.0164" y="466.792">resolution</text></g><!--entity Play--><g class="entity" data-qualified-name="YouTube Downloader.Play" data-source-line="16" id="ent0011"><ellipse cx="223.4194" cy="292.174" fill="#F1F1F1" rx="89.4194" ry="20.2839" style="stroke:#181818;stroke-width:0.5;"/><text fill="#000000" font-family="sans-serif" font-size="14" lengthAdjust="spacing" textLength="143.9922" x="151.4233" y="298.234">Play downloaded video</text></g><!--entity OpenFolder--><g class="entity" data-qualified-name="YouTube Downloader.OpenFolder" data-source-line="17" id="ent0012"><ellipse cx="223.648" cy="366.4197" fill="#F1F1F1" rx="78.148" ry="18.0296" style="stroke:#181818;stroke-width:0.5;"/><text fill="#000000" font-family="sans-serif" font-size="14" lengthAdjust="spacing" textLength="115.9717" x="165.6622" y="372.4798">Open output folder</text></g><!--entity DeleteTask--><g class="entity" data-qualified-name="YouTube Downloader.DeleteTask" data-source-line="18" id="ent0013"><ellipse cx="606.0306" cy="197.1962" fill="#F1F1F1" rx="72.0306" ry="16.8061" style="stroke:#181818;stroke-width:0.5;"/><text fill="#000000" font-family="sans-serif" font-size="14" lengthAdjust="spacing" textLength="99.6064" x="556.2274" y="203.2563">Delete task only</text></g><!--entity DeleteFiles--><g class="entity" data-qualified-name="YouTube Downloader.DeleteFiles" data-source-line="19" id="ent0014"><ellipse cx="223.4669" cy="208.4277" fill="#F1F1F1" rx="67.9669" ry="28.5376" style="stroke:#181818;stroke-width:0.5;"/><text fill="#000000" font-family="sans-serif" font-size="14" lengthAdjust="spacing" textLength="97.2822" x="174.8258" y="207.1189">Delete task and</text><text fill="#000000" font-family="sans-serif" font-size="14" lengthAdjust="spacing" textLength="71.5928" x="187.6705" y="226.239">related files</text></g><!--entity Diagnostics--><g class="entity" data-qualified-name="YouTube Downloader.Diagnostics" data-source-line="20" id="ent0015"><ellipse cx="223.3491" cy="668.1599" fill="#F1F1F1" rx="79.3491" ry="18.2698" style="stroke:#181818;stroke-width:0.5;"/><text fill="#000000" font-family="sans-serif" font-size="14" lengthAdjust="spacing" textLength="119.0684" x="163.8149" y="674.22">Inspect diagnostics</text></g><!--entity User--><g class="entity" data-qualified-name="User" data-source-line="5" id="ent0001"><ellipse cx="38.2964" cy="566.3901" fill="#F1F1F1" rx="8" ry="8" style="stroke:#181818;stroke-width:0.5;"/><path d="M38.2964,574.3901 L38.2964,601.3901 M25.2964,582.3901 L51.2964,582.3901 M38.2964,601.3901 L25.2964,616.3901 M38.2964,601.3901 L51.2964,616.3901" fill="none" style="stroke:#181818;stroke-width:0.5;"/><text fill="#000000" font-family="sans-serif" font-size="14" lengthAdjust="spacing" textLength="64.5928" x="6" y="633.9341">Local user</text></g><!--link User to Analyze--><g class="link" data-entity-1="ent0001" data-entity-2="ent0003" data-link-type="dependency" data-source-line="23" id="lnk16"><path d="M43.81,636.9101 C51.45,698.5301 69.57,813.0001 101,837.3901 C235.83,942.0301 355.16,948.1601 485,837.3901 C549.37,782.4801 462.8,715.9901 515,649.3901 C525.57,635.9101 537.1036,628.8382 552.8836,623.1782" fill="none" id="User-to-Analyze" style="stroke:#181818;stroke-width:1;"/><polygon fill="#181818" points="557.59,621.4901,547.768,620.7636,552.8836,623.1782,550.4689,628.2938,557.59,621.4901" style="stroke:#181818;stroke-width:1;stroke-linejoin:miter;stroke-miterlimit:10;"/></g><!--link User to Options--><g class="link" data-entity-1="ent0001" data-entity-2="ent0006" data-link-type="dependency" data-source-line="24" id="lnk17"><path d="M41.49,636.9101 C45.86,677.0401 59.44,737.2901 101,766.3901 C240.8,864.2901 355.21,877.2101 485,766.3901 C549.68,711.1701 475.07,652.4901 515,577.3901 C529.15,550.7801 550.9909,530.9745 571.3809,515.8845" fill="none" id="User-to-Options" style="stroke:#181818;stroke-width:1;"/><polygon fill="#181818" points="575.4,512.9101,565.7861,515.0488,571.3809,515.8845,570.5452,521.4793,575.4,512.9101" style="stroke:#181818;stroke-width:1;stroke-linejoin:miter;stroke-miterlimit:10;"/></g><!--link User to CreateVideo--><g class="link" data-entity-1="ent0001" data-entity-2="ent0004" data-link-type="dependency" data-source-line="25" id="lnk18"><path d="M71.38,597.3901 C93.19,597.3901 118.01,597.3901 145.4,597.3901" fill="none" id="User-to-CreateVideo" style="stroke:#181818;stroke-width:1;"/><polygon fill="#181818" points="150.4,597.3901,141.4,593.3901,145.4,597.3901,141.4,601.3901,150.4,597.3901" style="stroke:#181818;stroke-width:1;stroke-linejoin:miter;stroke-miterlimit:10;"/></g><!--link User to CreatePlaylist--><g class="link" data-entity-1="ent0001" data-entity-2="ent0005" data-link-type="dependency" data-source-line="26" id="lnk19"><path d="M71.3,580.2601 C83.24,574.1901 97.06,567.5801 110,562.3901 C130.51,554.1701 148.9369,548.0837 168.9369,542.1437" fill="none" id="User-to-CreatePlaylist" style="stroke:#181818;stroke-width:1;"/><polygon fill="#181818" points="173.73,540.7201,163.9636,539.448,168.9369,542.1437,166.2413,547.1169,173.73,540.7201" style="stroke:#181818;stroke-width:1;stroke-linejoin:miter;stroke-miterlimit:10;"/></g><!--link User to Monitor--><g class="link" data-entity-1="ent0001" data-entity-2="ent0007" data-link-type="dependency" data-source-line="27" id="lnk20"><path d="M54.14,636.9601 C65.4,661.1701 83.56,690.1501 110,704.3901 C256.88,783.5101 365.27,803.5801 485,687.3901 C522.31,651.1901 490.7,501.3501 515,455.3901 C529.56,427.8501 553.5092,408.0578 574.4592,393.9878" fill="none" id="User-to-Monitor" style="stroke:#181818;stroke-width:1;"/><polygon fill="#181818" points="578.61,391.2001,568.9085,392.8973,574.4592,393.9878,573.3687,399.5385,578.61,391.2001" style="stroke:#181818;stroke-width:1;stroke-linejoin:miter;stroke-miterlimit:10;"/></g><!--link User to RuntimeSettings--><g class="link" data-entity-1="ent0001" data-entity-2="ent0008" data-link-type="dependency" data-source-line="28" id="lnk21"><path d="M40.2,636.9701 C42.77,729.5401 54.69,955.8801 110,1002.3901 C388.15,1236.3001 822.2494,755.7647 926.4494,632.0247" fill="none" id="User-to-RuntimeSettings" style="stroke:#181818;stroke-width:1;"/><polygon fill="#181818" points="929.67,628.2001,920.8132,632.5079,926.4494,632.0247,926.9325,637.6609,929.67,628.2001" style="stroke:#181818;stroke-width:1;stroke-linejoin:miter;stroke-miterlimit:10;"/></g><!--link User to ImportCookies--><g class="link" data-entity-1="ent0001" data-entity-2="ent0009" data-link-type="dependency" data-source-line="29" id="lnk22"><path d="M41.94,636.9001 C47.76,716.2201 65.42,890.3601 110,926.3901 C239.62,1031.1801 344.35,1010.8401 485,921.3901 C566.22,869.7401 593.825,749.8365 601.635,704.8365" fill="none" id="User-to-ImportCookies" style="stroke:#181818;stroke-width:1;"/><polygon fill="#181818" points="602.49,699.9101,597.0099,708.0936,601.635,704.8365,604.8921,709.4616,602.49,699.9101" style="stroke:#181818;stroke-width:1;stroke-linejoin:miter;stroke-miterlimit:10;"/></g><!--link User to RetryResolution--><g class="link" data-entity-1="ent0001" data-entity-2="ent0010" data-link-type="dependency" data-source-line="30" id="lnk23"><path d="M58.5,557.8901 C70.66,536.1101 88.23,510.0001 110,492.3901 C123.99,481.0801 136.537,474.1656 153.227,467.4956" fill="none" id="User-to-RetryResolution" style="stroke:#181818;stroke-width:1;"/><polygon fill="#181818" points="157.87,465.6401,148.0283,465.2657,153.227,467.4956,150.9971,472.6944,157.87,465.6401" style="stroke:#181818;stroke-width:1;stroke-linejoin:miter;stroke-miterlimit:10;"/></g><!--link User to Play--><g class="link" data-entity-1="ent0001" data-entity-2="ent0011" data-link-type="dependency" data-source-line="31" id="lnk24"><path d="M38.87,557.4401 C40.16,499.8301 51.08,393.4401 110,330.3901 C121.12,318.4901 131.3924,312.0325 146.7824,306.4225" fill="none" id="User-to-Play" style="stroke:#181818;stroke-width:1;"/><polygon fill="#181818" points="151.48,304.7101,141.6544,304.0343,146.7824,306.4225,144.3942,311.5505,151.48,304.7101" style="stroke:#181818;stroke-width:1;stroke-linejoin:miter;stroke-miterlimit:10;"/></g><!--link User to OpenFolder--><g class="link" data-entity-1="ent0001" data-entity-2="ent0012" data-link-type="dependency" data-source-line="32" id="lnk25"><path d="M43.5,557.8001 C50,513.9601 66.84,443.9801 110,402.3901 C123.07,389.8001 135.7716,383.0821 153.0416,377.7621" fill="none" id="User-to-OpenFolder" style="stroke:#181818;stroke-width:1;"/><polygon fill="#181818" points="157.82,376.2901,148.0413,375.117,153.0416,377.7621,150.3964,382.7624,157.82,376.2901" style="stroke:#181818;stroke-width:1;stroke-linejoin:miter;stroke-miterlimit:10;"/></g><!--link User to DeleteTask--><g class="link" data-entity-1="ent0001" data-entity-2="ent0013" data-link-type="dependency" data-source-line="33" id="lnk26"><path d="M39.68,557.8201 C41.04,460.3701 50.42,213.0901 110,162.3901 C246.63,46.1201 483.9988,140.0664 569.4888,179.9464" fill="none" id="User-to-DeleteTask" style="stroke:#181818;stroke-width:1;"/><polygon fill="#181818" points="574.02,182.0601,567.5548,174.6304,569.4888,179.9464,564.1728,181.8803,574.02,182.0601" style="stroke:#181818;stroke-width:1;stroke-linejoin:miter;stroke-miterlimit:10;"/></g><!--link User to DeleteFiles--><g class="link" data-entity-1="ent0001" data-entity-2="ent0014" data-link-type="dependency" data-source-line="34" id="lnk27"><path d="M42.97,557.8701 C50.73,477.8501 71.86,300.3601 110,254.3901 C123.27,238.4001 138.2807,229.5801 157.5107,222.7201" fill="none" id="User-to-DeleteFiles" style="stroke:#181818;stroke-width:1;"/><polygon fill="#181818" points="162.22,221.0401,152.3992,220.2966,157.5107,222.7201,155.0872,227.8315,162.22,221.0401" style="stroke:#181818;stroke-width:1;stroke-linejoin:miter;stroke-miterlimit:10;"/></g><!--link User to Diagnostics--><g class="link" data-entity-1="ent0001" data-entity-2="ent0015" data-link-type="dependency" data-source-line="35" id="lnk28"><path d="M71.04,613.7001 C83.07,619.6301 97.02,626.1501 110,631.3901 C130.59,639.7001 149.0633,646.0807 169.0533,652.4107" fill="none" id="User-to-Diagnostics" style="stroke:#181818;stroke-width:1;"/><polygon fill="#181818" points="173.82,653.9201,166.4474,647.3898,169.0533,652.4107,164.0324,655.0165,173.82,653.9201" style="stroke:#181818;stroke-width:1;stroke-linejoin:miter;stroke-miterlimit:10;"/></g><!--link CreateVideo to Analyze--><g class="link" data-entity-1="ent0004" data-entity-2="ent0003" data-link-type="dependency" data-source-line="37" id="lnk29"><path d="M282.79,607.4401 C301.91,610.2801 323.31,612.9901 343,614.3901 C412.65,619.3601 487.9753,617.5203 541.1353,615.0703" fill="none" id="CreateVideo-to-Analyze" style="stroke:#181818;stroke-width:1;stroke-dasharray:7,7;"/><polygon fill="#181818" points="546.13,614.8401,536.9554,611.2587,541.1353,615.0703,537.3237,619.2502,546.13,614.8401" style="stroke:#181818;stroke-width:1;stroke-linejoin:miter;stroke-miterlimit:10;"/><text fill="#000000" font-family="sans-serif" font-size="13" lengthAdjust="spacing" textLength="104.7808" x="362" y="611.2881">requires metadata</text></g><!--link CreatePlaylist to Analyze--><g class="link" data-entity-1="ent0005" data-entity-2="ent0003" data-link-type="dependency" data-source-line="38" id="lnk30"><path d="M276.95,540.0401 C297.52,544.9301 321.34,550.5201 343,555.3901 C417.65,572.1901 499.6452,589.4998 552.2252,600.4598" fill="none" id="CreatePlaylist-to-Analyze" style="stroke:#181818;stroke-width:1;stroke-dasharray:7,7;"/><polygon fill="#181818" points="557.12,601.4801,549.1256,595.7278,552.2252,600.4598,547.4931,603.5594,557.12,601.4801" style="stroke:#181818;stroke-width:1;stroke-linejoin:miter;stroke-miterlimit:10;"/><text fill="#000000" font-family="sans-serif" font-size="13" lengthAdjust="spacing" textLength="89.5972" x="369.5" y="552.2881">requires entries</text></g><!--link CreateVideo to Options--><g class="link" data-entity-1="ent0004" data-entity-2="ent0006" data-link-type="dependency" data-source-line="39" id="lnk31"><path d="M268.55,584.0101 C283.32,578.4901 299.46,571.2801 313,562.3901 C328.76,552.0401 326.16,540.8701 343,532.3901 C373.29,517.1401 450.6735,506.994 515.0535,500.734" fill="none" id="CreateVideo-to-Options" style="stroke:#181818;stroke-width:1;stroke-dasharray:7,7;"/><polygon fill="#181818" points="520.03,500.2501,510.6851,497.1399,515.0535,500.734,511.4594,505.1023,520.03,500.2501" style="stroke:#181818;stroke-width:1;stroke-linejoin:miter;stroke-miterlimit:10;"/><text fill="#000000" font-family="sans-serif" font-size="13" lengthAdjust="spacing" textLength="27.46" x="400.5" y="502.2881">uses</text></g><!--link CreatePlaylist to Options--><g class="link" data-entity-1="ent0005" data-entity-2="ent0006" data-link-type="dependency" data-source-line="40" id="lnk32"><path d="M266.19,512.7601 C281.21,507.0001 298.13,499.9601 313,492.3901 C327.07,485.2401 327.84,477.7901 343,473.3901 C411.46,453.5401 489.0742,464.2627 542.9642,476.5027" fill="none" id="CreatePlaylist-to-Options" style="stroke:#181818;stroke-width:1;stroke-dasharray:7,7;"/><polygon fill="#181818" points="547.84,477.6101,539.9495,471.7161,542.9642,476.5027,538.1776,479.5174,547.84,477.6101" style="stroke:#181818;stroke-width:1;stroke-linejoin:miter;stroke-miterlimit:10;"/><text fill="#000000" font-family="sans-serif" font-size="13" lengthAdjust="spacing" textLength="27.46" x="400.5" y="460.2881">uses</text></g><!--link Monitor to RuntimeSettings--><g class="link" data-entity-1="ent0007" data-entity-2="ent0008" data-link-type="dependency" data-source-line="41" id="lnk33"><path d="M631.57,391.3901 C690.46,429.7401 835.93,524.4818 908.14,571.5018" fill="none" id="Monitor-to-RuntimeSettings" style="stroke:#181818;stroke-width:1;stroke-dasharray:7,7;"/><polygon fill="#181818" points="912.33,574.2301,906.9707,565.9671,908.14,571.5018,902.6053,572.6711,912.33,574.2301" style="stroke:#181818;stroke-width:1;stroke-linejoin:miter;stroke-miterlimit:10;"/><text fill="#000000" font-family="sans-serif" font-size="13" lengthAdjust="spacing" textLength="94.6626" x="728" y="452.2881">reflects changes</text></g><!--link RetryResolution to Monitor--><g class="link" data-entity-1="ent0010" data-entity-2="ent0007" data-link-type="dependency" data-source-line="42" id="lnk34"><path d="M298.77,433.3401 C371.87,419.5101 476.9971,399.6094 543.3471,387.0594" fill="none" id="RetryResolution-to-Monitor" style="stroke:#181818;stroke-width:1;stroke-dasharray:7,7;"/><polygon fill="#181818" points="548.26,386.1301,538.6734,383.8725,543.3471,387.0594,540.1602,391.7331,548.26,386.1301" style="stroke:#181818;stroke-width:1;stroke-linejoin:miter;stroke-miterlimit:10;"/><text fill="#000000" font-family="sans-serif" font-size="13" lengthAdjust="spacing" textLength="116.3398" x="356" y="396.2881">triggered by fallback</text></g><!--link Play to Monitor--><g class="link" data-entity-1="ent0011" data-entity-2="ent0007" data-link-type="dependency" data-source-line="43" id="lnk35"><path d="M309.75,297.9401 C361.15,302.6601 427.57,311.1901 485,326.3901 C516.11,334.6301 545.3752,346.8439 569.1452,357.8839" fill="none" id="Play-to-Monitor" style="stroke:#181818;stroke-width:1;stroke-dasharray:7,7;"/><polygon fill="#181818" points="573.68,359.9901,567.2024,352.5712,569.1452,357.8839,563.8325,359.8268,573.68,359.9901" style="stroke:#181818;stroke-width:1;stroke-linejoin:miter;stroke-miterlimit:10;"/><text fill="#000000" font-family="sans-serif" font-size="13" lengthAdjust="spacing" textLength="115.6353" x="356.5" y="299.2881">requires output path</text></g><!--link OpenFolder to Monitor--><g class="link" data-entity-1="ent0012" data-entity-2="ent0007" data-link-type="dependency" data-source-line="44" id="lnk36"><path d="M294.25,358.7301 C346.77,354.1101 420.49,350.0501 485,355.3901 C506.36,357.1601 524.7262,359.8006 545.0562,363.3906" fill="none" id="OpenFolder-to-Monitor" style="stroke:#181818;stroke-width:1;stroke-dasharray:7,7;"/><polygon fill="#181818" points="549.98,364.2601,541.8127,358.756,545.0562,363.3906,540.4215,366.6341,549.98,364.2601" style="stroke:#181818;stroke-width:1;stroke-linejoin:miter;stroke-miterlimit:10;"/><text fill="#000000" font-family="sans-serif" font-size="13" lengthAdjust="spacing" textLength="140.1816" x="344" y="350.2881">requires output directory</text></g><!--link DeleteFiles to DeleteTask--><g class="link" data-entity-1="ent0014" data-entity-2="ent0013" data-link-type="dependency" data-source-line="45" id="lnk37"><path d="M291.65,206.4501 C359.81,204.4801 459.9321,201.5849 529.3321,199.5749" fill="none" id="DeleteFiles-to-DeleteTask" style="stroke:#181818;stroke-width:1;stroke-dasharray:7,7;"/><polygon fill="#181818" points="534.33,199.4301,525.218,195.6923,529.3321,199.5749,525.4496,203.689,534.33,199.4301" style="stroke:#181818;stroke-width:1;stroke-linejoin:miter;stroke-miterlimit:10;"/><text fill="#000000" font-family="sans-serif" font-size="13" lengthAdjust="spacing" textLength="47.6963" x="390.5" y="198.2881">includes</text></g><!--link Diagnostics to ImportCookies--><g class="link" data-entity-1="ent0015" data-entity-2="ent0009" data-link-type="dependency" data-source-line="46" id="lnk38"><path d="M301.96,671.4501 C371.71,674.2001 468.1239,677.9932 534.0739,680.5932" fill="none" id="Diagnostics-to-ImportCookies" style="stroke:#181818;stroke-width:1;stroke-dasharray:7,7;"/><polygon fill="#181818" points="539.07,680.7901,530.2346,676.4387,534.0739,680.5932,529.9194,684.4325,539.07,680.7901" style="stroke:#181818;stroke-width:1;stroke-linejoin:miter;stroke-miterlimit:10;"/><text fill="#000000" font-family="sans-serif" font-size="13" lengthAdjust="spacing" textLength="130.8188" x="349" y="670.2881">guides troubleshooting</text></g><?plantuml-src XPHDQnin48Rl-XM3hoK9XPvoA9I4G24bnVc0GYwoThnMBKiRQLIpBVtl7MbtPUqceITRhvuPZTwP5Mao29y-V8HxXLPwxU19ur4Ot1AG0w_R7K6ZFIhIpegmrxQJNXuWx6JZZjgsi9Kce11IaVEmkdLA6eW1_GfaW4V-8qGAbxRberO_N7o86uHhTxJ6oIPnVmIa22K30r-iDFrlXCVrRSumhclaogCaX5-wGGS_tIPpW_YKj3VOpiZUw40B_Fiepo9spl7lIvH6KtyHueQIIo67tNN9Xr3ptvpLwUgTTwt7C72ZEC_B5Y3uQ4aVyDagPrNq7gtgBum-QBhmI5wF1wq7x1w9sEJPWLyFdVC4ohdzH0_IrQ3Kx9fJzd3Kj8CGsnO3OVDikKndOhh9S5Q2raMhuvD1q4ozQWRFSr3QgScx3YsuI5qas3hJZ0EGv9kyhE5hDCXT8HdsuApfCpg83wozXqgRYpVSkGQsUchAWDoazSmd6peUF1vVsLeNIAiHFwt5No7IYCBPsUSoQKMOcbs4UiOMOfcaeayZK8HbIyl6l7idVj6Mif6jhwei3XUjidAX3IwTnCeBKLqFpi-B8N097byYFm813aYoaIJ5_DRluMZpHB_AF3hBA7Shl9LiGKmVMTfQ-9ZFsnhkT02Llx4W5jRbi2d59N1D_2budg5Ddvuliv5gB_Aepy5oZt6kEqaxSVBxF_JmR3hVYyhw77Dg3uTfgqnikEYg5vcQZGM3RMJ_0bVlueOpyJELxlyF?></g></svg>