<svg xmlns="http://www.w3.org/2000/svg" xmlns:xlink="http://www.w3.org/1999/xlink" contentStyleType="text/css" data-diagram-type="DESCRIPTION" height="907px" preserveAspectRatio="none" style="width:1749px;height:907px;background:#FFFFFF;" version="1.1" viewBox="0 0 1749 907" width="1749px" zoomAndPan="magnify"><?plantuml $version$?><defs/><g><g class="title" data-source-line="1"><text fill="#000000" font-family="sans-serif" font-size="14" font-weight="700" lengthAdjust="spacing" textLength="120.2441" x="811.1006" y="26.0439">4+1 Physical View</text></g><!--cluster Workstation--><g class="cluster" data-qualified-name="Workstation" data-source-line="4" id="ent0001"><polygon fill="none" points="16,56.1201,26,46.1201,1572,46.1201,1572,872.6201,1562,882.6201,16,882.6201,16,56.1201" style="stroke:#181818;stroke-width:1;stroke-linejoin:miter;stroke-miterlimit:10;"/><line style="stroke:#181818;stroke-width:1;" x1="1562" x2="1572" y1="56.1201" y2="46.1201"/><line style="stroke:#181818;stroke-width:1;" x1="16" x2="1562" y1="56.1201" y2="56.1201"/><line style="stroke:#181818;stroke-width:1;" x1="1562" x2="1562" y1="56.1201" y2="882.6201"/><text fill="#000000" font-family="sans-serif" font-size="14" font-weight="700" lengthAdjust="spacing" textLength="113.5859" x="733.207" y="75.1641">User workstation</text></g><!--cluster Browser--><g class="cluster" data-qualified-name="Workstation.Browser" data-source-line="5" id="ent0002"><polygon fill="none" points="1184,107.1201,1194,97.1201,1373,97.1201,1373,207.1201,1363,217.1201,1184,217.1201,1184,107.1201" style="stroke:#181818;stroke-width:1;stroke-linejoin:miter;stroke-miterlimit:10;"/><line style="stroke:#181818;stroke-width:1;" x1="1363" x2="1373" y1="107.1201" y2="97.1201"/><line style="stroke:#181818;stroke-width:1;" x1="1184" x2="1363" y1="107.1201" y2="107.1201"/><line style="stroke:#181818;stroke-width:1;" x1="1363" x2="1363" y1="107.1201" y2="217.1201"/><text fill="#000000" font-family="sans-serif" font-size="14" font-weight="700" lengthAdjust="spacing" textLength="113.6064" x="1217.6968" y="126.1641">Browser process</text></g><!--cluster Python--><g class="cluster" data-qualified-name="Workstation.Python" data-source-line="9" id="ent0004"><polygon fill="none" points="1181,296.1201,1191,286.1201,1402,286.1201,1402,708.6201,1392,718.6201,1181,718.6201,1181,296.1201" style="stroke:#181818;stroke-width:1;stroke-linejoin:miter;stroke-miterlimit:10;"/><line style="stroke:#181818;stroke-width:1;" x1="1392" x2="1402" y1="296.1201" y2="286.1201"/><line style="stroke:#181818;stroke-width:1;" x1="1181" x2="1392" y1="296.1201" y2="296.1201"/><line style="stroke:#181818;stroke-width:1;" x1="1392" x2="1392" y1="296.1201" y2="718.6201"/><text fill="#000000" font-family="sans-serif" font-size="14" font-weight="700" lengthAdjust="spacing" textLength="105.0273" x="1234.9863" y="315.1641">Python process</text><text fill="#000000" font-family="sans-serif" font-size="14" font-weight="700" lengthAdjust="spacing" textLength="145.4619" x="1214.769" y="334.2842">uvicorn app.main:app</text></g><!--cluster DocsToolchain--><g class="cluster" data-qualified-name="Workstation.DocsToolchain" data-source-line="23" id="ent0015"><polygon fill="none" points="40,113.1201,50,103.1201,602,103.1201,602,562.1201,592,572.1201,40,572.1201,40,113.1201" style="stroke:#181818;stroke-width:1;stroke-linejoin:miter;stroke-miterlimit:10;"/><line style="stroke:#181818;stroke-width:1;" x1="592" x2="602" y1="113.1201" y2="103.1201"/><line style="stroke:#181818;stroke-width:1;" x1="40" x2="592" y1="113.1201" y2="113.1201"/><line style="stroke:#181818;stroke-width:1;" x1="592" x2="592" y1="113.1201" y2="572.1201"/><text fill="#000000" font-family="sans-serif" font-size="14" font-weight="700" lengthAdjust="spacing" textLength="168" x="233" y="132.1641">Documentation toolchain</text></g><!--entity SQLite--><g class="entity" data-qualified-name="Workstation.SQLite" data-source-line="15" id="ent0008"><path d="M1419.5,654.6201 C1419.5,644.6201 1480.8721,644.6201 1480.8721,644.6201 C1480.8721,644.6201 1542.2441,644.6201 1542.2441,654.6201 L1542.2441,701.8604 C1542.2441,711.8604 1480.8721,711.8604 1480.8721,711.8604 C1480.8721,711.8604 1419.5,711.8604 1419.5,701.8604 L1419.5,654.6201" fill="#F1F1F1" style="stroke:#181818;stroke-width:0.5;"/><path d="M1419.5,654.6201 C1419.5,664.6201 1480.8721,664.6201 1480.8721,664.6201 C1480.8721,664.6201 1542.2441,664.6201 1542.2441,654.6201" fill="none" style="stroke:#181818;stroke-width:0.5;"/><text fill="#000000" font-family="sans-serif" font-size="14" lengthAdjust="spacing" textLength="42.7998" x="1429.5" y="684.6641">SQLite</text><text fill="#000000" font-family="sans-serif" font-size="14" lengthAdjust="spacing" textLength="98.8545" x="1433.3896" y="703.7842">data/app.sqlite3</text></g><!--entity Downloads--><g class="entity" data-qualified-name="Workstation.Downloads" data-source-line="16" id="ent0009"><path d="M939,790.6201 L980,790.6201 A3.75,3.75 0 0 1 982.5,793.1201 L989.5,811.6201 L1038.7168,811.6201 A2.5,2.5 0 0 1 1041.2168,814.1201 L1041.2168,864.3604 A2.5,2.5 0 0 1 1038.7168,866.8604 L939,866.8604 A2.5,2.5 0 0 1 936.5,864.3604 L936.5,793.1201 A2.5,2.5 0 0 1 939,790.6201" fill="#F1F1F1" style="stroke:#181818;stroke-width:0.5;"/><line style="stroke:#181818;stroke-width:0.5;" x1="936.5" x2="989.5" y1="811.6201" y2="811.6201"/><text fill="#000000" font-family="sans-serif" font-size="14" lengthAdjust="spacing" textLength="69.2617" x="946.5" y="834.6641">Downloads</text><text fill="#000000" font-family="sans-serif" font-size="14" lengthAdjust="spacing" textLength="70.8271" x="950.3896" y="853.7842">downloads/</text></g><!--entity CookiesFile--><g class="entity" data-qualified-name="Workstation.CookiesFile" data-source-line="17" id="ent0010"><path d="M827,489.6201 L868,489.6201 A3.75,3.75 0 0 1 870.5,492.1201 L877.5,510.6201 L953.165,510.6201 A2.5,2.5 0 0 1 955.665,513.1201 L955.665,563.3604 A2.5,2.5 0 0 1 953.165,565.8604 L827,565.8604 A2.5,2.5 0 0 1 824.5,563.3604 L824.5,492.1201 A2.5,2.5 0 0 1 827,489.6201" fill="#F1F1F1" style="stroke:#181818;stroke-width:0.5;"/><line style="stroke:#181818;stroke-width:0.5;" x1="824.5" x2="877.5" y1="510.6201" y2="510.6201"/><text fill="#000000" font-family="sans-serif" font-size="14" lengthAdjust="spacing" textLength="50.5791" x="834.5" y="533.6641">Cookies</text><text fill="#000000" font-family="sans-serif" font-size="14" lengthAdjust="spacing" textLength="97.2754" x="838.3896" y="552.7842">data/cookies.txt</text></g><!--entity Browsers--><g class="entity" data-qualified-name="Workstation.Browsers" data-source-line="18" id="ent0011"><rect fill="#F1F1F1" height="68.2402" rx="2.5" ry="2.5" style="stroke:#181818;stroke-width:0.5;" width="173.0547" x="990.5" y="493.6201"/><rect fill="#F1F1F1" height="10" style="stroke:#181818;stroke-width:0.5;" width="15" x="1143.5547" y="498.6201"/><rect fill="#F1F1F1" height="2" style="stroke:#181818;stroke-width:0.5;" width="4" x="1141.5547" y="500.6201"/><rect fill="#F1F1F1" height="2" style="stroke:#181818;stroke-width:0.5;" width="4" x="1141.5547" y="504.6201"/><text fill="#000000" font-family="sans-serif" font-size="14" lengthAdjust="spacing" textLength="112.8271" x="1005.5" y="529.6641">Installed browsers</text><text fill="#000000" font-family="sans-serif" font-size="14" lengthAdjust="spacing" textLength="133.0547" x="1005.5" y="548.7842">Edge/Chrome/Firefox</text></g><!--entity FFMPEG--><g class="entity" data-qualified-name="Workstation.FFMPEG" data-source-line="19" id="ent0012"><rect fill="#F1F1F1" height="49.1201" rx="2.5" ry="2.5" style="stroke:#181818;stroke-width:0.5;" width="190.958" x="1265.5" y="804.1201"/><rect fill="#F1F1F1" height="10" style="stroke:#181818;stroke-width:0.5;" width="15" x="1436.458" y="809.1201"/><rect fill="#F1F1F1" height="2" style="stroke:#181818;stroke-width:0.5;" width="4" x="1434.458" y="811.1201"/><rect fill="#F1F1F1" height="2" style="stroke:#181818;stroke-width:0.5;" width="4" x="1434.458" y="815.1201"/><text fill="#000000" font-family="sans-serif" font-size="14" lengthAdjust="spacing" textLength="150.958" x="1280.5" y="840.1641">ffmpeg / imageio-ffmpeg</text></g><!--entity Aria2--><g class="entity" data-qualified-name="Workstation.Aria2" data-source-line="20" id="ent0013"><rect fill="#F1F1F1" height="49.1201" rx="2.5" ry="2.5" style="stroke:#181818;stroke-width:0.5;" width="134.165" x="1096" y="804.1201"/><rect fill="#F1F1F1" height="10" style="stroke:#181818;stroke-width:0.5;" width="15" x="1210.165" y="809.1201"/><rect fill="#F1F1F1" height="2" style="stroke:#181818;stroke-width:0.5;" width="4" x="1208.165" y="811.1201"/><rect fill="#F1F1F1" height="2" style="stroke:#181818;stroke-width:0.5;" width="4" x="1208.165" y="815.1201"/><text fill="#000000" font-family="sans-serif" font-size="14" lengthAdjust="spacing" textLength="94.165" x="1111" y="840.1641">Optional aria2c</text></g><!--entity Opener--><g class="entity" data-qualified-name="Workstation.Opener" data-source-line="21" id="ent0014"><rect fill="#F1F1F1" height="68.2402" rx="2.5" ry="2.5" style="stroke:#181818;stroke-width:0.5;" width="134.1582" x="618" y="493.6201"/><rect fill="#F1F1F1" height="10" style="stroke:#181818;stroke-width:0.5;" width="15" x="732.1582" y="498.6201"/><rect fill="#F1F1F1" height="2" style="stroke:#181818;stroke-width:0.5;" width="4" x="730.1582" y="500.6201"/><rect fill="#F1F1F1" height="2" style="stroke:#181818;stroke-width:0.5;" width="4" x="730.1582" y="504.6201"/><text fill="#000000" font-family="sans-serif" font-size="14" lengthAdjust="spacing" textLength="94.1582" x="633" y="529.6641">System opener</text><text fill="#000000" font-family="sans-serif" font-size="14" lengthAdjust="spacing" textLength="94.1514" x="633" y="548.7842">Explorer/player</text></g><!--entity UI--><g class="entity" data-qualified-name="Workstation.Browser.UI" data-source-line="6" id="ent0003"><rect fill="#F1F1F1" height="61.2402" rx="2.5" ry="2.5" style="stroke:#181818;stroke-width:0.5;" width="142.834" x="1206.5" y="140.1201"/><polygon fill="#F1F1F1" points="1332.334,145.1201,1332.334,159.1201,1344.334,159.1201,1344.334,151.1201,1338.334,145.1201,1332.334,145.1201" style="stroke:#181818;stroke-width:0.5;stroke-linejoin:miter;stroke-miterlimit:10;"/><line style="stroke:#181818;stroke-width:0.5;" x1="1338.334" x2="1338.334" y1="145.1201" y2="151.1201"/><line style="stroke:#181818;stroke-width:0.5;" x1="1344.334" x2="1338.334" y1="151.1201" y2="151.1201"/><text fill="#000000" font-family="sans-serif" font-size="14" lengthAdjust="spacing" textLength="54.4619" x="1216.5" y="169.1641">React UI</text><text fill="#000000" font-family="sans-serif" font-size="14" lengthAdjust="spacing" textLength="112.834" x="1216.5" y="188.2842">served from :8000</text></g><!--entity API--><g class="entity" data-qualified-name="Workstation.Python.API" data-source-line="10" id="ent0005"><rect fill="#F1F1F1" height="49.1201" rx="2.5" ry="2.5" style="stroke:#181818;stroke-width:0.5;" width="160.2168" x="1198" y="348.1201"/><rect fill="#F1F1F1" height="10" style="stroke:#181818;stroke-width:0.5;" width="15" x="1338.2168" y="353.1201"/><rect fill="#F1F1F1" height="2" style="stroke:#181818;stroke-width:0.5;" width="4" x="1336.2168" y="355.1201"/><rect fill="#F1F1F1" height="2" style="stroke:#181818;stroke-width:0.5;" width="4" x="1336.2168" y="359.1201"/><text fill="#000000" font-family="sans-serif" font-size="14" lengthAdjust="spacing" textLength="120.2168" x="1213" y="384.1641">FastAPI API + SSE</text></g><!--entity Workers--><g class="entity" data-qualified-name="Workstation.Python.Workers" data-source-line="11" id="ent0006"><rect fill="#F1F1F1" height="49.1201" rx="2.5" ry="2.5" style="stroke:#181818;stroke-width:0.5;" width="170.7236" x="1198.5" y="503.1201"/><rect fill="#F1F1F1" height="10" style="stroke:#181818;stroke-width:0.5;" width="15" x="1349.2236" y="508.1201"/><rect fill="#F1F1F1" height="2" style="stroke:#181818;stroke-width:0.5;" width="4" x="1347.2236" y="510.1201"/><rect fill="#F1F1F1" height="2" style="stroke:#181818;stroke-width:0.5;" width="4" x="1347.2236" y="514.1201"/><text fill="#000000" font-family="sans-serif" font-size="14" lengthAdjust="spacing" textLength="130.7236" x="1213.5" y="539.1641">JobManager workers</text></g><!--entity YTDLP--><g class="entity" data-qualified-name="Workstation.Python.YTDLP" data-source-line="12" id="ent0007"><rect fill="#F1F1F1" height="49.1201" rx="2.5" ry="2.5" style="stroke:#181818;stroke-width:0.5;" width="148.165" x="1198" y="653.6201"/><rect fill="#F1F1F1" height="10" style="stroke:#181818;stroke-width:0.5;" width="15" x="1326.165" y="658.6201"/><rect fill="#F1F1F1" height="2" style="stroke:#181818;stroke-width:0.5;" width="4" x="1324.165" y="660.6201"/><rect fill="#F1F1F1" height="2" style="stroke:#181818;stroke-width:0.5;" width="4" x="1324.165" y="664.6201"/><text fill="#000000" font-family="sans-serif" font-size="14" lengthAdjust="spacing" textLength="108.165" x="1213" y="689.6641">yt-dlp Python API</text></g><!--entity DocsScript--><g class="entity" data-qualified-name="Workstation.DocsToolchain.DocsScript" data-source-line="24" id="ent0016"><rect fill="#F1F1F1" height="49.1201" rx="2.5" ry="2.5" style="stroke:#181818;stroke-width:0.5;" width="132.5859" x="249.5" y="146.1201"/><rect fill="#F1F1F1" height="10" style="stroke:#181818;stroke-width:0.5;" width="15" x="362.0859" y="151.1201"/><rect fill="#F1F1F1" height="2" style="stroke:#181818;stroke-width:0.5;" width="4" x="360.0859" y="153.1201"/><rect fill="#F1F1F1" height="2" style="stroke:#181818;stroke-width:0.5;" width="4" x="360.0859" y="157.1201"/><text fill="#000000" font-family="sans-serif" font-size="14" lengthAdjust="spacing" textLength="92.5859" x="264.5" y="182.1641">scripts/docs.py</text></g><!--entity PlantUMLCache--><g class="entity" data-qualified-name="Workstation.DocsToolchain.PlantUMLCache" data-source-line="25" id="ent0017"><path d="M259.5,334.6201 L300.5,334.6201 A3.75,3.75 0 0 1 303,337.1201 L310,355.6201 L406.665,355.6201 A2.5,2.5 0 0 1 409.165,358.1201 L409.165,408.3604 A2.5,2.5 0 0 1 406.665,410.8604 L259.5,410.8604 A2.5,2.5 0 0 1 257,408.3604 L257,337.1201 A2.5,2.5 0 0 1 259.5,334.6201" fill="#F1F1F1" style="stroke:#181818;stroke-width:0.5;"/><line style="stroke:#181818;stroke-width:0.5;" x1="257" x2="310" y1="355.6201" y2="355.6201"/><text fill="#000000" font-family="sans-serif" font-size="14" lengthAdjust="spacing" textLength="70.8135" x="267" y="378.6641">.tools/docs/</text><text fill="#000000" font-family="sans-serif" font-size="14" lengthAdjust="spacing" textLength="122.165" x="267" y="397.7842">PlantUML jar cache</text></g><!--entity DocsRuntime--><g class="entity" data-qualified-name="Workstation.DocsToolchain.DocsRuntime" data-source-line="26" id="ent0018"><rect fill="#F1F1F1" height="49.1201" rx="2.5" ry="2.5" style="stroke:#181818;stroke-width:0.5;" width="141.5479" x="444" y="348.1201"/><rect fill="#F1F1F1" height="10" style="stroke:#181818;stroke-width:0.5;" width="15" x="565.5479" y="353.1201"/><rect fill="#F1F1F1" height="2" style="stroke:#181818;stroke-width:0.5;" width="4" x="563.5479" y="355.1201"/><rect fill="#F1F1F1" height="2" style="stroke:#181818;stroke-width:0.5;" width="4" x="563.5479" y="359.1201"/><text fill="#000000" font-family="sans-serif" font-size="14" lengthAdjust="spacing" textLength="101.5479" x="459" y="384.1641">Java + Graphviz</text></g><!--entity DiagramSources--><g class="entity" data-qualified-name="Workstation.DocsToolchain.DiagramSources" data-source-line="27" id="ent0019"><path d="M59,344.1201 L100,344.1201 A3.75,3.75 0 0 1 102.5,346.6201 L109.5,365.1201 L218.6133,365.1201 A2.5,2.5 0 0 1 221.1133,367.6201 L221.1133,398.7402 A2.5,2.5 0 0 1 218.6133,401.2402 L59,401.2402 A2.5,2.5 0 0 1 56.5,398.7402 L56.5,346.6201 A2.5,2.5 0 0 1 59,344.1201" fill="#F1F1F1" style="stroke:#181818;stroke-width:0.5;"/><line style="stroke:#181818;stroke-width:0.5;" x1="56.5" x2="109.5" y1="365.1201" y2="365.1201"/><text fill="#000000" font-family="sans-serif" font-size="14" lengthAdjust="spacing" textLength="134.6133" x="66.5" y="388.1641">docs/diagrams/*.puml</text></g><!--entity DiagramAssets--><g class="entity" data-qualified-name="Workstation.DocsToolchain.DiagramAssets" data-source-line="28" id="ent0020"><path d="M385.5,499.1201 L426.5,499.1201 A3.75,3.75 0 0 1 429,501.6201 L436,520.1201 L580.9063,520.1201 A2.5,2.5 0 0 1 583.4063,522.6201 L583.4063,553.7402 A2.5,2.5 0 0 1 580.9063,556.2402 L385.5,556.2402 A2.5,2.5 0 0 1 383,553.7402 L383,501.6201 A2.5,2.5 0 0 1 385.5,499.1201" fill="#F1F1F1" style="stroke:#181818;stroke-width:0.5;"/><line style="stroke:#181818;stroke-width:0.5;" x1="383" x2="436" y1="520.1201" y2="520.1201"/><text fill="#000000" font-family="sans-serif" font-size="14" lengthAdjust="spacing" textLength="170.4063" x="393" y="543.1641">docs/assets/diagrams/*.svg</text></g><!--entity YouTube--><g class="entity" data-qualified-name="YouTube" data-source-line="32" id="ent0021"><path d="M1598.4813,813.3309 C1600.6425,807.8032 1605.775,806.6759 1609.3395,811.9158 C1613.2147,806.8915 1618.9092,807.3486 1622.0328,812.8245 C1624.7243,806.7182 1629.3309,805.8387 1633.5678,811.2808 C1637.0477,806.4839 1641.9425,807.7243 1643.7722,812.9594 C1646.9215,807.1793 1651.4814,806.6737 1655.6677,811.8316 C1660.2749,805.2311 1665.7902,806.6477 1669.1168,813.1464 C1678.1492,816.8567 1677.4298,824.9375 1670.1079,829.631 C1677.8459,835.0984 1677.9811,842.5012 1668.5534,846.375 C1666.6923,851.8414 1661.5624,853.4401 1657.3036,849.1357 C1655.2286,855.4299 1650.6773,856.6746 1645.6702,852.347 C1642.3207,859.0596 1637.5353,859.8711 1632.2738,854.4597 C1628.0209,858.5931 1624.7138,858.0434 1622.2109,852.6176 C1616.6362,857.7896 1610.77,854.8777 1608.9884,848.3359 C1604.7327,852.9496 1600.6678,853.6187 1597.568,847.1452 C1586.6118,846.1843 1582.4827,838.1089 1589.0831,828.9575 C1585.7192,819.6133 1587.1481,813.836 1598.4813,813.3309" fill="#F1F1F1" style="stroke:#181818;stroke-width:0.5;"/><text fill="#000000" font-family="sans-serif" font-size="14" lengthAdjust="spacing" textLength="56.8203" x="1603.5" y="835.1641">YouTube</text></g><!--link UI to API--><g class="link" data-entity-1="ent0003" data-entity-2="ent0005" data-link-type="dependency" data-source-line="34" id="lnk22"><path d="M1278,201.1301 C1278,241.0101 1278,306.3101 1278,342.9401" fill="none" id="UI-to-API" style="stroke:#181818;stroke-width:1;"/><polygon fill="#181818" points="1278,347.9401,1282,338.9401,1278,342.9401,1274,338.9401,1278,347.9401" style="stroke:#181818;stroke-width:1;stroke-linejoin:miter;stroke-miterlimit:10;"/><text fill="#000000" font-family="sans-serif" font-size="13" lengthAdjust="spacing" textLength="74.769" x="1284.989" y="249.0181">HTTP + SSE</text><text fill="#000000" font-family="sans-serif" font-size="13" lengthAdjust="spacing" textLength="86.7471" x="1279" y="266.7725">127.0.0.1:8000</text></g><!--link API to Workers--><g class="link" data-entity-1="ent0005" data-entity-2="ent0006" data-link-type="dependency" data-source-line="35" id="lnk23"><path d="M1275.88,397.3701 C1274.65,414.6501 1273.59,438.6001 1275,459.6201 C1275.96,474.0201 1277.329,485.1068 1279.269,497.8768" fill="none" id="API-to-Workers" style="stroke:#181818;stroke-width:1;"/><polygon fill="#181818" points="1280.02,502.8201,1282.6229,493.3214,1279.269,497.8768,1274.7136,494.523,1280.02,502.8201" style="stroke:#181818;stroke-width:1;stroke-linejoin:miter;stroke-miterlimit:10;"/><text fill="#000000" font-family="sans-serif" font-size="13" lengthAdjust="spacing" textLength="93.2407" x="1276" y="456.5181">enqueue/control</text></g><!--link API to SQLite--><g class="link" data-entity-1="ent0005" data-entity-2="ent0008" data-link-type="dependency" data-source-line="36" id="lnk24"><path d="M1321.22,397.2501 C1339.98,408.7901 1361.41,423.8201 1378,440.6201 C1435.77,499.1301 1454.62,517.0901 1479,595.6201 C1483.83,611.1601 1484.8784,624.1926 1484.3984,639.3326" fill="none" id="API-to-SQLite" style="stroke:#181818;stroke-width:1;"/><polygon fill="#181818" points="1484.24,644.3301,1488.5232,635.4614,1484.3984,639.3326,1480.5272,635.2079,1484.24,644.3301" style="stroke:#181818;stroke-width:1;stroke-linejoin:miter;stroke-miterlimit:10;"/><text fill="#000000" font-family="sans-serif" font-size="13" lengthAdjust="spacing" textLength="114.1753" x="1474" y="534.0181">jobs/settings/events</text></g><!--link Workers to SQLite--><g class="link" data-entity-1="ent0006" data-entity-2="ent0008" data-link-type="dependency" data-source-line="37" id="lnk25"><path d="M1309.82,552.2101 C1329.79,570.0501 1358.42,594.7801 1385,614.6201 C1398.71,624.8501 1409.8503,632.5314 1424.1603,641.8514" fill="none" id="Workers-to-SQLite" style="stroke:#181818;stroke-width:1;"/><polygon fill="#181818" points="1428.35,644.5801,1422.9915,636.3166,1424.1603,641.8514,1418.6255,643.0202,1428.35,644.5801" style="stroke:#181818;stroke-width:1;stroke-linejoin:miter;stroke-miterlimit:10;"/><text fill="#000000" font-family="sans-serif" font-size="13" lengthAdjust="spacing" textLength="88.8735" x="1386" y="611.5181">progress/status</text></g><!--link Workers to YTDLP--><g class="link" data-entity-1="ent0006" data-entity-2="ent0007" data-link-type="dependency" data-source-line="38" id="lnk26"><path d="M1259.79,552.4001 C1249.4,564.2901 1238.42,579.5501 1233,595.6201 C1226.18,615.8301 1234.5679,633.602 1246.7879,649.542" fill="none" id="Workers-to-YTDLP" style="stroke:#181818;stroke-width:1;"/><polygon fill="#181818" points="1249.83,653.5101,1247.5288,643.9339,1246.7879,649.542,1241.1798,648.8012,1249.83,653.5101" style="stroke:#181818;stroke-width:1;stroke-linejoin:miter;stroke-miterlimit:10;"/><text fill="#000000" font-family="sans-serif" font-size="13" lengthAdjust="spacing" textLength="113.4707" x="1234" y="611.5181">metadata/download</text></g><!--link YTDLP to YouTube--><g class="link" data-entity-1="ent0007" data-entity-2="ent0021" data-link-type="dependency" data-source-line="39" id="lnk27"><path d="M1302.95,702.7001 C1316.64,711.8301 1333.38,721.3501 1350,726.6201 C1397.13,741.5701 1528.96,717.2901 1572,741.6201 C1596.41,755.4201 1611.0503,779.207 1620.5303,799.577" fill="none" id="YTDLP-to-YouTube" style="stroke:#181818;stroke-width:1;"/><polygon fill="#181818" points="1622.64,804.1101,1622.4691,794.2627,1620.5303,799.577,1615.2161,797.6382,1622.64,804.1101" style="stroke:#181818;stroke-width:1;stroke-linejoin:miter;stroke-miterlimit:10;"/><text fill="#000000" font-family="sans-serif" font-size="13" lengthAdjust="spacing" textLength="139.4453" x="1594" y="757.5181">HTTPS metadata/media</text></g><!--link YTDLP to Downloads--><g class="link" data-entity-1="ent0007" data-entity-2="ent0009" data-link-type="dependency" data-source-line="40" id="lnk28"><path d="M1240.18,702.8501 C1226.62,711.7701 1210.21,721.0901 1194,726.6201 C1136.87,746.1201 1112,712.7201 1059,741.6201 C1038.55,752.7701 1024.5807,789.4414 1012.6007,807.2514" fill="none" id="YTDLP-to-Downloads" style="stroke:#181818;stroke-width:1;"/><polygon fill="#181818" points="1009.81,811.4001,1018.1522,806.1649,1012.6007,807.2514,1011.5142,801.6998,1009.81,811.4001" style="stroke:#181818;stroke-width:1;stroke-linejoin:miter;stroke-miterlimit:10;"/><text fill="#000000" font-family="sans-serif" font-size="13" lengthAdjust="spacing" textLength="127.8989" x="1060" y="757.5181">video/subtitles/sidecar</text></g><!--link YTDLP to FFMPEG--><g class="link" data-entity-1="ent0007" data-entity-2="ent0012" data-link-type="dependency" data-source-line="41" id="lnk29"><path d="M1286.1,702.6501 C1302.67,730.2901 1327.4293,771.6116 1344.0993,799.4216" fill="none" id="YTDLP-to-FFMPEG" style="stroke:#181818;stroke-width:1;"/><polygon fill="#181818" points="1346.67,803.7101,1345.4736,793.9342,1344.0993,799.4216,1338.612,798.0473,1346.67,803.7101" style="stroke:#181818;stroke-width:1;stroke-linejoin:miter;stroke-miterlimit:10;"/><text fill="#000000" font-family="sans-serif" font-size="13" lengthAdjust="spacing" textLength="86.6899" x="1320" y="757.5181">merge streams</text></g><!--link YTDLP to Aria2--><g class="link" data-entity-1="ent0007" data-entity-2="ent0013" data-link-type="dependency" data-source-line="42" id="lnk30"><path d="M1244.21,702.6601 C1232.17,713.7101 1218.48,727.5401 1208,741.6201 C1193.52,761.0901 1183.1466,781.3126 1175.0466,799.2626" fill="none" id="YTDLP-to-Aria2" style="stroke:#181818;stroke-width:1;stroke-dasharray:7,7;"/><polygon fill="#181818" points="1172.99,803.8201,1180.3378,797.2619,1175.0466,799.2626,1173.0459,793.9714,1172.99,803.8201" style="stroke:#181818;stroke-width:1;stroke-linejoin:miter;stroke-miterlimit:10;"/><text fill="#000000" font-family="sans-serif" font-size="13" lengthAdjust="spacing" textLength="93.228" x="1209" y="757.5181">optional fallback</text></g><!--link API to Browsers--><g class="link" data-entity-1="ent0005" data-entity-2="ent0011" data-link-type="dependency" data-source-line="43" id="lnk31"><path d="M1242,397.4001 C1223.5,409.8901 1200.75,425.6801 1181,440.6201 C1158.77,457.4401 1138.551,473.9852 1119.191,490.3252" fill="none" id="API-to-Browsers" style="stroke:#181818;stroke-width:1;"/><polygon fill="#181818" points="1115.37,493.5501,1124.8277,490.802,1119.191,490.3252,1119.6678,484.6885,1115.37,493.5501" style="stroke:#181818;stroke-width:1;stroke-linejoin:miter;stroke-miterlimit:10;"/><text fill="#000000" font-family="sans-serif" font-size="13" lengthAdjust="spacing" textLength="83.8081" x="1182" y="456.5181">import cookies</text></g><!--link API to CookiesFile--><g class="link" data-entity-1="ent0005" data-entity-2="ent0010" data-link-type="dependency" data-source-line="44" id="lnk32"><path d="M1197.82,391.5201 C1151.64,403.0401 1093.03,419.7701 1043,440.6201 C1010.51,454.1601 980.4968,491.4333 952.6168,508.0233" fill="none" id="API-to-CookiesFile" style="stroke:#181818;stroke-width:1;"/><polygon fill="#181818" points="948.32,510.5801,958.0997,509.4153,952.6168,508.0233,954.0088,502.5404,948.32,510.5801" style="stroke:#181818;stroke-width:1;stroke-linejoin:miter;stroke-miterlimit:10;"/><text fill="#000000" font-family="sans-serif" font-size="13" lengthAdjust="spacing" textLength="104.7681" x="1044" y="456.5181">read/write cookies</text></g><!--link API to Downloads--><g class="link" data-entity-1="ent0005" data-entity-2="ent0009" data-link-type="dependency" data-source-line="45" id="lnk33"><path d="M1197.93,381.4901 C1076.36,395.3001 854.31,428.4001 807,489.6201 C730.08,589.1601 861.7166,722.4262 938.1866,787.2762" fill="none" id="API-to-Downloads" style="stroke:#181818;stroke-width:1;"/><polygon fill="#181818" points="942,790.5101,937.7231,781.6384,938.1866,787.2762,932.5488,787.7398,942,790.5101" style="stroke:#181818;stroke-width:1;stroke-linejoin:miter;stroke-miterlimit:10;"/><text fill="#000000" font-family="sans-serif" font-size="13" lengthAdjust="spacing" textLength="122.8652" x="796" y="611.5181">delete known outputs</text></g><!--link API to Opener--><g class="link" data-entity-1="ent0005" data-entity-2="ent0014" data-link-type="dependency" data-source-line="46" id="lnk34"><path d="M1197.88,376.8401 C1043.85,383.8701 718.59,403.0301 685,440.6201 C672.47,454.6501 671.4296,470.7713 674.4596,488.5413" fill="none" id="API-to-Opener" style="stroke:#181818;stroke-width:1;"/><polygon fill="#181818" points="675.3,493.4701,677.7303,483.9258,674.4596,488.5413,669.8441,485.2705,675.3,493.4701" style="stroke:#181818;stroke-width:1;stroke-linejoin:miter;stroke-miterlimit:10;"/><text fill="#000000" font-family="sans-serif" font-size="13" lengthAdjust="spacing" textLength="92.5107" x="686" y="456.5181">play/open folder</text></g><!--link DocsScript to PlantUMLCache--><g class="link" data-entity-1="ent0016" data-entity-2="ent0017" data-link-type="dependency" data-source-line="47" id="lnk35"><path d="M314.58,195.2701 C313.96,206.7001 313.3,220.6201 313,233.1201 C312.6,249.5601 311.4,253.7501 313,270.1201 C315.09,291.5701 318.5397,331.3282 322.7597,350.3982" fill="none" id="DocsScript-to-PlantUMLCache" style="stroke:#181818;stroke-width:1;"/><polygon fill="#181818" points="323.84,355.2801,325.801,345.6285,322.7597,350.3982,317.9899,347.357,323.84,355.2801" style="stroke:#181818;stroke-width:1;stroke-linejoin:miter;stroke-miterlimit:10;"/><text fill="#000000" font-family="sans-serif" font-size="13" lengthAdjust="spacing" textLength="157.8916" x="314" y="258.0181">download + SHA-256 verify</text></g><!--link DocsScript to DocsRuntime--><g class="link" data-entity-1="ent0016" data-entity-2="ent0018" data-link-type="dependency" data-source-line="48" id="lnk36"><path d="M382.72,182.8001 C414.98,191.4401 451.84,206.6201 476,233.1201 C505.28,265.2401 512.4851,312.6888 514.2751,342.9888" fill="none" id="DocsScript-to-DocsRuntime" style="stroke:#181818;stroke-width:1;"/><polygon fill="#181818" points="514.57,347.9801,518.0323,338.7599,514.2751,342.9888,510.0462,339.2317,514.57,347.9801" style="stroke:#181818;stroke-width:1;stroke-linejoin:miter;stroke-miterlimit:10;"/><text fill="#000000" font-family="sans-serif" font-size="13" lengthAdjust="spacing" textLength="37.5781" x="500" y="258.0181">render</text></g><!--link DocsScript to DiagramSources--><g class="link" data-entity-1="ent0016" data-entity-2="ent0019" data-link-type="dependency" data-source-line="49" id="lnk37"><path d="M250.85,195.1801 C231.59,204.6301 211.74,217.1401 197,233.1201 C167.66,264.9201 153.1637,329.8622 145.7637,360.2322" fill="none" id="DocsScript-to-DiagramSources" style="stroke:#181818;stroke-width:1;"/><polygon fill="#181818" points="144.58,365.0901,150.5969,357.2929,145.7637,360.2322,142.8243,355.399,144.58,365.0901" style="stroke:#181818;stroke-width:1;stroke-linejoin:miter;stroke-miterlimit:10;"/><text fill="#000000" font-family="sans-serif" font-size="13" lengthAdjust="spacing" textLength="106.209" x="198" y="258.0181">read UML sources</text></g><!--link DocsRuntime to DiagramAssets--><g class="link" data-entity-1="ent0018" data-entity-2="ent0020" data-link-type="dependency" data-source-line="50" id="lnk38"><path d="M462.2,397.2701 C444.9,407.8801 427.65,422.2201 418,440.6201 C407.04,461.5001 418.8371,500.3906 437.4771,516.5006" fill="none" id="DocsRuntime-to-DiagramAssets" style="stroke:#181818;stroke-width:1;"/><polygon fill="#181818" points="441.26,519.7701,437.0663,510.8587,437.4771,516.5006,431.8352,516.9114,441.26,519.7701" style="stroke:#181818;stroke-width:1;stroke-linejoin:miter;stroke-miterlimit:10;"/><text fill="#000000" font-family="sans-serif" font-size="13" lengthAdjust="spacing" textLength="82.3862" x="419" y="456.5181">generate SVG</text></g><?plantuml-src RPJTRjiu48NlzHG3NsvXAqdt3xaea2PnwaM2khNTHG7VZAMnp9eYLPAouotwxXsIaYmbYy08DVpEZ8Oy8oUS9FZzpINCToShCfJmHT0niNkXAZHOWjrXhez25R15QIb9bCu9HYjB1exQxAr39xGQ0Lhuz_mCFnA0YBut-kZfokYCh0ra6_CK01edjfWv67qc_syrMolUFL0EMwDBkFxxuk8Yw5Op5lnCkjppazjniIRrMjK7aMcZ0AjgKg9Grxm8mWQCzJ9TLbgHue9JjEvcFWF_UmEBnNsW-Uab-8_UFA72eccRZErQvlLB-kJ6kQpQgfmkm5-NTu_pje4S7MxGSXEBJu_2qLg5KEfVtNwN77aRH76N1LijSwu-kjD79JNcrYlQTHhORgk7tsgz5sJRz5bydBXd5oJDzbH8NwFNmapnLKh9Tx29byKfxlE2qjiTtmcbKs5egv_xrsc76RRRig82KX0bdvlGunW8YkdqQNx_CEG_LjuvR44q0g-oU1D-ESGM9-ke15sH8iFlz5n9RSYabSGJcQ3w6FREDhdJMLsoE5hJQIsp7RkZERFCBjl8QuFOp8ZAsJHdR5ATEiaYn0FTdlJ49uvakbPpYSgjdXxX6nh8CDjHD68JllMHLoR30x8D7mnMkuFuholskLPEb3Ie5iha0WkUKfl-DgdgKaP1Z2rqRNWeNclGMd83gJqKVULD089FsQcPr7KEew-wNjQRs4EpJfBL3CRZTs5uhk73SZcFCxHMbrT_JIxuxpACRk813pRJmZ2fxpNLn7PKpcZP4T7j37pJ6vloUpZ-zDYK3dm-Dcdr0vA7lp0y_Qd_zDH3A4mSCoKv3FPl1oQ9Eu69tJGTBCviINn6FR2RBaOF8YUTsdhZ_1UKQ_DpXgP7HuU7sgOWiCuGdtO3J2RlehLvNxUsvm-it62sxmwZ7Ik617l4E6YcjoDwqyiGLyZJe_77yXBiltjEaXZPAuw1hbrLkpCOHySVAuzJweUiSKzoTdq01qRsMPiAtW8VRiPNV_m91p9YUtefx1awlBFwd-H33pUjWPycszYwdwMdYDvbGU7RG6vpyUNX5m00?></g></svg>