<svg xmlns="http://www.w3.org/2000/svg" xmlns:xlink="http://www.w3.org/1999/xlink" contentStyleType="text/css" data-diagram-type="DESCRIPTION" height="700px" preserveAspectRatio="none" style="width:1388px;height:700px;background:#FFFFFF;" version="1.1" viewBox="0 0 1388 700" width="1388px" zoomAndPan="magnify"><?plantuml $version$?><defs/><g><g class="title" data-source-line="1"><text fill="#000000" font-family="sans-serif" font-size="14" font-weight="700" lengthAdjust="spacing" textLength="112.4375" x="634.2813" y="26.0439">4+1 Logical View</text></g><!--cluster UI domain--><g class="cluster" data-qualified-name="UI domain" data-source-line="5" id="ent0001"><path d="M612.5,46.1201 L681.1689,46.1201 A3.75,3.75 0 0 1 683.6689,48.6201 L690.6689,71.2402 L1180.5,71.2402 A2.5,2.5 0 0 1 1183,73.7402 L1183,136.6201 A2.5,2.5 0 0 1 1180.5,139.1201 L612.5,139.1201 A2.5,2.5 0 0 1 610,136.6201 L610,48.6201 A2.5,2.5 0 0 1 612.5,46.1201" fill="none" style="stroke:#000000;stroke-width:1.5;"/><line style="stroke:#000000;stroke-width:1.5;" x1="610" x2="690.6689" y1="71.2402" y2="71.2402"/><text fill="#000000" font-family="sans-serif" font-size="14" font-weight="700" lengthAdjust="spacing" textLength="67.6689" x="614" y="64.1641">UI domain</text></g><!--cluster Application services--><g class="cluster" data-qualified-name="Application services" data-source-line="12" id="ent0006"><path d="M659.5,190.1201 L796.665,190.1201 A3.75,3.75 0 0 1 799.165,192.6201 L806.165,215.2402 L1131.5,215.2402 A2.5,2.5 0 0 1 1134,217.7402 L1134,682.6201 A2.5,2.5 0 0 1 1131.5,685.1201 L659.5,685.1201 A2.5,2.5 0 0 1 657,682.6201 L657,192.6201 A2.5,2.5 0 0 1 659.5,190.1201" fill="none" style="stroke:#000000;stroke-width:1.5;"/><line style="stroke:#000000;stroke-width:1.5;" x1="657" x2="806.165" y1="215.2402" y2="215.2402"/><text fill="#000000" font-family="sans-serif" font-size="14" font-weight="700" lengthAdjust="spacing" textLength="136.165" x="661" y="208.1641">Application services</text></g><!--cluster Domain policies--><g class="cluster" data-qualified-name="Domain policies" data-source-line="20" id="ent0012"><path d="M8.5,592.1201 L116.8584,592.1201 A3.75,3.75 0 0 1 119.3584,594.6201 L126.3584,617.2402 L630.5,617.2402 A2.5,2.5 0 0 1 633,619.7402 L633,682.6201 A2.5,2.5 0 0 1 630.5,685.1201 L8.5,685.1201 A2.5,2.5 0 0 1 6,682.6201 L6,594.6201 A2.5,2.5 0 0 1 8.5,592.1201" fill="none" style="stroke:#000000;stroke-width:1.5;"/><line style="stroke:#000000;stroke-width:1.5;" x1="6" x2="126.3584" y1="617.2402" y2="617.2402"/><text fill="#000000" font-family="sans-serif" font-size="14" font-weight="700" lengthAdjust="spacing" textLength="107.3584" x="10" y="610.1641">Domain policies</text></g><!--cluster Persistent model--><g class="cluster" data-qualified-name="Persistent model" data-source-line="27" id="ent0017"><path d="M1160.5,450.1201 L1274.3135,450.1201 A3.75,3.75 0 0 1 1276.8135,452.6201 L1283.8135,475.2402 L1370.5,475.2402 A2.5,2.5 0 0 1 1373,477.7402 L1373,682.6201 A2.5,2.5 0 0 1 1370.5,685.1201 L1160.5,685.1201 A2.5,2.5 0 0 1 1158,682.6201 L1158,452.6201 A2.5,2.5 0 0 1 1160.5,450.1201" fill="none" style="stroke:#000000;stroke-width:1.5;"/><line style="stroke:#000000;stroke-width:1.5;" x1="1158" x2="1283.8135" y1="475.2402" y2="475.2402"/><text fill="#000000" font-family="sans-serif" font-size="14" font-weight="700" lengthAdjust="spacing" textLength="112.8135" x="1162" y="468.1641">Persistent model</text></g><!--entity AnalyzeForm--><g class="entity" data-qualified-name="UI domain.AnalyzeForm" data-source-line="6" id="ent0002"><rect fill="#F1F1F1" height="39.1201" rx="2.5" ry="2.5" style="stroke:#181818;stroke-width:0.5;" width="101.6963" x="626" y="84.1201"/><text fill="#000000" font-family="sans-serif" font-size="14" lengthAdjust="spacing" textLength="81.6963" x="636" y="110.1641">Analyze form</text></g><!--entity Options--><g class="entity" data-qualified-name="UI domain.Options" data-source-line="7" id="ent0003"><rect fill="#F1F1F1" height="39.1201" rx="2.5" ry="2.5" style="stroke:#181818;stroke-width:0.5;" width="131.2959" x="763.5" y="84.1201"/><text fill="#000000" font-family="sans-serif" font-size="14" lengthAdjust="spacing" textLength="111.2959" x="773.5" y="110.1641">Download options</text></g><!--entity TaskCenter--><g class="entity" data-qualified-name="UI domain.TaskCenter" data-source-line="8" id="ent0004"><rect fill="#F1F1F1" height="39.1201" rx="2.5" ry="2.5" style="stroke:#181818;stroke-width:0.5;" width="93.1377" x="929.5" y="84.1201"/><text fill="#000000" font-family="sans-serif" font-size="14" lengthAdjust="spacing" textLength="73.1377" x="939.5" y="110.1641">Task center</text></g><!--entity SettingsPanel--><g class="entity" data-qualified-name="UI domain.SettingsPanel" data-source-line="9" id="ent0005"><rect fill="#F1F1F1" height="39.1201" rx="2.5" ry="2.5" style="stroke:#181818;stroke-width:0.5;" width="108.7305" x="1057.5" y="84.1201"/><text fill="#000000" font-family="sans-serif" font-size="14" lengthAdjust="spacing" textLength="88.7305" x="1067.5" y="110.1641">Settings panel</text></g><!--entity Routes--><g class="entity" data-qualified-name="Application services.Routes" data-source-line="13" id="ent0007"><rect fill="#F1F1F1" height="39.1201" rx="2.5" ry="2.5" style="stroke:#181818;stroke-width:0.5;" width="112.5928" x="846.5" y="228.1201"/><text fill="#000000" font-family="sans-serif" font-size="14" lengthAdjust="spacing" textLength="92.5928" x="856.5" y="254.1641">FastAPI routes</text></g><!--entity JobManager--><g class="entity" data-qualified-name="Application services.JobManager" data-source-line="14" id="ent0008"><rect fill="#F1F1F1" height="39.1201" rx="2.5" ry="2.5" style="stroke:#181818;stroke-width:0.5;" width="97.8271" x="673" y="346.1201"/><text fill="#000000" font-family="sans-serif" font-size="14" lengthAdjust="spacing" textLength="77.8271" x="683" y="372.1641">JobManager</text></g><!--entity ReadModel--><g class="entity" data-qualified-name="Application services.ReadModel" data-source-line="15" id="ent0009"><rect fill="#F1F1F1" height="39.1201" rx="2.5" ry="2.5" style="stroke:#181818;stroke-width:0.5;" width="116.5029" x="1000.5" y="346.1201"/><text fill="#000000" font-family="sans-serif" font-size="14" lengthAdjust="spacing" textLength="96.5029" x="1010.5" y="372.1641">Job read model</text></g><!--entity YtDlpService--><g class="entity" data-qualified-name="Application services.YtDlpService" data-source-line="16" id="ent0010"><rect fill="#F1F1F1" height="39.1201" rx="2.5" ry="2.5" style="stroke:#181818;stroke-width:0.5;" width="100.917" x="682.5" y="488.1201"/><text fill="#000000" font-family="sans-serif" font-size="14" lengthAdjust="spacing" textLength="80.917" x="692.5" y="514.1641">YtDlpService</text></g><!--entity Cookies--><g class="entity" data-qualified-name="Application services.Cookies" data-source-line="17" id="ent0011"><rect fill="#F1F1F1" height="39.1201" rx="2.5" ry="2.5" style="stroke:#181818;stroke-width:0.5;" width="167.0479" x="673.5" y="630.1201"/><text fill="#000000" font-family="sans-serif" font-size="14" lengthAdjust="spacing" textLength="147.0479" x="683.5" y="656.1641">BrowserCookieImporter</text></g><!--entity Formats--><g class="entity" data-qualified-name="Domain policies.Formats" data-source-line="21" id="ent0013"><rect fill="#F1F1F1" height="39.1201" rx="2.5" ry="2.5" style="stroke:#181818;stroke-width:0.5;" width="117.248" x="499.5" y="630.1201"/><text fill="#000000" font-family="sans-serif" font-size="14" lengthAdjust="spacing" textLength="97.248" x="509.5" y="656.1641">Format selector</text></g><!--entity Fallback--><g class="entity" data-qualified-name="Domain policies.Fallback" data-source-line="22" id="ent0014"><rect fill="#F1F1F1" height="39.1201" rx="2.5" ry="2.5" style="stroke:#181818;stroke-width:0.5;" width="111.8135" x="22" y="630.1201"/><text fill="#000000" font-family="sans-serif" font-size="14" lengthAdjust="spacing" textLength="91.8135" x="32" y="656.1641">Fallback policy</text></g><!--entity Progress--><g class="entity" data-qualified-name="Domain policies.Progress" data-source-line="23" id="ent0015"><rect fill="#F1F1F1" height="39.1201" rx="2.5" ry="2.5" style="stroke:#181818;stroke-width:0.5;" width="153.8613" x="169" y="630.1201"/><text fill="#000000" font-family="sans-serif" font-size="14" lengthAdjust="spacing" textLength="133.8613" x="179" y="656.1641">Progress aggregation</text></g><!--entity Stats--><g class="entity" data-qualified-name="Domain policies.Stats" data-source-line="24" id="ent0016"><rect fill="#F1F1F1" height="39.1201" rx="2.5" ry="2.5" style="stroke:#181818;stroke-width:0.5;" width="105.5791" x="358" y="630.1201"/><text fill="#000000" font-family="sans-serif" font-size="14" lengthAdjust="spacing" textLength="85.5791" x="368" y="656.1641">Transfer stats</text></g><!--entity Job--><g class="entity" data-qualified-name="Persistent model.Job" data-source-line="28" id="ent0018"><rect fill="#F1F1F1" height="39.1201" rx="2.5" ry="2.5" style="stroke:#181818;stroke-width:0.5;" width="42.5723" x="1174.5" y="488.1201"/><text fill="#000000" font-family="sans-serif" font-size="14" lengthAdjust="spacing" textLength="22.5723" x="1184.5" y="514.1641">Job</text></g><!--entity JobItem--><g class="entity" data-qualified-name="Persistent model.JobItem" data-source-line="29" id="ent0019"><rect fill="#F1F1F1" height="39.1201" rx="2.5" ry="2.5" style="stroke:#181818;stroke-width:0.5;" width="69.7998" x="1174" y="630.1201"/><text fill="#000000" font-family="sans-serif" font-size="14" lengthAdjust="spacing" textLength="49.7998" x="1184" y="656.1641">JobItem</text></g><!--entity JobEvent--><g class="entity" data-qualified-name="Persistent model.JobEvent" data-source-line="30" id="ent0020"><rect fill="#F1F1F1" height="39.1201" rx="2.5" ry="2.5" style="stroke:#181818;stroke-width:0.5;" width="78.3721" x="1279" y="630.1201"/><text fill="#000000" font-family="sans-serif" font-size="14" lengthAdjust="spacing" textLength="58.3721" x="1289" y="656.1641">JobEvent</text></g><!--entity Setting--><g class="entity" data-qualified-name="Persistent model.Setting" data-source-line="31" id="ent0021"><rect fill="#F1F1F1" height="39.1201" rx="2.5" ry="2.5" style="stroke:#181818;stroke-width:0.5;" width="63.5859" x="1253" y="488.1201"/><text fill="#000000" font-family="sans-serif" font-size="14" lengthAdjust="spacing" textLength="43.5859" x="1263" y="514.1641">Setting</text></g><!--link AnalyzeForm to Routes--><g class="link" data-entity-1="ent0002" data-entity-2="ent0007" data-link-type="dependency" data-source-line="34" id="lnk22"><path d="M700.91,123.1401 C720.01,137.6301 747.67,157.9701 773,174.1201 C803.94,193.8501 836.1318,211.6592 862.6118,225.6892" fill="none" id="AnalyzeForm-to-Routes" style="stroke:#181818;stroke-width:1;"/><polygon fill="#181818" points="867.03,228.0301,860.95,220.282,862.6118,225.6892,857.2046,227.351,867.03,228.0301" style="stroke:#181818;stroke-width:1;stroke-linejoin:miter;stroke-miterlimit:10;"/><text fill="#000000" font-family="sans-serif" font-size="13" lengthAdjust="spacing" textLength="74.4263" x="774" y="171.0181">analyze URL</text></g><!--link Options to Routes--><g class="link" data-entity-1="ent0003" data-entity-2="ent0007" data-link-type="dependency" data-source-line="35" id="lnk23"><path d="M838.67,123.1801 C852.86,150.4001 876.83,196.3957 891.01,223.6157" fill="none" id="Options-to-Routes" style="stroke:#181818;stroke-width:1;"/><polygon fill="#181818" points="893.32,228.0501,892.7094,218.2202,891.01,223.6157,885.6144,221.9163,893.32,228.0501" style="stroke:#181818;stroke-width:1;stroke-linejoin:miter;stroke-miterlimit:10;"/><text fill="#000000" font-family="sans-serif" font-size="13" lengthAdjust="spacing" textLength="57.0908" x="864" y="171.0181">create job</text></g><!--link TaskCenter to Routes--><g class="link" data-entity-1="ent0004" data-entity-2="ent0007" data-link-type="dependency" data-source-line="36" id="lnk24"><path d="M966.46,123.1801 C952.47,150.4001 928.8256,196.3831 914.8356,223.6031" fill="none" id="TaskCenter-to-Routes" style="stroke:#181818;stroke-width:1;"/><polygon fill="#181818" points="912.55,228.0501,920.2217,221.8739,914.8356,223.6031,913.1065,218.217,912.55,228.0501" style="stroke:#181818;stroke-width:1;stroke-linejoin:miter;stroke-miterlimit:10;"/><text fill="#000000" font-family="sans-serif" font-size="13" lengthAdjust="spacing" textLength="68.6436" x="949" y="171.0181">task actions</text></g><!--link SettingsPanel to Routes--><g class="link" data-entity-1="ent0005" data-entity-2="ent0007" data-link-type="dependency" data-source-line="37" id="lnk25"><path d="M1090.77,123.2401 C1073.77,137.7901 1049.03,158.1501 1026,174.1201 C997.17,194.1001 967.0123,211.7147 941.8823,225.6547" fill="none" id="SettingsPanel-to-Routes" style="stroke:#181818;stroke-width:1;"/><polygon fill="#181818" points="937.51,228.0801,947.3205,227.2123,941.8823,225.6547,943.4399,220.2165,937.51,228.0801" style="stroke:#181818;stroke-width:1;stroke-linejoin:miter;stroke-miterlimit:10;"/><text fill="#000000" font-family="sans-serif" font-size="13" lengthAdjust="spacing" textLength="91.7617" x="1051" y="171.0181">runtime settings</text></g><!--link Routes to JobManager--><g class="link" data-entity-1="ent0007" data-entity-2="ent0008" data-link-type="dependency" data-source-line="39" id="lnk26"><path d="M846.17,250.9501 C810.02,255.4901 764.91,267.3201 737,297.1201 C724.77,310.1801 721.8462,325.9023 721.4062,340.9423" fill="none" id="Routes-to-JobManager" style="stroke:#181818;stroke-width:1;"/><polygon fill="#181818" points="721.26,345.9401,725.5215,337.0609,721.4062,340.9423,717.5249,336.827,721.26,345.9401" style="stroke:#181818;stroke-width:1;stroke-linejoin:miter;stroke-miterlimit:10;"/><text fill="#000000" font-family="sans-serif" font-size="13" lengthAdjust="spacing" textLength="93.2407" x="738" y="313.0181">enqueue/control</text></g><!--link Routes to ReadModel--><g class="link" data-entity-1="ent0007" data-entity-2="ent0009" data-link-type="dependency" data-source-line="40" id="lnk27"><path d="M928.06,267.2601 C957.18,288.9001 1000.8976,321.4167 1029.9876,343.0467" fill="none" id="Routes-to-ReadModel" style="stroke:#181818;stroke-width:1;"/><polygon fill="#181818" points="1034,346.0301,1029.1645,337.4501,1029.9876,343.0467,1024.391,343.8699,1034,346.0301" style="stroke:#181818;stroke-width:1;stroke-linejoin:miter;stroke-miterlimit:10;"/><text fill="#000000" font-family="sans-serif" font-size="13" lengthAdjust="spacing" textLength="66.479" x="991" y="313.0181">project jobs</text></g><!--link Routes to YtDlpService--><g class="link" data-entity-1="ent0007" data-entity-2="ent0010" data-link-type="dependency" data-source-line="41" id="lnk28"><path d="M893.44,267.2901 C883.8,286.6301 868.96,317.9301 859,346.1201 C845.53,384.2301 859.04,400.9101 836,434.1201 C819.86,457.3901 798.0436,473.2113 776.1236,485.5913" fill="none" id="Routes-to-YtDlpService" style="stroke:#181818;stroke-width:1;"/><polygon fill="#181818" points="771.77,488.0501,781.5736,487.1071,776.1236,485.5913,777.6395,480.1413,771.77,488.0501" style="stroke:#181818;stroke-width:1;stroke-linejoin:miter;stroke-miterlimit:10;"/><text fill="#000000" font-family="sans-serif" font-size="13" lengthAdjust="spacing" textLength="122.8525" x="860" y="372.0181">metadata/diagnostics</text></g><!--link JobManager to YtDlpService--><g class="link" data-entity-1="ent0008" data-entity-2="ent0010" data-link-type="dependency" data-source-line="42" id="lnk29"><path d="M722.92,385.2601 C723.63,398.8201 724.71,417.6201 726,434.1201 C727.42,452.4001 728.9633,468.2569 730.4833,482.8869" fill="none" id="JobManager-to-YtDlpService" style="stroke:#181818;stroke-width:1;"/><polygon fill="#181818" points="731,487.8601,734.0485,478.4949,730.4833,482.8869,726.0914,479.3217,731,487.8601" style="stroke:#181818;stroke-width:1;stroke-linejoin:miter;stroke-miterlimit:10;"/><text fill="#000000" font-family="sans-serif" font-size="13" lengthAdjust="spacing" textLength="104.0762" x="727" y="431.0181">prepare/download</text></g><!--link YtDlpService to Cookies--><g class="link" data-entity-1="ent0010" data-entity-2="ent0011" data-link-type="dependency" data-source-line="43" id="lnk30"><path d="M736.19,527.2101 C740.78,553.9901 748.3548,598.2021 752.9548,625.0221" fill="none" id="YtDlpService-to-Cookies" style="stroke:#181818;stroke-width:1;"/><polygon fill="#181818" points="753.8,629.9501,756.221,620.4035,752.9548,625.0221,748.3362,621.7558,753.8,629.9501" style="stroke:#181818;stroke-width:1;stroke-linejoin:miter;stroke-miterlimit:10;"/><text fill="#000000" font-family="sans-serif" font-size="13" lengthAdjust="spacing" textLength="77.3081" x="745" y="573.0181">cookie import</text></g><!--link YtDlpService to Formats--><g class="link" data-entity-1="ent0010" data-entity-2="ent0013" data-link-type="dependency" data-source-line="44" id="lnk31"><path d="M695.2,527.2801 C679.94,535.5501 662.54,545.9301 648,557.1201 C619.22,579.2801 593.8722,606.5295 576.8822,626.1595" fill="none" id="YtDlpService-to-Formats" style="stroke:#181818;stroke-width:1;"/><polygon fill="#181818" points="573.61,629.9401,582.5244,625.7528,576.8822,626.1595,576.4754,620.5173,573.61,629.9401" style="stroke:#181818;stroke-width:1;stroke-linejoin:miter;stroke-miterlimit:10;"/><text fill="#000000" font-family="sans-serif" font-size="13" lengthAdjust="spacing" textLength="83.8018" x="649" y="573.0181">select streams</text></g><!--link JobManager to Fallback--><g class="link" data-entity-1="ent0008" data-entity-2="ent0014" data-link-type="dependency" data-source-line="45" id="lnk32"><path d="M672.76,367.0001 C551.27,368.9001 241.44,379.8801 163,442.1201 C102.41,490.2001 85.2311,583.7852 80.3311,624.9452" fill="none" id="JobManager-to-Fallback" style="stroke:#181818;stroke-width:1;"/><polygon fill="#181818" points="79.74,629.9101,84.7759,621.4461,80.3311,624.9452,76.832,620.5004,79.74,629.9101" style="stroke:#181818;stroke-width:1;stroke-linejoin:miter;stroke-miterlimit:10;"/><text fill="#000000" font-family="sans-serif" font-size="13" lengthAdjust="spacing" textLength="96.1099" x="164" y="514.0181">reason/message</text></g><!--link JobManager to Progress--><g class="link" data-entity-1="ent0008" data-entity-2="ent0015" data-link-type="dependency" data-source-line="46" id="lnk33"><path d="M672.69,369.9801 C577.98,377.3601 375.35,397.9801 323,442.1201 C264.64,491.3201 250.8962,584.2675 247.4862,625.0875" fill="none" id="JobManager-to-Progress" style="stroke:#181818;stroke-width:1;"/><polygon fill="#181818" points="247.07,630.0701,251.8053,621.4343,247.4862,625.0875,243.8331,620.7684,247.07,630.0701" style="stroke:#181818;stroke-width:1;stroke-linejoin:miter;stroke-miterlimit:10;"/><text fill="#000000" font-family="sans-serif" font-size="13" lengthAdjust="spacing" textLength="132.9517" x="324" y="514.0181">aggregate raw streams</text></g><!--link JobManager to Stats--><g class="link" data-entity-1="ent0008" data-entity-2="ent0016" data-link-type="dependency" data-source-line="47" id="lnk34"><path d="M672.73,376.8901 C631.6,387.5001 573.38,407.5101 533,442.1201 C470.4,495.7701 433.34,585.2544 419,625.1844" fill="none" id="JobManager-to-Stats" style="stroke:#181818;stroke-width:1;"/><polygon fill="#181818" points="417.31,629.8901,424.1165,622.7718,419,625.1844,416.5873,620.0678,417.31,629.8901" style="stroke:#181818;stroke-width:1;stroke-linejoin:miter;stroke-miterlimit:10;"/><text fill="#000000" font-family="sans-serif" font-size="13" lengthAdjust="spacing" textLength="130.0825" x="534" y="514.0181">current/average speed</text></g><!--link Job to JobItem--><g class="link" data-entity-1="ent0018" data-entity-2="ent0019" data-link-type="dependency" data-source-line="49" id="lnk35"><path d="M1197.73,527.2101 C1200.21,553.9901 1204.3178,598.1515 1206.8078,624.9715" fill="none" id="Job-to-JobItem" style="stroke:#181818;stroke-width:1;"/><polygon fill="#181818" points="1207.27,629.9501,1210.4209,620.6189,1206.8078,624.9715,1202.4551,621.3584,1207.27,629.9501" style="stroke:#181818;stroke-width:1;stroke-linejoin:miter;stroke-miterlimit:10;"/><text fill="#000000" font-family="sans-serif" font-size="13" lengthAdjust="spacing" textLength="48.4199" x="1203" y="573.0181">contains</text></g><!--link Job to JobEvent--><g class="link" data-entity-1="ent0018" data-entity-2="ent0020" data-link-type="dependency" data-source-line="50" id="lnk36"><path d="M1217.73,522.2001 C1230.92,531.1001 1247.54,543.5801 1260,557.1201 C1280.75,579.6801 1296.268,606.182 1306.488,625.672" fill="none" id="Job-to-JobEvent" style="stroke:#181818;stroke-width:1;"/><polygon fill="#181818" points="1308.81,630.1001,1308.1729,620.2719,1306.488,625.672,1301.0879,623.9871,1308.81,630.1001" style="stroke:#181818;stroke-width:1;stroke-linejoin:miter;stroke-miterlimit:10;"/><text fill="#000000" font-family="sans-serif" font-size="13" lengthAdjust="spacing" textLength="31.0591" x="1276" y="573.0181">emits</text></g><!--link Setting to Routes--><g class="link" data-entity-1="ent0021" data-entity-2="ent0007" data-link-type="dependency" data-source-line="51" id="lnk37"><path d="M1271.96,487.8601 C1241.46,445.6601 1160.84,343.3301 1066,297.1201 C1032.29,280.7001 996.7622,269.8368 964.6322,261.8468" fill="none" id="Setting-to-Routes" style="stroke:#181818;stroke-width:1;stroke-dasharray:7,7;"/><polygon fill="#181818" points="959.78,260.6401,967.5487,266.6938,964.6322,261.8468,969.4793,258.9303,959.78,260.6401" style="stroke:#181818;stroke-width:1;stroke-linejoin:miter;stroke-miterlimit:10;"/><text fill="#000000" font-family="sans-serif" font-size="13" lengthAdjust="spacing" textLength="130.7998" x="1184" y="372.0181">persisted configuration</text></g><!--link ReadModel to Job--><g class="link" data-entity-1="ent0009" data-entity-2="ent0018" data-link-type="dependency" data-source-line="52" id="lnk38"><path d="M1081.95,385.3101 C1092.33,394.0601 1104.58,404.8101 1115,415.1201 C1139.28,439.1401 1161.8593,465.2988 1177.6493,484.2488" fill="none" id="ReadModel-to-Job" style="stroke:#181818;stroke-width:1;"/><polygon fill="#181818" points="1180.85,488.0901,1178.1617,478.6152,1177.6493,484.2488,1172.0157,483.7364,1180.85,488.0901" style="stroke:#181818;stroke-width:1;stroke-linejoin:miter;stroke-miterlimit:10;"/></g><!--link ReadModel to JobItem--><g class="link" data-entity-1="ent0009" data-entity-2="ent0019" data-link-type="dependency" data-source-line="53" id="lnk39"><path d="M1068.84,385.1201 C1096.02,436.2201 1169.5522,574.4556 1196.7722,625.6356" fill="none" id="ReadModel-to-JobItem" style="stroke:#181818;stroke-width:1;"/><polygon fill="#181818" points="1199.12,630.0501,1198.4255,620.2258,1196.7722,625.6356,1191.3623,623.9823,1199.12,630.0501" style="stroke:#181818;stroke-width:1;stroke-linejoin:miter;stroke-miterlimit:10;"/></g><!--link JobManager to Job--><g class="link" data-entity-1="ent0008" data-entity-2="ent0018" data-link-type="dependency" data-source-line="54" id="lnk40"><path d="M771.35,379.1701 C780.2,381.2701 789.36,383.3401 798,385.1201 C816.54,388.9401 1117.26,433.2701 1134,442.1201 C1154.46,452.9401 1169.0979,469.0217 1180.2779,483.9117" fill="none" id="JobManager-to-Job" style="stroke:#181818;stroke-width:1;"/><polygon fill="#181818" points="1183.28,487.9101,1181.0748,478.3113,1180.2779,483.9117,1174.6774,483.1147,1183.28,487.9101" style="stroke:#181818;stroke-width:1;stroke-linejoin:miter;stroke-miterlimit:10;"/></g><!--link JobManager to JobItem--><g class="link" data-entity-1="ent0008" data-entity-2="ent0019" data-link-type="dependency" data-source-line="55" id="lnk41"><path d="M771.15,385.1401 C792.58,393.6501 817.83,404.2501 840,415.1201 C975.33,481.4701 1010.98,497.0401 1134,584.1201 C1153.9,598.2101 1171.122,613.123 1185.792,626.633" fill="none" id="JobManager-to-JobItem" style="stroke:#181818;stroke-width:1;"/><polygon fill="#181818" points="1189.47,630.0201,1185.5594,620.9809,1185.792,626.633,1180.14,626.8656,1189.47,630.0201" style="stroke:#181818;stroke-width:1;stroke-linejoin:miter;stroke-miterlimit:10;"/></g><?plantuml-src TLJ1Rjim3BtxAuXUXpOOi5CE0xAc1JAqM92i0uPX1zPcF3Mof4bAWcpOlu-KvCHkjbD4lYVwaNnAL54Jl7lp5XvigshKy4NHeGfRPHnwxA2sdRE6J5p78pCzrH5Dgsb02J-miGTbMjYW3bHL3kijjWHNJmjeR8VANC7l2k3RpA0-_YBOMDzz1mnG4lSS2pwt1wCjDc1TLDQ4nFcKpu9_nh25ciMGJv34joaKT4qniee03WtfHEXJIybKVmRIPivfxbTAGo2_LpM5el8UGvmj5-3jBbBMi4f70J_QvqSqN28hE8S5v0cn_iusHS6AmqU91FyQvzgjyzSIEam8uOEt1rPpQ-rMqO8dx_jMSogCUfYdsOApt8awo-TXOkIcDE_Avjiv5t9tMZzpXNpjcE6I4tpfRUif1C2MVziqeKJgWRG8ZoPio4E8N3QFMauZUKloGON8-ydpAFfuIFteIhY8rFKfEPVqtPwlzlaK3BOyNAzyTU0akBv-NpO6Ky3YkQVLGrMiD2RKlB58yC9opduQKwBu3klimv6dnZo_Cr5rnBFFbAegaB3ELc4ccPyxsj6ajYPwguUyasEOvhnzuIsAk33a37t3j8uYDXXnqYXiZGrHrQ4QVEyVLvmdVhqqQSgJgqQuN2YEamcb4wZanqjYCHSJi-VO53pIxaB1oNbJUIJ1cad7TcBuDV5amUd9XFpFWuV_5KxM4vqxxtbx4zoJ5mS6HzHKmkuN8EvA3Pd8BoSCeMGmsKoducd9S7CpMAyhXcwam4QrEvzUHtNUMAbrcKcsVYLRY9SfOVu5?></g></svg>