<svg xmlns="http://www.w3.org/2000/svg" xmlns:xlink="http://www.w3.org/1999/xlink" contentStyleType="text/css" data-diagram-type="ACTIVITY" height="1404px" preserveAspectRatio="none" style="width:839px;height:1404px;background:#FFFFFF;" version="1.1" viewBox="0 0 839 1404" width="839px" zoomAndPan="magnify"><?plantuml $version$?><defs/><g><g class="title" data-source-line="1"><text fill="#000000" font-family="sans-serif" font-size="14" font-weight="700" lengthAdjust="spacing" textLength="117.9131" x="359.938" y="36.0439">4+1 Process View</text></g><ellipse cx="426.8945" cy="65.1201" fill="#222222" rx="10" ry="10" style="stroke:#222222;stroke-width:1;"/><rect fill="#F1F1F1" height="36.3887" rx="12.5" ry="12.5" style="stroke:#181818;stroke-width:0.5;" width="248.1055" x="302.8418" y="95.1201"/><text fill="#000000" font-family="sans-serif" font-size="12" lengthAdjust="spacing" textLength="228.1055" x="312.8418" y="118.8721">User changes URL/options or task controls</text><rect fill="#555555" height="6" rx="2.5" ry="2.5" style="stroke:#555555;stroke-width:1;" width="803.7891" x="16" y="151.5088"/><rect fill="#F1F1F1" height="36.3887" rx="12.5" ry="12.5" style="stroke:#181818;stroke-width:0.5;" width="180.0605" x="233.8228" y="177.5088"/><text fill="#000000" font-family="sans-serif" font-size="12" lengthAdjust="spacing" textLength="160.0605" x="243.8228" y="201.2607">React UI sends HTTP request</text><rect fill="#F1F1F1" height="36.3887" rx="12.5" ry="12.5" style="stroke:#181818;stroke-width:0.5;" width="158.7266" x="244.4897" y="233.8975"/><text fill="#000000" font-family="sans-serif" font-size="12" lengthAdjust="spacing" textLength="138.7266" x="254.4897" y="257.6494">FastAPI validates schema</text><polygon fill="#F1F1F1" points="283.4893,290.2861,364.2168,290.2861,376.2168,302.2861,364.2168,314.2861,283.4893,314.2861,271.4893,302.2861,283.4893,290.2861" style="stroke:#181818;stroke-width:0.5;stroke-linejoin:miter;stroke-miterlimit:10;"/><text fill="#000000" font-family="sans-serif" font-size="11" lengthAdjust="spacing" textLength="80.7275" x="283.4893" y="307.3806">settings update?</text><text fill="#000000" font-family="sans-serif" font-size="11" lengthAdjust="spacing" textLength="17.1177" x="254.3716" y="299.8691">yes</text><text fill="#000000" font-family="sans-serif" font-size="11" lengthAdjust="spacing" textLength="47.0884" x="376.2168" y="299.8691">job action</text><rect fill="#F1F1F1" height="36.3887" rx="12.5" ry="12.5" style="stroke:#181818;stroke-width:0.5;" width="97.3672" x="122.415" y="324.2861"/><text fill="#000000" font-family="sans-serif" font-size="12" lengthAdjust="spacing" textLength="77.3672" x="132.415" y="348.0381">Persist Setting</text><rect fill="#F1F1F1" height="36.3887" rx="12.5" ry="12.5" style="stroke:#181818;stroke-width:0.5;" width="161.3867" x="90.4053" y="395.6748"/><text fill="#000000" font-family="sans-serif" font-size="12" lengthAdjust="spacing" textLength="141.3867" x="100.4053" y="419.4268">Adjust worker concurrency</text><rect fill="#F1F1F1" height="36.3887" rx="12.5" ry="12.5" style="stroke:#181818;stroke-width:0.5;" width="286.1973" x="28" y="467.0635"/><text fill="#000000" font-family="sans-serif" font-size="12" lengthAdjust="spacing" textLength="266.1973" x="38" y="490.8154">Update queued/running/paused DownloadOptions</text><rect fill="#F1F1F1" height="36.3887" rx="12.5" ry="12.5" style="stroke:#181818;stroke-width:0.5;" width="226.1094" x="58.0439" y="587.9636"/><text fill="#000000" font-family="sans-serif" font-size="12" lengthAdjust="spacing" textLength="206.1094" x="68.0439" y="611.7156">Signal current yt-dlp instance to cancel</text><rect fill="#F1F1F1" height="36.3887" rx="12.5" ry="12.5" style="stroke:#181818;stroke-width:0.5;" width="222.1367" x="60.0303" y="659.3523"/><text fill="#000000" font-family="sans-serif" font-size="12" lengthAdjust="spacing" textLength="202.1367" x="70.0303" y="683.1042">Requeue item for continued download</text><polygon fill="#F1F1F1" points="66.8457,538.4521,275.3516,538.4521,287.3516,550.4521,275.3516,562.4521,66.8457,562.4521,54.8457,550.4521,66.8457,538.4521" style="stroke:#181818;stroke-width:0.5;stroke-linejoin:miter;stroke-miterlimit:10;"/><text fill="#000000" font-family="sans-serif" font-size="11" lengthAdjust="spacing" textLength="17.1177" x="175.0986" y="575.0581">yes</text><text fill="#000000" font-family="sans-serif" font-size="11" lengthAdjust="spacing" textLength="208.5059" x="66.8457" y="555.5466">current item uses changed runtime option?</text><polygon fill="#F1F1F1" points="171.0986,715.741,183.0986,727.741,171.0986,739.741,159.0986,727.741,171.0986,715.741" style="stroke:#181818;stroke-width:0.5;stroke-linejoin:miter;stroke-miterlimit:10;"/><rect fill="#F1F1F1" height="36.3887" rx="12.5" ry="12.5" style="stroke:#181818;stroke-width:0.5;" width="284.8203" x="334.1973" y="324.2861"/><text fill="#000000" font-family="sans-serif" font-size="12" lengthAdjust="spacing" textLength="264.8203" x="344.1973" y="348.0381">Create, pause, restart, delete, play, or open folder</text><polygon fill="#F1F1F1" points="323.853,745.741,335.853,757.741,323.853,769.741,311.853,757.741,323.853,745.741" style="stroke:#181818;stroke-width:0.5;stroke-linejoin:miter;stroke-miterlimit:10;"/><rect fill="#F1F1F1" height="36.3887" rx="12.5" ry="12.5" style="stroke:#181818;stroke-width:0.5;" width="178.7598" x="629.0234" y="371.7976"/><text fill="#000000" font-family="sans-serif" font-size="12" lengthAdjust="spacing" textLength="158.7598" x="639.0234" y="395.5496">EventSource stays connected</text><rect fill="#F1F1F1" height="36.3887" rx="12.5" ry="12.5" style="stroke:#181818;stroke-width:0.5;" width="178.7715" x="629.0176" y="443.1863"/><text fill="#000000" font-family="sans-serif" font-size="12" lengthAdjust="spacing" textLength="158.7715" x="639.0176" y="466.9382">Backend publishes job events</text><rect fill="#F1F1F1" height="36.3887" rx="12.5" ry="12.5" style="stroke:#181818;stroke-width:0.5;" width="133.3848" x="651.7109" y="514.575"/><text fill="#000000" font-family="sans-serif" font-size="12" lengthAdjust="spacing" textLength="113.3848" x="661.7109" y="538.3269">UI refreshes /api/jobs</text><rect fill="#555555" height="6" rx="2.5" ry="2.5" style="stroke:#555555;stroke-width:1;" width="803.7891" x="16" y="789.741"/><polygon fill="#F1F1F1" points="381.0281,815.741,472.761,815.741,484.761,827.741,472.761,839.741,381.0281,839.741,369.0281,827.741,381.0281,815.741" style="stroke:#181818;stroke-width:0.5;stroke-linejoin:miter;stroke-miterlimit:10;"/><text fill="#000000" font-family="sans-serif" font-size="11" lengthAdjust="spacing" textLength="91.7329" x="381.0281" y="832.8354">queued job exists?</text><text fill="#000000" font-family="sans-serif" font-size="11" lengthAdjust="spacing" textLength="17.1177" x="351.9104" y="825.324">yes</text><text fill="#000000" font-family="sans-serif" font-size="11" lengthAdjust="spacing" textLength="12.2354" x="484.761" y="825.324">no</text><rect fill="#F1F1F1" height="36.3887" rx="12.5" ry="12.5" style="stroke:#181818;stroke-width:0.5;" width="236.082" x="207.8169" y="849.741"/><text fill="#000000" font-family="sans-serif" font-size="12" lengthAdjust="spacing" textLength="216.082" x="217.8169" y="873.4929">Worker picks job respecting concurrency</text><rect fill="#F1F1F1" height="36.3887" rx="12.5" ry="12.5" style="stroke:#181818;stroke-width:0.5;" width="136.0508" x="257.8325" y="950.1296"/><text fill="#000000" font-family="sans-serif" font-size="12" lengthAdjust="spacing" textLength="116.0508" x="267.8325" y="973.8816">Mark JobItem running</text><rect fill="#F1F1F1" height="36.3887" rx="12.5" ry="12.5" style="stroke:#181818;stroke-width:0.5;" width="232.7832" x="209.4663" y="1006.5183"/><text fill="#000000" font-family="sans-serif" font-size="12" lengthAdjust="spacing" textLength="212.7832" x="219.4663" y="1030.2703">Prepare planned format, size, resolution</text><rect fill="#F1F1F1" height="36.3887" rx="12.5" ry="12.5" style="stroke:#181818;stroke-width:0.5;" width="232.7656" x="209.4751" y="1062.907"/><text fill="#000000" font-family="sans-serif" font-size="12" lengthAdjust="spacing" textLength="212.7656" x="219.4751" y="1086.6589">Run yt-dlp download with retries/profiles</text><rect fill="#F1F1F1" height="36.3887" rx="12.5" ry="12.5" style="stroke:#181818;stroke-width:0.5;" width="188.0762" x="231.8198" y="1119.2957"/><text fill="#000000" font-family="sans-serif" font-size="12" lengthAdjust="spacing" textLength="168.0762" x="241.8198" y="1143.0476">Aggregate raw stream progress</text><rect fill="#F1F1F1" height="36.3887" rx="12.5" ry="12.5" style="stroke:#181818;stroke-width:0.5;" width="168.7402" x="241.4878" y="1175.6843"/><text fill="#000000" font-family="sans-serif" font-size="12" lengthAdjust="spacing" textLength="148.7402" x="251.4878" y="1199.4363">Persist progress and events</text><polygon fill="#F1F1F1" points="325.8579,906.1296,337.8579,918.1296,325.8579,930.1296,313.8579,918.1296,325.8579,906.1296" style="stroke:#181818;stroke-width:0.5;stroke-linejoin:miter;stroke-miterlimit:10;"/><polygon fill="#F1F1F1" points="295.5999,1232.073,356.116,1232.073,368.116,1244.073,356.116,1256.073,295.5999,1256.073,283.5999,1244.073,295.5999,1232.073" style="stroke:#181818;stroke-width:0.5;stroke-linejoin:miter;stroke-miterlimit:10;"/><text fill="#000000" font-family="sans-serif" font-size="11" lengthAdjust="spacing" textLength="60.5161" x="295.5999" y="1249.1675">more items?</text><text fill="#000000" font-family="sans-serif" font-size="11" lengthAdjust="spacing" textLength="17.1177" x="368.116" y="1241.656">yes</text><rect fill="#F1F1F1" height="36.3887" rx="12.5" ry="12.5" style="stroke:#181818;stroke-width:0.5;" width="137.3926" x="257.1616" y="1276.073"/><text fill="#000000" font-family="sans-serif" font-size="12" lengthAdjust="spacing" textLength="117.3926" x="267.1616" y="1299.825">Project final job status</text><rect fill="#F1F1F1" height="36.3887" rx="12.5" ry="12.5" style="stroke:#181818;stroke-width:0.5;" width="83.3633" x="486.2495" y="849.741"/><text fill="#000000" font-family="sans-serif" font-size="12" lengthAdjust="spacing" textLength="63.3633" x="496.2495" y="873.4929">Remain idle</text><polygon fill="#F1F1F1" points="426.8945,1318.4617,438.8945,1330.4617,426.8945,1342.4617,414.8945,1330.4617,426.8945,1318.4617" style="stroke:#181818;stroke-width:0.5;stroke-linejoin:miter;stroke-miterlimit:10;"/><ellipse cx="426.8945" cy="1373.4617" fill="none" rx="11" ry="11" style="stroke:#222222;stroke-width:1;"/><ellipse cx="426.8945" cy="1373.4617" fill="#222222" rx="6" ry="6" style="stroke:#222222;stroke-width:1;"/><line style="stroke:#181818;stroke-width:1;" x1="426.8945" x2="426.8945" y1="75.1201" y2="95.1201"/><polygon fill="#181818" points="422.8945,85.1201,426.8945,95.1201,430.8945,85.1201,426.8945,89.1201" style="stroke:#181818;stroke-width:1;stroke-linejoin:miter;stroke-miterlimit:10;"/><line style="stroke:#181818;stroke-width:1;" x1="323.853" x2="323.853" y1="213.8975" y2="233.8975"/><polygon fill="#181818" points="319.853,223.8975,323.853,233.8975,327.853,223.8975,323.853,227.8975" style="stroke:#181818;stroke-width:1;stroke-linejoin:miter;stroke-miterlimit:10;"/><line style="stroke:#181818;stroke-width:1;" x1="171.0986" x2="171.0986" y1="360.6748" y2="395.6748"/><polygon fill="#181818" points="167.0986,385.6748,171.0986,395.6748,175.0986,385.6748,171.0986,389.6748" style="stroke:#181818;stroke-width:1;stroke-linejoin:miter;stroke-miterlimit:10;"/><line style="stroke:#181818;stroke-width:1;" x1="171.0986" x2="171.0986" y1="432.0635" y2="467.0635"/><polygon fill="#181818" points="167.0986,457.0635,171.0986,467.0635,175.0986,457.0635,171.0986,461.0635" style="stroke:#181818;stroke-width:1;stroke-linejoin:miter;stroke-miterlimit:10;"/><line style="stroke:#181818;stroke-width:1;" x1="171.0986" x2="171.0986" y1="624.3523" y2="659.3523"/><polygon fill="#181818" points="167.0986,649.3523,171.0986,659.3523,175.0986,649.3523,171.0986,653.3523" style="stroke:#181818;stroke-width:1;stroke-linejoin:miter;stroke-miterlimit:10;"/><line style="stroke:#181818;stroke-width:1;" x1="171.0986" x2="171.0986" y1="562.4521" y2="587.9636"/><polygon fill="#181818" points="167.0986,577.9636,171.0986,587.9636,175.0986,577.9636,171.0986,581.9636" style="stroke:#181818;stroke-width:1;stroke-linejoin:miter;stroke-miterlimit:10;"/><line style="stroke:#181818;stroke-width:1;" x1="287.3516" x2="299.3516" y1="550.4521" y2="550.4521"/><polygon fill="#181818" points="295.3516,631.8523,299.3516,641.8523,303.3516,631.8523,299.3516,635.8523" style="stroke:#181818;stroke-width:1;stroke-linejoin:miter;stroke-miterlimit:10;"/><line style="stroke:#181818;stroke-width:1;" x1="299.3516" x2="299.3516" y1="550.4521" y2="727.741"/><line style="stroke:#181818;stroke-width:1;" x1="299.3516" x2="183.0986" y1="727.741" y2="727.741"/><polygon fill="#181818" points="193.0986,723.741,183.0986,727.741,193.0986,731.741,189.0986,727.741" style="stroke:#181818;stroke-width:1;stroke-linejoin:miter;stroke-miterlimit:10;"/><line style="stroke:#181818;stroke-width:1;" x1="171.0986" x2="171.0986" y1="695.741" y2="715.741"/><polygon fill="#181818" points="167.0986,705.741,171.0986,715.741,175.0986,705.741,171.0986,709.741" style="stroke:#181818;stroke-width:1;stroke-linejoin:miter;stroke-miterlimit:10;"/><line style="stroke:#181818;stroke-width:1;" x1="171.0986" x2="171.0986" y1="503.4521" y2="538.4521"/><polygon fill="#181818" points="167.0986,528.4521,171.0986,538.4521,175.0986,528.4521,171.0986,532.4521" style="stroke:#181818;stroke-width:1;stroke-linejoin:miter;stroke-miterlimit:10;"/><line style="stroke:#181818;stroke-width:1;" x1="271.4893" x2="171.0986" y1="302.2861" y2="302.2861"/><line style="stroke:#181818;stroke-width:1;" x1="171.0986" x2="171.0986" y1="302.2861" y2="324.2861"/><polygon fill="#181818" points="167.0986,314.2861,171.0986,324.2861,175.0986,314.2861,171.0986,318.2861" style="stroke:#181818;stroke-width:1;stroke-linejoin:miter;stroke-miterlimit:10;"/><line style="stroke:#181818;stroke-width:1;" x1="376.2168" x2="476.6074" y1="302.2861" y2="302.2861"/><line style="stroke:#181818;stroke-width:1;" x1="476.6074" x2="476.6074" y1="302.2861" y2="324.2861"/><polygon fill="#181818" points="472.6074,314.2861,476.6074,324.2861,480.6074,314.2861,476.6074,318.2861" style="stroke:#181818;stroke-width:1;stroke-linejoin:miter;stroke-miterlimit:10;"/><line style="stroke:#181818;stroke-width:1;" x1="171.0986" x2="171.0986" y1="739.741" y2="757.741"/><line style="stroke:#181818;stroke-width:1;" x1="171.0986" x2="311.853" y1="757.741" y2="757.741"/><polygon fill="#181818" points="301.853,753.741,311.853,757.741,301.853,761.741,305.853,757.741" style="stroke:#181818;stroke-width:1;stroke-linejoin:miter;stroke-miterlimit:10;"/><line style="stroke:#181818;stroke-width:1;" x1="476.6074" x2="476.6074" y1="360.6748" y2="757.741"/><line style="stroke:#181818;stroke-width:1;" x1="476.6074" x2="335.853" y1="757.741" y2="757.741"/><polygon fill="#181818" points="345.853,753.741,335.853,757.741,345.853,761.741,341.853,757.741" style="stroke:#181818;stroke-width:1;stroke-linejoin:miter;stroke-miterlimit:10;"/><line style="stroke:#181818;stroke-width:1;" x1="323.853" x2="323.853" y1="270.2861" y2="290.2861"/><polygon fill="#181818" points="319.853,280.2861,323.853,290.2861,327.853,280.2861,323.853,284.2861" style="stroke:#181818;stroke-width:1;stroke-linejoin:miter;stroke-miterlimit:10;"/><line style="stroke:#181818;stroke-width:1;" x1="718.4033" x2="718.4033" y1="408.1863" y2="443.1863"/><polygon fill="#181818" points="714.4033,433.1863,718.4033,443.1863,722.4033,433.1863,718.4033,437.1863" style="stroke:#181818;stroke-width:1;stroke-linejoin:miter;stroke-miterlimit:10;"/><line style="stroke:#181818;stroke-width:1;" x1="718.4033" x2="718.4033" y1="479.575" y2="514.575"/><polygon fill="#181818" points="714.4033,504.575,718.4033,514.575,722.4033,504.575,718.4033,508.575" style="stroke:#181818;stroke-width:1;stroke-linejoin:miter;stroke-miterlimit:10;"/><line style="stroke:#181818;stroke-width:1;" x1="323.853" x2="323.853" y1="157.5088" y2="177.5088"/><polygon fill="#181818" points="319.853,167.5088,323.853,177.5088,327.853,167.5088,323.853,171.5088" style="stroke:#181818;stroke-width:1;stroke-linejoin:miter;stroke-miterlimit:10;"/><line style="stroke:#181818;stroke-width:1;" x1="718.4033" x2="718.4033" y1="157.5088" y2="371.7976"/><polygon fill="#181818" points="714.4033,361.7976,718.4033,371.7976,722.4033,361.7976,718.4033,365.7976" style="stroke:#181818;stroke-width:1;stroke-linejoin:miter;stroke-miterlimit:10;"/><line style="stroke:#181818;stroke-width:1;" x1="323.853" x2="323.853" y1="769.741" y2="789.741"/><polygon fill="#181818" points="319.853,779.741,323.853,789.741,327.853,779.741,323.853,783.741" style="stroke:#181818;stroke-width:1;stroke-linejoin:miter;stroke-miterlimit:10;"/><line style="stroke:#181818;stroke-width:1;" x1="718.4033" x2="718.4033" y1="550.9636" y2="789.741"/><polygon fill="#181818" points="714.4033,779.741,718.4033,789.741,722.4033,779.741,718.4033,783.741" style="stroke:#181818;stroke-width:1;stroke-linejoin:miter;stroke-miterlimit:10;"/><line style="stroke:#181818;stroke-width:1;" x1="426.8945" x2="426.8945" y1="131.5088" y2="151.5088"/><polygon fill="#181818" points="422.8945,141.5088,426.8945,151.5088,430.8945,141.5088,426.8945,145.5088" style="stroke:#181818;stroke-width:1;stroke-linejoin:miter;stroke-miterlimit:10;"/><line style="stroke:#181818;stroke-width:1;" x1="325.8579" x2="325.8579" y1="986.5183" y2="1006.5183"/><polygon fill="#181818" points="321.8579,996.5183,325.8579,1006.5183,329.8579,996.5183,325.8579,1000.5183" style="stroke:#181818;stroke-width:1;stroke-linejoin:miter;stroke-miterlimit:10;"/><line style="stroke:#181818;stroke-width:1;" x1="325.8579" x2="325.8579" y1="1042.907" y2="1062.907"/><polygon fill="#181818" points="321.8579,1052.907,325.8579,1062.907,329.8579,1052.907,325.8579,1056.907" style="stroke:#181818;stroke-width:1;stroke-linejoin:miter;stroke-miterlimit:10;"/><line style="stroke:#181818;stroke-width:1;" x1="325.8579" x2="325.8579" y1="1099.2957" y2="1119.2957"/><polygon fill="#181818" points="321.8579,1109.2957,325.8579,1119.2957,329.8579,1109.2957,325.8579,1113.2957" style="stroke:#181818;stroke-width:1;stroke-linejoin:miter;stroke-miterlimit:10;"/><line style="stroke:#181818;stroke-width:1;" x1="325.8579" x2="325.8579" y1="1155.6843" y2="1175.6843"/><polygon fill="#181818" points="321.8579,1165.6843,325.8579,1175.6843,329.8579,1165.6843,325.8579,1169.6843" style="stroke:#181818;stroke-width:1;stroke-linejoin:miter;stroke-miterlimit:10;"/><line style="stroke:#181818;stroke-width:1;" x1="325.8579" x2="325.8579" y1="930.1296" y2="950.1296"/><polygon fill="#181818" points="321.8579,940.1296,325.8579,950.1296,329.8579,940.1296,325.8579,944.1296" style="stroke:#181818;stroke-width:1;stroke-linejoin:miter;stroke-miterlimit:10;"/><line style="stroke:#181818;stroke-width:1;" x1="368.116" x2="454.2495" y1="1244.073" y2="1244.073"/><polygon fill="#181818" points="450.2495,1091.1013,454.2495,1081.1013,458.2495,1091.1013,454.2495,1087.1013" style="stroke:#181818;stroke-width:1;stroke-linejoin:miter;stroke-miterlimit:10;"/><line style="stroke:#181818;stroke-width:1;" x1="454.2495" x2="454.2495" y1="918.1296" y2="1244.073"/><line style="stroke:#181818;stroke-width:1;" x1="454.2495" x2="337.8579" y1="918.1296" y2="918.1296"/><polygon fill="#181818" points="347.8579,914.1296,337.8579,918.1296,347.8579,922.1296,343.8579,918.1296" style="stroke:#181818;stroke-width:1;stroke-linejoin:miter;stroke-miterlimit:10;"/><line style="stroke:#181818;stroke-width:1;" x1="325.8579" x2="325.8579" y1="1212.073" y2="1232.073"/><polygon fill="#181818" points="321.8579,1222.073,325.8579,1232.073,329.8579,1222.073,325.8579,1226.073" style="stroke:#181818;stroke-width:1;stroke-linejoin:miter;stroke-miterlimit:10;"/><line style="stroke:#181818;stroke-width:1;" x1="325.8579" x2="325.8579" y1="886.1296" y2="906.1296"/><polygon fill="#181818" points="321.8579,896.1296,325.8579,906.1296,329.8579,896.1296,325.8579,900.1296" style="stroke:#181818;stroke-width:1;stroke-linejoin:miter;stroke-miterlimit:10;"/><line style="stroke:#181818;stroke-width:1;" x1="325.8579" x2="325.8579" y1="1256.073" y2="1276.073"/><polygon fill="#181818" points="321.8579,1266.073,325.8579,1276.073,329.8579,1266.073,325.8579,1270.073" style="stroke:#181818;stroke-width:1;stroke-linejoin:miter;stroke-miterlimit:10;"/><line style="stroke:#181818;stroke-width:1;" x1="369.0281" x2="325.8579" y1="827.741" y2="827.741"/><line style="stroke:#181818;stroke-width:1;" x1="325.8579" x2="325.8579" y1="827.741" y2="849.741"/><polygon fill="#181818" points="321.8579,839.741,325.8579,849.741,329.8579,839.741,325.8579,843.741" style="stroke:#181818;stroke-width:1;stroke-linejoin:miter;stroke-miterlimit:10;"/><line style="stroke:#181818;stroke-width:1;" x1="484.761" x2="527.9312" y1="827.741" y2="827.741"/><line style="stroke:#181818;stroke-width:1;" x1="527.9312" x2="527.9312" y1="827.741" y2="849.741"/><polygon fill="#181818" points="523.9312,839.741,527.9312,849.741,531.9312,839.741,527.9312,843.741" style="stroke:#181818;stroke-width:1;stroke-linejoin:miter;stroke-miterlimit:10;"/><line style="stroke:#181818;stroke-width:1;" x1="325.8579" x2="325.8579" y1="1312.4617" y2="1330.4617"/><line style="stroke:#181818;stroke-width:1;" x1="325.8579" x2="414.8945" y1="1330.4617" y2="1330.4617"/><polygon fill="#181818" points="404.8945,1326.4617,414.8945,1330.4617,404.8945,1334.4617,408.8945,1330.4617" style="stroke:#181818;stroke-width:1;stroke-linejoin:miter;stroke-miterlimit:10;"/><line style="stroke:#181818;stroke-width:1;" x1="527.9312" x2="527.9312" y1="886.1296" y2="1330.4617"/><line style="stroke:#181818;stroke-width:1;" x1="527.9312" x2="438.8945" y1="1330.4617" y2="1330.4617"/><polygon fill="#181818" points="448.8945,1326.4617,438.8945,1330.4617,448.8945,1334.4617,444.8945,1330.4617" style="stroke:#181818;stroke-width:1;stroke-linejoin:miter;stroke-miterlimit:10;"/><line style="stroke:#181818;stroke-width:1;" x1="426.8945" x2="426.8945" y1="795.741" y2="815.741"/><polygon fill="#181818" points="422.8945,805.741,426.8945,815.741,430.8945,805.741,426.8945,809.741" style="stroke:#181818;stroke-width:1;stroke-linejoin:miter;stroke-miterlimit:10;"/><line style="stroke:#181818;stroke-width:1;" x1="426.8945" x2="426.8945" y1="1342.4617" y2="1362.4617"/><polygon fill="#181818" points="422.8945,1352.4617,426.8945,1362.4617,430.8945,1352.4617,426.8945,1356.4617" style="stroke:#181818;stroke-width:1;stroke-linejoin:miter;stroke-miterlimit:10;"/><?plantuml-src PPDDZzCm48Rl-HLpx8gY2ebJUq3BboW2KRLREBln9F7MiOt7sL1-FQ_ZH2ijDylpuNUUTvnCianlNxsXG_GrYz1FmsCbL-E2YgedwPJset4jDSeALvKa5LErFGj7gZlbMXOw7xzjV4Z6Eo4VAIcvKkrTYjxAhcfyl5P4soEhEj5vJy9E2trvU3XGvDy3Izhb-6SbwVwmfoTbZLO9VQNkk5SvQ1fQ2QS48K93oE5tTvGwThIwiTmX1HqE7CL8ebF9t9NRU_quu7A4ZApPktg8aLrzc-FdgHr1oC1w4mVdKBi9QX3MzD6FpdgbVvJnIabMKveaCebxGghCD3IXGp8zKo7olqmyUJAjKvQM7hVqMjj0nW6kgvcIfpeVx6ufEF8ahxm6e1DUuo2OzAomv0AjQN1Yc4MhHtyXG8UCcT27o9XrJTDqQ-2Vx5oJPilJlLMtTVRG1sXklDKSS-FIDZj9gbN6PRy-FK7xoGyHYj7c9bcKuphnf6NxNjLNr54OBjP81q9P3kUgYUCMgn2vWOOSswXWDaX0A1TDIrDbqCMNKli7xifBejjVnTbWwcjv0oq3TEIjVM5tv000XSLtXMc--ii-CvrjdrVYW3mLEUF0H9EQNW6JcB-5chT3fZgd7mUtUBYuGQD97J9JD2oR47rZBCkoaMqRkSrB5zK8TZ2b9-JWLfQSPPUNQrAWyWol349ZXxQqwdqikv7X67b6Wr_z21BKcBnlcGsSIaE6F2s8ytVbQ_OmbOosFE67r_ZeFlm3?></g></svg>