<svg xmlns="http://www.w3.org/2000/svg" xmlns:xlink="http://www.w3.org/1999/xlink" contentStyleType="text/css" data-diagram-type="DESCRIPTION" height="568px" preserveAspectRatio="none" style="width:1578px;height:568px;background:#FFFFFF;" version="1.1" viewBox="0 0 1578 568" width="1578px" zoomAndPan="magnify"><?plantuml $version$?><defs/><g><g class="title" data-source-line="1"><text fill="#000000" font-family="sans-serif" font-size="14" font-weight="700" lengthAdjust="spacing" textLength="151.3408" x="709.8296" y="26.0439">4+1 Development View</text></g><!--cluster frontend/src--><g class="cluster" data-qualified-name="frontend.src" data-source-line="5" id="ent0001"><path d="M1015.5,163.1201 L1098.1758,163.1201 A3.75,3.75 0 0 1 1100.6758,165.6201 L1107.6758,188.2402 L1560.5,188.2402 A2.5,2.5 0 0 1 1563,190.7402 L1563,451.6201 A2.5,2.5 0 0 1 1560.5,454.1201 L1015.5,454.1201 A2.5,2.5 0 0 1 1013,451.6201 L1013,165.6201 A2.5,2.5 0 0 1 1015.5,163.1201" fill="none" style="stroke:#000000;stroke-width:1.5;"/><line style="stroke:#000000;stroke-width:1.5;" x1="1013" x2="1107.6758" y1="188.2402" y2="188.2402"/><text fill="#000000" font-family="sans-serif" font-size="14" font-weight="700" lengthAdjust="spacing" textLength="81.6758" x="1017" y="181.1641">frontend/src</text></g><!--cluster backend/app--><g class="cluster" data-qualified-name="backend.app" data-source-line="14" id="ent0008"><path d="M8.5,163.1201 L95.0791,163.1201 A3.75,3.75 0 0 1 97.5791,165.6201 L104.5791,188.2402 L986.5,188.2402 A2.5,2.5 0 0 1 989,190.7402 L989,550.6201 A2.5,2.5 0 0 1 986.5,553.1201 L8.5,553.1201 A2.5,2.5 0 0 1 6,550.6201 L6,165.6201 A2.5,2.5 0 0 1 8.5,163.1201" fill="none" style="stroke:#000000;stroke-width:1.5;"/><line style="stroke:#000000;stroke-width:1.5;" x1="6" x2="104.5791" y1="188.2402" y2="188.2402"/><text fill="#000000" font-family="sans-serif" font-size="14" font-weight="700" lengthAdjust="spacing" textLength="85.5791" x="10" y="181.1641">backend/app</text></g><!--cluster tests--><g class="cluster" data-qualified-name="tests" data-source-line="31" id="ent0023"><path d="M655.5,46.1201 L689.1826,46.1201 A3.75,3.75 0 0 1 691.6826,48.6201 L698.6826,71.2402 L995.5,71.2402 A2.5,2.5 0 0 1 998,73.7402 L998,136.6201 A2.5,2.5 0 0 1 995.5,139.1201 L655.5,139.1201 A2.5,2.5 0 0 1 653,136.6201 L653,48.6201 A2.5,2.5 0 0 1 655.5,46.1201" fill="none" style="stroke:#000000;stroke-width:1.5;"/><line style="stroke:#000000;stroke-width:1.5;" x1="653" x2="698.6826" y1="71.2402" y2="71.2402"/><text fill="#000000" font-family="sans-serif" font-size="14" font-weight="700" lengthAdjust="spacing" textLength="32.6826" x="657" y="64.1641">tests</text></g><!--entity App--><g class="entity" data-qualified-name="frontend.src.App" data-source-line="6" id="ent0002"><rect fill="#F1F1F1" height="39.1201" rx="2.5" ry="2.5" style="stroke:#181818;stroke-width:0.5;" width="66.6895" x="1244.5" y="201.1201"/><text fill="#000000" font-family="sans-serif" font-size="14" lengthAdjust="spacing" textLength="46.6895" x="1254.5" y="227.1641">App.tsx</text></g><!--entity JobQueue--><g class="entity" data-qualified-name="frontend.src.JobQueue" data-source-line="7" id="ent0003"><rect fill="#F1F1F1" height="39.1201" rx="2.5" ry="2.5" style="stroke:#181818;stroke-width:0.5;" width="186.5439" x="1029.5" y="300.1201"/><text fill="#000000" font-family="sans-serif" font-size="14" lengthAdjust="spacing" textLength="166.5439" x="1039.5" y="326.1641">components/JobQueue.tsx</text></g><!--entity ApiClient--><g class="entity" data-qualified-name="frontend.src.ApiClient" data-source-line="8" id="ent0004"><rect fill="#F1F1F1" height="39.1201" rx="2.5" ry="2.5" style="stroke:#181818;stroke-width:0.5;" width="53.4619" x="1251.5" y="300.1201"/><text fill="#000000" font-family="sans-serif" font-size="14" lengthAdjust="spacing" textLength="33.4619" x="1261.5" y="326.1641">api.ts</text></g><!--entity FrontendTypes--><g class="entity" data-qualified-name="frontend.src.FrontendTypes" data-source-line="9" id="ent0005"><rect fill="#F1F1F1" height="39.1201" rx="2.5" ry="2.5" style="stroke:#181818;stroke-width:0.5;" width="68.2412" x="1166" y="399.1201"/><text fill="#000000" font-family="sans-serif" font-size="14" lengthAdjust="spacing" textLength="48.2412" x="1176" y="425.1641">types.ts</text></g><!--entity Quality--><g class="entity" data-qualified-name="frontend.src.Quality" data-source-line="10" id="ent0006"><rect fill="#F1F1F1" height="39.1201" rx="2.5" ry="2.5" style="stroke:#181818;stroke-width:0.5;" width="75.248" x="1339.5" y="300.1201"/><text fill="#000000" font-family="sans-serif" font-size="14" lengthAdjust="spacing" textLength="55.248" x="1349.5" y="326.1641">quality.ts</text></g><!--entity Formatting--><g class="entity" data-qualified-name="frontend.src.Formatting" data-source-line="11" id="ent0007"><rect fill="#F1F1F1" height="39.1201" rx="2.5" ry="2.5" style="stroke:#181818;stroke-width:0.5;" width="97.0273" x="1449.5" y="300.1201"/><text fill="#000000" font-family="sans-serif" font-size="14" lengthAdjust="spacing" textLength="77.0273" x="1459.5" y="326.1641">formatting.ts</text></g><!--entity Main--><g class="entity" data-qualified-name="backend.app.Main" data-source-line="15" id="ent0009"><rect fill="#F1F1F1" height="39.1201" rx="2.5" ry="2.5" style="stroke:#181818;stroke-width:0.5;" width="69.0205" x="379.5" y="201.1201"/><text fill="#000000" font-family="sans-serif" font-size="14" lengthAdjust="spacing" textLength="49.0205" x="389.5" y="227.1641">main.py</text></g><!--entity Schemas--><g class="entity" data-qualified-name="backend.app.Schemas" data-source-line="16" id="ent0010"><rect fill="#F1F1F1" height="39.1201" rx="2.5" ry="2.5" style="stroke:#181818;stroke-width:0.5;" width="94.6963" x="22.5" y="300.1201"/><text fill="#000000" font-family="sans-serif" font-size="14" lengthAdjust="spacing" textLength="74.6963" x="32.5" y="326.1641">schemas.py</text></g><!--entity Models--><g class="entity" data-qualified-name="backend.app.Models" data-source-line="17" id="ent0011"><rect fill="#F1F1F1" height="39.1201" rx="2.5" ry="2.5" style="stroke:#181818;stroke-width:0.5;" width="83.8066" x="22" y="399.1201"/><text fill="#000000" font-family="sans-serif" font-size="14" lengthAdjust="spacing" textLength="63.8066" x="32" y="425.1641">models.py</text></g><!--entity DB--><g class="entity" data-qualified-name="backend.app.DB" data-source-line="18" id="ent0012"><rect fill="#F1F1F1" height="39.1201" rx="2.5" ry="2.5" style="stroke:#181818;stroke-width:0.5;" width="54.248" x="153" y="300.1201"/><text fill="#000000" font-family="sans-serif" font-size="14" lengthAdjust="spacing" textLength="34.248" x="163" y="326.1641">db.py</text></g><!--entity Manager--><g class="entity" data-qualified-name="backend.app.Manager" data-source-line="19" id="ent0013"><rect fill="#F1F1F1" height="39.1201" rx="2.5" ry="2.5" style="stroke:#181818;stroke-width:0.5;" width="120.3994" x="417" y="300.1201"/><text fill="#000000" font-family="sans-serif" font-size="14" lengthAdjust="spacing" textLength="100.3994" x="427" y="326.1641">job_manager.py</text></g><!--entity ReadModel--><g class="entity" data-qualified-name="backend.app.ReadModel" data-source-line="20" id="ent0014"><rect fill="#F1F1F1" height="39.1201" rx="2.5" ry="2.5" style="stroke:#181818;stroke-width:0.5;" width="139.082" x="242.5" y="300.1201"/><text fill="#000000" font-family="sans-serif" font-size="14" lengthAdjust="spacing" textLength="119.082" x="252.5" y="326.1641">job_read_model.py</text></g><!--entity Service--><g class="entity" data-qualified-name="backend.app.Service" data-source-line="21" id="ent0015"><rect fill="#F1F1F1" height="39.1201" rx="2.5" ry="2.5" style="stroke:#181818;stroke-width:0.5;" width="120.3789" x="853" y="399.1201"/><text fill="#000000" font-family="sans-serif" font-size="14" lengthAdjust="spacing" textLength="100.3789" x="863" y="425.1641">ytdlp_service.py</text></g><!--entity FormatHelpers--><g class="entity" data-qualified-name="backend.app.FormatHelpers" data-source-line="22" id="ent0016"><rect fill="#F1F1F1" height="39.1201" rx="2.5" ry="2.5" style="stroke:#181818;stroke-width:0.5;" width="122.71" x="670.5" y="498.1201"/><text fill="#000000" font-family="sans-serif" font-size="14" lengthAdjust="spacing" textLength="102.71" x="680.5" y="524.1641">ytdlp_formats.py</text></g><!--entity Fallback--><g class="entity" data-qualified-name="backend.app.Fallback" data-source-line="23" id="ent0017"><rect fill="#F1F1F1" height="39.1201" rx="2.5" ry="2.5" style="stroke:#181818;stroke-width:0.5;" width="129.7236" x="141" y="399.1201"/><text fill="#000000" font-family="sans-serif" font-size="14" lengthAdjust="spacing" textLength="109.7236" x="151" y="425.1641">fallback_policy.py</text></g><!--entity Progress--><g class="entity" data-qualified-name="backend.app.Progress" data-source-line="24" id="ent0018"><rect fill="#F1F1F1" height="39.1201" rx="2.5" ry="2.5" style="stroke:#181818;stroke-width:0.5;" width="160.8682" x="343.5" y="399.1201"/><text fill="#000000" font-family="sans-serif" font-size="14" lengthAdjust="spacing" textLength="140.8682" x="353.5" y="425.1641">download_progress.py</text></g><!--entity TransferStats--><g class="entity" data-qualified-name="backend.app.TransferStats" data-source-line="25" id="ent0019"><rect fill="#F1F1F1" height="39.1201" rx="2.5" ry="2.5" style="stroke:#181818;stroke-width:0.5;" width="123.4893" x="539.5" y="399.1201"/><text fill="#000000" font-family="sans-serif" font-size="14" lengthAdjust="spacing" textLength="103.4893" x="549.5" y="425.1641">transfer_stats.py</text></g><!--entity BrowserCookies--><g class="entity" data-qualified-name="backend.app.BrowserCookies" data-source-line="26" id="ent0020"><rect fill="#F1F1F1" height="39.1201" rx="2.5" ry="2.5" style="stroke:#181818;stroke-width:0.5;" width="143.7236" x="829" y="498.1201"/><text fill="#000000" font-family="sans-serif" font-size="14" lengthAdjust="spacing" textLength="123.7236" x="839" y="524.1641">browser_cookies.py</text></g><!--entity OutputPaths--><g class="entity" data-qualified-name="backend.app.OutputPaths" data-source-line="27" id="ent0021"><rect fill="#F1F1F1" height="39.1201" rx="2.5" ry="2.5" style="stroke:#181818;stroke-width:0.5;" width="119.6338" x="698" y="399.1201"/><text fill="#000000" font-family="sans-serif" font-size="14" lengthAdjust="spacing" textLength="99.6338" x="708" y="425.1641">output_paths.py</text></g><!--entity SystemOpen--><g class="entity" data-qualified-name="backend.app.SystemOpen" data-source-line="28" id="ent0022"><rect fill="#F1F1F1" height="39.1201" rx="2.5" ry="2.5" style="stroke:#181818;stroke-width:0.5;" width="121.9443" x="379" y="498.1201"/><text fill="#000000" font-family="sans-serif" font-size="14" lengthAdjust="spacing" textLength="101.9443" x="389" y="524.1641">system_open.py</text></g><!--entity BackendTests--><g class="entity" data-qualified-name="tests.BackendTests" data-source-line="32" id="ent0024"><rect fill="#F1F1F1" height="39.1201" rx="2.5" ry="2.5" style="stroke:#181818;stroke-width:0.5;" width="106.3857" x="669" y="84.1201"/><text fill="#000000" font-family="sans-serif" font-size="14" lengthAdjust="spacing" textLength="86.3857" x="679" y="110.1641">backend/tests</text></g><!--entity FrontendTests--><g class="entity" data-qualified-name="tests.FrontendTests" data-source-line="33" id="ent0025"><rect fill="#F1F1F1" height="39.1201" rx="2.5" ry="2.5" style="stroke:#181818;stroke-width:0.5;" width="170.958" x="810.5" y="84.1201"/><text fill="#000000" font-family="sans-serif" font-size="14" lengthAdjust="spacing" textLength="150.958" x="820.5" y="110.1641">frontend/src/App.test.tsx</text></g><!--link App to JobQueue--><g class="link" data-entity-1="ent0002" data-entity-2="ent0003" data-link-type="dependency" data-source-line="36" id="lnk26"><path d="M1248.11,240.3201 C1220.67,257.5001 1184.4491,280.1687 1157.0291,297.3187" fill="none" id="App-to-JobQueue" style="stroke:#181818;stroke-width:1;"/><polygon fill="#181818" points="1152.79,299.9701,1162.5415,298.5889,1157.0291,297.3187,1158.2993,291.8063,1152.79,299.9701" style="stroke:#181818;stroke-width:1;stroke-linejoin:miter;stroke-miterlimit:10;"/></g><!--link App to ApiClient--><g class="link" data-entity-1="ent0002" data-entity-2="ent0004" data-link-type="dependency" data-source-line="37" id="lnk27"><path d="M1278,240.3201 C1278,257.5001 1278,277.8201 1278,294.9701" fill="none" id="App-to-ApiClient" style="stroke:#181818;stroke-width:1;"/><polygon fill="#181818" points="1278,299.9701,1282,290.9701,1278,294.9701,1274,290.9701,1278,299.9701" style="stroke:#181818;stroke-width:1;stroke-linejoin:miter;stroke-miterlimit:10;"/></g><!--link App to Quality--><g class="link" data-entity-1="ent0002" data-entity-2="ent0006" data-link-type="dependency" data-source-line="38" id="lnk28"><path d="M1297.09,240.3201 C1314.62,257.5001 1336.8879,279.3215 1354.3979,296.4715" fill="none" id="App-to-Quality" style="stroke:#181818;stroke-width:1;"/><polygon fill="#181818" points="1357.97,299.9701,1354.3392,290.8149,1354.3979,296.4715,1348.7414,296.5302,1357.97,299.9701" style="stroke:#181818;stroke-width:1;stroke-linejoin:miter;stroke-miterlimit:10;"/></g><!--link App to Formatting--><g class="link" data-entity-1="ent0002" data-entity-2="ent0007" data-link-type="dependency" data-source-line="39" id="lnk29"><path d="M1311.89,236.5601 C1350.58,253.6201 1409.3345,279.5339 1451.2045,297.9839" fill="none" id="App-to-Formatting" style="stroke:#181818;stroke-width:1;"/><polygon fill="#181818" points="1455.78,300.0001,1449.1571,292.7106,1451.2045,297.9839,1445.9312,300.0314,1455.78,300.0001" style="stroke:#181818;stroke-width:1;stroke-linejoin:miter;stroke-miterlimit:10;"/></g><!--link ApiClient to FrontendTypes--><g class="link" data-entity-1="ent0004" data-entity-2="ent0005" data-link-type="dependency" data-source-line="40" id="lnk30"><path d="M1262.96,339.3201 C1249.15,356.5001 1231.9245,377.9247 1218.1245,395.0747" fill="none" id="ApiClient-to-FrontendTypes" style="stroke:#181818;stroke-width:1;"/><polygon fill="#181818" points="1214.99,398.9701,1223.7485,394.4659,1218.1245,395.0747,1217.5158,389.4506,1214.99,398.9701" style="stroke:#181818;stroke-width:1;stroke-linejoin:miter;stroke-miterlimit:10;"/></g><!--link JobQueue to FrontendTypes--><g class="link" data-entity-1="ent0003" data-entity-2="ent0005" data-link-type="dependency" data-source-line="41" id="lnk31"><path d="M1137.85,339.3201 C1151.48,356.5001 1168.4705,377.9047 1182.0905,395.0547" fill="none" id="JobQueue-to-FrontendTypes" style="stroke:#181818;stroke-width:1;"/><polygon fill="#181818" points="1185.2,398.9701,1182.7352,389.4347,1182.0905,395.0547,1176.4705,394.4099,1185.2,398.9701" style="stroke:#181818;stroke-width:1;stroke-linejoin:miter;stroke-miterlimit:10;"/></g><!--link Main to Schemas--><g class="link" data-entity-1="ent0009" data-entity-2="ent0010" data-link-type="dependency" data-source-line="43" id="lnk32"><path d="M379.19,231.3801 C326.39,246.1901 222.88,275.2501 135,300.1201 C129.36,301.7201 128.2519,302.0417 122.3719,303.7017" fill="none" id="Main-to-Schemas" style="stroke:#181818;stroke-width:1;"/><polygon fill="#181818" points="117.56,305.0601,127.3082,306.4644,122.3719,303.7017,125.1347,298.7653,117.56,305.0601" style="stroke:#181818;stroke-width:1;stroke-linejoin:miter;stroke-miterlimit:10;"/></g><!--link Main to Manager--><g class="link" data-entity-1="ent0009" data-entity-2="ent0013" data-link-type="dependency" data-source-line="44" id="lnk33"><path d="M426.15,240.3201 C437.3,257.5001 451.0263,278.6271 462.1663,295.7771" fill="none" id="Main-to-Manager" style="stroke:#181818;stroke-width:1;"/><polygon fill="#181818" points="464.89,299.9701,463.3419,290.2437,462.1663,295.7771,456.633,294.6015,464.89,299.9701" style="stroke:#181818;stroke-width:1;stroke-linejoin:miter;stroke-miterlimit:10;"/></g><!--link Main to ReadModel--><g class="link" data-entity-1="ent0009" data-entity-2="ent0014" data-link-type="dependency" data-source-line="45" id="lnk34"><path d="M394.33,240.3201 C376.27,257.5001 353.2738,279.3751 335.2338,296.5251" fill="none" id="Main-to-ReadModel" style="stroke:#181818;stroke-width:1;"/><polygon fill="#181818" points="331.61,299.9701,340.8888,296.6681,335.2338,296.5251,335.3768,290.8701,331.61,299.9701" style="stroke:#181818;stroke-width:1;stroke-linejoin:miter;stroke-miterlimit:10;"/></g><!--link Main to Service--><g class="link" data-entity-1="ent0009" data-entity-2="ent0015" data-link-type="dependency" data-source-line="46" id="lnk35"><path d="M448.69,235.2501 C536.22,269.6201 761.4461,358.0923 861.1261,397.2423" fill="none" id="Main-to-Service" style="stroke:#181818;stroke-width:1;"/><polygon fill="#181818" points="865.78,399.0701,858.8652,392.0568,861.1261,397.2423,855.9407,399.5031,865.78,399.0701" style="stroke:#181818;stroke-width:1;stroke-linejoin:miter;stroke-miterlimit:10;"/></g><!--link Main to DB--><g class="link" data-entity-1="ent0009" data-entity-2="ent0012" data-link-type="dependency" data-source-line="47" id="lnk36"><path d="M379.47,235.9301 C332.56,255.3801 254.2789,287.8254 211.6289,305.5054" fill="none" id="Main-to-DB" style="stroke:#181818;stroke-width:1;"/><polygon fill="#181818" points="207.01,307.4201,216.8557,307.6688,211.6289,305.5054,213.7922,300.2786,207.01,307.4201" style="stroke:#181818;stroke-width:1;stroke-linejoin:miter;stroke-miterlimit:10;"/></g><!--link Manager to Models--><g class="link" data-entity-1="ent0013" data-entity-2="ent0011" data-link-type="dependency" data-source-line="48" id="lnk37"><path d="M416.98,334.9801 C410.91,336.3901 404.84,337.7901 399,339.1201 C276.59,366.9401 244.35,366.9701 123,399.1201 C117.5,400.5801 116.5387,400.7818 110.8787,402.4818" fill="none" id="Manager-to-Models" style="stroke:#181818;stroke-width:1;"/><polygon fill="#181818" points="106.09,403.9201,115.8602,405.1621,110.8787,402.4818,113.559,397.5003,106.09,403.9201" style="stroke:#181818;stroke-width:1;stroke-linejoin:miter;stroke-miterlimit:10;"/></g><!--link Manager to Service--><g class="link" data-entity-1="ent0013" data-entity-2="ent0015" data-link-type="dependency" data-source-line="49" id="lnk38"><path d="M537.11,333.3701 C608.48,348.6001 731.07,375.0401 836,399.1201 C841.49,400.3801 842.3337,400.5616 848.0537,401.9116" fill="none" id="Manager-to-Service" style="stroke:#181818;stroke-width:1;"/><polygon fill="#181818" points="852.92,403.0601,845.0795,397.0997,848.0537,401.9116,843.2418,404.8858,852.92,403.0601" style="stroke:#181818;stroke-width:1;stroke-linejoin:miter;stroke-miterlimit:10;"/></g><!--link Manager to Fallback--><g class="link" data-entity-1="ent0013" data-entity-2="ent0017" data-link-type="dependency" data-source-line="50" id="lnk39"><path d="M425.07,339.2101 C376.96,356.4301 310.5074,380.2147 262.4674,397.4147" fill="none" id="Manager-to-Fallback" style="stroke:#181818;stroke-width:1;"/><polygon fill="#181818" points="257.76,399.1001,267.5816,399.8323,262.4674,397.4147,264.885,392.3005,257.76,399.1001" style="stroke:#181818;stroke-width:1;stroke-linejoin:miter;stroke-miterlimit:10;"/></g><!--link Manager to Progress--><g class="link" data-entity-1="ent0013" data-entity-2="ent0018" data-link-type="dependency" data-source-line="51" id="lnk40"><path d="M466.78,339.3201 C457.4,356.5001 445.9573,377.4323 436.5873,394.5823" fill="none" id="Manager-to-Progress" style="stroke:#181818;stroke-width:1;"/><polygon fill="#181818" points="434.19,398.9701,442.0154,392.9899,436.5873,394.5823,434.9949,389.1542,434.19,398.9701" style="stroke:#181818;stroke-width:1;stroke-linejoin:miter;stroke-miterlimit:10;"/></g><!--link Manager to TransferStats--><g class="link" data-entity-1="ent0013" data-entity-2="ent0019" data-link-type="dependency" data-source-line="52" id="lnk41"><path d="M500.91,339.3201 C522.87,356.5001 551.2914,378.74 573.2214,395.89" fill="none" id="Manager-to-TransferStats" style="stroke:#181818;stroke-width:1;"/><polygon fill="#181818" points="577.16,398.9701,572.5346,390.275,573.2214,395.89,567.6064,396.5768,577.16,398.9701" style="stroke:#181818;stroke-width:1;stroke-linejoin:miter;stroke-miterlimit:10;"/></g><!--link Manager to OutputPaths--><g class="link" data-entity-1="ent0013" data-entity-2="ent0021" data-link-type="dependency" data-source-line="53" id="lnk42"><path d="M530.85,339.2101 C580.73,356.4301 649.7836,380.2687 699.6136,397.4687" fill="none" id="Manager-to-OutputPaths" style="stroke:#181818;stroke-width:1;"/><polygon fill="#181818" points="704.34,399.1001,697.1377,392.3825,699.6136,397.4687,694.5274,399.9447,704.34,399.1001" style="stroke:#181818;stroke-width:1;stroke-linejoin:miter;stroke-miterlimit:10;"/></g><!--link Manager to SystemOpen--><g class="link" data-entity-1="ent0013" data-entity-2="ent0022" data-link-type="dependency" data-source-line="54" id="lnk43"><path d="M416.99,335.3601 C383.97,346.8601 345.78,366.5401 326,399.1201 C311.47,423.0501 311.07,438.4301 326,462.1201 C337.93,481.0501 353.8098,491.6877 374.1898,499.8677" fill="none" id="Manager-to-SystemOpen" style="stroke:#181818;stroke-width:1;"/><polygon fill="#181818" points="378.83,501.7301,371.9676,494.6656,374.1898,499.8677,368.9877,502.0899,378.83,501.7301" style="stroke:#181818;stroke-width:1;stroke-linejoin:miter;stroke-miterlimit:10;"/></g><!--link ReadModel to Models--><g class="link" data-entity-1="ent0014" data-entity-2="ent0011" data-link-type="dependency" data-source-line="55" id="lnk44"><path d="M264.48,339.2101 C218.77,357.0901 154.9663,382.0383 111.0563,399.2183" fill="none" id="ReadModel-to-Models" style="stroke:#181818;stroke-width:1;"/><polygon fill="#181818" points="106.4,401.0401,116.2388,401.4859,111.0563,399.2183,113.3239,394.0358,106.4,401.0401" style="stroke:#181818;stroke-width:1;stroke-linejoin:miter;stroke-miterlimit:10;"/></g><!--link ReadModel to Fallback--><g class="link" data-entity-1="ent0014" data-entity-2="ent0017" data-link-type="dependency" data-source-line="56" id="lnk45"><path d="M291.56,339.3201 C272.79,356.5001 248.8194,378.4455 230.0694,395.5955" fill="none" id="ReadModel-to-Fallback" style="stroke:#181818;stroke-width:1;"/><polygon fill="#181818" points="226.38,398.9701,235.7207,395.8474,230.0694,395.5955,230.3213,389.9443,226.38,398.9701" style="stroke:#181818;stroke-width:1;stroke-linejoin:miter;stroke-miterlimit:10;"/></g><!--link Service to FormatHelpers--><g class="link" data-entity-1="ent0015" data-entity-2="ent0016" data-link-type="dependency" data-source-line="57" id="lnk46"><path d="M879.73,438.1901 C866.2,445.6901 850.39,454.3801 836,462.1201 C813.56,474.1901 792.6762,485.1635 772.6362,495.5835" fill="none" id="Service-to-FormatHelpers" style="stroke:#181818;stroke-width:1;"/><polygon fill="#181818" points="768.2,497.8901,778.0304,497.2871,772.6362,495.5835,774.3398,490.1893,768.2,497.8901" style="stroke:#181818;stroke-width:1;stroke-linejoin:miter;stroke-miterlimit:10;"/></g><!--link Service to BrowserCookies--><g class="link" data-entity-1="ent0015" data-entity-2="ent0020" data-link-type="dependency" data-source-line="58" id="lnk47"><path d="M910.69,438.3201 C908.56,455.5001 906.0434,475.8579 903.9234,493.0079" fill="none" id="Service-to-BrowserCookies" style="stroke:#181818;stroke-width:1;"/><polygon fill="#181818" points="903.31,497.9701,908.3839,489.5288,903.9234,493.0079,900.4443,488.5474,903.31,497.9701" style="stroke:#181818;stroke-width:1;stroke-linejoin:miter;stroke-miterlimit:10;"/></g><!--link Service to SystemOpen--><g class="link" data-entity-1="ent0015" data-entity-2="ent0022" data-link-type="dependency" data-source-line="59" id="lnk48"><path d="M885.26,438.1901 C871.1,446.8101 853.24,456.3901 836,462.1201 C775.24,482.2901 601.3465,501.2159 506.1765,510.4759" fill="none" id="Service-to-SystemOpen" style="stroke:#181818;stroke-width:1;"/><polygon fill="#181818" points="501.2,510.9601,510.5451,514.0697,506.1765,510.4759,509.7703,506.1073,501.2,510.9601" style="stroke:#181818;stroke-width:1;stroke-linejoin:miter;stroke-miterlimit:10;"/></g><!--link DB to Models--><g class="link" data-entity-1="ent0012" data-entity-2="ent0011" data-link-type="dependency" data-source-line="60" id="lnk49"><path d="M157.63,339.3201 C137.09,356.5001 110.6565,378.6137 90.1365,395.7637" fill="none" id="DB-to-Models" style="stroke:#181818;stroke-width:1;"/><polygon fill="#181818" points="86.3,398.9701,95.7709,396.2677,90.1365,395.7637,90.6406,390.1293,86.3,398.9701" style="stroke:#181818;stroke-width:1;stroke-linejoin:miter;stroke-miterlimit:10;"/></g><!--link BackendTests to Main--><g class="link" data-entity-1="ent0024" data-entity-2="ent0009" data-link-type="dependency" data-source-line="62" id="lnk50"><path d="M668.72,112.4901 C625.74,120.0301 564.37,133.5001 514,155.1201 C486.09,167.1001 461.2795,183.6162 441.7895,198.0362" fill="none" id="BackendTests-to-Main" style="stroke:#181818;stroke-width:1;stroke-dasharray:7,7;"/><polygon fill="#181818" points="437.77,201.0101,447.3841,198.8727,441.7895,198.0362,442.6259,192.4416,437.77,201.0101" style="stroke:#181818;stroke-width:1;stroke-linejoin:miter;stroke-miterlimit:10;"/></g><!--link BackendTests to Manager--><g class="link" data-entity-1="ent0024" data-entity-2="ent0013" data-link-type="dependency" data-source-line="63" id="lnk51"><path d="M700.69,123.2401 C654.35,163.7101 548.6558,256.031 502.2058,296.601" fill="none" id="BackendTests-to-Manager" style="stroke:#181818;stroke-width:1;stroke-dasharray:7,7;"/><polygon fill="#181818" points="498.44,299.8901,507.8498,296.9823,502.2058,296.601,502.5872,290.957,498.44,299.8901" style="stroke:#181818;stroke-width:1;stroke-linejoin:miter;stroke-miterlimit:10;"/></g><!--link BackendTests to Service--><g class="link" data-entity-1="ent0024" data-entity-2="ent0015" data-link-type="dependency" data-source-line="64" id="lnk52"><path d="M733.38,123.2601 C767.35,178.9301 865.186,339.2618 899.076,394.8118" fill="none" id="BackendTests-to-Service" style="stroke:#181818;stroke-width:1;stroke-dasharray:7,7;"/><polygon fill="#181818" points="901.68,399.0801,900.4074,389.3138,899.076,394.8118,893.578,393.4803,901.68,399.0801" style="stroke:#181818;stroke-width:1;stroke-linejoin:miter;stroke-miterlimit:10;"/></g><!--link FrontendTests to App--><g class="link" data-entity-1="ent0025" data-entity-2="ent0002" data-link-type="dependency" data-source-line="65" id="lnk53"><path d="M957.8,123.2201 C1039.31,147.7601 1175.1223,188.6487 1239.3923,207.9987" fill="none" id="FrontendTests-to-App" style="stroke:#181818;stroke-width:1;stroke-dasharray:7,7;"/><polygon fill="#181818" points="1244.18,209.4401,1236.7153,203.0153,1239.3923,207.9987,1234.409,210.6757,1244.18,209.4401" style="stroke:#181818;stroke-width:1;stroke-linejoin:miter;stroke-miterlimit:10;"/></g><?plantuml-src RPHDRzim38Rl_XL2hqCJ3DYvmD9W60OKRPTWbs4m59j9jCYI9j7DZ67_VVgavQutytafaHHV60LAO1_UlMTRU06fpG0AsJS1ryPTX3BSye5rUZ1QUM67ay-sq25N9mbLYZlpNb-5Eh4ZbmwQnl3kma_0RevMAmJLhvtjRjYVXh7l7urPeVlzWt77_7T0LCAjl-Z3ymWZK4e18OyRuNa-AUwby4S2nyc0AygdN78VO51_ZLmAd8h-dCAW7BKTEA9ld0uJQVvMOnpyHvY26vEd6BXGApF5Gm_-Ep3NdM7Whk1T2cEsxa6Iy12ZmFj3OTjDY7_gGpjmvMlQ-V8O5jK2xzjuNKduwacyCQHCs4lJEh0leWDg98MpdkQcVjBGdq4QiB4jlqKPHcwDbgARA2_ZsBc-AgbzByRgamL7bptbEEx5SkMEO5k7LRbzfhi0Gzh1wgjlkUsqlWYWl4t2zuc6H3sY6R4r7C-KzHZPKq1n1vD365fjWDQpY-ZHayLE4HowlCsotyXIyKJs0SGdgOoyZXRs2fcKF1VJVHMVmMvlxsRt5Z3xjf3Ynn9N5gJa92oCNMv-Gsg28ICl5YHGt4HWTizyADk5WFTcFfVkIFQjqNnaPkIM6f8xQhWqHAtKortKcrTA0zIzBI5rajkidhcOlbPU-QwMghhRJLsmgVt2Lgkxz5DuWwRt_qyeBxXmKbIyB_u1?></g></svg>