<svg xmlns="http://www.w3.org/2000/svg" xmlns:xlink="http://www.w3.org/1999/xlink" contentStyleType="text/css" data-diagram-type="DESCRIPTION" height="894px" preserveAspectRatio="none" style="width:1217px;height:894px;background:#FFFFFF;" version="1.1" viewBox="0 0 1217 894" width="1217px" zoomAndPan="magnify"><?plantuml $version$?><defs/><g><g class="title" data-source-line="1"><text fill="#000000" font-family="sans-serif" font-size="14" font-weight="700" lengthAdjust="spacing" textLength="120.2441" x="545.1006" y="26.0439">4+1 Physical View</text></g><!--cluster Workstation--><g class="cluster" data-qualified-name="Workstation" data-source-line="4" id="ent0001"><polygon fill="none" points="16,56.1201,26,46.1201,1040,46.1201,1040,859.1201,1030,869.1201,16,869.1201,16,56.1201" style="stroke:#181818;stroke-width:1;stroke-linejoin:miter;stroke-miterlimit:10;"/><line style="stroke:#181818;stroke-width:1;" x1="1030" x2="1040" y1="56.1201" y2="46.1201"/><line style="stroke:#181818;stroke-width:1;" x1="16" x2="1030" y1="56.1201" y2="56.1201"/><line style="stroke:#181818;stroke-width:1;" x1="1030" x2="1030" y1="56.1201" y2="869.1201"/><text fill="#000000" font-family="sans-serif" font-size="14" font-weight="700" lengthAdjust="spacing" textLength="113.5859" x="467.207" y="75.1641">User workstation</text></g><!--cluster Browser--><g class="cluster" data-qualified-name="Workstation.Browser" data-source-line="5" id="ent0002"><polygon fill="none" points="302,107.1201,312,97.1201,491,97.1201,491,207.1201,481,217.1201,302,217.1201,302,107.1201" style="stroke:#181818;stroke-width:1;stroke-linejoin:miter;stroke-miterlimit:10;"/><line style="stroke:#181818;stroke-width:1;" x1="481" x2="491" y1="107.1201" y2="97.1201"/><line style="stroke:#181818;stroke-width:1;" x1="302" x2="481" y1="107.1201" y2="107.1201"/><line style="stroke:#181818;stroke-width:1;" x1="481" x2="481" y1="107.1201" y2="217.1201"/><text fill="#000000" font-family="sans-serif" font-size="14" font-weight="700" lengthAdjust="spacing" textLength="113.6064" x="335.6968" y="126.1641">Browser process</text></g><!--cluster Python--><g class="cluster" data-qualified-name="Workstation.Python" data-source-line="9" id="ent0004"><polygon fill="none" points="278,296.1201,288,286.1201,499,286.1201,499,695.1201,489,705.1201,278,705.1201,278,296.1201" style="stroke:#181818;stroke-width:1;stroke-linejoin:miter;stroke-miterlimit:10;"/><line style="stroke:#181818;stroke-width:1;" x1="489" x2="499" y1="296.1201" y2="286.1201"/><line style="stroke:#181818;stroke-width:1;" x1="278" x2="489" y1="296.1201" y2="296.1201"/><line style="stroke:#181818;stroke-width:1;" x1="489" x2="489" y1="296.1201" y2="705.1201"/><text fill="#000000" font-family="sans-serif" font-size="14" font-weight="700" lengthAdjust="spacing" textLength="105.0273" x="331.9863" y="315.1641">Python process</text><text fill="#000000" font-family="sans-serif" font-size="14" font-weight="700" lengthAdjust="spacing" textLength="145.4619" x="311.769" y="334.2842">uvicorn app.main:app</text></g><!--entity SQLite--><g class="entity" data-qualified-name="Workstation.SQLite" data-source-line="15" id="ent0008"><path d="M136.5,641.1201 C136.5,631.1201 197.8721,631.1201 197.8721,631.1201 C197.8721,631.1201 259.2441,631.1201 259.2441,641.1201 L259.2441,688.3604 C259.2441,698.3604 197.8721,698.3604 197.8721,698.3604 C197.8721,698.3604 136.5,698.3604 136.5,688.3604 L136.5,641.1201" fill="#F1F1F1" style="stroke:#181818;stroke-width:0.5;"/><path d="M136.5,641.1201 C136.5,651.1201 197.8721,651.1201 197.8721,651.1201 C197.8721,651.1201 259.2441,651.1201 259.2441,641.1201" fill="none" style="stroke:#181818;stroke-width:0.5;"/><text fill="#000000" font-family="sans-serif" font-size="14" lengthAdjust="spacing" textLength="42.7998" x="146.5" y="671.1641">SQLite</text><text fill="#000000" font-family="sans-serif" font-size="14" lengthAdjust="spacing" textLength="98.8545" x="150.3896" y="690.2842">data/app.sqlite3</text></g><!--entity Downloads--><g class="entity" data-qualified-name="Workstation.Downloads" data-source-line="16" id="ent0009"><path d="M51,777.1201 L92,777.1201 A3.75,3.75 0 0 1 94.5,779.6201 L101.5,798.1201 L150.7168,798.1201 A2.5,2.5 0 0 1 153.2168,800.6201 L153.2168,850.8604 A2.5,2.5 0 0 1 150.7168,853.3604 L51,853.3604 A2.5,2.5 0 0 1 48.5,850.8604 L48.5,779.6201 A2.5,2.5 0 0 1 51,777.1201" fill="#F1F1F1" style="stroke:#181818;stroke-width:0.5;"/><line style="stroke:#181818;stroke-width:0.5;" x1="48.5" x2="101.5" y1="798.1201" y2="798.1201"/><text fill="#000000" font-family="sans-serif" font-size="14" lengthAdjust="spacing" textLength="69.2617" x="58.5" y="821.1641">Downloads</text><text fill="#000000" font-family="sans-serif" font-size="14" lengthAdjust="spacing" textLength="70.8271" x="62.3896" y="840.2842">downloads/</text></g><!--entity CookiesFile--><g class="entity" data-qualified-name="Workstation.CookiesFile" data-source-line="17" id="ent0010"><path d="M518,476.1201 L559,476.1201 A3.75,3.75 0 0 1 561.5,478.6201 L568.5,497.1201 L644.165,497.1201 A2.5,2.5 0 0 1 646.665,499.6201 L646.665,549.8604 A2.5,2.5 0 0 1 644.165,552.3604 L518,552.3604 A2.5,2.5 0 0 1 515.5,549.8604 L515.5,478.6201 A2.5,2.5 0 0 1 518,476.1201" fill="#F1F1F1" style="stroke:#181818;stroke-width:0.5;"/><line style="stroke:#181818;stroke-width:0.5;" x1="515.5" x2="568.5" y1="497.1201" y2="497.1201"/><text fill="#000000" font-family="sans-serif" font-size="14" lengthAdjust="spacing" textLength="50.5791" x="525.5" y="520.1641">Cookies</text><text fill="#000000" font-family="sans-serif" font-size="14" lengthAdjust="spacing" textLength="97.2754" x="529.3896" y="539.2842">data/cookies.txt</text></g><!--entity Browsers--><g class="entity" data-qualified-name="Workstation.Browsers" data-source-line="18" id="ent0011"><rect fill="#F1F1F1" height="68.2402" rx="2.5" ry="2.5" style="stroke:#181818;stroke-width:0.5;" width="173.0547" x="681.5" y="480.1201"/><rect fill="#F1F1F1" height="10" style="stroke:#181818;stroke-width:0.5;" width="15" x="834.5547" y="485.1201"/><rect fill="#F1F1F1" height="2" style="stroke:#181818;stroke-width:0.5;" width="4" x="832.5547" y="487.1201"/><rect fill="#F1F1F1" height="2" style="stroke:#181818;stroke-width:0.5;" width="4" x="832.5547" y="491.1201"/><text fill="#000000" font-family="sans-serif" font-size="14" lengthAdjust="spacing" textLength="112.8271" x="696.5" y="516.1641">Installed browsers</text><text fill="#000000" font-family="sans-serif" font-size="14" lengthAdjust="spacing" textLength="133.0547" x="696.5" y="535.2842">Edge/Chrome/Firefox</text></g><!--entity FFMPEG--><g class="entity" data-qualified-name="Workstation.FFMPEG" data-source-line="19" id="ent0012"><rect fill="#F1F1F1" height="49.1201" rx="2.5" ry="2.5" style="stroke:#181818;stroke-width:0.5;" width="190.958" x="219.5" y="790.6201"/><rect fill="#F1F1F1" height="10" style="stroke:#181818;stroke-width:0.5;" width="15" x="390.458" y="795.6201"/><rect fill="#F1F1F1" height="2" style="stroke:#181818;stroke-width:0.5;" width="4" x="388.458" y="797.6201"/><rect fill="#F1F1F1" height="2" style="stroke:#181818;stroke-width:0.5;" width="4" x="388.458" y="801.6201"/><text fill="#000000" font-family="sans-serif" font-size="14" lengthAdjust="spacing" textLength="150.958" x="234.5" y="826.6641">ffmpeg / imageio-ffmpeg</text></g><!--entity Aria2--><g class="entity" data-qualified-name="Workstation.Aria2" data-source-line="20" id="ent0013"><rect fill="#F1F1F1" height="49.1201" rx="2.5" ry="2.5" style="stroke:#181818;stroke-width:0.5;" width="134.165" x="446" y="790.6201"/><rect fill="#F1F1F1" height="10" style="stroke:#181818;stroke-width:0.5;" width="15" x="560.165" y="795.6201"/><rect fill="#F1F1F1" height="2" style="stroke:#181818;stroke-width:0.5;" width="4" x="558.165" y="797.6201"/><rect fill="#F1F1F1" height="2" style="stroke:#181818;stroke-width:0.5;" width="4" x="558.165" y="801.6201"/><text fill="#000000" font-family="sans-serif" font-size="14" lengthAdjust="spacing" textLength="94.165" x="461" y="826.6641">Optional aria2c</text></g><!--entity Opener--><g class="entity" data-qualified-name="Workstation.Opener" data-source-line="21" id="ent0014"><rect fill="#F1F1F1" height="68.2402" rx="2.5" ry="2.5" style="stroke:#181818;stroke-width:0.5;" width="134.1582" x="890" y="480.1201"/><rect fill="#F1F1F1" height="10" style="stroke:#181818;stroke-width:0.5;" width="15" x="1004.1582" y="485.1201"/><rect fill="#F1F1F1" height="2" style="stroke:#181818;stroke-width:0.5;" width="4" x="1002.1582" y="487.1201"/><rect fill="#F1F1F1" height="2" style="stroke:#181818;stroke-width:0.5;" width="4" x="1002.1582" y="491.1201"/><text fill="#000000" font-family="sans-serif" font-size="14" lengthAdjust="spacing" textLength="94.1582" x="905" y="516.1641">System opener</text><text fill="#000000" font-family="sans-serif" font-size="14" lengthAdjust="spacing" textLength="94.1514" x="905" y="535.2842">Explorer/player</text></g><!--entity UI--><g class="entity" data-qualified-name="Workstation.Browser.UI" data-source-line="6" id="ent0003"><rect fill="#F1F1F1" height="61.2402" rx="2.5" ry="2.5" style="stroke:#181818;stroke-width:0.5;" width="142.834" x="324.5" y="140.1201"/><polygon fill="#F1F1F1" points="450.334,145.1201,450.334,159.1201,462.334,159.1201,462.334,151.1201,456.334,145.1201,450.334,145.1201" style="stroke:#181818;stroke-width:0.5;stroke-linejoin:miter;stroke-miterlimit:10;"/><line style="stroke:#181818;stroke-width:0.5;" x1="456.334" x2="456.334" y1="145.1201" y2="151.1201"/><line style="stroke:#181818;stroke-width:0.5;" x1="462.334" x2="456.334" y1="151.1201" y2="151.1201"/><text fill="#000000" font-family="sans-serif" font-size="14" lengthAdjust="spacing" textLength="54.4619" x="334.5" y="169.1641">React UI</text><text fill="#000000" font-family="sans-serif" font-size="14" lengthAdjust="spacing" textLength="112.834" x="334.5" y="188.2842">served from :8000</text></g><!--entity API--><g class="entity" data-qualified-name="Workstation.Python.API" data-source-line="10" id="ent0005"><rect fill="#F1F1F1" height="49.1201" rx="2.5" ry="2.5" style="stroke:#181818;stroke-width:0.5;" width="160.2168" x="316" y="348.1201"/><rect fill="#F1F1F1" height="10" style="stroke:#181818;stroke-width:0.5;" width="15" x="456.2168" y="353.1201"/><rect fill="#F1F1F1" height="2" style="stroke:#181818;stroke-width:0.5;" width="4" x="454.2168" y="355.1201"/><rect fill="#F1F1F1" height="2" style="stroke:#181818;stroke-width:0.5;" width="4" x="454.2168" y="359.1201"/><text fill="#000000" font-family="sans-serif" font-size="14" lengthAdjust="spacing" textLength="120.2168" x="331" y="384.1641">FastAPI API + SSE</text></g><!--entity Workers--><g class="entity" data-qualified-name="Workstation.Python.Workers" data-source-line="11" id="ent0006"><rect fill="#F1F1F1" height="49.1201" rx="2.5" ry="2.5" style="stroke:#181818;stroke-width:0.5;" width="170.7236" x="309.5" y="489.6201"/><rect fill="#F1F1F1" height="10" style="stroke:#181818;stroke-width:0.5;" width="15" x="460.2236" y="494.6201"/><rect fill="#F1F1F1" height="2" style="stroke:#181818;stroke-width:0.5;" width="4" x="458.2236" y="496.6201"/><rect fill="#F1F1F1" height="2" style="stroke:#181818;stroke-width:0.5;" width="4" x="458.2236" y="500.6201"/><text fill="#000000" font-family="sans-serif" font-size="14" lengthAdjust="spacing" textLength="130.7236" x="324.5" y="525.6641">JobManager workers</text></g><!--entity YTDLP--><g class="entity" data-qualified-name="Workstation.Python.YTDLP" data-source-line="12" id="ent0007"><rect fill="#F1F1F1" height="49.1201" rx="2.5" ry="2.5" style="stroke:#181818;stroke-width:0.5;" width="148.165" x="309" y="640.1201"/><rect fill="#F1F1F1" height="10" style="stroke:#181818;stroke-width:0.5;" width="15" x="437.165" y="645.1201"/><rect fill="#F1F1F1" height="2" style="stroke:#181818;stroke-width:0.5;" width="4" x="435.165" y="647.1201"/><rect fill="#F1F1F1" height="2" style="stroke:#181818;stroke-width:0.5;" width="4" x="435.165" y="651.1201"/><text fill="#000000" font-family="sans-serif" font-size="14" lengthAdjust="spacing" textLength="108.165" x="324" y="676.1641">yt-dlp Python API</text></g><!--entity YouTube--><g class="entity" data-qualified-name="YouTube" data-source-line="24" id="ent0015"><path d="M1066.4813,799.8309 C1068.6425,794.3032 1073.775,793.1759 1077.3395,798.4158 C1081.2147,793.3915 1086.9092,793.8486 1090.0328,799.3245 C1092.7243,793.2182 1097.3309,792.3387 1101.5678,797.7808 C1105.0477,792.9839 1109.9425,794.2243 1111.7722,799.4594 C1114.9215,793.6793 1119.4814,793.1737 1123.6677,798.3316 C1128.2749,791.7311 1133.7902,793.1477 1137.1168,799.6464 C1146.1492,803.3567 1145.4298,811.4375 1138.1079,816.131 C1145.8459,821.5984 1145.9811,829.0012 1136.5534,832.875 C1134.6923,838.3414 1129.5624,839.9401 1125.3036,835.6357 C1123.2286,841.9299 1118.6773,843.1746 1113.6702,838.847 C1110.3207,845.5596 1105.5353,846.3711 1100.2738,840.9597 C1096.0209,845.0931 1092.7138,844.5434 1090.2109,839.1176 C1084.6362,844.2896 1078.77,841.3777 1076.9884,834.8359 C1072.7327,839.4496 1068.6678,840.1187 1065.568,833.6452 C1054.6118,832.6843 1050.4827,824.6089 1057.0831,815.4575 C1053.7192,806.1133 1055.1481,800.336 1066.4813,799.8309" fill="#F1F1F1" style="stroke:#181818;stroke-width:0.5;"/><text fill="#000000" font-family="sans-serif" font-size="14" lengthAdjust="spacing" textLength="56.8203" x="1071.5" y="821.6641">YouTube</text></g><!--link UI to API--><g class="link" data-entity-1="ent0003" data-entity-2="ent0005" data-link-type="dependency" data-source-line="26" id="lnk16"><path d="M396,201.1301 C396,241.0101 396,306.3101 396,342.9401" fill="none" id="UI-to-API" style="stroke:#181818;stroke-width:1;"/><polygon fill="#181818" points="396,347.9401,400,338.9401,396,342.9401,392,338.9401,396,347.9401" style="stroke:#181818;stroke-width:1;stroke-linejoin:miter;stroke-miterlimit:10;"/><text fill="#000000" font-family="sans-serif" font-size="13" lengthAdjust="spacing" textLength="74.769" x="402.989" y="249.0181">HTTP + SSE</text><text fill="#000000" font-family="sans-serif" font-size="13" lengthAdjust="spacing" textLength="86.7471" x="397" y="266.7725">127.0.0.1:8000</text></g><!--link API to Workers--><g class="link" data-entity-1="ent0005" data-entity-2="ent0006" data-link-type="dependency" data-source-line="27" id="lnk17"><path d="M391.7,397.2401 C390.21,406.5201 388.73,417.2901 388,427.1201 C386.43,448.1801 388.043,467.1762 390.403,484.4462" fill="none" id="API-to-Workers" style="stroke:#181818;stroke-width:1;"/><polygon fill="#181818" points="391.08,489.4001,393.8246,479.9414,390.403,484.4462,385.8983,481.0246,391.08,489.4001" style="stroke:#181818;stroke-width:1;stroke-linejoin:miter;stroke-miterlimit:10;"/><text fill="#000000" font-family="sans-serif" font-size="13" lengthAdjust="spacing" textLength="93.2407" x="389" y="443.0181">enqueue/control</text></g><!--link API to SQLite--><g class="link" data-entity-1="ent0005" data-entity-2="ent0008" data-link-type="dependency" data-source-line="28" id="lnk18"><path d="M315.78,388.4401 C266.3,402.1701 206.63,428.0601 176,476.1201 C157.85,504.6001 167.81,519.3501 176,552.1201 C179.66,566.7801 187.8,567.6001 192,582.1201 C196.54,597.7901 198.058,610.8324 198.518,625.9524" fill="none" id="API-to-SQLite" style="stroke:#181818;stroke-width:1;"/><polygon fill="#181818" points="198.67,630.9501,202.3945,621.8326,198.518,625.9524,194.3982,622.0759,198.67,630.9501" style="stroke:#181818;stroke-width:1;stroke-linejoin:miter;stroke-miterlimit:10;"/><text fill="#000000" font-family="sans-serif" font-size="13" lengthAdjust="spacing" textLength="114.1753" x="177" y="520.5181">jobs/settings/events</text></g><!--link Workers to SQLite--><g class="link" data-entity-1="ent0006" data-entity-2="ent0008" data-link-type="dependency" data-source-line="29" id="lnk19"><path d="M355.56,538.6201 C335.72,550.9101 311.58,566.6101 291,582.1201 C270.94,597.2401 253.4962,612.2039 236.4462,627.6439" fill="none" id="Workers-to-SQLite" style="stroke:#181818;stroke-width:1;"/><polygon fill="#181818" points="232.74,631.0001,242.0961,627.9239,236.4462,627.6439,236.7262,621.994,232.74,631.0001" style="stroke:#181818;stroke-width:1;stroke-linejoin:miter;stroke-miterlimit:10;"/><text fill="#000000" font-family="sans-serif" font-size="13" lengthAdjust="spacing" textLength="88.8735" x="292" y="598.0181">progress/status</text></g><!--link Workers to YTDLP--><g class="link" data-entity-1="ent0006" data-entity-2="ent0007" data-link-type="dependency" data-source-line="30" id="lnk20"><path d="M393.1,538.6501 C390.86,566.2901 387.5832,606.9164 385.3332,634.7264" fill="none" id="Workers-to-YTDLP" style="stroke:#181818;stroke-width:1;"/><polygon fill="#181818" points="384.93,639.7101,389.6428,631.062,385.3332,634.7264,381.6688,630.4169,384.93,639.7101" style="stroke:#181818;stroke-width:1;stroke-linejoin:miter;stroke-miterlimit:10;"/><text fill="#000000" font-family="sans-serif" font-size="13" lengthAdjust="spacing" textLength="113.4707" x="391" y="598.0181">metadata/download</text></g><!--link YTDLP to YouTube--><g class="link" data-entity-1="ent0007" data-entity-2="ent0015" data-link-type="dependency" data-source-line="31" id="lnk21"><path d="M457.22,664.9801 C607.72,664.9201 942.77,671.3801 1040,728.1201 C1064.06,742.1601 1078.6527,765.6199 1088.2227,785.8599" fill="none" id="YTDLP-to-YouTube" style="stroke:#181818;stroke-width:1;"/><polygon fill="#181818" points="1090.36,790.3801,1090.1291,780.534,1088.2227,785.8599,1082.8968,783.9536,1090.36,790.3801" style="stroke:#181818;stroke-width:1;stroke-linejoin:miter;stroke-miterlimit:10;"/><text fill="#000000" font-family="sans-serif" font-size="13" lengthAdjust="spacing" textLength="139.4453" x="1062" y="744.0181">HTTPS metadata/media</text></g><!--link YTDLP to Downloads--><g class="link" data-entity-1="ent0007" data-entity-2="ent0009" data-link-type="dependency" data-source-line="32" id="lnk22"><path d="M350.71,689.3201 C337.21,698.1301 320.96,707.3701 305,713.1201 C261.48,728.8001 244.15,709.0501 202,728.1201 C176.82,739.5101 156.6475,776.6374 138.4975,794.2574" fill="none" id="YTDLP-to-Downloads" style="stroke:#181818;stroke-width:1;"/><polygon fill="#181818" points="134.91,797.7401,144.1538,794.3412,138.4975,794.2574,138.5813,788.6011,134.91,797.7401" style="stroke:#181818;stroke-width:1;stroke-linejoin:miter;stroke-miterlimit:10;"/><text fill="#000000" font-family="sans-serif" font-size="13" lengthAdjust="spacing" textLength="127.8989" x="203" y="744.0181">video/subtitles/sidecar</text></g><!--link YTDLP to FFMPEG--><g class="link" data-entity-1="ent0007" data-entity-2="ent0012" data-link-type="dependency" data-source-line="33" id="lnk23"><path d="M368.2,689.1601 C361.29,700.6701 353.23,714.8601 347,728.1201 C337.38,748.5901 330.1806,768.0732 324.2606,785.5932" fill="none" id="YTDLP-to-FFMPEG" style="stroke:#181818;stroke-width:1;"/><polygon fill="#181818" points="322.66,790.3301,329.3306,783.0842,324.2606,785.5932,321.7516,780.5232,322.66,790.3301" style="stroke:#181818;stroke-width:1;stroke-linejoin:miter;stroke-miterlimit:10;"/><text fill="#000000" font-family="sans-serif" font-size="13" lengthAdjust="spacing" textLength="86.6899" x="348" y="744.0181">merge streams</text></g><!--link YTDLP to Aria2--><g class="link" data-entity-1="ent0007" data-entity-2="ent0013" data-link-type="dependency" data-source-line="34" id="lnk24"><path d="M404.39,689.2601 C414.87,700.9101 427.66,715.2001 439,728.1201 C457.32,748.9901 474.6618,769.1589 489.4618,786.4789" fill="none" id="YTDLP-to-Aria2" style="stroke:#181818;stroke-width:1;stroke-dasharray:7,7;"/><polygon fill="#181818" points="492.71,790.2801,489.9043,780.8394,489.4618,786.4789,483.8223,786.0364,492.71,790.2801" style="stroke:#181818;stroke-width:1;stroke-linejoin:miter;stroke-miterlimit:10;"/><text fill="#000000" font-family="sans-serif" font-size="13" lengthAdjust="spacing" textLength="93.228" x="457" y="744.0181">optional fallback</text></g><!--link API to Browsers--><g class="link" data-entity-1="ent0005" data-entity-2="ent0011" data-link-type="dependency" data-source-line="35" id="lnk25"><path d="M476.15,385.8301 C521.24,394.2801 577.97,407.5701 626,427.1201 C659.77,440.8601 690.6795,459.257 717.5195,477.147" fill="none" id="API-to-Browsers" style="stroke:#181818;stroke-width:1;"/><polygon fill="#181818" points="721.68,479.9201,716.4096,471.6001,717.5195,477.147,711.9726,478.2569,721.68,479.9201" style="stroke:#181818;stroke-width:1;stroke-linejoin:miter;stroke-miterlimit:10;"/><text fill="#000000" font-family="sans-serif" font-size="13" lengthAdjust="spacing" textLength="83.8081" x="663" y="443.0181">import cookies</text></g><!--link API to CookiesFile--><g class="link" data-entity-1="ent0005" data-entity-2="ent0010" data-link-type="dependency" data-source-line="36" id="lnk26"><path d="M443.35,397.2501 C459.04,405.8601 476.25,416.1901 491,427.1201 C510.45,441.5301 526.5667,456.2524 542.5367,472.2424" fill="none" id="API-to-CookiesFile" style="stroke:#181818;stroke-width:1;"/><polygon fill="#181818" points="546.07,475.7801,542.5402,466.5855,542.5367,472.2424,536.8798,472.2388,546.07,475.7801" style="stroke:#181818;stroke-width:1;stroke-linejoin:miter;stroke-miterlimit:10;"/><text fill="#000000" font-family="sans-serif" font-size="13" lengthAdjust="spacing" textLength="104.7681" x="513" y="443.0181">read/write cookies</text></g><!--link API to Downloads--><g class="link" data-entity-1="ent0005" data-entity-2="ent0009" data-link-type="dependency" data-source-line="37" id="lnk27"><path d="M315.66,384.2101 C277.58,391.8901 232.73,404.9801 197,427.1201 C118.85,475.5501 92.55,496.1301 60,582.1201 C35.09,647.9101 60.158,725.4484 80.608,772.2484" fill="none" id="API-to-Downloads" style="stroke:#181818;stroke-width:1;"/><polygon fill="#181818" points="82.61,776.8301,82.6717,766.9815,80.608,772.2484,75.341,770.1847,82.61,776.8301" style="stroke:#181818;stroke-width:1;stroke-linejoin:miter;stroke-miterlimit:10;"/><text fill="#000000" font-family="sans-serif" font-size="13" lengthAdjust="spacing" textLength="122.8652" x="61" y="598.0181">delete known outputs</text></g><!--link API to Opener--><g class="link" data-entity-1="ent0005" data-entity-2="ent0014" data-link-type="dependency" data-source-line="38" id="lnk28"><path d="M476.33,379.8301 C549.88,386.8701 661.23,400.9401 755,427.1201 C809.3,442.2801 820.15,453.9801 872,476.1201 C877.77,478.5901 879.1694,479.1785 885.1694,481.7685" fill="none" id="API-to-Opener" style="stroke:#181818;stroke-width:1;"/><polygon fill="#181818" points="889.76,483.7501,883.0823,476.5108,885.1694,481.7685,879.9117,483.8557,889.76,483.7501" style="stroke:#181818;stroke-width:1;stroke-linejoin:miter;stroke-miterlimit:10;"/><text fill="#000000" font-family="sans-serif" font-size="13" lengthAdjust="spacing" textLength="92.5107" x="807" y="443.0181">play/open folder</text></g><?plantuml-src NPHHRzem4CVVyobEl5OGsatQr8TAMrisfbPZ0pPLuiL9Bk3X-5BRWQ9fttrdEqb3XH2sxtS-d_z_uwHJ2EylBc6nErcP2mM_91uJkvUw5aPKO7UYeAFKMoY5ifWacWg4qTgYWIEPlNN2IT8Z41P-lyxXRm8GqS-6Zfwk3ULeRI2xDKy12EDaAN87ev_eVzRpZURe0Gie3LLm_N4wdOQyzPmJ_YNztekJst6nTkkDRWuo9wD1rFMa4b9Vyo0ajc2ibrDLaqRD1MV2ka-BEVZl1IoNzu7csLlm6sMFGejjspOQsxVCuxVqoOqBLNTLURi0Fwtk7XPT0uLm8XEMcrZ-U90EDpeifVxezbdnohkG5AESK98gkFheZevQaIYip-Z6QM3xq02_9TfBjDtsUPnEt8iBAMru9fMlCMXXhbbAfLY3B8h5MzmNMqnlTwm9fZDfiAINePpsV8Uoh6hSGWgoudkJD8uB8MCsUrpSVpddlzVUEMn1OQIuogCIVdYEBK_MOGLKeqR3Ptgf5HaqQQt42Kt8-XvY2TzphgWfOFH4pQh9CAeGnqcodiDuV1EaluQlgzKYEc2ZBwy-JARykGp6IppWmLPhXb4_DzWWNwPsXbHFHAqO-4EPJIqwnm_7fdZWWzkaopyZsRfRmzvD_SDfpg7W5sOgT2A8rycTn4XWOZTj1yjNji92YW7OUuFHWooGKjjaphz_hitpN9W17VK9jSqMmJg3eh8jC9dSH64uJfre_FUWCf7l-yleJC6GPF6CWzPxFJ7m7aDSeKYFnb_BMt1uzW8LChBNl0RKkBfnhs0Ktbyhco7r5cdVmNy0?></g></svg>