<svg xmlns="http://www.w3.org/2000/svg" xmlns:xlink="http://www.w3.org/1999/xlink" contentStyleType="text/css" data-diagram-type="SEQUENCE" height="1092px" preserveAspectRatio="none" style="width:1182px;height:1092px;background:#FFFFFF;" version="1.1" viewBox="0 0 1182 1092" width="1182px" zoomAndPan="magnify"><?plantuml $version$?><defs/><g><g class="title" data-source-line="1"><text fill="#000000" font-family="sans-serif" font-size="14" font-weight="700" lengthAdjust="spacing" textLength="189.8271" x="492.8118" y="31.0439">Playlist Download Sequence</text></g><rect fill="none" height="51.5317" style="stroke:#000000;stroke-width:1.5;" width="538.1465" x="412.7368" y="458.7842"/><rect fill="none" height="146.7949" style="stroke:#000000;stroke-width:1.5;" width="395.5874" x="660.2129" y="556.0703"/><rect fill="none" height="178.5493" style="stroke:#000000;stroke-width:1.5;" width="940.8833" x="10" y="812.1284"/><g class="participant-lifeline" data-entity-uid="part1" data-qualified-name="User" data-source-line="4" id="part1-lifeline"><g><title>User</title><rect fill="#000000" fill-opacity="0.00000" height="883.4375" width="8" x="33.7793" y="124.2402"/><line style="stroke:#181818;stroke-width:0.5;stroke-dasharray:5,5;" x1="37" x2="37" y1="124.2402" y2="1007.6777"/></g></g><g class="participant-lifeline" data-entity-uid="part2" data-qualified-name="UI" data-source-line="5" id="part2-lifeline"><g><title>React UI</title><rect fill="#000000" fill-opacity="0.00000" height="883.4375" width="8" x="220.3745" y="124.2402"/><line style="stroke:#181818;stroke-width:0.5;stroke-dasharray:5,5;" x1="224.1436" x2="224.1436" y1="124.2402" y2="1007.6777"/></g></g><g class="participant-lifeline" data-entity-uid="part3" data-qualified-name="API" data-source-line="6" id="part3-lifeline"><g><title>FastAPI routes</title><rect fill="#000000" fill-opacity="0.00000" height="883.4375" width="8" x="472.0332" y="124.2402"/><line style="stroke:#181818;stroke-width:0.5;stroke-dasharray:5,5;" x1="475.7368" x2="475.7368" y1="124.2402" y2="1007.6777"/></g></g><g class="participant-lifeline" data-entity-uid="part4" data-qualified-name="Manager" data-source-line="7" id="part4-lifeline"><g><title>JobManager</title><rect fill="#000000" fill-opacity="0.00000" height="883.4375" width="8" x="712.1265" y="124.2402"/><line style="stroke:#181818;stroke-width:0.5;stroke-dasharray:5,5;" x1="715.2129" x2="715.2129" y1="124.2402" y2="1007.6777"/></g></g><g class="participant-lifeline" data-entity-uid="part5" data-qualified-name="DB" data-source-line="8" id="part5-lifeline"><g><title>SQLite</title><rect fill="#000000" fill-opacity="0.00000" height="883.4375" width="8" x="912.4834" y="124.2402"/><line style="stroke:#181818;stroke-width:0.5;stroke-dasharray:5,5;" x1="916.0835" x2="916.0835" y1="124.2402" y2="1007.6777"/></g></g><g class="participant-lifeline" data-entity-uid="part6" data-qualified-name="Service" data-source-line="9" id="part6-lifeline"><g><title>YtDlpService</title><rect fill="#000000" fill-opacity="0.00000" height="883.4375" width="8" x="994.3418" y="124.2402"/><line style="stroke:#181818;stroke-width:0.5;stroke-dasharray:5,5;" x1="997.8833" x2="997.8833" y1="124.2402" y2="1007.6777"/></g></g><g class="participant-lifeline" data-entity-uid="part7" data-qualified-name="YTDLP" data-source-line="10" id="part7-lifeline"><g><title>yt-dlp</title><rect fill="#000000" fill-opacity="0.00000" height="883.4375" width="8" x="1143.3335" y="124.2402"/><line style="stroke:#181818;stroke-width:0.5;stroke-dasharray:5,5;" x1="1147.2163" x2="1147.2163" y1="124.2402" y2="1007.6777"/></g></g><g class="participant participant-head" data-entity-uid="part1" data-qualified-name="User" data-source-line="4" id="part1-head"><text fill="#000000" font-family="sans-serif" font-size="14" lengthAdjust="spacing" textLength="29.5586" x="20" y="121.1641">User</text><ellipse cx="37.7793" cy="53.6201" fill="#E2E2F0" rx="8" ry="8" style="stroke:#181818;stroke-width:0.5;"/><path d="M37.7793,61.6201 L37.7793,88.6201 M24.7793,69.6201 L50.7793,69.6201 M37.7793,88.6201 L24.7793,103.6201 M37.7793,88.6201 L50.7793,103.6201" fill="none" style="stroke:#181818;stroke-width:0.5;"/></g><g class="participant participant-tail" data-entity-uid="part1" data-qualified-name="User" data-source-line="4" id="part1-tail"><text fill="#000000" font-family="sans-serif" font-size="14" lengthAdjust="spacing" textLength="29.5586" x="20" y="1022.7217">User</text><ellipse cx="37.7793" cy="1034.2979" fill="#E2E2F0" rx="8" ry="8" style="stroke:#181818;stroke-width:0.5;"/><path d="M37.7793,1042.2979 L37.7793,1069.2979 M24.7793,1050.2979 L50.7793,1050.2979 M37.7793,1069.2979 L24.7793,1084.2979 M37.7793,1069.2979 L50.7793,1084.2979" fill="none" style="stroke:#181818;stroke-width:0.5;"/></g><g class="participant participant-head" data-entity-uid="part2" data-qualified-name="UI" data-source-line="5" id="part2-head"><rect fill="#E2E2F0" height="33.1201" rx="2.5" ry="2.5" style="stroke:#181818;stroke-width:0.5;" width="68.4619" x="190.1436" y="90.1201"/><text fill="#000000" font-family="sans-serif" font-size="14" lengthAdjust="spacing" textLength="54.4619" x="197.1436" y="113.1641">React UI</text></g><g class="participant participant-tail" data-entity-uid="part2" data-qualified-name="UI" data-source-line="5" id="part2-tail"><rect fill="#E2E2F0" height="33.1201" rx="2.5" ry="2.5" style="stroke:#181818;stroke-width:0.5;" width="68.4619" x="190.1436" y="1006.6777"/><text fill="#000000" font-family="sans-serif" font-size="14" lengthAdjust="spacing" textLength="54.4619" x="197.1436" y="1029.7217">React UI</text></g><g class="participant participant-head" data-entity-uid="part3" data-qualified-name="API" data-source-line="6" id="part3-head"><rect fill="#E2E2F0" height="33.1201" rx="2.5" ry="2.5" style="stroke:#181818;stroke-width:0.5;" width="106.5928" x="422.7368" y="90.1201"/><text fill="#000000" font-family="sans-serif" font-size="14" lengthAdjust="spacing" textLength="92.5928" x="429.7368" y="113.1641">FastAPI routes</text></g><g class="participant participant-tail" data-entity-uid="part3" data-qualified-name="API" data-source-line="6" id="part3-tail"><rect fill="#E2E2F0" height="33.1201" rx="2.5" ry="2.5" style="stroke:#181818;stroke-width:0.5;" width="106.5928" x="422.7368" y="1006.6777"/><text fill="#000000" font-family="sans-serif" font-size="14" lengthAdjust="spacing" textLength="92.5928" x="429.7368" y="1029.7217">FastAPI routes</text></g><g class="participant participant-head" data-entity-uid="part4" data-qualified-name="Manager" data-source-line="7" id="part4-head"><rect fill="#E2E2F0" height="33.1201" rx="2.5" ry="2.5" style="stroke:#181818;stroke-width:0.5;" width="91.8271" x="670.2129" y="90.1201"/><text fill="#000000" font-family="sans-serif" font-size="14" lengthAdjust="spacing" textLength="77.8271" x="677.2129" y="113.1641">JobManager</text></g><g class="participant participant-tail" data-entity-uid="part4" data-qualified-name="Manager" data-source-line="7" id="part4-tail"><rect fill="#E2E2F0" height="33.1201" rx="2.5" ry="2.5" style="stroke:#181818;stroke-width:0.5;" width="91.8271" x="670.2129" y="1006.6777"/><text fill="#000000" font-family="sans-serif" font-size="14" lengthAdjust="spacing" textLength="77.8271" x="677.2129" y="1029.7217">JobManager</text></g><g class="participant participant-head" data-entity-uid="part5" data-qualified-name="DB" data-source-line="8" id="part5-head"><text fill="#000000" font-family="sans-serif" font-size="14" lengthAdjust="spacing" textLength="42.7998" x="892.0835" y="121.1641">SQLite</text><path d="M898.4834,69.1201 C898.4834,59.1201 916.4834,59.1201 916.4834,59.1201 C916.4834,59.1201 934.4834,59.1201 934.4834,69.1201 L934.4834,95.1201 C934.4834,105.1201 916.4834,105.1201 916.4834,105.1201 C916.4834,105.1201 898.4834,105.1201 898.4834,95.1201 L898.4834,69.1201" fill="#E2E2F0" style="stroke:#181818;stroke-width:0.5;"/><path d="M898.4834,69.1201 C898.4834,79.1201 916.4834,79.1201 916.4834,79.1201 C916.4834,79.1201 934.4834,79.1201 934.4834,69.1201" fill="none" style="stroke:#181818;stroke-width:0.5;"/></g><g class="participant participant-tail" data-entity-uid="part5" data-qualified-name="DB" data-source-line="8" id="part5-tail"><text fill="#000000" font-family="sans-serif" font-size="14" lengthAdjust="spacing" textLength="42.7998" x="892.0835" y="1022.7217">SQLite</text><path d="M898.4834,1035.7979 C898.4834,1025.7979 916.4834,1025.7979 916.4834,1025.7979 C916.4834,1025.7979 934.4834,1025.7979 934.4834,1035.7979 L934.4834,1061.7979 C934.4834,1071.7979 916.4834,1071.7979 916.4834,1071.7979 C916.4834,1071.7979 898.4834,1071.7979 898.4834,1061.7979 L898.4834,1035.7979" fill="#E2E2F0" style="stroke:#181818;stroke-width:0.5;"/><path d="M898.4834,1035.7979 C898.4834,1045.7979 916.4834,1045.7979 916.4834,1045.7979 C916.4834,1045.7979 934.4834,1045.7979 934.4834,1035.7979" fill="none" style="stroke:#181818;stroke-width:0.5;"/></g><g class="participant participant-head" data-entity-uid="part6" data-qualified-name="Service" data-source-line="9" id="part6-head"><rect fill="#E2E2F0" height="33.1201" rx="2.5" ry="2.5" style="stroke:#181818;stroke-width:0.5;" width="94.917" x="950.8833" y="90.1201"/><text fill="#000000" font-family="sans-serif" font-size="14" lengthAdjust="spacing" textLength="80.917" x="957.8833" y="113.1641">YtDlpService</text></g><g class="participant participant-tail" data-entity-uid="part6" data-qualified-name="Service" data-source-line="9" id="part6-tail"><rect fill="#E2E2F0" height="33.1201" rx="2.5" ry="2.5" style="stroke:#181818;stroke-width:0.5;" width="94.917" x="950.8833" y="1006.6777"/><text fill="#000000" font-family="sans-serif" font-size="14" lengthAdjust="spacing" textLength="80.917" x="957.8833" y="1029.7217">YtDlpService</text></g><g class="participant participant-head" data-entity-uid="part7" data-qualified-name="YTDLP" data-source-line="10" id="part7-head"><rect fill="#E2E2F0" height="33.1201" rx="2.5" ry="2.5" style="stroke:#181818;stroke-width:0.5;" width="48.2344" x="1123.2163" y="90.1201"/><text fill="#000000" font-family="sans-serif" font-size="14" lengthAdjust="spacing" textLength="34.2344" x="1130.2163" y="113.1641">yt-dlp</text></g><g class="participant participant-tail" data-entity-uid="part7" data-qualified-name="YTDLP" data-source-line="10" id="part7-tail"><rect fill="#E2E2F0" height="33.1201" rx="2.5" ry="2.5" style="stroke:#181818;stroke-width:0.5;" width="48.2344" x="1123.2163" y="1006.6777"/><text fill="#000000" font-family="sans-serif" font-size="14" lengthAdjust="spacing" textLength="34.2344" x="1130.2163" y="1029.7217">yt-dlp</text></g><g class="message" data-entity-1="part1" data-entity-2="part2" data-source-line="12" id="msg1"><polygon fill="#181818" points="212.3745,153.9946,222.3745,157.9946,212.3745,161.9946,216.3745,157.9946" style="stroke:#181818;stroke-width:1;stroke-linejoin:miter;stroke-miterlimit:10;"/><line style="stroke:#181818;stroke-width:1;" x1="37.7793" x2="218.3745" y1="157.9946" y2="157.9946"/><text fill="#000000" font-family="sans-serif" font-size="13" lengthAdjust="spacing" textLength="111.2554" x="44.7793" y="153.1382">submit playlist URL</text></g><g class="message" data-entity-1="part2" data-entity-2="part3" data-source-line="13" id="msg2"><polygon fill="#181818" points="464.0332,185.749,474.0332,189.749,464.0332,193.749,468.0332,189.749" style="stroke:#181818;stroke-width:1;stroke-linejoin:miter;stroke-miterlimit:10;"/><line style="stroke:#181818;stroke-width:1;" x1="224.3745" x2="470.0332" y1="189.749" y2="189.749"/><text fill="#000000" font-family="sans-serif" font-size="13" lengthAdjust="spacing" textLength="108.3862" x="231.3745" y="184.8926">POST /api/analyze</text></g><g class="message" data-entity-1="part3" data-entity-2="part6" data-source-line="14" id="msg3"><polygon fill="#181818" points="986.3418,217.5034,996.3418,221.5034,986.3418,225.5034,990.3418,221.5034" style="stroke:#181818;stroke-width:1;stroke-linejoin:miter;stroke-miterlimit:10;"/><line style="stroke:#181818;stroke-width:1;" x1="476.0332" x2="992.3418" y1="221.5034" y2="221.5034"/><text fill="#000000" font-family="sans-serif" font-size="13" lengthAdjust="spacing" textLength="237.3643" x="483.0332" y="216.647">extract_metadata(extract_flat=in_playlist)</text></g><g class="message" data-entity-1="part6" data-entity-2="part7" data-source-line="15" id="msg4"><polygon fill="#181818" points="1135.3335,249.2578,1145.3335,253.2578,1135.3335,257.2578,1139.3335,253.2578" style="stroke:#181818;stroke-width:1;stroke-linejoin:miter;stroke-miterlimit:10;"/><line style="stroke:#181818;stroke-width:1;" x1="998.3418" x2="1141.3335" y1="253.2578" y2="253.2578"/><text fill="#000000" font-family="sans-serif" font-size="13" lengthAdjust="spacing" textLength="124.9917" x="1005.3418" y="248.4014">extract playlist entries</text></g><g class="message" data-entity-1="part7" data-entity-2="part6" data-source-line="16" id="msg5"><polygon fill="#181818" points="1009.3418,281.0122,999.3418,285.0122,1009.3418,289.0122,1005.3418,285.0122" style="stroke:#181818;stroke-width:1;stroke-linejoin:miter;stroke-miterlimit:10;"/><line style="stroke:#181818;stroke-width:1;stroke-dasharray:2,2;" x1="1003.3418" x2="1146.3335" y1="285.0122" y2="285.0122"/><text fill="#000000" font-family="sans-serif" font-size="13" lengthAdjust="spacing" textLength="39.019" x="1015.3418" y="280.1558">entries</text></g><g class="message" data-entity-1="part6" data-entity-2="part3" data-source-line="17" id="msg6"><polygon fill="#181818" points="487.0332,312.7666,477.0332,316.7666,487.0332,320.7666,483.0332,316.7666" style="stroke:#181818;stroke-width:1;stroke-linejoin:miter;stroke-miterlimit:10;"/><line style="stroke:#181818;stroke-width:1;stroke-dasharray:2,2;" x1="481.0332" x2="997.3418" y1="316.7666" y2="316.7666"/><text fill="#000000" font-family="sans-serif" font-size="13" lengthAdjust="spacing" textLength="152.4644" x="493.0332" y="311.9102">AnalyzeResponse(entries)</text></g><g class="message" data-entity-1="part3" data-entity-2="part2" data-source-line="18" id="msg7"><polygon fill="#181818" points="235.3745,344.521,225.3745,348.521,235.3745,352.521,231.3745,348.521" style="stroke:#181818;stroke-width:1;stroke-linejoin:miter;stroke-miterlimit:10;"/><line style="stroke:#181818;stroke-width:1;stroke-dasharray:2,2;" x1="229.3745" x2="475.0332" y1="348.521" y2="348.521"/><text fill="#000000" font-family="sans-serif" font-size="13" lengthAdjust="spacing" textLength="71.5381" x="241.3745" y="343.6646">playlist table</text></g><g class="message" data-entity-1="part1" data-entity-2="part2" data-source-line="20" id="msg8"><polygon fill="#181818" points="212.3745,376.2754,222.3745,380.2754,212.3745,384.2754,216.3745,380.2754" style="stroke:#181818;stroke-width:1;stroke-linejoin:miter;stroke-miterlimit:10;"/><line style="stroke:#181818;stroke-width:1;" x1="37.7793" x2="218.3745" y1="380.2754" y2="380.2754"/><text fill="#000000" font-family="sans-serif" font-size="13" lengthAdjust="spacing" textLength="162.5952" x="44.7793" y="375.4189">select entries and create job</text></g><g class="message" data-entity-1="part2" data-entity-2="part3" data-source-line="21" id="msg9"><polygon fill="#181818" points="464.0332,408.0298,474.0332,412.0298,464.0332,416.0298,468.0332,412.0298" style="stroke:#181818;stroke-width:1;stroke-linejoin:miter;stroke-miterlimit:10;"/><line style="stroke:#181818;stroke-width:1;" x1="224.3745" x2="470.0332" y1="412.0298" y2="412.0298"/><text fill="#000000" font-family="sans-serif" font-size="13" lengthAdjust="spacing" textLength="219.6416" x="231.3745" y="407.1733">POST /api/jobs(options.playlist_items)</text></g><g class="message" data-entity-1="part3" data-entity-2="part5" data-source-line="22" id="msg10"><polygon fill="#181818" points="904.4834,439.7842,914.4834,443.7842,904.4834,447.7842,908.4834,443.7842" style="stroke:#181818;stroke-width:1;stroke-linejoin:miter;stroke-miterlimit:10;"/><line style="stroke:#181818;stroke-width:1;" x1="476.0332" x2="910.4834" y1="443.7842" y2="443.7842"/><text fill="#000000" font-family="sans-serif" font-size="13" lengthAdjust="spacing" textLength="81.6626" x="483.0332" y="438.9277">insert one Job</text></g><path d="M412.7368,458.7842 L485.1714,458.7842 L485.1714,468.5386 L475.1714,478.5386 L412.7368,478.5386 L412.7368,458.7842" fill="#EEEEEE" style="stroke:#000000;stroke-width:1.5;"/><rect fill="none" height="51.5317" style="stroke:#000000;stroke-width:1.5;" width="538.1465" x="412.7368" y="458.7842"/><text fill="#000000" font-family="sans-serif" font-size="13" font-weight="700" lengthAdjust="spacing" textLength="27.4346" x="427.7368" y="474.6821">loop</text><text fill="#000000" font-family="sans-serif" font-size="11" font-weight="700" lengthAdjust="spacing" textLength="90.4814" x="500.1714" y="473.3901">[selected entries]</text><g class="message" data-entity-1="part3" data-entity-2="part5" data-source-line="24" id="msg11"><polygon fill="#181818" points="904.4834,498.3159,914.4834,502.3159,904.4834,506.3159,908.4834,502.3159" style="stroke:#181818;stroke-width:1;stroke-linejoin:miter;stroke-miterlimit:10;"/><line style="stroke:#181818;stroke-width:1;" x1="476.0332" x2="910.4834" y1="502.3159" y2="502.3159"/><text fill="#000000" font-family="sans-serif" font-size="13" lengthAdjust="spacing" textLength="216.7534" x="483.0332" y="497.4595">insert JobItem(index, title, source_url)</text></g><g class="message" data-entity-1="part3" data-entity-2="part4" data-source-line="26" id="msg12"><polygon fill="#181818" points="704.1265,537.0703,714.1265,541.0703,704.1265,545.0703,708.1265,541.0703" style="stroke:#181818;stroke-width:1;stroke-linejoin:miter;stroke-miterlimit:10;"/><line style="stroke:#181818;stroke-width:1;" x1="476.0332" x2="710.1265" y1="541.0703" y2="541.0703"/><text fill="#000000" font-family="sans-serif" font-size="13" lengthAdjust="spacing" textLength="93.9644" x="483.0332" y="536.2139">enqueue(job_id)</text></g><path d="M660.2129,556.0703 L732.6475,556.0703 L732.6475,565.8247 L722.6475,575.8247 L660.2129,575.8247 L660.2129,556.0703" fill="#EEEEEE" style="stroke:#000000;stroke-width:1.5;"/><rect fill="none" height="146.7949" style="stroke:#000000;stroke-width:1.5;" width="395.5874" x="660.2129" y="556.0703"/><text fill="#000000" font-family="sans-serif" font-size="13" font-weight="700" lengthAdjust="spacing" textLength="27.4346" x="675.2129" y="571.9683">loop</text><text fill="#000000" font-family="sans-serif" font-size="11" font-weight="700" lengthAdjust="spacing" textLength="189.4761" x="747.6475" y="570.6763">[queued JobItems ordered by index]</text><g class="message" data-entity-1="part4" data-entity-2="part6" data-source-line="29" id="msg13"><polygon fill="#181818" points="986.3418,595.6021,996.3418,599.6021,986.3418,603.6021,990.3418,599.6021" style="stroke:#181818;stroke-width:1;stroke-linejoin:miter;stroke-miterlimit:10;"/><line style="stroke:#181818;stroke-width:1;" x1="716.1265" x2="992.3418" y1="599.6021" y2="599.6021"/><text fill="#000000" font-family="sans-serif" font-size="13" lengthAdjust="spacing" textLength="140.9116" x="723.1265" y="594.7456">prepare_download(item)</text></g><g class="message" data-entity-1="part4" data-entity-2="part6" data-source-line="30" id="msg14"><polygon fill="#181818" points="986.3418,627.3564,996.3418,631.3564,986.3418,635.3564,990.3418,631.3564" style="stroke:#181818;stroke-width:1;stroke-linejoin:miter;stroke-miterlimit:10;"/><line style="stroke:#181818;stroke-width:1;" x1="716.1265" x2="992.3418" y1="631.3564" y2="631.3564"/><text fill="#000000" font-family="sans-serif" font-size="13" lengthAdjust="spacing" textLength="88.8735" x="723.1265" y="626.5">download(item)</text></g><g class="message" data-entity-1="part6" data-entity-2="part4" data-source-line="31" id="msg15"><polygon fill="#181818" points="727.1265,659.1108,717.1265,663.1108,727.1265,667.1108,723.1265,663.1108" style="stroke:#181818;stroke-width:1;stroke-linejoin:miter;stroke-miterlimit:10;"/><line style="stroke:#181818;stroke-width:1;stroke-dasharray:2,2;" x1="721.1265" x2="997.3418" y1="663.1108" y2="663.1108"/><text fill="#000000" font-family="sans-serif" font-size="13" lengthAdjust="spacing" textLength="130.0571" x="733.1265" y="658.2544">progress/finished/error</text></g><g class="message" data-entity-1="part4" data-entity-2="part5" data-source-line="32" id="msg16"><polygon fill="#181818" points="904.4834,690.8652,914.4834,694.8652,904.4834,698.8652,908.4834,694.8652" style="stroke:#181818;stroke-width:1;stroke-linejoin:miter;stroke-miterlimit:10;"/><line style="stroke:#181818;stroke-width:1;" x1="716.1265" x2="910.4834" y1="694.8652" y2="694.8652"/><text fill="#000000" font-family="sans-serif" font-size="13" lengthAdjust="spacing" textLength="176.3569" x="723.1265" y="690.0088">update item and aggregate job</text></g><g class="message" data-entity-1="part4" data-entity-2="part5" data-source-line="35" id="msg17"><polygon fill="#181818" points="904.4834,729.6196,914.4834,733.6196,904.4834,737.6196,908.4834,733.6196" style="stroke:#181818;stroke-width:1;stroke-linejoin:miter;stroke-miterlimit:10;"/><line style="stroke:#181818;stroke-width:1;" x1="716.1265" x2="910.4834" y1="733.6196" y2="733.6196"/><text fill="#000000" font-family="sans-serif" font-size="13" lengthAdjust="spacing" textLength="51.3081" x="723.1265" y="728.7632">finish job</text></g><g class="message" data-entity-1="part2" data-entity-2="part3" data-source-line="36" id="msg18"><polygon fill="#181818" points="464.0332,761.374,474.0332,765.374,464.0332,769.374,468.0332,765.374" style="stroke:#181818;stroke-width:1;stroke-linejoin:miter;stroke-miterlimit:10;"/><line style="stroke:#181818;stroke-width:1;" x1="224.3745" x2="470.0332" y1="765.374" y2="765.374"/><text fill="#000000" font-family="sans-serif" font-size="13" lengthAdjust="spacing" textLength="78.7554" x="231.3745" y="760.5176">GET /api/jobs</text></g><g class="message" data-entity-1="part3" data-entity-2="part2" data-source-line="37" id="msg19"><polygon fill="#181818" points="235.3745,793.1284,225.3745,797.1284,235.3745,801.1284,231.3745,797.1284" style="stroke:#181818;stroke-width:1;stroke-linejoin:miter;stroke-miterlimit:10;"/><line style="stroke:#181818;stroke-width:1;stroke-dasharray:2,2;" x1="229.3745" x2="475.0332" y1="797.1284" y2="797.1284"/><text fill="#000000" font-family="sans-serif" font-size="13" lengthAdjust="spacing" textLength="227.6587" x="241.3745" y="792.272">aggregate status and expandable items</text></g><path d="M10,812.1284 L75.2109,812.1284 L75.2109,821.8828 L65.2109,831.8828 L10,831.8828 L10,812.1284" fill="#EEEEEE" style="stroke:#000000;stroke-width:1.5;"/><rect fill="none" height="178.5493" style="stroke:#000000;stroke-width:1.5;" width="940.8833" x="10" y="812.1284"/><text fill="#000000" font-family="sans-serif" font-size="13" font-weight="700" lengthAdjust="spacing" textLength="20.2109" x="25" y="828.0264">opt</text><text fill="#000000" font-family="sans-serif" font-size="11" font-weight="700" lengthAdjust="spacing" textLength="158.9521" x="90.2109" y="826.7344">[delete selected playlist items]</text><g class="message" data-entity-1="part1" data-entity-2="part2" data-source-line="40" id="msg20"><polygon fill="#181818" points="212.3745,851.6602,222.3745,855.6602,212.3745,859.6602,216.3745,855.6602" style="stroke:#181818;stroke-width:1;stroke-linejoin:miter;stroke-miterlimit:10;"/><line style="stroke:#181818;stroke-width:1;" x1="37.7793" x2="218.3745" y1="855.6602" y2="855.6602"/><text fill="#000000" font-family="sans-serif" font-size="13" lengthAdjust="spacing" textLength="157.5234" x="44.7793" y="850.8037">select item rows and delete</text></g><g class="message" data-entity-1="part2" data-entity-2="part3" data-source-line="41" id="msg21"><polygon fill="#181818" points="464.0332,883.4146,474.0332,887.4146,464.0332,891.4146,468.0332,887.4146" style="stroke:#181818;stroke-width:1;stroke-linejoin:miter;stroke-miterlimit:10;"/><line style="stroke:#181818;stroke-width:1;" x1="224.3745" x2="470.0332" y1="887.4146" y2="887.4146"/><text fill="#000000" font-family="sans-serif" font-size="13" lengthAdjust="spacing" textLength="208.1206" x="231.3745" y="882.5581">POST /api/jobs/{job_id}/items/delete</text></g><g class="message" data-entity-1="part3" data-entity-2="part5" data-source-line="42" id="msg22"><polygon fill="#181818" points="904.4834,915.1689,914.4834,919.1689,904.4834,923.1689,908.4834,919.1689" style="stroke:#181818;stroke-width:1;stroke-linejoin:miter;stroke-miterlimit:10;"/><line style="stroke:#181818;stroke-width:1;" x1="476.0332" x2="910.4834" y1="919.1689" y2="919.1689"/><text fill="#000000" font-family="sans-serif" font-size="13" lengthAdjust="spacing" textLength="168.3652" x="483.0332" y="914.3125">delete selected JobItem rows</text></g><g class="message" data-entity-1="part3" data-entity-2="part4" data-source-line="43" id="msg23"><polygon fill="#181818" points="704.1265,946.9233,714.1265,950.9233,704.1265,954.9233,708.1265,950.9233" style="stroke:#181818;stroke-width:1;stroke-linejoin:miter;stroke-miterlimit:10;"/><line style="stroke:#181818;stroke-width:1;" x1="476.0332" x2="710.1265" y1="950.9233" y2="950.9233"/><text fill="#000000" font-family="sans-serif" font-size="13" lengthAdjust="spacing" textLength="216.0933" x="483.0332" y="946.0669">cancel deleted running item if needed</text></g><g class="message" data-entity-1="part3" data-entity-2="part2" data-source-line="44" id="msg24"><polygon fill="#181818" points="235.3745,978.6777,225.3745,982.6777,235.3745,986.6777,231.3745,982.6777" style="stroke:#181818;stroke-width:1;stroke-linejoin:miter;stroke-miterlimit:10;"/><line style="stroke:#181818;stroke-width:1;stroke-dasharray:2,2;" x1="229.3745" x2="475.0332" y1="982.6777" y2="982.6777"/><text fill="#000000" font-family="sans-serif" font-size="13" lengthAdjust="spacing" textLength="188.6523" x="241.3745" y="977.8213">updated JobRead or job_deleted</text></g><?plantuml-src TLJ1Zjem4BtxAqQSG5gQ-qfTQIlQYegg59R3dY8J3wnROxksKw1L_xrZ9qu8kvm8dZTldkUz9CYW49QAdvNq0MRcg9NX0jRugqPT8VC_fRRSyGFu5oxCKUezxBZoo1YlWd6myUWO8OAifEKwm6Y5L87DV0JSqy-m-8dxyBYSWpDrG9yWz7U8-MAsNxdcUtIftZupmGFVSeymMdzVo82fEFimx7qECsNNw7xBgW6qpqFKEKo5igd-_3HRB1cBru3f0-c5U_3rzY03sBoMpMh1g43bAFqUbj_MJr1mAmkIfiv_aCLpAhV328Adu6WDvG43ZyB7-M2dU7WlTPd99omtKNyIqtVt2b079z6p1Z0TZcfh7K-dyx5Hjq9lZVOuRf6JHcw-RJU4rglmUXMeiEhc0zS2AeSy8FmmsnjBeOeV6nia3NsNsKjox917Fv1lr299b0jWD09vpfGnjXs8ehiMm1ij19yJtrXgWQSx2376T-1DxIeiQwSc3BN8ize0fLLHh6iSay9IYWbhHgOpaJaz62VGqS7s38cV96IAmUAjGqeLbg9zQyRnYfDRw5UeIxzwYTQPlKFlYvtKqh-WAD0vuuQiQHMr5T67I9TyuNjgt6ThultPTKl3-Sgwpnyld1k6eoVrWOUwIG2Uw3KICIrfkcUCt0P1paLSDh3BLOC1U2jOIRqpnuQueOZGcy4g_ZRc_IiIRT6rNARaMafhRHhKG_kbLvo-TQfj4-1ghUE7BecJEz280aLkp3Tezf_8wPCdA3PniMLB4Wtu3m00?></g></svg>