<svg xmlns="http://www.w3.org/2000/svg" xmlns:xlink="http://www.w3.org/1999/xlink" contentStyleType="text/css" data-diagram-type="SEQUENCE" height="1118px" preserveAspectRatio="none" style="width:921px;height:1118px;background:#FFFFFF;" version="1.1" viewBox="0 0 921 1118" width="921px" zoomAndPan="magnify"><?plantuml $version$?><defs/><g><g class="title" data-source-line="1"><text fill="#000000" font-family="sans-serif" font-size="14" font-weight="700" lengthAdjust="spacing" textLength="240.3652" x="337.0002" y="31.0439">Single Video Analyze and Download</text></g><g class="participant-lifeline" data-entity-uid="part1" data-qualified-name="User" data-source-line="4" id="part1-lifeline"><g><title>User</title><rect fill="#000000" fill-opacity="0.00000" height="909.123" width="8" x="18.7793" y="124.2402"/><line style="stroke:#181818;stroke-width:0.5;stroke-dasharray:5,5;" x1="22" x2="22" y1="124.2402" y2="1033.3633"/></g></g><g class="participant-lifeline" data-entity-uid="part2" data-qualified-name="UI" data-source-line="5" id="part2-lifeline"><g><title>React UI</title><rect fill="#000000" fill-opacity="0.00000" height="909.123" width="8" x="145.3765" y="124.2402"/><line style="stroke:#181818;stroke-width:0.5;stroke-dasharray:5,5;" x1="149.1455" x2="149.1455" y1="124.2402" y2="1033.3633"/></g></g><g class="participant-lifeline" data-entity-uid="part3" data-qualified-name="API" data-source-line="6" id="part3-lifeline"><g><title>FastAPI routes</title><rect fill="#000000" fill-opacity="0.00000" height="909.123" width="8" x="295.0854" y="124.2402"/><line style="stroke:#181818;stroke-width:0.5;stroke-dasharray:5,5;" x1="298.7891" x2="298.7891" y1="124.2402" y2="1033.3633"/></g></g><g class="participant-lifeline" data-entity-uid="part4" data-qualified-name="Manager" data-source-line="7" id="part4-lifeline"><g><title>JobManager</title><rect fill="#000000" fill-opacity="0.00000" height="909.123" width="8" x="413.0498" y="124.2402"/><line style="stroke:#181818;stroke-width:0.5;stroke-dasharray:5,5;" x1="416.1362" x2="416.1362" y1="124.2402" y2="1033.3633"/></g></g><g class="participant-lifeline" data-entity-uid="part5" data-qualified-name="Service" data-source-line="8" id="part5-lifeline"><g><title>YtDlpService</title><rect fill="#000000" fill-opacity="0.00000" height="909.123" width="8" x="553.4023" y="124.2402"/><line style="stroke:#181818;stroke-width:0.5;stroke-dasharray:5,5;" x1="556.9438" x2="556.9438" y1="124.2402" y2="1033.3633"/></g></g><g class="participant-lifeline" data-entity-uid="part6" data-qualified-name="DB" data-source-line="9" id="part6-lifeline"><g><title>SQLite</title><rect fill="#000000" fill-opacity="0.00000" height="909.123" width="8" x="635.2607" y="124.2402"/><line style="stroke:#181818;stroke-width:0.5;stroke-dasharray:5,5;" x1="638.8608" x2="638.8608" y1="124.2402" y2="1033.3633"/></g></g><g class="participant-lifeline" data-entity-uid="part7" data-qualified-name="YTDLP" data-source-line="10" id="part7-lifeline"><g><title>yt-dlp</title><rect fill="#000000" fill-opacity="0.00000" height="909.123" width="8" x="745.7803" y="124.2402"/><line style="stroke:#181818;stroke-width:0.5;stroke-dasharray:5,5;" x1="749.6631" x2="749.6631" y1="124.2402" y2="1033.3633"/></g></g><g class="participant-lifeline" data-entity-uid="part8" data-qualified-name="YouTube" data-source-line="11" id="part8-lifeline"><g><title>YouTube</title><rect fill="#000000" fill-opacity="0.00000" height="909.123" width="8" x="870.9556" y="124.2402"/><line style="stroke:#181818;stroke-width:0.5;stroke-dasharray:5,5;" x1="874.5454" x2="874.5454" y1="124.2402" y2="1033.3633"/></g></g><g class="participant participant-head" data-entity-uid="part1" data-qualified-name="User" data-source-line="4" id="part1-head"><text fill="#000000" font-family="sans-serif" font-size="14" lengthAdjust="spacing" textLength="29.5586" x="5" y="121.1641">User</text><ellipse cx="22.7793" cy="53.6201" fill="#E2E2F0" rx="8" ry="8" style="stroke:#181818;stroke-width:0.5;"/><path d="M22.7793,61.6201 L22.7793,88.6201 M9.7793,69.6201 L35.7793,69.6201 M22.7793,88.6201 L9.7793,103.6201 M22.7793,88.6201 L35.7793,103.6201" fill="none" style="stroke:#181818;stroke-width:0.5;"/></g><g class="participant participant-tail" data-entity-uid="part1" data-qualified-name="User" data-source-line="4" id="part1-tail"><text fill="#000000" font-family="sans-serif" font-size="14" lengthAdjust="spacing" textLength="29.5586" x="5" y="1048.4072">User</text><ellipse cx="22.7793" cy="1059.9834" fill="#E2E2F0" rx="8" ry="8" style="stroke:#181818;stroke-width:0.5;"/><path d="M22.7793,1067.9834 L22.7793,1094.9834 M9.7793,1075.9834 L35.7793,1075.9834 M22.7793,1094.9834 L9.7793,1109.9834 M22.7793,1094.9834 L35.7793,1109.9834" fill="none" style="stroke:#181818;stroke-width:0.5;"/></g><g class="participant participant-head" data-entity-uid="part2" data-qualified-name="UI" data-source-line="5" id="part2-head"><rect fill="#E2E2F0" height="33.1201" rx="2.5" ry="2.5" style="stroke:#181818;stroke-width:0.5;" width="68.4619" x="115.1455" y="90.1201"/><text fill="#000000" font-family="sans-serif" font-size="14" lengthAdjust="spacing" textLength="54.4619" x="122.1455" y="113.1641">React UI</text></g><g class="participant participant-tail" data-entity-uid="part2" data-qualified-name="UI" data-source-line="5" id="part2-tail"><rect fill="#E2E2F0" height="33.1201" rx="2.5" ry="2.5" style="stroke:#181818;stroke-width:0.5;" width="68.4619" x="115.1455" y="1032.3633"/><text fill="#000000" font-family="sans-serif" font-size="14" lengthAdjust="spacing" textLength="54.4619" x="122.1455" y="1055.4072">React UI</text></g><g class="participant participant-head" data-entity-uid="part3" data-qualified-name="API" data-source-line="6" id="part3-head"><rect fill="#E2E2F0" height="33.1201" rx="2.5" ry="2.5" style="stroke:#181818;stroke-width:0.5;" width="106.5928" x="245.7891" y="90.1201"/><text fill="#000000" font-family="sans-serif" font-size="14" lengthAdjust="spacing" textLength="92.5928" x="252.7891" y="113.1641">FastAPI routes</text></g><g class="participant participant-tail" data-entity-uid="part3" data-qualified-name="API" data-source-line="6" id="part3-tail"><rect fill="#E2E2F0" height="33.1201" rx="2.5" ry="2.5" style="stroke:#181818;stroke-width:0.5;" width="106.5928" x="245.7891" y="1032.3633"/><text fill="#000000" font-family="sans-serif" font-size="14" lengthAdjust="spacing" textLength="92.5928" x="252.7891" y="1055.4072">FastAPI routes</text></g><g class="participant participant-head" data-entity-uid="part4" data-qualified-name="Manager" data-source-line="7" id="part4-head"><rect fill="#E2E2F0" height="33.1201" rx="2.5" ry="2.5" style="stroke:#181818;stroke-width:0.5;" width="91.8271" x="371.1362" y="90.1201"/><text fill="#000000" font-family="sans-serif" font-size="14" lengthAdjust="spacing" textLength="77.8271" x="378.1362" y="113.1641">JobManager</text></g><g class="participant participant-tail" data-entity-uid="part4" data-qualified-name="Manager" data-source-line="7" id="part4-tail"><rect fill="#E2E2F0" height="33.1201" rx="2.5" ry="2.5" style="stroke:#181818;stroke-width:0.5;" width="91.8271" x="371.1362" y="1032.3633"/><text fill="#000000" font-family="sans-serif" font-size="14" lengthAdjust="spacing" textLength="77.8271" x="378.1362" y="1055.4072">JobManager</text></g><g class="participant participant-head" data-entity-uid="part5" data-qualified-name="Service" data-source-line="8" id="part5-head"><rect fill="#E2E2F0" height="33.1201" rx="2.5" ry="2.5" style="stroke:#181818;stroke-width:0.5;" width="94.917" x="509.9438" y="90.1201"/><text fill="#000000" font-family="sans-serif" font-size="14" lengthAdjust="spacing" textLength="80.917" x="516.9438" y="113.1641">YtDlpService</text></g><g class="participant participant-tail" data-entity-uid="part5" data-qualified-name="Service" data-source-line="8" id="part5-tail"><rect fill="#E2E2F0" height="33.1201" rx="2.5" ry="2.5" style="stroke:#181818;stroke-width:0.5;" width="94.917" x="509.9438" y="1032.3633"/><text fill="#000000" font-family="sans-serif" font-size="14" lengthAdjust="spacing" textLength="80.917" x="516.9438" y="1055.4072">YtDlpService</text></g><g class="participant participant-head" data-entity-uid="part6" data-qualified-name="DB" data-source-line="9" id="part6-head"><text fill="#000000" font-family="sans-serif" font-size="14" lengthAdjust="spacing" textLength="42.7998" x="614.8608" y="121.1641">SQLite</text><path d="M621.2607,69.1201 C621.2607,59.1201 639.2607,59.1201 639.2607,59.1201 C639.2607,59.1201 657.2607,59.1201 657.2607,69.1201 L657.2607,95.1201 C657.2607,105.1201 639.2607,105.1201 639.2607,105.1201 C639.2607,105.1201 621.2607,105.1201 621.2607,95.1201 L621.2607,69.1201" fill="#E2E2F0" style="stroke:#181818;stroke-width:0.5;"/><path d="M621.2607,69.1201 C621.2607,79.1201 639.2607,79.1201 639.2607,79.1201 C639.2607,79.1201 657.2607,79.1201 657.2607,69.1201" fill="none" style="stroke:#181818;stroke-width:0.5;"/></g><g class="participant participant-tail" data-entity-uid="part6" data-qualified-name="DB" data-source-line="9" id="part6-tail"><text fill="#000000" font-family="sans-serif" font-size="14" lengthAdjust="spacing" textLength="42.7998" x="614.8608" y="1048.4072">SQLite</text><path d="M621.2607,1061.4834 C621.2607,1051.4834 639.2607,1051.4834 639.2607,1051.4834 C639.2607,1051.4834 657.2607,1051.4834 657.2607,1061.4834 L657.2607,1087.4834 C657.2607,1097.4834 639.2607,1097.4834 639.2607,1097.4834 C639.2607,1097.4834 621.2607,1097.4834 621.2607,1087.4834 L621.2607,1061.4834" fill="#E2E2F0" style="stroke:#181818;stroke-width:0.5;"/><path d="M621.2607,1061.4834 C621.2607,1071.4834 639.2607,1071.4834 639.2607,1071.4834 C639.2607,1071.4834 657.2607,1071.4834 657.2607,1061.4834" fill="none" style="stroke:#181818;stroke-width:0.5;"/></g><g class="participant participant-head" data-entity-uid="part7" data-qualified-name="YTDLP" data-source-line="10" id="part7-head"><rect fill="#E2E2F0" height="33.1201" rx="2.5" ry="2.5" style="stroke:#181818;stroke-width:0.5;" width="48.2344" x="725.6631" y="90.1201"/><text fill="#000000" font-family="sans-serif" font-size="14" lengthAdjust="spacing" textLength="34.2344" x="732.6631" y="113.1641">yt-dlp</text></g><g class="participant participant-tail" data-entity-uid="part7" data-qualified-name="YTDLP" data-source-line="10" id="part7-tail"><rect fill="#E2E2F0" height="33.1201" rx="2.5" ry="2.5" style="stroke:#181818;stroke-width:0.5;" width="48.2344" x="725.6631" y="1032.3633"/><text fill="#000000" font-family="sans-serif" font-size="14" lengthAdjust="spacing" textLength="34.2344" x="732.6631" y="1055.4072">yt-dlp</text></g><g class="participant participant-head" data-entity-uid="part8" data-qualified-name="YouTube" data-source-line="11" id="part8-head"><rect fill="#E2E2F0" height="33.1201" rx="2.5" ry="2.5" style="stroke:#181818;stroke-width:0.5;" width="70.8203" x="839.5454" y="90.1201"/><text fill="#000000" font-family="sans-serif" font-size="14" lengthAdjust="spacing" textLength="56.8203" x="846.5454" y="113.1641">YouTube</text></g><g class="participant participant-tail" data-entity-uid="part8" data-qualified-name="YouTube" data-source-line="11" id="part8-tail"><rect fill="#E2E2F0" height="33.1201" rx="2.5" ry="2.5" style="stroke:#181818;stroke-width:0.5;" width="70.8203" x="839.5454" y="1032.3633"/><text fill="#000000" font-family="sans-serif" font-size="14" lengthAdjust="spacing" textLength="56.8203" x="846.5454" y="1055.4072">YouTube</text></g><g class="message" data-entity-1="part1" data-entity-2="part2" data-source-line="13" id="msg1"><polygon fill="#181818" points="137.3765,153.9946,147.3765,157.9946,137.3765,161.9946,141.3765,157.9946" style="stroke:#181818;stroke-width:1;stroke-linejoin:miter;stroke-miterlimit:10;"/><line style="stroke:#181818;stroke-width:1;" x1="22.7793" x2="143.3765" y1="157.9946" y2="157.9946"/><text fill="#000000" font-family="sans-serif" font-size="13" lengthAdjust="spacing" textLength="102.5972" x="29.7793" y="153.1382">submit video URL</text></g><g class="message" data-entity-1="part2" data-entity-2="part3" data-source-line="14" id="msg2"><polygon fill="#181818" points="287.0854,185.749,297.0854,189.749,287.0854,193.749,291.0854,189.749" style="stroke:#181818;stroke-width:1;stroke-linejoin:miter;stroke-miterlimit:10;"/><line style="stroke:#181818;stroke-width:1;" x1="149.3765" x2="293.0854" y1="189.749" y2="189.749"/><text fill="#000000" font-family="sans-serif" font-size="13" lengthAdjust="spacing" textLength="108.3862" x="156.3765" y="184.8926">POST /api/analyze</text></g><g class="message" data-entity-1="part3" data-entity-2="part5" data-source-line="15" id="msg3"><polygon fill="#181818" points="545.4023,217.5034,555.4023,221.5034,545.4023,225.5034,549.4023,221.5034" style="stroke:#181818;stroke-width:1;stroke-linejoin:miter;stroke-miterlimit:10;"/><line style="stroke:#181818;stroke-width:1;" x1="299.0854" x2="551.4023" y1="221.5034" y2="221.5034"/><text fill="#000000" font-family="sans-serif" font-size="13" lengthAdjust="spacing" textLength="174.8525" x="306.0854" y="216.647">extract_metadata(url, cookies)</text></g><g class="message" data-entity-1="part5" data-entity-2="part7" data-source-line="16" id="msg4"><polygon fill="#181818" points="737.7803,249.2578,747.7803,253.2578,737.7803,257.2578,741.7803,253.2578" style="stroke:#181818;stroke-width:1;stroke-linejoin:miter;stroke-miterlimit:10;"/><line style="stroke:#181818;stroke-width:1;" x1="557.4023" x2="743.7803" y1="253.2578" y2="253.2578"/><text fill="#000000" font-family="sans-serif" font-size="13" lengthAdjust="spacing" textLength="166.5688" x="564.4023" y="248.4014">extract_info(download=false)</text></g><g class="message" data-entity-1="part7" data-entity-2="part8" data-source-line="17" id="msg5"><polygon fill="#181818" points="862.9556,281.0122,872.9556,285.0122,862.9556,289.0122,866.9556,285.0122" style="stroke:#181818;stroke-width:1;stroke-linejoin:miter;stroke-miterlimit:10;"/><line style="stroke:#181818;stroke-width:1;" x1="749.7803" x2="868.9556" y1="285.0122" y2="285.0122"/><text fill="#000000" font-family="sans-serif" font-size="13" lengthAdjust="spacing" textLength="101.1753" x="756.7803" y="280.1558">metadata request</text></g><g class="message" data-entity-1="part8" data-entity-2="part7" data-source-line="18" id="msg6"><polygon fill="#181818" points="760.7803,312.7666,750.7803,316.7666,760.7803,320.7666,756.7803,316.7666" style="stroke:#181818;stroke-width:1;stroke-linejoin:miter;stroke-miterlimit:10;"/><line style="stroke:#181818;stroke-width:1;stroke-dasharray:2,2;" x1="754.7803" x2="873.9556" y1="316.7666" y2="316.7666"/><text fill="#000000" font-family="sans-serif" font-size="13" lengthAdjust="spacing" textLength="54.2026" x="766.7803" y="311.9102">metadata</text></g><g class="message" data-entity-1="part7" data-entity-2="part5" data-source-line="19" id="msg7"><polygon fill="#181818" points="568.4023,344.521,558.4023,348.521,568.4023,352.521,564.4023,348.521" style="stroke:#181818;stroke-width:1;stroke-linejoin:miter;stroke-miterlimit:10;"/><line style="stroke:#181818;stroke-width:1;stroke-dasharray:2,2;" x1="562.4023" x2="748.7803" y1="348.521" y2="348.521"/><text fill="#000000" font-family="sans-serif" font-size="13" lengthAdjust="spacing" textLength="48.4199" x="574.4023" y="343.6646">info_dict</text></g><g class="message" data-entity-1="part5" data-entity-2="part3" data-source-line="20" id="msg8"><polygon fill="#181818" points="310.0854,376.2754,300.0854,380.2754,310.0854,384.2754,306.0854,380.2754" style="stroke:#181818;stroke-width:1;stroke-linejoin:miter;stroke-miterlimit:10;"/><line style="stroke:#181818;stroke-width:1;stroke-dasharray:2,2;" x1="304.0854" x2="556.4023" y1="380.2754" y2="380.2754"/><text fill="#000000" font-family="sans-serif" font-size="13" lengthAdjust="spacing" textLength="104.7871" x="316.0854" y="375.4189">AnalyzeResponse</text></g><g class="message" data-entity-1="part3" data-entity-2="part2" data-source-line="21" id="msg9"><polygon fill="#181818" points="160.3765,408.0298,150.3765,412.0298,160.3765,416.0298,156.3765,412.0298" style="stroke:#181818;stroke-width:1;stroke-linejoin:miter;stroke-miterlimit:10;"/><line style="stroke:#181818;stroke-width:1;stroke-dasharray:2,2;" x1="154.3765" x2="298.0854" y1="412.0298" y2="412.0298"/><text fill="#000000" font-family="sans-serif" font-size="13" lengthAdjust="spacing" textLength="125.709" x="166.3765" y="407.1733">title, formats, subtitles</text></g><g class="message" data-entity-1="part1" data-entity-2="part2" data-source-line="23" id="msg10"><polygon fill="#181818" points="137.3765,439.7842,147.3765,443.7842,137.3765,447.7842,141.3765,443.7842" style="stroke:#181818;stroke-width:1;stroke-linejoin:miter;stroke-miterlimit:10;"/><line style="stroke:#181818;stroke-width:1;" x1="22.7793" x2="143.3765" y1="443.7842" y2="443.7842"/><text fill="#000000" font-family="sans-serif" font-size="13" lengthAdjust="spacing" textLength="57.0908" x="29.7793" y="438.9277">create job</text></g><g class="message" data-entity-1="part2" data-entity-2="part3" data-source-line="24" id="msg11"><polygon fill="#181818" points="287.0854,471.5386,297.0854,475.5386,287.0854,479.5386,291.0854,475.5386" style="stroke:#181818;stroke-width:1;stroke-linejoin:miter;stroke-miterlimit:10;"/><line style="stroke:#181818;stroke-width:1;" x1="149.3765" x2="293.0854" y1="475.5386" y2="475.5386"/><text fill="#000000" font-family="sans-serif" font-size="13" lengthAdjust="spacing" textLength="87.4263" x="156.3765" y="470.6821">POST /api/jobs</text></g><g class="message" data-entity-1="part3" data-entity-2="part6" data-source-line="25" id="msg12"><polygon fill="#181818" points="627.2607,503.293,637.2607,507.293,627.2607,511.293,631.2607,507.293" style="stroke:#181818;stroke-width:1;stroke-linejoin:miter;stroke-miterlimit:10;"/><line style="stroke:#181818;stroke-width:1;" x1="299.0854" x2="633.2607" y1="507.293" y2="507.293"/><text fill="#000000" font-family="sans-serif" font-size="13" lengthAdjust="spacing" textLength="117.4189" x="306.0854" y="502.4365">insert Job + JobItem</text></g><g class="message" data-entity-1="part3" data-entity-2="part4" data-source-line="26" id="msg13"><polygon fill="#181818" points="405.0498,535.0474,415.0498,539.0474,405.0498,543.0474,409.0498,539.0474" style="stroke:#181818;stroke-width:1;stroke-linejoin:miter;stroke-miterlimit:10;"/><line style="stroke:#181818;stroke-width:1;" x1="299.0854" x2="411.0498" y1="539.0474" y2="539.0474"/><text fill="#000000" font-family="sans-serif" font-size="13" lengthAdjust="spacing" textLength="93.9644" x="306.0854" y="534.1909">enqueue(job_id)</text></g><g class="message" data-entity-1="part4" data-entity-2="part6" data-source-line="27" id="msg14"><polygon fill="#181818" points="627.2607,566.8018,637.2607,570.8018,627.2607,574.8018,631.2607,570.8018" style="stroke:#181818;stroke-width:1;stroke-linejoin:miter;stroke-miterlimit:10;"/><line style="stroke:#181818;stroke-width:1;" x1="417.0498" x2="633.2607" y1="570.8018" y2="570.8018"/><text fill="#000000" font-family="sans-serif" font-size="13" lengthAdjust="spacing" textLength="75.8672" x="424.0498" y="565.9453">mark running</text></g><g class="message" data-entity-1="part4" data-entity-2="part5" data-source-line="28" id="msg15"><polygon fill="#181818" points="545.4023,598.5562,555.4023,602.5562,545.4023,606.5562,549.4023,602.5562" style="stroke:#181818;stroke-width:1;stroke-linejoin:miter;stroke-miterlimit:10;"/><line style="stroke:#181818;stroke-width:1;" x1="417.0498" x2="551.4023" y1="602.5562" y2="602.5562"/><text fill="#000000" font-family="sans-serif" font-size="13" lengthAdjust="spacing" textLength="116.3525" x="424.0498" y="597.6997">prepare_download()</text></g><g class="message" data-entity-1="part5" data-entity-2="part7" data-source-line="29" id="msg16"><polygon fill="#181818" points="737.7803,630.3105,747.7803,634.3105,737.7803,638.3105,741.7803,634.3105" style="stroke:#181818;stroke-width:1;stroke-linejoin:miter;stroke-miterlimit:10;"/><line style="stroke:#181818;stroke-width:1;" x1="557.4023" x2="743.7803" y1="634.3105" y2="634.3105"/><text fill="#000000" font-family="sans-serif" font-size="13" lengthAdjust="spacing" textLength="124.2935" x="564.4023" y="629.4541">select planned format</text></g><g class="message" data-entity-1="part5" data-entity-2="part4" data-source-line="30" id="msg17"><polygon fill="#181818" points="428.0498,662.0649,418.0498,666.0649,428.0498,670.0649,424.0498,666.0649" style="stroke:#181818;stroke-width:1;stroke-linejoin:miter;stroke-miterlimit:10;"/><line style="stroke:#181818;stroke-width:1;stroke-dasharray:2,2;" x1="422.0498" x2="556.4023" y1="666.0649" y2="666.0649"/><text fill="#000000" font-family="sans-serif" font-size="13" lengthAdjust="spacing" textLength="109.8335" x="434.0498" y="661.2085">width/height/format</text></g><g class="message" data-entity-1="part4" data-entity-2="part6" data-source-line="31" id="msg18"><polygon fill="#181818" points="627.2607,693.8193,637.2607,697.8193,627.2607,701.8193,631.2607,697.8193" style="stroke:#181818;stroke-width:1;stroke-linejoin:miter;stroke-miterlimit:10;"/><line style="stroke:#181818;stroke-width:1;" x1="417.0498" x2="633.2607" y1="697.8193" y2="697.8193"/><text fill="#000000" font-family="sans-serif" font-size="13" lengthAdjust="spacing" textLength="151.0425" x="424.0498" y="692.9629">store planned actual fields</text></g><g class="message" data-entity-1="part4" data-entity-2="part5" data-source-line="32" id="msg19"><polygon fill="#181818" points="545.4023,725.5737,555.4023,729.5737,545.4023,733.5737,549.4023,729.5737" style="stroke:#181818;stroke-width:1;stroke-linejoin:miter;stroke-miterlimit:10;"/><line style="stroke:#181818;stroke-width:1;" x1="417.0498" x2="551.4023" y1="729.5737" y2="729.5737"/><text fill="#000000" font-family="sans-serif" font-size="13" lengthAdjust="spacing" textLength="64.3145" x="424.0498" y="724.7173">download()</text></g><g class="message" data-entity-1="part5" data-entity-2="part7" data-source-line="33" id="msg20"><polygon fill="#181818" points="737.7803,757.3281,747.7803,761.3281,737.7803,765.3281,741.7803,761.3281" style="stroke:#181818;stroke-width:1;stroke-linejoin:miter;stroke-miterlimit:10;"/><line style="stroke:#181818;stroke-width:1;" x1="557.4023" x2="743.7803" y1="761.3281" y2="761.3281"/><text fill="#000000" font-family="sans-serif" font-size="13" lengthAdjust="spacing" textLength="168.3779" x="564.4023" y="756.4717">download with progress hook</text></g><g class="message" data-entity-1="part7" data-entity-2="part8" data-source-line="34" id="msg21"><polygon fill="#181818" points="862.9556,789.0825,872.9556,793.0825,862.9556,797.0825,866.9556,793.0825" style="stroke:#181818;stroke-width:1;stroke-linejoin:miter;stroke-miterlimit:10;"/><line style="stroke:#181818;stroke-width:1;" x1="749.7803" x2="868.9556" y1="793.0825" y2="793.0825"/><text fill="#000000" font-family="sans-serif" font-size="13" lengthAdjust="spacing" textLength="78.749" x="756.7803" y="788.2261">media stream</text></g><g class="message" data-entity-1="part7" data-entity-2="part4" data-source-line="35" id="msg22"><polygon fill="#181818" points="428.0498,820.8369,418.0498,824.8369,428.0498,828.8369,424.0498,824.8369" style="stroke:#181818;stroke-width:1;stroke-linejoin:miter;stroke-miterlimit:10;"/><line style="stroke:#181818;stroke-width:1;stroke-dasharray:2,2;" x1="422.0498" x2="748.7803" y1="824.8369" y2="824.8369"/><text fill="#000000" font-family="sans-serif" font-size="13" lengthAdjust="spacing" textLength="106.228" x="434.0498" y="819.9805">progress payloads</text></g><g class="message" data-entity-1="part4" data-entity-2="part6" data-source-line="36" id="msg23"><polygon fill="#181818" points="627.2607,852.5913,637.2607,856.5913,627.2607,860.5913,631.2607,856.5913" style="stroke:#181818;stroke-width:1;stroke-linejoin:miter;stroke-miterlimit:10;"/><line style="stroke:#181818;stroke-width:1;" x1="417.0498" x2="633.2607" y1="856.5913" y2="856.5913"/><text fill="#000000" font-family="sans-serif" font-size="13" lengthAdjust="spacing" textLength="93.9517" x="424.0498" y="851.7349">update progress</text></g><g class="message" data-entity-1="part2" data-entity-2="part3" data-source-line="37" id="msg24"><polygon fill="#181818" points="287.0854,884.3457,297.0854,888.3457,287.0854,892.3457,291.0854,888.3457" style="stroke:#181818;stroke-width:1;stroke-linejoin:miter;stroke-miterlimit:10;"/><line style="stroke:#181818;stroke-width:1;" x1="149.3765" x2="293.0854" y1="888.3457" y2="888.3457"/><text fill="#000000" font-family="sans-serif" font-size="13" lengthAdjust="spacing" textLength="78.7554" x="156.3765" y="883.4893">GET /api/jobs</text></g><g class="message" data-entity-1="part3" data-entity-2="part6" data-source-line="38" id="msg25"><polygon fill="#181818" points="627.2607,916.1001,637.2607,920.1001,627.2607,924.1001,631.2607,920.1001" style="stroke:#181818;stroke-width:1;stroke-linejoin:miter;stroke-miterlimit:10;"/><line style="stroke:#181818;stroke-width:1;" x1="299.0854" x2="633.2607" y1="920.1001" y2="920.1001"/><text fill="#000000" font-family="sans-serif" font-size="13" lengthAdjust="spacing" textLength="85.998" x="306.0854" y="915.2437">read projection</text></g><g class="message" data-entity-1="part3" data-entity-2="part2" data-source-line="39" id="msg26"><polygon fill="#181818" points="160.3765,947.8545,150.3765,951.8545,160.3765,955.8545,156.3765,951.8545" style="stroke:#181818;stroke-width:1;stroke-linejoin:miter;stroke-miterlimit:10;"/><line style="stroke:#181818;stroke-width:1;stroke-dasharray:2,2;" x1="154.3765" x2="298.0854" y1="951.8545" y2="951.8545"/><text fill="#000000" font-family="sans-serif" font-size="13" lengthAdjust="spacing" textLength="52.0381" x="166.3765" y="946.998">JobRead</text></g><g class="message" data-entity-1="part7" data-entity-2="part5" data-source-line="40" id="msg27"><polygon fill="#181818" points="568.4023,979.6089,558.4023,983.6089,568.4023,987.6089,564.4023,983.6089" style="stroke:#181818;stroke-width:1;stroke-linejoin:miter;stroke-miterlimit:10;"/><line style="stroke:#181818;stroke-width:1;stroke-dasharray:2,2;" x1="562.4023" x2="748.7803" y1="983.6089" y2="983.6089"/><text fill="#000000" font-family="sans-serif" font-size="13" lengthAdjust="spacing" textLength="59.979" x="574.4023" y="978.7524">completed</text></g><g class="message" data-entity-1="part4" data-entity-2="part6" data-source-line="41" id="msg28"><polygon fill="#181818" points="627.2607,1011.3633,637.2607,1015.3633,627.2607,1019.3633,631.2607,1015.3633" style="stroke:#181818;stroke-width:1;stroke-linejoin:miter;stroke-miterlimit:10;"/><line style="stroke:#181818;stroke-width:1;" x1="417.0498" x2="633.2607" y1="1015.3633" y2="1015.3633"/><text fill="#000000" font-family="sans-serif" font-size="13" lengthAdjust="spacing" textLength="95.3799" x="424.0498" y="1010.5068">mark succeeded</text></g><?plantuml-src VLHTZzem47pthrZn12g8zvDQwKvSAoggKZugtHDQuWLy97PgRuxINzzrY85GhYyaU6RNixC3R3Wdc1kxbSTFeyd1eyNy-8S0hOQHEzZSeLPXRso97Wi8EzJk80MmmJoGKfYnyx0Cv9Kms6IcHClGcP4Wi1nt08Cysk1d3Fmu7ODt5LEeAVArpVdgrj_GufPyZJVlRSuBZ_9oJlxDP5IpcdUbaN6DWQ0p_p4nV097J-tg8mzqNjRGos8qcTxqTjMYMfygctUbufmm-2G3mGE4QbqOXhVQj-LiekHKi3ZO0qo_pnSmnD8CyUIeYkS2DnA5Gh_PYqchWXYZu6xbypvapkqDXPvAHAcfvLrL6BjnNTrivsEzYPuwaIBxf5RugJDu-bLHO9MWmLNJH4eDMXhZJIjjChx8EO_OH6L6eNGsD0CcSpX6gmyRvmlaq8zcrKVXniJC4pB1grk_OvyW8NatUgebIJs3v0C-nCynKv48JKgYLLOchgWhvIkZUoeXgKk1VW--ibQoV0rUHYyzII1ebNpktbr9e9maw6MErf9kvcsPTT5qC9ftmnsPxOw73VDMLv2V4vtRoR8hp65ZADVXlip_oqketCqx6SbjFOK0EmdP_S1eWw91bb9SvU4omhb3YSVOD_mpG5NgkD14R6tro_DxIvKBTQnv5JEDi-qioPBbxqJV3MZcYZ8d9dr_mw7ACY9D-Yy0?></g></svg>