<svg xmlns="http://www.w3.org/2000/svg" xmlns:xlink="http://www.w3.org/1999/xlink" contentStyleType="text/css" data-diagram-type="DESCRIPTION" height="623px" preserveAspectRatio="none" style="width:779px;height:623px;background:#FFFFFF;" version="1.1" viewBox="0 0 779 623" width="779px" zoomAndPan="magnify"><?plantuml $version$?><defs/><g><g class="title" data-source-line="1"><text fill="#000000" font-family="sans-serif" font-size="14" font-weight="700" lengthAdjust="spacing" textLength="253.5859" x="259.2155" y="26.0439">YouTube Downloader System Context</text></g><!--cluster User machine--><g class="cluster" data-qualified-name="User machine" data-source-line="6" id="ent0002"><polygon fill="none" points="16,199.6201,26,189.6201,500,189.6201,500,588.6201,490,598.6201,16,598.6201,16,199.6201" style="stroke:#181818;stroke-width:1;stroke-linejoin:miter;stroke-miterlimit:10;"/><line style="stroke:#181818;stroke-width:1;" x1="490" x2="500" y1="199.6201" y2="189.6201"/><line style="stroke:#181818;stroke-width:1;" x1="16" x2="490" y1="199.6201" y2="199.6201"/><line style="stroke:#181818;stroke-width:1;" x1="490" x2="490" y1="199.6201" y2="598.6201"/><text fill="#000000" font-family="sans-serif" font-size="14" font-weight="700" lengthAdjust="spacing" textLength="91.8203" x="208.0898" y="218.6641">User machine</text></g><!--entity UI--><g class="entity" data-qualified-name="User machine.UI" data-source-line="7" id="ent0003"><rect fill="#F1F1F1" height="58.2402" rx="2.5" ry="2.5" style="stroke:#181818;stroke-width:0.5;" width="102.4756" x="174" y="232.6201"/><text fill="#000000" font-family="sans-serif" font-size="14" lengthAdjust="spacing" textLength="82.4756" x="184" y="258.6641">React/Vite UI</text><text fill="#000000" font-family="sans-serif" font-size="14" lengthAdjust="spacing" textLength="73.9238" x="184" y="277.7842">frontend/src</text></g><!--entity API--><g class="entity" data-qualified-name="User machine.API" data-source-line="8" id="ent0004"><rect fill="#F1F1F1" height="58.2402" rx="2.5" ry="2.5" style="stroke:#181818;stroke-width:0.5;" width="126.6133" x="161.5" y="369.6201"/><text fill="#000000" font-family="sans-serif" font-size="14" lengthAdjust="spacing" textLength="106.6133" x="171.5" y="395.6641">FastAPI backend</text><text fill="#000000" font-family="sans-serif" font-size="14" lengthAdjust="spacing" textLength="80.1787" x="171.5" y="414.7842">backend/app</text></g><!--entity DB--><g class="entity" data-qualified-name="User machine.DB" data-source-line="9" id="ent0005"><path d="M32.5,521.1201 C32.5,511.1201 93.8721,511.1201 93.8721,511.1201 C93.8721,511.1201 155.2441,511.1201 155.2441,521.1201 L155.2441,568.3604 C155.2441,578.3604 93.8721,578.3604 93.8721,578.3604 C93.8721,578.3604 32.5,578.3604 32.5,568.3604 L32.5,521.1201" fill="#F1F1F1" style="stroke:#181818;stroke-width:0.5;"/><path d="M32.5,521.1201 C32.5,531.1201 93.8721,531.1201 93.8721,531.1201 C93.8721,531.1201 155.2441,531.1201 155.2441,521.1201" fill="none" style="stroke:#181818;stroke-width:0.5;"/><text fill="#000000" font-family="sans-serif" font-size="14" lengthAdjust="spacing" textLength="42.7998" x="42.5" y="551.1641">SQLite</text><text fill="#000000" font-family="sans-serif" font-size="14" lengthAdjust="spacing" textLength="98.8545" x="46.3896" y="570.2842">data/app.sqlite3</text></g><!--entity Files--><g class="entity" data-qualified-name="User machine.Files" data-source-line="10" id="ent0006"><path d="M381,506.6201 L422,506.6201 A3.75,3.75 0 0 1 424.5,509.1201 L431.5,527.6201 L480.7168,527.6201 A2.5,2.5 0 0 1 483.2168,530.1201 L483.2168,580.3604 A2.5,2.5 0 0 1 480.7168,582.8604 L381,582.8604 A2.5,2.5 0 0 1 378.5,580.3604 L378.5,509.1201 A2.5,2.5 0 0 1 381,506.6201" fill="#F1F1F1" style="stroke:#181818;stroke-width:0.5;"/><line style="stroke:#181818;stroke-width:0.5;" x1="378.5" x2="431.5" y1="527.6201" y2="527.6201"/><text fill="#000000" font-family="sans-serif" font-size="14" lengthAdjust="spacing" textLength="69.2617" x="388.5" y="550.6641">Downloads</text><text fill="#000000" font-family="sans-serif" font-size="14" lengthAdjust="spacing" textLength="70.8271" x="392.3896" y="569.7842">downloads/</text></g><!--entity BrowserCookies--><g class="entity" data-qualified-name="User machine.BrowserCookies" data-source-line="11" id="ent0007"><rect fill="#F1F1F1" height="58.2402" rx="2.5" ry="2.5" style="stroke:#181818;stroke-width:0.5;" width="153.0547" x="190.5" y="515.6201"/><text fill="#000000" font-family="sans-serif" font-size="14" lengthAdjust="spacing" textLength="102.7031" x="200.5" y="541.6641">Browser cookies</text><text fill="#000000" font-family="sans-serif" font-size="14" lengthAdjust="spacing" textLength="133.0547" x="200.5" y="560.7842">Edge/Chrome/Firefox</text></g><!--entity FFMPEG--><g class="entity" data-qualified-name="User machine.FFMPEG" data-source-line="12" id="ent0008"><rect fill="#F1F1F1" height="39.1201" rx="2.5" ry="2.5" style="stroke:#181818;stroke-width:0.5;" width="170.958" x="312.5" y="242.1201"/><text fill="#000000" font-family="sans-serif" font-size="14" lengthAdjust="spacing" textLength="150.958" x="322.5" y="268.1641">ffmpeg / imageio-ffmpeg</text></g><!--entity User--><g class="entity" data-qualified-name="User" data-source-line="5" id="ent0001"><ellipse cx="224.7964" cy="54.1201" fill="#F1F1F1" rx="8" ry="8" style="stroke:#181818;stroke-width:0.5;"/><path d="M224.7964,62.1201 L224.7964,89.1201 M211.7964,70.1201 L237.7964,70.1201 M224.7964,89.1201 L211.7964,104.1201 M224.7964,89.1201 L237.7964,104.1201" fill="none" style="stroke:#181818;stroke-width:0.5;"/><text fill="#000000" font-family="sans-serif" font-size="14" lengthAdjust="spacing" textLength="64.5928" x="192.5" y="121.6641">Local user</text></g><!--entity YouTube--><g class="entity" data-qualified-name="YouTube" data-source-line="15" id="ent0009"><path d="M612.8208,520.1798 C614.9805,514.9657 620.1065,512.5455 624.2892,518.0066 C628.0478,511.9164 633.5528,511.9505 636.6591,518.6381 C639.9644,512.9823 644.4472,511.4023 649.0295,517.2668 C651.6912,510.8585 656.3764,510.8311 660.7725,515.4138 C663.2205,509.0143 668.5751,509.1924 672.4323,513.9398 C675.8806,509.2209 679.1452,507.8213 683.1292,513.3824 C687.0626,507.698 693.4411,508.2501 696.6991,514.1722 C700.3445,509.549 704.2937,509.856 707.289,514.8854 C711.4539,509.8833 715.5092,510.5859 718.8037,515.8606 C722.5265,510.0337 728.3659,510.2516 731.0088,516.9157 C735.3224,511.4377 740.4377,511.306 743.4857,518.1928 C747.802,513.6243 753.4291,513.3018 755.6713,520.3655 C761.4069,523.9309 761.2822,530.0564 755.6626,533.6142 C761.4783,536.7932 762.6553,542.327 757.1423,546.7793 C764.017,550.9516 763.182,556.2665 756.4525,559.7133 C761.8548,563.5822 761.2024,569.193 755.2978,571.9991 C752.1498,577.4481 748.46,578.6657 743.5919,573.9874 C740.2776,579.7597 735.5596,580.3931 732.0023,574.2233 C728.6637,580.7082 723.2782,581.7793 719.0136,575.1398 C717.3322,581.7951 711.4531,583.6079 706.7868,578.1535 C703.6608,583.0206 698.3958,582.788 695.3917,578.0096 C692.4409,583.7041 686.779,583.3996 683.2965,578.6238 C680.1799,583.8528 675.8234,583.6026 672.3365,579.0382 C668.5568,583.4936 662.969,582.7729 661.2512,576.8383 C657.6184,582.5033 652.0068,581.866 648.6867,576.4827 C644.1408,581.7536 639.0473,579.5638 636.8881,573.9061 C632.474,579.803 628.4615,579.5229 624.5682,573.3735 C620.0688,578.3555 616.6035,578.3402 613.6218,571.9169 C606.5148,570.9414 604.4507,565.6002 608.138,559.7568 C599.9175,556.6182 600.4721,550.7317 605.5816,545.2449 C600.5557,539.9454 603.1243,534.5477 609.3103,532.5384 C603.6602,526.6153 605.0637,522.2945 612.8208,520.1798" fill="#F1F1F1" style="stroke:#181818;stroke-width:0.5;"/><text fill="#000000" font-family="sans-serif" font-size="14" lengthAdjust="spacing" textLength="56.8203" x="619" y="541.6641">YouTube</text><text fill="#000000" font-family="sans-serif" font-size="14" lengthAdjust="spacing" textLength="127.6406" x="619" y="560.7842">metadata and media</text></g><!--entity YTDLP--><g class="entity" data-qualified-name="YTDLP" data-source-line="16" id="ent0010"><rect fill="#F1F1F1" height="58.2402" rx="2.5" ry="2.5" style="stroke:#181818;stroke-width:0.5;" width="90.041" x="516" y="369.6201"/><text fill="#000000" font-family="sans-serif" font-size="14" lengthAdjust="spacing" textLength="34.2344" x="526" y="395.6641">yt-dlp</text><text fill="#000000" font-family="sans-serif" font-size="14" lengthAdjust="spacing" textLength="70.041" x="526" y="414.7842">Python API</text></g><!--link User to UI--><g class="link" data-entity-1="ent0001" data-entity-2="ent0003" data-link-type="dependency" data-source-line="18" id="lnk11"><path d="M225,124.8501 C225,157.4801 225,198.3901 225,227.5701" fill="none" id="User-to-UI" style="stroke:#181818;stroke-width:1;"/><polygon fill="#181818" points="225,232.5701,229,223.5701,225,227.5701,221,223.5701,225,232.5701" style="stroke:#181818;stroke-width:1;stroke-linejoin:miter;stroke-miterlimit:10;"/><text fill="#000000" font-family="sans-serif" font-size="13" lengthAdjust="spacing" textLength="44.0908" x="226" y="170.5181">operate</text></g><!--link UI to API--><g class="link" data-entity-1="ent0003" data-entity-2="ent0004" data-link-type="dependency" data-source-line="19" id="lnk12"><path d="M225,290.9201 C225,313.9601 225,341.3301 225,364.3601" fill="none" id="UI-to-API" style="stroke:#181818;stroke-width:1;"/><polygon fill="#181818" points="225,369.3601,229,360.3601,225,364.3601,221,360.3601,225,369.3601" style="stroke:#181818;stroke-width:1;stroke-linejoin:miter;stroke-miterlimit:10;"/><text fill="#000000" font-family="sans-serif" font-size="13" lengthAdjust="spacing" textLength="74.769" x="226" y="336.5181">HTTP + SSE</text></g><!--link API to DB--><g class="link" data-entity-1="ent0004" data-entity-2="ent0005" data-link-type="dependency" data-source-line="20" id="lnk13"><path d="M161.24,411.7501 C135.51,420.1101 108.33,434.1501 93,457.6201 C82.88,473.1201 82.0518,488.8464 84.6518,506.0264" fill="none" id="API-to-DB" style="stroke:#181818;stroke-width:1;"/><polygon fill="#181818" points="85.4,510.9701,88.0083,501.4729,84.6518,506.0264,80.0983,502.67,85.4,510.9701" style="stroke:#181818;stroke-width:1;stroke-linejoin:miter;stroke-miterlimit:10;"/><text fill="#000000" font-family="sans-serif" font-size="13" lengthAdjust="spacing" textLength="114.1753" x="94" y="473.5181">jobs/settings/events</text></g><!--link API to YTDLP--><g class="link" data-entity-1="ent0004" data-entity-2="ent0010" data-link-type="dependency" data-source-line="21" id="lnk14"><path d="M288.59,398.6201 C354.99,398.6201 452.44,398.6201 510.94,398.6201" fill="none" id="API-to-YTDLP" style="stroke:#181818;stroke-width:1;"/><polygon fill="#181818" points="515.94,398.6201,506.94,394.6201,510.94,398.6201,506.94,402.6201,515.94,398.6201" style="stroke:#181818;stroke-width:1;stroke-linejoin:miter;stroke-miterlimit:10;"/><text fill="#000000" font-family="sans-serif" font-size="13" lengthAdjust="spacing" textLength="104.0762" x="350.25" y="392.5181">analyze/download</text></g><!--link API to BrowserCookies--><g class="link" data-entity-1="ent0004" data-entity-2="ent0007" data-link-type="dependency" data-source-line="22" id="lnk15"><path d="M218.93,427.6401 C216.85,442.5001 216.12,460.8901 221,476.6201 C225.31,490.5001 230.6037,500.0499 238.9737,511.2899" fill="none" id="API-to-BrowserCookies" style="stroke:#181818;stroke-width:1;"/><polygon fill="#181818" points="241.96,515.3001,239.7929,505.6926,238.9737,511.2899,233.3765,510.4707,241.96,515.3001" style="stroke:#181818;stroke-width:1;stroke-linejoin:miter;stroke-miterlimit:10;"/><text fill="#000000" font-family="sans-serif" font-size="13" lengthAdjust="spacing" textLength="83.8081" x="222" y="473.5181">import cookies</text></g><!--link YTDLP to YouTube--><g class="link" data-entity-1="ent0010" data-entity-2="ent0009" data-link-type="dependency" data-source-line="23" id="lnk16"><path d="M606.39,424.9201 C619.74,433.9501 633.55,445.0501 644,457.6201 C656.78,473.0001 664.4765,488.5814 670.8765,505.5614" fill="none" id="YTDLP-to-YouTube" style="stroke:#181818;stroke-width:1;"/><polygon fill="#181818" points="672.64,510.2401,673.2087,500.4077,670.8765,505.5614,665.7228,503.2292,672.64,510.2401" style="stroke:#181818;stroke-width:1;stroke-linejoin:miter;stroke-miterlimit:10;"/><text fill="#000000" font-family="sans-serif" font-size="13" lengthAdjust="spacing" textLength="98.2808" x="656" y="473.5181">extract/download</text></g><!--link YTDLP to FFMPEG--><g class="link" data-entity-1="ent0010" data-entity-2="ent0008" data-link-type="dependency" data-source-line="24" id="lnk17"><path d="M526.9,369.3801 C494.99,342.9501 452.0712,307.3989 424.5112,284.5789" fill="none" id="YTDLP-to-FFMPEG" style="stroke:#181818;stroke-width:1;"/><polygon fill="#181818" points="420.66,281.3901,425.0411,290.2109,424.5112,284.5789,430.1431,284.049,420.66,281.3901" style="stroke:#181818;stroke-width:1;stroke-linejoin:miter;stroke-miterlimit:10;"/><text fill="#000000" font-family="sans-serif" font-size="13" lengthAdjust="spacing" textLength="86.6899" x="490" y="336.5181">merge streams</text></g><!--link YTDLP to Files--><g class="link" data-entity-1="ent0010" data-entity-2="ent0006" data-link-type="dependency" data-source-line="25" id="lnk18"><path d="M535.63,427.7301 C515.31,450.2301 489.9805,499.2888 467.7905,523.8688" fill="none" id="YTDLP-to-Files" style="stroke:#181818;stroke-width:1;"/><polygon fill="#181818" points="464.44,527.5801,473.44,523.5801,467.7905,523.8688,467.5018,518.2193,464.44,527.5801" style="stroke:#181818;stroke-width:1;stroke-linejoin:miter;stroke-miterlimit:10;"/><text fill="#000000" font-family="sans-serif" font-size="13" lengthAdjust="spacing" textLength="117.7681" x="508" y="473.5181">write media/subtitles</text></g><!--link API to Files--><g class="link" data-entity-1="ent0004" data-entity-2="ent0006" data-link-type="dependency" data-source-line="26" id="lnk19"><path d="M266.61,427.7801 C280.45,437.2101 295.93,447.8201 310,457.6201 C332.84,473.5301 353.8681,488.4184 375.2681,503.6684" fill="none" id="API-to-Files" style="stroke:#181818;stroke-width:1;"/><polygon fill="#181818" points="379.34,506.5701,374.332,498.0896,375.2681,503.6684,369.6893,504.6046,379.34,506.5701" style="stroke:#181818;stroke-width:1;stroke-linejoin:miter;stroke-miterlimit:10;"/><text fill="#000000" font-family="sans-serif" font-size="13" lengthAdjust="spacing" textLength="133.707" x="337" y="473.5181">delete selected outputs</text></g><?plantuml-src LPDDpzCm3CVl-HHMhsZqm6q79FRsC6b8W-r1Gjh5QzmkB4rAuh9d8BuxJhhNKrFxvx_TVrmsR0b--7xRxmbc_kIiHqq1DkV8rCBKEwOtLl5eN8S1MwXystb7ZZTybj905QDhB3qWyO3Qdunhe4ORIIcis0SeLhv22tsaK016U9M3SbuJ5Ea8BLO7uwY0lmhkRQ3uHb9VVZTCyBhSkJgacPmkOwW6dUKply38dzPBs6Dr56xdBeSIkouNI58gD3BkCKhtpTULYEzS3YNgVVnb9V8XqxE9mBMtoPNYwb1CzFLSPcvXBCNdIIR1dzANLTuV3KdDN3TKJW_1jrGkJA3Ql-NQ2pWTk6UHkcuxQg04qs93ne-6mD1pyMKzVr7_bAgixpKKbvlSkPOOq-S0EWqjQOEvu99N3_fd7cdRxTpwp0VlaZa3kPsjrahbcncDFehBC0RVKK0c9IyfbbmUm-VjTWtlOBEPgnH8YTb4uZ_zFfQHc6KJOac_fLky4LbU87Hept-el9fv0vuj4TB8n86lNgf184jTjdSCigaXxSfDx0uDJWdJKcW88WV2zb4bNv_aJo4jMdQiZFsUqmzo7_jAQR8aM9H7nQJ1zzpr7Fy3?></g></svg>